<?xml version="1.0" encoding="UTF-8"?>
<svg version="1.1" viewBox="0 0 1600 1576" width="1280" height="1280" xmlns="http://www.w3.org/2000/svg">
<path transform="translate(1e3)" d="m0 0h18c0.049 1.3 0.098 2.6 0.148 3.95 0.0751 1.73 0.151 3.45 0.227 5.18 0.0464 1.28 0.0464 1.28 0.0938 2.59 0.0387 0.838 0.0773 1.68 0.117 2.54 0.0471 1.15 0.0471 1.15 0.0952 2.32 0.252 2.55 0.252 2.55 1.33 5.35 1.03 3.22 1.2 5.67 1.14 9.03-0.011 1.11-0.0219 2.23-0.0332 3.37-0.0213 1.15-0.0425 2.3-0.0645 3.48-0.808 12.4-0.808 12.4 1.94 24.2 1.34 11.6 1.29 23.4 1.48 35.1 0.142 8.44 0.473 16.5 2.06 24.8 1.01 6.88 0.906 13.9 1.02 20.8 0.044 2.33 0.0905 4.67 0.143 7 0.0319 1.44 0.0588 2.88 0.0802 4.32-0.207 3.28-0.207 3.28 1.21 5.99 1.39 8.95 1.05 18 0.873 27-0.0602 5.8 0.263 10.5 2.13 16 0.234 1.6 0.43 3.2 0.562 4.81 0.269 3.21 0.269 3.21 1.44 6.19 0.143 2.14 0.227 4.29 0.281 6.44 0.0374 1.31 0.0748 2.61 0.113 3.96 0.0356 1.39 0.0708 2.77 0.105 4.16 0.261 11.1 0.261 11.1 1.28 22.2 0.269 2.66 0.34 5.31 0.399 7.98 0.0238 1.01 0.0477 2.02 0.0723 3.06 0.0429 2.06 0.0742 4.13 0.0938 6.2 0.171 6.24 1.09 11.1 3.78 16.7 1.84 4.7 1.45 9.54-0.119 14.2-0.399 4.71-0.433 7.63 1.95 11.7 2.22 4.25 2.86 8.02 3.24 12.8 0.0748 0.771 0.15 1.54 0.227 2.34 0.617 6.62 0.974 13.3 1.24 19.9 0.135 3.13 0.135 3.13 1.31 5.17 1.13 2.29 1.5 4.16 1.85 6.68 0.186 1.32 0.186 1.32 0.375 2.66 0.122 0.925 0.245 1.85 0.371 2.8 0.131 0.947 0.262 1.89 0.396 2.87 0.746 5.51 1.36 11 1.77 16.5 0.258 2.43 0.716 4.71 1.26 7.09 1.38 6.71 1.42 13.4 1.57 20.2 0.159 5.2 0.714 9.28 2.43 14.2 0.415 3.86 0.461 7.75 0.566 11.6 0.0445 1.16 0.0445 1.16 0.0898 2.35 0.0187 0.7 0.0374 1.4 0.0566 2.12 0.2 2.23 0.2 2.23 2.29 4.9 1.37 5.01 1.36 10.2 1.61 15.4 0.142 3.94 0.142 3.94 1.39 7.62 0.233 3.51 0.394 7.01 0.518 10.5 0.157 3.38 0.372 6.15 1.49 9.38 1.68 5.23 1.43 10.6 1.56 16.1 0.0445 1.3 0.0445 1.3 0.0898 2.63 0.0187 0.789 0.0374 1.58 0.0566 2.39 0.121 2.2 0.121 2.2 2.29 3.97 0.271 2 0.271 2 0.309 4.43 0.0251 0.878 0.0503 1.76 0.0762 2.66 0.035 1.85 0.0663 3.7 0.0938 5.55 0.0264 0.88 0.0529 1.76 0.0801 2.67 0.0135 0.804 0.0269 1.61 0.0408 2.44 0.489 2.76 1.72 4.05 3.4 6.26 0.417 2.12 0.417 2.12 0.477 4.37 0.0464 1.23 0.0464 1.23 0.0938 2.49 0.018 0.85 0.0361 1.7 0.0547 2.58 0.152 4.99 0.368 9.67 1.38 14.6 0.24 3.55 0.343 7.11 0.43 10.7 0.209 4.91 1.34 7.9 3.57 12.3 0.334 2.77 0.553 5.36 0.625 8.12 0.0877 4.96 0.0877 4.96 0.873 9.83 0.54 2.2 0.676 4.19 0.748 6.45 0.0329 0.826 0.0657 1.65 0.0996 2.5 0.0612 1.73 0.118 3.45 0.172 5.18 0.0342 0.826 0.0683 1.65 0.104 2.5 0.0251 0.75 0.0501 1.5 0.0759 2.27 0.339 2.39 1.21 4 2.3 6.13 0.244 2.45 0.402 4.91 0.5 7.38 0.187 5.29 0.187 5.29 1.5 10.4 1.52 4.94 1.44 9.87 1.57 15 0.0598 2.08 0.123 4.16 0.191 6.23 0.0239 0.915 0.0479 1.83 0.0725 2.77 0.0346 2.28 0.0346 2.28 1.17 4.24 0.138 1.35 0.225 2.71 0.281 4.06 0.0374 0.797 0.0748 1.59 0.113 2.41 0.0703 1.68 0.141 3.36 0.211 5.05 0.0374 0.797 0.0748 1.59 0.113 2.41 0.0303 0.731 0.0606 1.46 0.0918 2.21 0.089 1.94 0.089 1.94 1.19 3.85 0.233 3.57 0.395 7.13 0.518 10.7 0.182 3.98 0.448 6.8 2.48 10.3 1.81 6.98 2.28 13.8 2 21 0.99 0.33 1.98 0.66 3 1 0.0501 0.681 0.1 1.36 0.152 2.06 0.232 3.08 0.477 6.17 0.723 9.25 0.0786 1.07 0.157 2.14 0.238 3.25 0.126 1.54 0.126 1.54 0.254 3.12 0.11 1.42 0.11 1.42 0.222 2.87 0.28 2.7 0.28 2.7 2.41 5.45 0.142 2.77 0.188 5.43 0.125 8.19-0.0135 1.12-0.0135 1.12-0.0273 2.27-0.0235 1.85-0.0594 3.69-0.0977 5.54 0.99 0.33 1.98 0.66 3 1 0.194 1.48 0.38 2.96 0.562 4.44 0.104 0.824 0.209 1.65 0.316 2.5 0.04 0.682 0.0799 1.36 0.121 2.07-0.33 0.33-0.66 0.66-1 1-0.0723 1.85-0.0838 3.71-0.0625 5.56 0.0135 1.52 0.0135 1.52 0.0273 3.07 0.0116 0.782 0.0232 1.56 0.0352 2.37h2c0.33 1.65 0.66 3.3 1 5h2c0.103 0.887 0.206 1.77 0.312 2.69 0.71 3.42 1.79 5.42 3.69 8.31 0.66 1.32 1.32 2.64 2 4h11c0.0814-2.71 0.141-5.42 0.188-8.12 0.0251-0.761 0.0503-1.52 0.0762-2.3 0.0662-5.12-0.931-7.95-3.26-12.6-0.405-2.89-0.376-5.72-0.312-8.62-0.00483-1.13-0.00483-1.13-0.00977-2.27 0.0374-3.83 0.168-6.86 2.32-10.1h2v-2c15.5-0.33 31-0.66 47-1v-2c4.04-0.317 6.32-0.421 9.81 1.75 5.57 5.73 5.44 12.4 5.71 20 0.186 4.02 0.576 6.67 2.48 10.2 0.287 2.24 0.49 4.49 0.625 6.75 0.0748 1.17 0.15 2.34 0.227 3.55 0.049 0.892 0.098 1.78 0.148 2.7h10c0.206-0.763 0.412-1.53 0.625-2.31 1.38-2.69 1.38-2.69 4.31-3.69 3.31-1.7 3.31-1.7 4.02-4.97 0.483-2.32 0.921-4.66 1.31-7 0.762-3.13 1.33-4.05 3.74-6.03 1.64-3.1 2.11-5.81 2.38-9.25 0.307-3.46 1.05-5.91 2.62-9 2.35-4.82 2.47-9.31 2.73-14.6 0.375-4.37 1.67-8.08 3.27-12.1 2.28-5.99 3.22-10.6 3-17 0.33-0.99 0.66-1.98 1-3 0.138-1.88 0.225-3.77 0.281-5.66 0.0374-1.1 0.0748-2.21 0.113-3.35 0.0522-1.73 0.0522-1.73 0.105-3.5 0.0688-2.28 0.142-4.56 0.219-6.84 0.0303-1.01 0.0606-2.03 0.0918-3.07 0.189-2.59 0.189-2.59 1.19-5.59 0.266-2.77 0.444-5.53 0.621-8.31 0.379-2.69 0.379-2.69 1.38-4.46 1.32-2.95 1.29-5.38 1.34-8.61 0.0296-1.23 0.0593-2.46 0.0898-3.73 0.0219-1.28 0.0438-2.57 0.0664-3.89 0.0434-2.54 0.0951-5.08 0.156-7.62 0.028-1.69 0.028-1.69 0.0566-3.41 0.284-2.93 0.953-4.4 2.29-6.96 0.347-2.46 0.347-2.46 0.379-5.1 0.0512-1.45 0.0512-1.45 0.104-2.93 0.0264-1 0.0529-2 0.0801-3.04 0.0599-1.99 0.124-3.98 0.191-5.97 0.0239-0.881 0.0479-1.76 0.0725-2.67 0.174-2.3 0.174-2.3 1.17-5.3 0.122-1.36 0.2-2.72 0.246-4.09 0.0329-0.784 0.0657-1.57 0.0996-2.38 0.061-1.64 0.118-3.29 0.172-4.93 0.0342-0.786 0.0683-1.57 0.104-2.38 0.0251-0.714 0.0501-1.43 0.0759-2.16 0.303-2.06 0.303-2.06 1.28-4.02 1.19-2.39 1.44-4.31 1.69-6.96 0.0883-0.926 0.177-1.85 0.268-2.8 0.0831-0.959 0.166-1.92 0.252-2.91 0.142-1.45 0.142-1.45 0.287-2.93 0.696-4.87 0.696-4.87-0.475-9.45-0.291-3.03-0.278-6.08-0.312-9.12-0.029-0.83-0.058-1.66-0.0879-2.52-0.0437-4.29 0.132-7.31 2.38-11 3.38-5.99 2.67-13 2.71-19.7 0.0384-2.7 0.0874-5.41 0.137-8.11 0.0112-1.19 0.0224-2.38 0.0339-3.61 0.142-2.97 0.142-2.97 1.14-5.97h2c-0.0611-0.968-0.0611-0.968-0.124-1.96-0.179-2.93-0.34-5.86-0.501-8.79l-0.195-3.08c-0.0516-0.98-0.103-1.96-0.156-2.97l-0.159-2.73c0.146-2.66 0.778-4.2 2.14-6.47h2c-0.0309-1.64-0.0309-1.64-0.0625-3.31 0.0625-3.69 0.0625-3.69 1.06-6.69h2c-0.0611-0.832-0.0611-0.832-0.124-1.68-0.179-2.52-0.34-5.05-0.501-7.57l-0.195-2.64c-0.0516-0.844-0.103-1.69-0.156-2.56l-0.159-2.35c0.155-2.52 0.937-4 2.14-6.2 0.305-2.45 0.305-2.45 0.375-5 0.379-4.68 0.379-4.68 2.56-7.5 0.681-0.495 1.36-0.99 2.06-1.5 0.66-0.66 1.32-1.32 2-2-0.784-0.0825-1.57-0.165-2.38-0.25-2.62-0.75-2.62-0.75-3.73-2.36-1.17-3.14-1.52-6.06-1.83-9.39-0.133-1.22-0.266-2.43-0.402-3.69 0.34-3.31 0.34-3.31 2.84-5.75 0.826-0.516 1.65-1.03 2.5-1.56l3 2c0.66-0.33 1.32-0.66 2-1 0.66 0.33 1.32 0.66 2 1v-2c-2.31-0.33-4.62-0.66-7-1-0.33-2.31-0.66-4.62-1-7h-1c-0.054-2.1-0.0928-4.21-0.125-6.31l-0.0703-3.55c0.195-3.14 0.195-3.14 2.2-6.14 0.66-0.33 1.32-0.66 2-1-0.00524-0.686-0.0105-1.37-0.0159-2.08-0.0207-3.1-0.0338-6.2-0.0466-9.3-0.00838-1.08-0.0168-2.16-0.0254-3.27-0.00322-1.03-0.00645-2.06-0.00977-3.12-0.00524-0.953-0.0105-1.91-0.0159-2.89 0.114-2.34 0.114-2.34 1.11-4.34 0.279-1.62 0.501-3.24 0.688-4.88 0.107-0.864 0.214-1.73 0.324-2.62-0.0128-2.75-0.601-4.18-2.01-6.51 0.99-0.33 1.98-0.66 3-1 1.23-3.01 1.23-3.01 2-6-0.99-0.33-1.98-0.66-3-1-0.027-1.62-0.0464-3.25-0.0625-4.88-0.0116-0.905-0.0232-1.81-0.0352-2.74 0.0977-2.38 0.0977-2.38 1.1-4.38 0.198-1.81 0.345-3.63 0.465-5.45 0.078-1.09 0.156-2.19 0.236-3.32 0.156-2.3 0.31-4.61 0.461-6.91 0.0793-1.1 0.159-2.2 0.24-3.33 0.1-1.5 0.1-1.5 0.203-3.04 0.426-3.17 1.33-5.93 2.39-8.94 0.27-1.95 0.481-3.91 0.625-5.88 0.0748-0.967 0.15-1.93 0.227-2.93 0.049-0.724 0.098-1.45 0.148-2.2h-2c-0.0427-1.67-0.0406-3.33 0-5 0.33-0.33 0.66-0.66 1-1 0.146-1.99 0.227-3.98 0.281-5.97 0.0374-1.21 0.0748-2.42 0.113-3.67 0.0348-1.27 0.0696-2.55 0.105-3.86 0.0685-2.51 0.141-5.02 0.219-7.53 0.0303-1.12 0.0606-2.24 0.0918-3.39 0.189-2.58 0.189-2.58 1.19-3.58 0.16-2.21 0.277-4.42 0.375-6.62 0.343-5.51 0.98-9.55 3.62-14.4h2v-2h-2c-0.956-5.84-1.15-11.2 0-17 0.33-0.33 0.66-0.66 1-1 1.23-7.67 2.68-16.9-1-24h2c-0.0232-0.871-0.0464-1.74-0.0703-2.64-0.122-8.02 0.458-15.5 2.07-23.4h1c0.0815-2.06 0.139-4.12 0.188-6.19 0.0522-1.72 0.0522-1.72 0.105-3.48-0.321-3.65-1.42-5.27-3.29-8.33 0.287-1.34 0.628-2.68 1-4 0.12-1.57 0.2-3.13 0.246-4.7 0.0329-0.898 0.0657-1.8 0.0996-2.72 0.0607-1.87 0.118-3.73 0.172-5.6 0.53-14 0.53-14 3.48-17 0.136-3.07 0.211-6.11 0.246-9.18 0.0329-1.9 0.0662-3.79 0.0996-5.69 0.0474-3 0.0919-6.01 0.131-9.01 0.0397-2.89 0.0912-5.78 0.144-8.67 0.00841-0.9 0.0168-1.8 0.0255-2.73 0.0166-0.837 0.0333-1.67 0.0504-2.54 0.0103-0.736 0.0206-1.47 0.0312-2.23 0.272-1.95 0.272-1.95 2.27-4.95 0.275-1.98 0.275-1.98 0.195-4.16-0.00661-0.834-0.0132-1.67-0.02-2.53-0.0249-1.35-0.0249-1.35-0.0503-2.72-0.00757-0.923-0.0151-1.85-0.0229-2.8-0.0245-2.95-0.0617-5.9-0.102-8.85-0.053-3.89-0.0931-7.77-0.125-11.7-0.0249-1.35-0.0249-1.35-0.0503-2.72-0.00661-0.831-0.0132-1.66-0.02-2.52-0.0157-1.1-0.0157-1.1-0.0317-2.22 0.227-1.81 0.227-1.81 2.23-3.81 0.1-2.29-0.0679-4.52-0.223-6.81 0.223-2.19 0.223-2.19 1.7-3.54 1.98-2.16 1.94-3.42 2.03-6.32 0.0331-0.805 0.0662-1.61 0.1-2.44 0.0249-1.02 0.0498-2.03 0.0754-3.08 0.103-3.24 0.206-6.48 0.312-9.81h23c1 9 1 9 0 11-0.237 2.51-0.422 4.99-0.562 7.5-0.0446 0.723-0.0893 1.45-0.135 2.19-0.229 3.95-0.307 7.85-0.177 11.8 0.0529 3.2-0.316 5.34-1.62 8.25-2.03 4.72-1.6 9.26-1.47 14.3-0.0295 3.71-0.398 7.12-0.965 10.8-0.796 5.65-1.33 11.2-1.63 16.9-0.038 0.735-0.076 1.47-0.115 2.23-0.15 3.02-0.291 6.03-0.427 9.05-0.103 2.24-0.218 4.48-0.333 6.73-0.0606 1.31-0.121 2.63-0.184 3.98-0.379 3.22-0.379 3.22-2.38 6.22-0.286 2.77-0.466 5.47-0.562 8.25-0.0368 0.808-0.0736 1.62-0.112 2.45-0.117 2.58-0.223 5.16-0.326 7.74-0.136 3.4-0.283 6.79-0.438 10.2-0.0272 0.779-0.0543 1.56-0.0823 2.36-0.175 3.83-0.499 6.71-2.48 10-0.277 2.56-0.277 2.56-0.188 5.19 0.00967 1.32 0.00967 1.32 0.0195 2.67-0.0671 2.13-0.0671 2.13 1.17 3.14 0.326 4.64 0.326 7.26-1.56 11.6-2.23 5.19-1.18 10.5-0.566 15.9 0.129 3.49 0.129 3.49-0.805 5.79-2 5.07-1.51 10.7-1.63 16.1-0.0296 0.912-0.0593 1.82-0.0898 2.76-0.0187 0.827-0.0374 1.65-0.0566 2.51-0.312 2.5-1.17 4.07-2.29 6.3-0.241 2.14-0.241 2.14-0.125 4.37 0.0155 0.822 0.0309 1.64 0.0469 2.49 0.052 1.71 0.104 3.43 0.156 5.14 0.0863 4.59-0.173 7.75-2.08 12-0.203 2.66-0.203 2.66-0.0625 5.38 0.0767 4.37-0.0272 8.35-0.938 12.6-0.66 0.66-1.32 1.32-2 2-0.259 2.88-0.418 5.68-0.5 8.56-0.199 5.07-0.393 9.93-1.62 14.9-1.19 3.49-1.19 3.49 0.125 6.56 0.561 5.47-0.0754 9.35-2.27 14.4-1.26 4.44-1.27 9-1.44 13.6-0.211 5.68-0.211 5.68-0.787 7.89-0.613 2.55-0.702 4.95-0.786 7.58-0.0374 1.07-0.0748 2.13-0.113 3.23-0.0522 1.66-0.0522 1.66-0.105 3.36-0.72 22.4-0.72 22.4-2.5 25.9-0.128 1.49-0.202 2.97-0.246 4.46-0.0329 0.882-0.0657 1.76-0.0996 2.67-0.0611 1.86-0.118 3.72-0.172 5.59-0.0342 0.884-0.0683 1.77-0.104 2.68-0.0251 0.809-0.0501 1.62-0.0759 2.45-0.303 2.14-0.303 2.14-2.3 5.14-0.369 2.77-0.369 2.77-0.414 5.92-0.058 1.76-0.058 1.76-0.117 3.55-0.0309 1.23-0.0619 2.45-0.0938 3.72-0.0387 1.21-0.0773 2.41-0.117 3.66-0.146 4.78-0.29 9.55-0.156 14.3-0.0845 3.18-0.44 5.78-1.07 8.87-1.06 5.7-1.43 11.3-1.59 17-0.0552 1.54-0.0552 1.54-0.112 3.1-0.116 3.25-0.222 6.49-0.326 9.74-0.416 12.8-0.91 25.6-2.3 38.3-0.7 6.45-1.08 12.9-1.27 19.4-0.0597 1.95-0.123 3.9-0.191 5.85-0.0239 0.826-0.0479 1.65-0.0725 2.5-0.174 2.02-0.174 2.02-1.17 4.02-0.128 1.55-0.202 3.1-0.246 4.65-0.0329 0.923-0.0657 1.85-0.0996 2.8-0.0609 1.95-0.118 3.89-0.172 5.84-0.0342 0.926-0.0683 1.85-0.104 2.8-0.0251 0.846-0.0501 1.69-0.0759 2.56-0.303 2.35-0.303 2.35-1.3 4.21-1.13 2.42-1.31 4.13-1.4 6.79-0.0367 0.914-0.0733 1.83-0.111 2.77-0.0303 0.979-0.0606 1.96-0.0918 2.97-0.0392 1.01-0.0784 2.02-0.119 3.06-0.124 3.23-0.236 6.45-0.346 9.68-0.115 3.23-0.233 6.47-0.357 9.7-0.0763 2.01-0.148 4.02-0.214 6.04-0.0503 1.36-0.0503 1.36-0.102 2.75-0.0409 1.2-0.0409 1.2-0.0827 2.43-0.183 1.96-0.183 1.96-1.18 3.96-0.128 1.46-0.202 2.93-0.246 4.39-0.0329 0.873-0.0657 1.75-0.0996 2.65-0.0608 1.84-0.118 3.67-0.172 5.51-0.183 4.7-0.733 8.08-2.48 12.5-0.368 3.39-0.463 6.78-0.562 10.2-0.0598 1.81-0.123 3.61-0.191 5.42-0.0239 0.796-0.0479 1.59-0.0725 2.41-0.174 1.98-0.174 1.98-1.17 3.98-0.128 1.51-0.202 3.03-0.246 4.54-0.0329 0.909-0.0657 1.82-0.0996 2.76-0.0606 1.91-0.118 3.81-0.172 5.72-0.199 5.34-0.929 9.84-2.48 15-0.253 2.6-0.44 5.2-0.562 7.81-0.338 6.99-0.338 6.99-1.44 9.19-0.15 1.37-0.248 2.75-0.316 4.13-0.0628 1.21-0.0628 1.21-0.127 2.44-0.0393 0.842-0.0786 1.68-0.119 2.55-0.0432 0.849-0.0864 1.7-0.131 2.57-0.106 2.1-0.207 4.2-0.307 6.3h-2c-0.33 6.27-0.66 12.5-1 19h-2c-1.38 8.05-2.27 15.9-2.56 24.1-0.501 3.29-1.14 3.71-3.44 5.9-0.689 2.65-0.689 2.65-1 5.62-0.781 5.44-2.11 10.2-4 15.4h-2c-0.193 0.652-0.387 1.3-0.586 1.98-0.539 1.81-1.08 3.62-1.63 5.42-0.583 1.94-1.13 3.89-1.66 5.85-1.49 3.65-3.4 5.89-6.12 8.75h-2c-0.33 0.99-0.66 1.98-1 3h-2v3c-0.66 0.33-1.32 0.66-2 1-0.268 0.763-0.536 1.53-0.812 2.31-1.48 3.35-3.27 4.52-6.19 6.69-0.804 0.908-1.61 1.82-2.44 2.75-2.56 2.25-2.56 2.25-5.88 2.56-1.33-0.155-1.33-0.155-2.69-0.312v2c-1.65 0.66-3.3 1.32-5 2v3c-0.66 0.33-1.32 0.66-2 1-0.964 2.89-1.15 4.83-1.21 7.84-0.0199 0.981-0.0399 1.96-0.0604 2.97-0.0251 1.58-0.0251 1.58-0.0506 3.2-0.0312 1.63-0.0312 1.63-0.063 3.28-0.0654 3.46-0.124 6.93-0.183 10.4-0.0432 2.35-0.0868 4.69-0.131 7.04-0.107 5.76-0.209 11.5-0.307 17.3 5.42 1.46 9.43 2.15 15 1 3.5-0.19 7.01-0.208 10.5-0.246 2.08-0.0329 4.15-0.0662 6.23-0.0996 3.25-0.0473 6.5-0.0917 9.75-0.131 3.15-0.04 6.31-0.0915 9.46-0.144 0.958-0.00841 1.92-0.0168 2.9-0.0255 4.52-0.0816 8.73-0.385 13.1-1.36 5.37-1.18 10.6-1.32 16-1.33 1.01-0.00666 2.03-0.0133 3.08-0.0202 2.13-0.0101 4.26-0.0148 6.38-0.0145 3.25-0.0044 6.5-0.0409 9.75-0.0786 2.08-0.00586 4.15-0.00984 6.23-0.0117 0.966-0.0144 1.93-0.0287 2.93-0.0435 5.83 0.0395 9.14 0.628 13.6 4.5 0.33 0.66 0.66 1.32 1 2 0.99 0.33 1.98 0.66 3 1-0.0348 0.888-0.0348 0.888-0.0703 1.79-0.018 0.79-0.0361 1.58-0.0547 2.39l-0.0703 2.36c0.0677 2.49 0.0677 2.49 1.17 4.75 3.69 9.71 2.13 22.1 2.03 32.5-0.0265 2.87-0.0465 5.74-0.0625 8.61-0.0116 1.25-0.0232 2.51-0.0352 3.8-0.23 2.74-0.23 2.74 1.1 3.84 0.0721 1.69 0.0839 3.38 0.0625 5.06-0.00902 0.919-0.018 1.84-0.0273 2.79-0.0116 0.71-0.0232 1.42-0.0352 2.15-8.98 5.74-21 4.1-31.2 3.62-1.18-0.0489-2.36-0.0978-3.58-0.148-6.5-0.278-13-0.625-19.5-1.04-11.9-0.74-23.4-0.442-35.2 0.846-11.1 1.12-22.3 0.897-33.5 0.716-1.86 5.06-3.4 9.53-3.25 15 0.0271 1.01 0.0541 2.01 0.082 3.05-0.105 6.97-0.105 6.97 2.17 12.9 0.0935 1.69 0.117 3.38 0.114 5.07-7.55e-5 1.08-1.51e-4 2.16-2.29e-4 3.28-0.00516 1.18-0.0103 2.35-0.0156 3.56-0.00212 1.8-0.00212 1.8-0.00429 3.63-0.00562 3.84-0.0182 7.68-0.0309 11.5-0.00501 2.6-0.00958 5.19-0.0137 7.79-0.0111 6.38-0.0278 12.8-0.0488 19.1h-2c-0.223 32.4-0.223 32.4 0.5 64.7 0.513 13.7 0.708 27.4 0.787 41.2 0.0168 2.46 0.0406 4.92 0.0718 7.38 0.042 3.47 0.0577 6.93 0.0669 10.4 0.0175 1.04 0.0349 2.09 0.0529 3.16-0.0185 6.29-0.732 10.1-4.48 15.2-11.7 7.3-34.9 5.42-48 3-0.878-0.161-1.76-0.322-2.66-0.488-6.75-1.58-6.75-1.58-9.4-5.76-1.74-6.96-2.07-13.6-2-20.7 0.00451-0.875 0.00902-1.75 0.0137-2.65 0.0117-2.14 0.0296-4.27 0.0488-6.41h-1c-0.66-32.3-1.32-64.7-2-98h-1c-0.624-24.3-1.2-48.7-1-73h-1v-19c-16.9-4.66-34.1-2.9-51.4-2.14-10.2 0.435-20.4 0.791-30.6 1.14-0.999 0.0354-2 0.0708-3.03 0.107-5.32 0.184-10.6 0.332-16 0.412-1.57 0.0286-3.13 0.0693-4.7 0.123-11.7 0.387-11.7 0.387-15.5-2.08-3.71-4.08-4.82-8.23-5.76-13.6h-1v-14h-1c-0.0495-5.18-0.0858-10.4-0.11-15.5-0.01-1.76-0.0237-3.52-0.041-5.28-0.0243-2.53-0.0356-5.07-0.0444-7.6-0.0103-0.784-0.0206-1.57-0.0313-2.37-8.54e-4 -4.19 0.335-7.45 2.23-11.2 0.826-0.0198 1.65-0.0396 2.5-0.0601 3.11-0.0789 6.23-0.166 9.34-0.257 1.99-0.0564 3.98-0.104 5.97-0.151 1.91-0.058 1.91-0.058 3.87-0.117 1.16-0.0314 2.33-0.0628 3.52-0.0952 2.94-0.247 5.45-0.658 8.3-1.31 6.86-1.44 13.8-1.46 20.7-1.61 1.47-0.0388 2.94-0.0784 4.41-0.119 3.85-0.104 7.7-0.198 11.6-0.29 6.14-0.147 12.3-0.31 18.4-0.472 2.11-0.0545 4.22-0.105 6.33-0.154 9.7-0.239 19.4-0.745 29-1.37-0.00444-0.568-0.00888-1.14-0.0135-1.72-0.0447-5.99-0.0746-12-0.0964-18-0.00997-2.23-0.0236-4.45-0.041-6.68-0.0946-12.4-0.0493-24.4 2.15-36.6-3.63-0.66-7.26-1.32-11-2v-3h-2v-2h-6c-0.289-0.742-0.577-1.48-0.875-2.25-0.371-0.908-0.743-1.82-1.12-2.75-0.289-0.722-0.577-1.44-0.875-2.19-0.987-1.97-0.987-1.97-3.05-2.68-2.51-1.38-3.12-2.5-4.32-5.07-0.335-0.69-0.67-1.38-1.02-2.09-0.734-1.97-0.734-1.97-0.734-4.97-0.614-0.0941-1.23-0.188-1.86-0.285-2.68-0.894-3.13-1.67-4.39-4.15-1.96-4.19-2-7.71-1.6-12.3-0.194-2.93-1.29-4.09-3.15-6.3-0.667-1.67-1.33-3.33-2-5l-1.56-1.94c-1.83-2.62-2.02-4.93-2.44-8.06-0.33-0.33-0.66-0.66-1-1 0.00911-3.01 0.133-6.01 0.258-9.02-0.295-3.41-1.24-4.33-3.26-6.98-0.2-2.8 7.5e-4 -5.45 0.188-8.25 0.0238-2.83 0.0238-2.83-1.68-5.14-2-3.45-1.81-5.96-1.7-9.92 0.0271-1.25 0.0541-2.51 0.082-3.8 0.0522-1.43 0.0522-1.43 0.105-2.89h-2c-0.125-7.62-0.125-7.62 1-11h-2c-2.62-3.93-2.08-6.52-1.88-11.1 0.0131-2.94 0.0131-2.94-1.13-5.74-1.41-4.45-1.06-8.72-0.83-13.3 0.0908-3.3 0.0821-5.42-1.64-8.29-2.53-4.21-2-8.77-2.05-13.6-0.0593-2-0.257-3.99-0.473-5.97-0.99-0.66-1.98-1.32-3-2-1.19-3.56-1.35-6.97-1.56-10.7-0.0432-0.702-0.0864-1.4-0.131-2.13-0.106-1.73-0.207-3.46-0.307-5.19-14.4-5.46-28.8-10.8-43.5-15.2-4.34-1.34-8.38-2.98-12.5-4.93-2.85-1.18-5.75-1.68-8.76-2.28-3.15-0.779-5.93-2.11-8.86-3.48-7.23-3.26-14.9-5.58-22.4-8.07-1.72-0.573-3.44-1.15-5.16-1.72-1.32-0.439-1.32-0.439-2.66-0.887-2.68-0.892-5.35-1.78-8.03-2.68-0.862-0.285-1.72-0.571-2.61-0.865-1.68-0.563-3.35-1.14-5.02-1.73-8.9-3.11-16.3-2.78-25.3-0.0444-4.13 1.16-8.31 2-12.5 2.86-13.8 1.8-13.8 1.8-25.8 7.06-1.36 0.33-2.74 0.61-4.12 0.867-0.848 0.162-1.7 0.324-2.57 0.49-0.907 0.171-1.81 0.342-2.75 0.518-1.85 0.358-3.7 0.72-5.55 1.09-0.836 0.163-1.67 0.326-2.53 0.494-3.34 0.735-6.58 1.71-9.83 2.77-3.7 1.08-7.45 1.85-11.2 2.65-6.15 1.32-12.2 2.85-18.2 4.69-6.05 1.84-12.1 3.31-18.3 4.56-5.1 1.08-10.1 2.47-15.2 3.81-7.47 1.98-14.9 3.84-22.5 5.44-0.783 0.167-1.57 0.335-2.37 0.508-3.41 0.703-6.44 1.12-9.94 1.12v2c-0.969 0.454-1.94 0.908-2.94 1.38-3.13 1.28-3.13 1.28-4.06 3.62-0.112 2.4-0.165 4.77-0.174 7.17-0.00669 0.738-0.0134 1.48-0.0203 2.24-0.0141 1.61-0.026 3.21-0.0359 4.82-0.0164 2.54-0.0396 5.08-0.0649 7.61-0.0709 7.22-0.131 14.4-0.182 21.6-0.0317 4.41-0.073 8.82-0.12 13.2-0.0161 1.68-0.0284 3.37-0.0369 5.05-0.0121 2.35-0.0362 4.7-0.0631 7.05-5.89e-4 0.7-0.00118 1.4-0.00179 2.12-0.0733 4.82-0.0733 4.82-2.3 7.05-1.99 0.371-1.99 0.371-4.31 0.438-0.759 0.04-1.52 0.0799-2.3 0.121-3.67-0.859-5.05-2.64-7.39-5.56-0.48-2.97-0.656-5.35-0.599-8.31-0.00394-0.823-0.00789-1.65-0.0119-2.5-0.0067-2.71 0.0224-5.43 0.0527-8.14 0.00425-1.89 0.00658-3.78 0.00706-5.67 0.00616-3.96 0.0288-7.91 0.0645-11.9 0.0453-5.07 0.06-10.1 0.0637-15.2 0.00443-3.9 0.0197-7.8 0.0389-11.7 0.00888-1.87 0.0156-3.74 0.0202-5.61 0.00904-2.61 0.0314-5.22 0.0579-7.83 6.65e-4 -0.773 0.00133-1.55 0.00201-2.34 0.0522-3.73 0.0957-6.74 2.3-9.84 5.27-3.49 11.4-4.34 17.5-5.56 5.96-1.22 11.8-2.41 17.5-4.44h2c-9.22e-4 -0.567-0.00184-1.13-0.00279-1.72-0.0221-13.8-0.0386-27.7-0.049-41.5-0.00514-6.69-0.0123-13.4-0.0236-20.1-0.0109-6.46-0.0169-12.9-0.0194-19.4-0.00184-2.46-0.00544-4.92-0.0109-7.38-0.0073-3.46-0.00826-6.92-0.0078-10.4-0.0036-1.01-0.00719-2.02-0.0109-3.05 0.00824-5.74 0.305-11.4 0.897-17.1 0.317-3.34 0.357-6.65 0.36-10 9.57e-4 -0.656 0.00191-1.31 0.0029-1.99 6.71e-4 -1.36-0.00111-2.73-0.00534-4.09-0.0054-2.07-2.05e-7 -4.14 0.00635-6.21-6.6e-4 -1.34-0.00194-2.68-0.00391-4.02-0.00169-1.79-0.00169-1.79-0.00342-3.61-0.133-3.55-0.566-6.96-1.13-10.5h-2v-2c-0.812-0.371-0.812-0.371-1.64-0.75-2.89-1.53-5.46-3.34-8.11-5.25-0.985-0.701-1.97-1.4-2.98-2.12-0.748-0.619-1.5-1.24-2.27-1.88v-2c-1.06-0.358-1.06-0.358-2.14-0.723-3.34-1.49-5.79-3.39-8.61-5.71l-2.92-2.37c-2.33-2.19-2.33-2.19-3.33-5.19 5.3-2.2 10.6-4.23 16.1-6 3.5-1.14 6.81-2.35 10.1-3.94 4.18-1.94 8.51-3.19 12.9-4.44 7.18-2.02 14-4.53 20.9-7.39 2.98-1.23 2.98-1.23 5.98-2.23 1.17-3.5 1.16-6.33 1.21-10 0.0281-1.43 0.0568-2.86 0.0859-4.29 0.0408-2.23 0.0777-4.47 0.104-6.7 0.318-24.4 0.318-24.4 6.6-34 0.544-0.897 1.09-1.79 1.65-2.72 3.08-4.95 5.94-9.4 10.4-13.3 0.596-0.552 1.19-1.1 1.8-1.67 11.3-10.3 11.3-10.3 16.2-10.3v-2c4.67-2.38 9.38-4.69 14.1-6.94 0.972-0.463 1.94-0.926 2.95-1.4 3.65-1.62 7.41-2.93 11.2-4.26 0.975-0.346 0.975-0.346 1.97-0.7 1.59-0.566 3.19-1.13 4.78-1.7-0.00444-0.795-0.00888-1.59-0.0135-2.41-0.0401-7.49-0.0705-15-0.0902-22.5-0.0104-3.85-0.0246-7.7-0.0473-11.6-0.0217-3.72-0.0337-7.43-0.0389-11.1-0.0037-1.42-0.0109-2.84-0.0217-4.25-0.0145-1.98-0.0154-3.97-0.0156-5.95-0.00444-1.13-0.00888-2.26-0.0135-3.43 0.241-2.79 0.241-2.79 2.24-5.79 4.38-2.74 8.6-3.57 13.6-4.46 3.1-0.69 5.65-1.99 8.4-3.54 0.99-0.33 1.98-0.66 3-1 1.11-1.87 1.11-1.87 2-4 0.66-1.07 1.32-2.14 2-3.25 2.4-4.72 2.75-9.64 3.28-14.8 0.49-4.6 1.36-8.62 3-12.9 0.781-2.2 1.22-4.35 1.65-6.64 0.905-4.4 2.65-7.6 5.06-11.4 9.23 1.27 9.23 1.27 12 2 2.65 5.31 0.561 11.6-0.938 17-1.35 5-2.43 9.86-3.06 15h-2l-0.586 3.51c-0.263 1.54-0.526 3.08-0.789 4.62-0.126 0.761-0.253 1.52-0.383 2.3-0.751 4.35-1.74 8.4-3.24 12.6-0.211 0.736-0.423 1.47-0.641 2.23-0.201 0.646-0.402 1.29-0.609 1.96-0.191 0.654-0.382 1.31-0.578 1.98-2.85 4.46-8.91 5.42-13.7 6.71-5.21 1.55-8.26 2.7-11.4 7.12-0.919 2.76-1.12 4.36-1.11 7.2 7.55e-5 0.841 1.51e-4 1.68 2.29e-4 2.55 0.00516 0.903 0.0103 1.81 0.0156 2.74 0.00141 0.928 0.00283 1.86 0.00429 2.81 0.0056 2.97 0.0182 5.93 0.0309 8.89 0.00502 2.01 0.00958 4.02 0.0137 6.03 0.011 4.93 0.0283 9.86 0.0488 14.8 3.61 1.2 6.57 1.13 10.4 1.12 1.31 0.00258 2.61 0.00516 3.96 0.00781 3.45-0.0177 3.45-0.0177 5.91-0.617 3.51-0.656 6.99-0.787 10.5-0.903 1.11-0.0383 1.11-0.0383 2.24-0.0773 1.55-0.0518 3.11-0.101 4.66-0.148 2.37-0.0748 4.75-0.165 7.12-0.257 1.51-0.0485 3.03-0.0961 4.54-0.143 1.06-0.0436 1.06-0.0436 2.14-0.0881 3.77-0.0962 6.27 0.161 9.51 2.1 2.32 0.377 4.66 0.682 7 0.938 11.5 1.4 21.4 4.43 32 9.06 2.08 0.834 4.17 1.67 6.25 2.5 4.95 2.06 9.3 4.53 13.8 7.5 0.99 0.557 1.98 1.11 3 1.69 0.66 0.433 1.32 0.866 2 1.31v2c1.32 0.33 2.64 0.66 4 1v2c1.65-0.33 3.3-0.66 5-1 0.0619-1.22 0.124-2.43 0.188-3.69 0.0348-0.684 0.0696-1.37 0.105-2.07-0.144-2.37-0.144-2.37-1.78-4.49-2.32-4.21-1.95-8.56-1.96-13.2-0.105-4.03-0.517-6.76-2.56-10.3-2.93-5.31-2.56-10.8-2.56-16.7 0.183-8.42 0.183-8.42-1.93-16.4-2.44-5.59-2.05-11.6-2.14-17.6-0.0514-2.38-0.106-4.75-0.164-7.13-0.0263-1.57-0.0263-1.57-0.0532-3.16-0.113-3.21-0.113-3.21-0.653-6.61-0.499-3.5-0.693-6.88-0.786-10.4-0.0368-1.31-0.0736-2.61-0.112-3.96-0.0175-0.681-0.035-1.36-0.053-2.06-0.0918-3.57-0.196-7.13-0.3-10.7-0.0307-1.07-0.0307-1.07-0.062-2.16-0.286-9.75-0.734-19.5-1.19-29.2h-1c-0.828-11.6-1.09-23.1-0.963-34.7 0.00838-1.02 0.0168-2.05 0.0254-3.1 0.0174-1.37 0.0174-1.37 0.0352-2.76-0.0922-2.33-0.511-4.22-1.1-6.46-0.0877-1.34-0.131-2.69-0.133-4.04-0.00129-0.745-0.00258-1.49-0.00391-2.26 0.00387-0.768 0.00773-1.54 0.0117-2.33-0.00387-0.776-0.00773-1.55-0.0117-2.35 0.01-5.77 0.01-5.77 1.14-8.02 0.084-1.59 0.107-3.19 0.0977-4.79-0.00483-1.41-0.00483-1.41-0.00977-2.85-0.00838-0.985-0.0168-1.97-0.0254-2.98-0.00677-1.49-0.00677-1.49-0.0137-3.01-0.0118-2.46-0.0283-4.91-0.0488-7.37h-1c0.0326-2.05 0.0651-4.1 0.0977-6.15 0.108-1.86 0.108-1.86-1.1-2.85-0.208-2.8-0.355-5.58-0.465-8.39-0.0787-1.76-0.157-3.52-0.236-5.28-0.119-2.77-0.235-5.54-0.348-8.31-0.398-9.57-0.811-19-2.59-28.4-0.559-4.05-0.0432-7.62 0.636-11.6zm300 10 1 2zm0 6 1 3zm-287 10c-2.38 1.94-2.38 1.94-2.19 5.44 0.0272 3.52 0.0272 3.52 1.19 6.56 0.99 0.33 1.98 0.66 3 1 1.18-2.37 1.13-3.87 1.12-6.5 0.00258-0.794 0.00516-1.59 0.00781-2.41-3.25e-5 -2.15-3.25e-5 -2.15-1.13-4.09h-2zm284 2 1 4zm-3 18v10h1v-10h-1zm0 18 1 3zm-287 55v16h1v-16h-1zm281 25 1 4zm-375 31 1 2zm-47 140c-1.54 0.563-3.08 1.13-4.62 1.69-19.1 7.66-34.2 18.9-43.2 37.6-1.86 4.39-2.25 7.97-2.23 12.7 0.00322 1.16 0.00645 2.32 0.00977 3.52 0.00838 1.21 0.0168 2.41 0.0254 3.66l0.0137 3.7c0.0118 3.02 0.0282 6.03 0.0488 9.05h2v2c4.55 1.04 7.37 0.904 11.8-0.688l3.19-1.14c2.62-1 5.22-2.04 7.81-3.11 4.12-1.69 8.31-3.07 12.6-4.38 6.56-2.02 13.1-4.1 19.6-6.25 1.3-0.421 1.3-0.421 2.62-0.851 4.12-1.37 8.11-2.84 12.1-4.65 4.11-1.88 8.22-3.19 12.6-4.38 9.13-2.59 18-5.64 26.9-9.18 18.5-7.37 18.5-7.37 26.9-3.87 2.69 1.22 5.3 2.54 7.91 3.92 3.04 1.79 3.04 1.79 6.19 1.57v2c0.646 0.317 1.29 0.634 1.96 0.961 6.67 3.3 13.3 6.7 19.9 10.2 0.8 0.419 1.6 0.839 2.42 1.27 3.59 1.89 7.13 3.81 10.6 5.88 3.09 1.94 3.09 1.94 6.78 2.16 4.32 0.72 5.35 2.47 8.38 5.56 3.91 2.16 7.5 4 12 4 0.981-2.94 1.16-4.99 1.19-8.06 0.0142-0.878 0.0284-1.76 0.043-2.66-0.00817-2.48-0.00817-2.48-2.23-4.28-0.315-1.98-0.315-1.98-0.422-4.4-0.0528-0.886-0.106-1.77-0.16-2.68-0.0833-1.41-0.0833-1.41-0.168-2.85-0.63-8.36-1.54-15.5-7.25-22.1-0.99-0.33-1.98-0.66-3-1-0.309-0.639-0.619-1.28-0.938-1.94-1.31-2.55-2.55-2.84-5.06-4.06-0.33-0.99-0.66-1.98-1-3-1.99-1.59-3.95-3.03-6.06-4.44-0.596-0.403-1.19-0.806-1.81-1.22-4.26-2.84-8.42-5.34-13.1-7.34-1.06-0.471-2.13-0.941-3.22-1.43-8.74-3.76-17.5-6.19-26.8-8.13-1.94-0.434-3.87-0.96-5.79-1.49-26.7-6.72-63.1-3.16-88.2 8.05zm409 14 1 3zm-247 26v5h1v-5h-1zm-107 16c-4.14 1.48-8.32 2.84-12.5 4.21-4.05 1.33-8.07 2.69-12.1 4.21-5.66 2.15-11.4 3.98-17.2 5.85-5.32 1.75-10.5 3.67-15.7 5.82-3.36 1.29-6.75 2.09-10.3 2.87v2l-3.19 0.188c-3.81 0.475-7.02 1.58-10.6 3.01-7.9 3.1-15.9 5.77-24 8.43-1.45 0.481-2.91 0.963-4.36 1.45-2.75 0.912-5.51 1.82-8.26 2.73-4.21 1.39-8.42 2.79-12.6 4.2v2l-3.12 0.188c-6.55 0.802-16.2 3.09-20.9 7.81-0.0327 2.72 0.416 4.37 2.28 6.39 1.68 1.47 3.4 2.86 5.16 4.24 8.35 6.65 8.35 6.65 8.82 10.5 0.00423 0.814 0.00846 1.63 0.0128 2.47 0.00972 0.937 0.0194 1.87 0.0294 2.84 5.89e-4 1.03 0.00118 2.05 0.00179 3.11 0.00844 1.08 0.0169 2.16 0.0256 3.28 0.0258 3.58 0.0379 7.17 0.0504 10.7 0.0162 2.48 0.0333 4.96 0.0515 7.45 0.0411 5.87 0.0741 11.7 0.102 17.6 0.054 11.1 0.122 22.3 0.198 33.4 0.0229 3.67 0.0391 7.34 0.0547 11 0.0134 2.23 0.027 4.47 0.0409 6.7 0.00261 1.03 0.00523 2.06 0.00792 3.12 0.0069 0.931 0.0138 1.86 0.0209 2.82 0.00385 0.814 0.00771 1.63 0.0117 2.47-0.0684 1.86-0.0684 1.86 1.13 2.85 0.101 2.63 0.14 5.24 0.133 7.87 0.00144 1.19 0.00144 1.19 0.0029 2.4 6.82e-4 1.68-0.00117 3.35-0.00534 5.03-0.00533 2.57-6.28e-5 5.13 0.00635 7.7-6.61e-4 1.63-0.00194 3.25-0.00391 4.88 0.00202 0.769 0.00405 1.54 0.00613 2.33-0.0141 3.2-0.12 5.75-1.14 8.8 0.308 2.08 0.308 2.08 0.938 4.19 0.526 1.89 0.526 1.89 1.06 3.81 4.07 1.22 5.96 0.394 10-1 1.58-0.292 3.16-0.56 4.75-0.812 6.76-1.16 13.3-3.08 19.9-4.95 7.03-1.99 14.1-3.82 21.3-5.17 4.1-0.784 8.06-1.88 12.1-3.06 5.21-1.53 10.3-2.68 15.7-3.57 3.21-0.574 6.26-1.48 9.38-2.43 7.1-2.04 14.2-3.78 21.4-5.44 6.2-1.45 12.3-3.06 18.5-4.73 1.01-0.275 2.03-0.549 3.07-0.832 0.715-0.196 1.43-0.392 2.17-0.594 10.6-2.36 20.6 2.53 30.2 6.57 2.96 1.15 5.95 2.15 8.97 3.15 3.04 1 6.07 2.02 9.11 3.04 2.33 0.781 4.67 1.56 7 2.34 1.16 0.391 2.33 0.781 3.53 1.18 5.95 1.99 11.9 3.92 17.9 5.64 2.16 0.697 4.13 1.57 6.17 2.56 5.04 2.35 10.3 3.75 15.6 5.26 4.84 1.39 9.47 3 14.1 4.96 2.96 1.22 5.98 2.19 9.03 3.18 2.19 0.735 4.33 1.56 6.48 2.41 3.66 1.54 3.66 1.54 7.69 1.31 0.738-3.99 0.738-3.99 1-8-0.961-1.36-1.96-2.7-3-4 0.208-2.92 0.889-5.58 1.63-8.4 1.35-5.6 1.35-5.6 0.121-11.2-1.52-2.52-1.52-2.52-3.75-3.44-1.17-5.75-0.836-10.7 0.0391-16.5 0.221-2.57 0.221-2.57-1.48-4.27-2.45-3.51-2.09-7.18-2.19-11.4 0.0929-5.61 0.0929-5.61-1.38-10.9-0.0488-1.56-0.0368-3.12 0.00781-4.68 0.0168-0.927 0.0335-1.85 0.0508-2.81 0.0442-1.96 0.0962-3.92 0.156-5.88 0.0142-0.929 0.0284-1.86 0.043-2.81 0.0221-0.851 0.0442-1.7 0.0669-2.58-0.401-2.76-1.36-3.35-3.32-5.24-0.492-1.97-0.492-1.97-0.66-4.2-0.0715-0.816-0.143-1.63-0.217-2.47-0.0612-0.849-0.122-1.7-0.186-2.57-0.364-4.66-0.719-8.99-2.02-13.5-0.947-3.35-0.978-5.57-0.543-9 0.336-2.8 0.625-5.43 0.625-8.25h-2c-0.0198-0.711-0.0396-1.42-0.0601-2.16-0.0952-3.22-0.205-6.44-0.315-9.66-0.0464-1.68-0.0464-1.68-0.0938-3.39-0.0387-1.07-0.0773-2.15-0.117-3.25-0.0471-1.48-0.0471-1.48-0.0952-3-0.157-2.78-0.157-2.78-2.32-5.54h-2c0.107-0.877 0.107-0.877 0.215-1.77 0.316-2.66 0.613-5.32 0.91-7.98 0.112-0.92 0.224-1.84 0.34-2.79l0.293-2.7c0.0943-0.817 0.189-1.63 0.286-2.48-0.0498-2.63-0.791-4.02-2.04-6.29-0.0429-1.62-0.0405-3.25 0-4.88-0.28-3.24-0.482-4.63-2.86-6.9-2.65-1.6-5.33-2.93-8.14-4.23-1.94-0.977-3.88-1.96-5.81-2.94-1-0.491-2-0.982-3.04-1.49-3.34-1.67-6.62-3.42-9.9-5.2-8.22-5.1-8.22-5.1-17.2-7.38v-2c-0.969-0.476-0.969-0.476-1.96-0.961-7.46-3.69-14.8-7.54-22.2-11.4-1.54-0.815-3.08-1.63-4.62-2.44-1.47-0.772-2.94-1.55-4.4-2.34-12.4-6.51-23.8-1.23-36.1 3.21zm352 30v2h3v-2h-3zm-10 71 1 3zm-12 113 1 2zm-4 34v5h1v-5h-1zm-180 44 1 4zm175 14 1 2zm-3 16 1 2zm-10 66v8h1v-8h-1zm-5 19v8h1v-8h-1zm-24 45v4h2c-0.33-1.32-0.66-2.64-1-4h-1zm-66 187v14h1v-14h-1zm3 98 1 4z" fill="#F9FAFB"/>
<path transform="translate(494,318)" d="m0 0c5.26-0.316 8.45 0.334 13 3-0.583 8.9-2.16 17.7-5.07 26.1-0.838 2.61-1.21 4.74-1.37 7.46-0.366 3.94-1.5 6.05-3.56 9.44-0.827 3.3-1.39 6.65-2 10-0.677 3.33-1.29 6.17-3.56 8.81-2.3 1.12-4.07 1.58-6.56 2.06-5.96 1.19-12.5 3.25-16.5 8.09-2.01 4.37-1.88 8.39-1.91 13.2-0.018 0.97-0.0359 1.94-0.0544 2.94-0.054 3.09-0.088 6.17-0.121 9.26-0.0332 2.1-0.0677 4.19-0.104 6.29-0.0849 5.13-0.152 10.3-0.209 15.4h2v2c0.744 0.00258 1.49 0.00516 2.25 0.00781 17.7 0.628 38.2 5.53 52.7 16 0.99 0.33 1.98 0.66 3 1v2c0.726 0.258 1.45 0.516 2.2 0.781 8.97 3.9 15.1 11.6 20.8 19.2 0.694 0.842 1.39 1.68 2.1 2.55 1.66 2.14 2.79 4 3.9 6.45 0.391 0.758 0.781 1.52 1.18 2.3 5.27 10.3 8.2 20.5 10.8 31.7 0.181 0.743 0.362 1.48 0.548 2.25 0.574 3.5 0.576 6.93 0.55 10.5-0.00212 1.09-0.00212 1.09-0.00429 2.2-0.00557 2.3-0.0181 4.6-0.0309 6.91-0.00502 1.57-0.00958 3.13-0.0137 4.7-0.011 3.83-0.0282 7.66-0.0488 11.5-4 0.0578-7.1-0.128-10.9-1.5-0.781-0.278-1.56-0.557-2.37-0.844-0.58-0.217-1.16-0.433-1.76-0.656v-2c-1.46-0.155-1.46-0.155-2.95-0.312-4.53-0.653-8.65-2.13-12.9-3.69-0.852-0.304-1.7-0.608-2.58-0.921-2.85-1.02-5.7-2.05-8.54-3.08-3.25-1.17-6.5-2.34-9.75-3.51-2.11-0.761-4.22-1.52-6.32-2.29-6.03-2.18-12.1-4.27-18.2-6.27-2.83-0.95-5.64-1.96-8.45-2.99-0.901-0.326-1.8-0.652-2.73-0.988-1.64-0.601-3.26-1.22-4.88-1.87-13.2-5-23-0.348-35.3 4.92-3.26 1.36-6.56 2.53-9.9 3.69-5.24 1.83-10.3 3.89-15.4 6.06-3.32 1.36-6.68 2.56-10.1 3.75-5.26 1.85-10.4 3.87-15.5 6.05-7.77 3.26-15.6 6.34-23.5 9.45-1.06 0.42-1.06 0.42-2.14 0.848-1.83 0.722-3.66 1.44-5.49 2.15-1.5 0.588-1.5 0.588-3.04 1.19-2.34 0.812-2.34 0.812-4.34 0.812-0.487 4.87 0.579 7.63 3.03 11.7 2.8 6.68 2.14 14.8 2.18 21.9 0.0099 1.13 0.0198 2.27 0.03 3.43 0.0314 3.72 0.0563 7.44 0.0811 11.2 0.0206 2.59 0.0416 5.18 0.063 7.77 0.0494 6.11 0.0948 12.2 0.138 18.3 0.0495 6.96 0.104 13.9 0.16 20.9 0.114 14.3 0.22 28.6 0.323 42.9 3.8 1.64 5.54 2.27 9.5 0.875 0.865-0.291 1.73-0.583 2.62-0.883 0.95-0.327 1.9-0.655 2.88-0.992 2.19-0.673 4.37-1.34 6.56-2 3.71-1.14 7.39-2.31 11.1-3.56 4.18-1.42 8.42-2.55 12.7-3.69 3.19-0.888 6.3-1.92 9.43-3 3.27-1.09 6.59-2.05 9.9-3.01 2.37-0.714 2.37-0.714 4.64-1.68 3.57-1.4 7.22-2.44 10.9-3.5 1.52-0.442 3.04-0.885 4.57-1.33 1.1-0.318 1.1-0.318 2.22-0.643 2.56-0.745 5.11-1.51 7.66-2.28 0.767-0.226 1.53-0.451 2.32-0.684 1.85-0.567 3.67-1.22 5.49-1.88 8.28-1.74 15 0.0904 22.5 3.79 3.69 1.74 7.45 3.13 11.3 4.52 5.47 2 10.6 4.25 15.8 6.94 1.33 0.364 2.66 0.705 4 1v2c1.07 0.124 2.14 0.247 3.25 0.375 3.75 0.625 3.75 0.625 5.75 1.69 2.98 1.4 5.76 1.06 9 0.938 0.33-0.99 0.66-1.98 1-3h2c0.33-0.99 0.66-1.98 1-3h2c0.33-0.99 0.66-1.98 1-3h2c0.33-0.99 0.66-1.98 1-3 1.63-1.37 3.3-2.71 5-4 0.835-0.866 0.835-0.866 1.69-1.75 1.31-1.25 1.31-1.25 3.31-1.25 0.34-1.11 0.34-1.11 0.688-2.25 1.56-3.27 3.43-4.61 6.31-6.75 0.33-0.66 0.66-1.32 1-2 6.06-0.357 9.33 0.228 14.7 3.38 1.31 0.743 2.61 1.48 3.93 2.21 0.701 0.393 1.4 0.786 2.12 1.19 4.13 2.22 8.39 4.17 12.6 6.16 8.02 3.77 15.9 7.77 23.7 12 3.83 2.05 7.69 4.03 11.6 5.98 1.06 0.534 2.13 1.07 3.23 1.62 3.35 1.6 6.73 3.07 10.1 4.51v2c0.786 0.235 1.57 0.469 2.38 0.711 4.66 1.66 9.04 3.77 13.5 5.91 1.32 0.63 1.32 0.63 2.66 1.27 2.16 1.03 4.31 2.06 6.46 3.1v2c0.866 0.103 1.73 0.206 2.62 0.312 3.54 0.721 6.22 1.96 9.38 3.69v2c1.32 0.162 1.32 0.162 2.67 0.328 3.4 0.685 5.65 1.7 8.64 3.42 0.95 0.538 1.9 1.08 2.88 1.63 0.927 0.535 1.85 1.07 2.81 1.62 5.25 2.98 10.4 5.74 16 8 0.969 0.392 1.94 0.784 2.94 1.19 0.681 0.268 1.36 0.536 2.06 0.812v2c0.735 0.121 1.47 0.243 2.23 0.368 2.7 0.616 4.7 1.45 7.14 2.74 0.805 0.425 1.61 0.851 2.44 1.29 0.828 0.446 1.66 0.892 2.51 1.35 0.817 0.431 1.63 0.861 2.47 1.3 14.3 7.63 14.3 7.63 17.2 11.9 0.197 3.01 0.274 5.92 0.261 8.93 0.00383 0.924 0.00765 1.85 0.0116 2.8 0.0104 3.11 0.00633 6.22 0.00237 9.33 0.00435 2.22 0.00953 4.45 0.0155 6.67 0.0134 6.05 0.014 12.1 0.0114 18.1-0.00107 5.04 0.00381 10.1 0.00861 15.1 0.0117 12.6 0.0109 25.1 0.00444 37.7-0.00517 10.9 0.00609 21.9 0.0251 32.8 0.0194 11.2 0.0273 22.4 0.0239 33.6-0.00182 6.3 8.75e-4 12.6 0.0147 18.9 0.0125 5.92 0.0107 11.8-0.00241 17.8-0.00238 2.18 4.12e-4 4.36 0.00862 6.53 0.0104 2.96 0.00245 5.92-0.0103 8.88 0.00737 0.871 0.0147 1.74 0.0223 2.64-0.0218 2.39-0.0218 2.39-0.397 6.16-3.71 2.47-6.7 2.43-11 2-2.81-1.01-3.67-1.33-5-4-0.107-2.37-0.155-4.72-0.158-7.09-0.00494-0.739-0.00988-1.48-0.015-2.24-0.0154-2.49-0.0238-4.98-0.0321-7.48-0.00958-1.78-0.0196-3.56-0.03-5.35-0.0271-4.86-0.0481-9.72-0.068-14.6-0.0219-5.11-0.0493-10.2-0.0761-15.3-0.0443-8.61-0.0851-17.2-0.123-25.8-0.0534-12-0.113-24.1-0.174-36.1-0.0477-9.44-0.0937-18.9-0.139-28.3-0.00482-0.993-0.00963-1.99-0.0146-3.01-0.0234-4.84-0.0459-9.68-0.0667-14.5-0.016-3.65-0.038-7.29-0.0649-10.9-0.0544-8.21-0.0331-16.4 0.198-24.6 0.0479-2.16 0.0932-4.31 0.138-6.47 0.0519-1.96 0.142-3.92 0.233-5.87 0.335-5.95 0.335-5.95-2.12-11.1-1.79-1.31-3.46-2.25-5.49-3.13-0.735-0.403-1.47-0.807-2.23-1.22-0.625-0.277-1.25-0.554-1.89-0.84-0.704-0.319-1.41-0.639-2.13-0.968-0.721-0.32-1.44-0.64-2.18-0.97-5.18-2.36-10-4.78-14.8-7.94-1.98-1.18-3.93-1.95-6.09-2.75-7.85-2.97-15.1-7.22-22.5-11.2-7.39-4-7.39-4-15.2-7.15v-2c-1.98-0.33-3.96-0.66-6-1v-2c-0.985-0.253-1.97-0.505-2.98-0.766-4.3-1.23-8.24-3.05-12.3-4.98-0.75-0.357-1.5-0.714-2.27-1.08-4.96-2.38-9.8-4.92-14.6-7.6-8.83-4.82-17.9-9.19-27.1-13.3-5.67-2.61-11.2-5.47-16.8-8.28-1.54-0.772-3.08-1.54-4.62-2.31-1.8-0.902-3.6-1.82-5.34-2.86-1.98-0.977-1.98-0.977-4.01-0.723-2.77 1.22-4.38 2.96-6.46 5.14-0.741 0.768-1.48 1.54-2.25 2.33-0.764 0.799-1.53 1.6-2.32 2.42-2.64 2.66-5.3 5.3-7.97 7.94-1.03 1.02-2.06 2.04-3.09 3.06-0.516 0.508-1.03 1.02-1.56 1.54-3.02 3-5.76 6.08-8.37 9.46-1.62 1.81-1.62 1.81-3 3h-2v3c-0.99 0.33-1.98 0.66-3 1-1.37 1.64-2.7 3.31-4 5-2.12 2.31-2.12 2.31-4 4h-2c-0.33 0.99-0.66 1.98-1 3h-2c-0.33 0.99-0.66 1.98-1 3-1.65 1.36-3.31 2.69-5 4-0.33 0.66-0.66 1.32-1 2h-2v3c-0.99 0.33-1.98 0.66-3 1-1.67 2-3.34 4-5 6h-2c-0.33 0.99-0.66 1.98-1 3h-2c-0.33 0.99-0.66 1.98-1 3h-2c-0.33 0.99-0.66 1.98-1 3-1.65 1.36-3.31 2.69-5 4-0.33 0.66-0.66 1.32-1 2h-2v3c-0.99 0.33-1.98 0.66-3 1-1.37 1.64-2.7 3.31-4 5-2.12 2.31-2.12 2.31-4 4h-2c-0.33 0.99-0.66 1.98-1 3-1.66 1.34-3.33 2.68-5 4-0.99 1.24-0.99 1.24-2 2.5-2.1 2.63-4.38 4.4-7 6.5-0.99 1.24-0.99 1.24-2 2.5-2 2.5-2 2.5-4.44 4.44-2.72 2.05-2.72 2.05-5.06 5.06-2.33 2.8-4.67 4.75-7.5 7-1.36 1.64-2.7 3.31-4 5l-1.56 1.38c-4.9 5.54-4.88 12-4.87 19-0.015 1.54-0.015 1.54-0.0304 3.12-0.03 3.44-0.0389 6.88-0.048 10.3-0.0172 2.47-0.0358 4.94-0.0556 7.41-0.0397 5.33-0.0705 10.7-0.0931 16-0.0331 7.76-0.0833 15.5-0.138 23.3-0.0883 12.7-0.164 25.3-0.231 38-0.0646 12.2-0.133 24.3-0.209 36.5-0.00462 0.744-0.00924 1.49-0.014 2.25-0.051 8.19-0.103 16.4-0.156 24.6-0.0142 2.2-0.0284 4.4-0.0426 6.6-0.0094 1.46-0.0188 2.91-0.0283 4.37-0.0546 8.42-0.106 16.8-0.151 25.3-0.179 33.7-0.583 67.3-1.37 101h-14c-0.606-59.8-1.11-120-1.12-180-0.00162-3.79-0.00518-7.59-0.00919-11.4-0.00579-5.95-0.00613-11.9-0.00175-17.8 9.96e-4 -2.18 4.1e-4 -4.37-0.00184-6.55-0.00252-2.97 0.00121-5.93 0.00676-8.9-0.00203-0.872-0.00405-1.74-0.00614-2.64 0.0212-5.93 0.0212-5.93 1.14-8.16h-2c-1.35-1.65-2.69-3.32-4-5-0.66-0.33-1.32-0.66-2-1v-2c-1.94-0.0541-3.87-0.0928-5.81-0.125-1.62-0.0348-1.62-0.0348-3.27-0.0703-3.11-0.0349-3.11-0.0349-5.92 2.2h-3v3c-0.99 0.33-1.98 0.66-3 1-10.3 12.1-13.4 28.2-13.5 43.6-0.0166 1.31-0.0332 2.63-0.0503 3.98-0.0448 3.59-0.0718 7.17-0.0952 10.8-0.0281 3.83-0.0728 7.66-0.115 11.5-0.095 8.93-0.163 17.9-0.227 26.8-0.0291 3.96-0.0612 7.92-0.0931 11.9-0.191 24-0.334 48-0.464 72-0.0425 7.86-0.0877 15.7-0.138 23.6-0.0281 4.39-0.0518 8.78-0.0719 13.2-0.0164 3.3-0.0392 6.61-0.0611 9.91-0.00418 1.2-0.00837 2.39-0.0127 3.63-0.00834 1.08-0.0167 2.16-0.0253 3.27-0.00773 1.41-0.00773 1.41-0.0156 2.85-0.136 2.12-0.136 2.12-1.14 3.12-2.35 0.0727-4.71 0.0837-7.06 0.0625l-3.91-0.0273c-1.5-0.0174-1.5-0.0174-3.03-0.0352-1.2-3.59-1.14-6.84-1.13-10.6-0.00172-0.78-0.00345-1.56-0.00522-2.36-0.00438-2.63-0.00137-5.26 0.00181-7.89-0.0011-1.89-0.00254-3.78-0.00427-5.67-0.00294-5.17 0.00147-10.3 0.00811-15.5 0.00397-3.24 0.00649-6.48 0.00867-9.72 0.0265-34.4 0.177-68.7 0.44-103 0.0379-4.96 0.0717-9.92 0.102-14.9 0.0363-5.87 0.0826-11.7 0.137-17.6 0.0185-2.17 0.0337-4.33 0.0454-6.5 0.0168-2.96 0.0457-5.93 0.0778-8.89 0.00324-1.29 0.00324-1.29 0.00654-2.61 0.0647-4.64 0.606-8.32 2.31-12.7 0.417-2.12 0.793-4.24 1.12-6.38 0.168-1.06 0.335-2.12 0.508-3.21l0.367-2.41h2v-2h2c0.186-1.28 0.371-2.56 0.562-3.88 1.29-5.91 4.46-10.6 8.44-15.1h2c0.33-0.99 0.66-1.98 1-3 4.34-4 4.34-4 8-4v-2c7.57-2.71 15.1-4.62 23-2 2.33 0.0395 4.67 0.044 7 0v-12c-4.98-0.0249-9.96-0.0429-14.9-0.0549-1.69-5e-3 -3.38-0.0118-5.07-0.0205-2.44-0.0122-4.89-0.0178-7.33-0.0222-0.746-0.00516-1.49-0.0103-2.26-0.0156-7.11-7.46e-4 -13.7 0.651-20.4 3.11-3.26 1.01-6.52 2.01-9.78 3l-3.22 1c-1.1 0.309-2.21 0.619-3.34 0.938-0.877 0.351-1.75 0.701-2.66 1.06-0.33 0.99-0.66 1.98-1 3h-2c-1.27 4.9-1.15 9.75-1.14 14.8-0.00353 0.991-0.00705 1.98-0.0107 3-0.0107 3.33-0.0144 6.65-0.0181 9.98-0.00631 2.38-0.0131 4.77-0.0203 7.15-0.0147 5.14-0.0264 10.3-0.0359 15.4-0.0139 7.44-0.0351 14.9-0.0584 22.3-0.0379 12.1-0.0729 24.2-0.105 36.3-0.0019 0.723-0.0038 1.45-0.00576 2.19-0.0268 10.3-0.0507 20.5-0.0734 30.8-0.0016 0.721-0.00319 1.44-0.00484 2.18-0.00159 0.72-0.00319 1.44-0.00483 2.18-0.0268 12-0.0613 24.1-0.102 36.1-0.0225 6.75-0.0412 13.5-0.0504 20.3-0.00896 6.36-0.027 12.7-0.0518 19.1-0.00744 2.33-0.0116 4.65-0.012 6.98-0.00773 22.6-0.00773 22.6-2.3 33.4-9.18 0.195-9.18 0.195-12 0-2-2-2-2-2.25-4.92 8.17e-4 -1.89 8.17e-4 -1.89 0.00165-3.82-0.00242-0.702-0.00483-1.4-0.00732-2.13-0.00567-2.37 0.00305-4.74 0.0116-7.11-0.00105-1.7-0.00296-3.4-0.00568-5.1-0.00482-4.66 0.00297-9.31 0.013-14 0.00864-4.94 0.00622-9.87 0.00529-14.8 1.74e-4 -9.5 0.0116-19 0.0275-28.5 0.0126-7.61 0.0209-15.2 0.0266-22.8 0.0373-48.6 0.0984-97.2 0.614-146 0.0147-1.45 0.0147-1.45 0.0297-2.92 0.0546-5.37 0.115-10.7 0.186-16.1 0.0201-1.54 0.039-3.08 0.0564-4.62 0.0238-2.03 0.0544-4.06 0.0856-6.1 0.0155-1.11 0.0311-2.22 0.0471-3.36 0.148-2.75 0.539-5.27 1.16-7.94h-2c-0.0463-13.1-0.0818-26.2-0.104-39.4-0.0104-6.09-0.0246-12.2-0.0473-18.3-0.0217-5.87-0.0337-11.7-0.0389-17.6-0.0037-2.24-0.0109-4.49-0.0217-6.73-0.0145-3.14-0.0165-6.27-0.0156-9.41-0.00719-0.934-0.0144-1.87-0.0218-2.83 0.00275-0.854 0.0055-1.71 0.00833-2.59-0.00184-0.742-0.00369-1.48-0.00559-2.25 0.246-1.95 0.246-1.95 2.25-4.95h-2c-0.144-0.908-0.289-1.82-0.438-2.75-0.599-3.67-0.599-3.67-1.56-7.25-0.66-0.33-1.32-0.66-2-1-4-5.41-4-5.41-4-9h-2c0.33-1.65 0.66-3.3 1-5 1.32-0.33 2.64-0.66 4-1v-2c2.91-2.04 4.4-3 8-3 1.03 2.57 2.05 5.14 3 7.75 0.784 2.41 0.784 2.41 3 3.25 0.144 0.619 0.289 1.24 0.438 1.88 0.669 2.53 1.58 3.46 3.56 5.12 0.66 0.33 1.32 0.66 2 1 0.309 1.75 0.309 1.75 0.438 4 0.295 3.44 0.92 6.32 2.12 9.56 1.57 4.36 1.76 7.82 1.44 12.4-0.33 0.66-0.66 1.32-1 2-0.0935 3.02-0.126 6.02-0.114 9.04-1.46e-4 0.937-2.92e-4 1.87-4.43e-4 2.84 6.98e-4 3.11 0.00849 6.21 0.0163 9.32 0.00186 2.15 0.00329 4.3 0.00429 6.45 0.00382 5.67 0.0137 11.3 0.0247 17 0.0102 5.78 0.0148 11.6 0.0198 17.3 0.0107 11.3 0.0278 22.7 0.0488 34 1.44-0.313 2.87-0.627 4.31-0.942 0.799-0.175 1.6-0.35 2.42-0.53 2.83-0.658 5.57-1.52 8.33-2.4 18.2-5.2 39.2-9.2 57.9-5.12-0.0314-1.22-0.0314-1.22-0.0635-2.46-0.0835-3.7-0.135-7.4-0.187-11.1-0.0335-1.28-0.067-2.55-0.102-3.87-0.0193-1.86-0.0193-1.86-0.0391-3.76-0.0314-1.7-0.0314-1.7-0.0635-3.44 1-7.43 5.96-12.3 11.1-17.3 0.657-0.658 1.31-1.32 1.99-1.99 2.16-2.16 4.33-4.3 6.5-6.45 1.51-1.5 3.02-3.01 4.53-4.51 3.96-3.95 7.94-7.9 11.9-11.8 4.04-4.01 8.07-8.03 12.1-12 6.51-6.49 13-13 19.6-19.4 0.572-0.568 1.14-1.14 1.73-1.72 0.528-0.521 1.06-1.04 1.6-1.58 1.26-1.26 2.5-2.55 3.73-3.85 1.71-1.59 1.71-1.59 3.71-1.59 0.33-0.99 0.66-1.98 1-3h2c0.209-0.544 0.418-1.09 0.633-1.65 1.88-3.23 4.49-5.51 7.24-7.98 0.53-0.49 1.06-0.98 1.61-1.48 2.16-1.96 4.13-3.71 6.78-4.98 2.32-1.22 2.66-2.57 3.74-4.91 1.66-1.92 1.66-1.92 3.5-3.75 0.608-0.614 1.22-1.23 1.84-1.86 1.66-1.39 1.66-1.39 3.66-1.39v-8c-0.547-0.106-1.09-0.212-1.66-0.321-5.64-1.16-10.8-2.84-16.2-4.99-0.779-0.308-1.56-0.615-2.36-0.932-5.43-2.16-10.8-4.42-16.2-6.81-9.94-3.51-20.8-1.3-30.5 2.27-3.46 1.23-7 2.11-10.5 3.04-2.93 0.817-5.79 1.78-8.68 2.75-2.6 0.781-5.2 1.55-7.81 2.31-1.12 0.327-1.12 0.327-2.25 0.661-3.68 1.08-7.37 2.15-11.1 3.22-9.15 2.66-18.2 5.48-27.3 8.4-4.84 1.56-9.68 3.03-14.6 4.41-1.39 0.464-1.39 0.464-2.81 0.938-2.76 0.921-5.53 1.82-8.31 2.69-1.24 0.391-1.24 0.391-2.51 0.789-2.37 0.586-2.37 0.586-6.37 0.586-1.08-3.24-1.15-5.65-1.19-9.06-0.0167-1.25-0.0334-2.51-0.0507-3.8-0.0137-1.38-0.0274-2.76-0.0411-4.15-0.0181-1.44-0.0367-2.88-0.0558-4.32-0.0497-3.82-0.0941-7.65-0.137-11.5-0.0756-6.73-0.158-13.5-0.245-20.2-0.00937-0.742-0.0187-1.48-0.0284-2.25-0.152-11.8-0.468-23.6-0.857-35.4-0.373-11.4-0.478-22.7-0.3-34.1 0.0302-2.09 0.0479-4.19 0.0642-6.28 0.0168-1.18 0.0337-2.36 0.051-3.57-0.318-5.11-1.4-9.89-4.52-14-0.436-0.578-0.871-1.16-1.32-1.75-1.52-1.86-1.52-1.86-4.05-4.25-2.34-2.41-3.32-4.2-4.31-7.38h-2c-0.312-2.31-0.312-2.31 0-5 3.47-2.49 7.09-3.87 11.1-5.19 1.03-0.344 2.07-0.688 3.13-1.04 2.74-0.77 2.74-0.77 5.74-0.77v-2c0.953-0.338 1.91-0.675 2.89-1.02 1.27-0.45 2.53-0.901 3.8-1.35 1.86-0.661 1.86-0.661 3.76-1.34 2.88-1.04 5.71-2.14 8.55-3.29-0.0133-0.575-0.0266-1.15-0.0404-1.74-0.134-6.04-0.224-12.1-0.289-18.1-0.03-2.25-0.0708-4.49-0.123-6.74-0.534-23.6-0.534-23.6 6.45-33.4 0.519-0.923 1.04-1.85 1.57-2.8 0.706-1.09 0.706-1.09 1.43-2.2h2v-2h2c0.66-1.65 1.32-3.3 2-5h2c0.66-1.32 1.32-2.64 2-4h2v-2c3.46-3 3.46-3 6-3 0.33-0.99 0.66-1.98 1-3 2.21-1.61 2.21-1.61 4.94-3.19 0.896-0.53 1.79-1.06 2.71-1.61 2.35-1.21 2.35-1.21 4.35-1.21v-2c0.857-0.326 1.71-0.652 2.6-0.988 1.14-0.437 2.29-0.874 3.46-1.32 1.69-0.644 1.69-0.644 3.41-1.3 2.3-0.906 4.59-1.87 6.84-2.89 4.45-1.81 8.9-2.98 13.6-4.12 0.847-0.217 1.69-0.433 2.57-0.656 5.52-1.37 10.9-2.2 16.6-2.72-0.12-4.73-0.244-9.46-0.372-14.2-0.0428-1.6-0.0845-3.2-0.125-4.81-0.229-9.01-0.557-18-1.37-26.9-0.217-5.06 0.164-10.3 1.87-15.1 3.22-3.38 7.64-4.38 12-5.69 0.712-0.225 1.42-0.45 2.16-0.682 3.46-1.06 6.19-1.63 9.84-1.63v-2h2v-2c0.66-0.33 1.32-0.66 2-1 0.756-2.75 1.41-5.46 2-8.25 1.03-4.79 2.17-9.2 4-13.8 0.52-2.41 0.996-4.83 1.44-7.25 1.39-7.31 3.14-14.1 6.56-20.8zm-42 86 1 3zm-16 56c-0.658 0.172-1.32 0.343-1.99 0.52-9.99 2.67-18.9 6.56-28 11.5v2c-0.742 0.268-1.49 0.536-2.25 0.812-2.64 1.14-4.61 2.28-6.75 4.19v2c-0.562 0.217-1.12 0.433-1.7 0.656-3.07 1.79-4.82 4.08-7.05 6.84-0.799 0.98-1.6 1.96-2.42 2.97-2.02 2.28-2.02 2.28-1.83 4.53h-2c-3.84 8.45-3.18 17.7-3.19 26.8-0.0122 1.34-0.0245 2.68-0.0371 4.02-0.00193 1.27-0.00387 2.53-0.00586 3.84-0.00411 1.15-0.00822 2.31-0.0125 3.5 0.025 3.09 0.025 3.09 2.24 5.89 6.68-0.607 12.7-2.78 19-5v-2c1.15-0.0825 2.31-0.165 3.5-0.25 3.82-0.479 6.65-1.73 10-3.58 3.18-1.51 6.48-2.55 9.83-3.61 5.35-1.71 10.3-3.75 15.2-6.37 10.9-5.42 23.2-9.47 35.1-5.67 0.968 0.329 0.968 0.329 1.96 0.664 0.692 0.226 1.38 0.451 2.1 0.684 5.41 1.79 10.7 3.8 16 5.89 10 3.93 20.3 7.32 30.5 10.7 5.2 1.71 10.3 3.61 15.3 5.76 3.75 1.33 7.37 1.57 11.3 1.83 1.27-3.8 0.941-7.19 0.688-11.1-0.0463-0.762-0.0927-1.52-0.14-2.31-0.366-5.36-1.13-10.4-2.55-15.6h-2c-0.402-1.55-0.402-1.55-0.812-3.12-1.01-3.53-2.46-6.63-4.19-9.88-0.667-1.33-1.33-2.67-2-4h-2c-0.0619-0.557-0.124-1.11-0.188-1.69-1.15-3.27-3.31-5.04-5.81-7.31-0.727-0.696-1.45-1.39-2.2-2.11-5.56-5.21-11.1-9.22-17.8-12.9-0.898-0.549-1.8-1.1-2.72-1.66-6.13-3.64-11.1-5.3-18.3-5.34v-2c-17.5-5.27-37.4-4.64-55 0zm-72 47 1 2zm188 19 1 2zm182 250v29h1v-29h-1zm-422 183v10h1v-10h-1z" fill="#F5F6F7"/>
<path transform="translate(870 837)" d="m0 0c0.639 0.598 1.28 1.2 1.94 1.81v2c0.639 0.268 1.28 0.536 1.94 0.812 2.06 1.19 2.06 1.19 3.06 4.19l2 2c2.94 5.35 4.32 11.3 6.06 17.2 0.659 2.71 0.659 2.71 1.94 3.84 1.33 10.5 1.08 21.2 0.914 31.8-0.0219 1.7-0.0433 3.4-0.0644 5.1-0.0452 3.55-0.0943 7.11-0.147 10.7-0.0654 4.45-0.123 8.9-0.178 13.4-0.137 11-0.31 22.1-0.525 33.1-0.0154 0.794-0.0308 1.59-0.0466 2.41-0.0893 4.5-0.192 8.99-0.313 13.5-0.0527 2-0.0965 4-0.14 6-0.0355 1.18-0.071 2.36-0.108 3.58-0.0274 1.03-0.0549 2.05-0.0832 3.11-0.309 2.42-0.309 2.42-2.31 4.42-2.5 0.371-2.5 0.371-5.44 0.438-0.968 0.04-1.94 0.0799-2.93 0.121-2.63-0.559-2.63-0.559-4.28-2.52-1.85-4.17-1.69-7.68-1.56-12.2 0.0128-0.945 0.0256-1.89 0.0388-2.86 0.0302-2.14 0.0671-4.27 0.109-6.41 0.0719-3.86 0.117-7.73 0.156-11.6 0.0766-7.35 0.176-14.7 0.283-22.1 0.0558-3.85 0.106-7.69 0.154-11.5 0.0389-2.99 0.082-5.98 0.126-8.98 0.0203-1.42 0.039-2.84 0.0561-4.26 0.0241-1.97 0.0547-3.94 0.0856-5.9 0.0155-1.12 0.0311-2.23 0.0471-3.38 0.136-2.48 0.513-4.5 1.16-6.88 0.0962-2.51 0.142-4.99 0.125-7.5-0.00411-0.709-0.00822-1.42-0.0125-2.15-0.15-14.3-1.2-27.1-11.6-37.9-6.22-5.46-11.7-6.97-19.7-6.87-0.844 0.00685-1.69 0.0137-2.56 0.0208-9.68 0.249-16.1 2.99-23.2 9.42h-2c-0.247 0.516-0.495 1.03-0.75 1.56-1.29 2.51-2.7 4.94-4.15 7.36-0.362 0.684-0.724 1.37-1.1 2.07-0.509 0.945-1.02 1.89-1.54 2.86-2.23 5.29-1.9 10.8-1.89 16.4-0.0102 1.22-0.0204 2.44-0.0309 3.7-0.0249 3.33-0.0368 6.66-0.0429 9.98-0.00941 3.48-0.0356 6.97-0.06 10.5-0.0436 6.59-0.0722 13.2-0.0953 19.8-0.0271 7.51-0.071 15-0.116 22.5-0.0927 15.4-0.164 30.9-0.222 46.3-2.88 0.625-2.88 0.625-6 1-0.66-0.66-1.32-1.32-2-2-0.804-0.268-1.61-0.536-2.44-0.812-3.45-1.6-4.03-2.68-5.56-6.19-0.445-3.72-0.41-7.42-0.388-11.2-0.00526-1.13-0.0105-2.25-0.0159-3.42-0.0132-3.73-0.00446-7.46 0.00568-11.2-0.00202-2.59-0.00493-5.19-0.0087-7.78-0.00442-5.44 0.00172-10.9 0.016-16.3 0.0163-6.27 0.0111-12.5-0.00548-18.8-0.0153-6.05-0.0136-12.1-0.00485-18.2 2e-3 -2.57-4.39e-4 -5.13-0.00744-7.7-0.00765-3.59 0.00404-7.19 0.0207-10.8-0.00607-1.05-0.0121-2.11-0.0184-3.19 0.11-12.9 5.38-24.5 13.4-34.5h2c0.33-0.99 0.66-1.98 1-3 3.44-3 3.44-3 6-3v-2c20.5-12 41-14.1 61.1 0.188zm2.94 40.8 1 4zm-85 37v24h1v-24h-1z" fill="#F7F8F9"/>
<path transform="translate(577 827)" d="m0 0c1.04-0.0161 2.09-0.0322 3.17-0.0488 1.5-9.67e-4 1.5-9.67e-4 3.03-0.00195 1.36-0.00447 1.36-0.00447 2.76-0.00903 2.77 0.437 3.64 1.22 5.36 3.37l-1 1c-0.0723 1.85-0.0838 3.71-0.0625 5.56 0.00902 1.01 0.018 2.02 0.0273 3.07 0.0116 0.782 0.0232 1.56 0.0352 2.37-2.56 1.28-4.42 1.14-7.28 1.18-1.61 0.0358-1.61 0.0358-3.25 0.0723-2.24 0.0423-4.48 0.0739-6.72 0.0938-10.5 0.269-19 3.13-27.8 8.72-1.63 1.01-1.63 1.01-3.29 2.04-2.84 1.8-2.84 1.8-4.65 4.9h-2c-0.269 0.714-0.539 1.43-0.816 2.16-1.2 2.87-2.6 5.5-4.12 8.21-6.74 12.3-10.3 24.5-11.7 38.4-0.395 3.24-0.395 3.24-1.39 5.24-1.66 11.1-1.17 22.5-1.21 33.6-0.00959 2.18-0.0196 4.36-0.03 6.54-0.0269 5.89-0.048 11.8-0.068 17.7-0.022 6.16-0.0493 12.3-0.0761 18.5-0.0498 11.7-0.0948 23.3-0.138 35-0.0495 13.3-0.104 26.5-0.16 39.8-0.114 27.3-0.221 54.6-0.323 81.9-2.12 0.0539-4.25 0.0927-6.38 0.125-1.18 0.0232-2.37 0.0464-3.59 0.0703-3.04-0.195-3.04-0.195-5.04-2.2-0.198-3.03-0.269-5.96-0.254-8.99-0.00468-1.41-0.00468-1.41-0.00945-2.86-0.00802-3.18-0.00164-6.36 0.00463-9.54-0.00271-2.27-0.00627-4.54-0.0106-6.81-0.00915-6.19-0.00557-12.4 7.58e-4 -18.6 0.00505-6.47 3.71e-4 -12.9-0.00277-19.4-0.00388-11.6 0.00236-23.1 0.0125-34.7 0.00892-10.5 0.0074-21-0.00184-31.4-0.0107-12.2-0.0147-24.3-0.00878-36.5 0.00312-6.44 0.00354-12.9-0.00307-19.3-0.00579-6.06-0.00175-12.1 0.00979-18.2 0.00264-2.22 0.00189-4.45-0.00253-6.67-0.00548-3.04 0.00141-6.08 0.0114-9.12-0.00446-0.875-0.00892-1.75-0.0135-2.65 0.0358-5.66 0.881-10.8 2.27-16.2 0.316-1.46 0.627-2.93 0.93-4.39 3.02-14.2 7.32-26.7 14.1-39.6 0.67-1.33 1.34-2.66 2-4h2c0.268-0.639 0.536-1.28 0.812-1.94 1.19-2.06 1.19-2.06 4.19-3.06 0.309-0.784 0.619-1.57 0.938-2.38 1.21-3 2.31-3.99 5.06-5.62h2c0.33-0.99 0.66-1.98 1-3 7.24-5.18 15.5-7.61 24-10 0.877-0.36 1.75-0.719 2.66-1.09 5-1.36 9.88-1.24 15-1.22zm-75.7 85.3 1 2zm0 7v7h1v-7h-1z" fill="#F7F8F9"/>
<path transform="translate(931 744)" d="m0 0c0.968 0.04 1.94 0.0799 2.93 0.121 0.971 0.0219 1.94 0.0438 2.94 0.0664 2.5 0.371 2.5 0.371 4.5 2.37v2c0.0141 2 0.0292 4 0.0447 6 0.00986 1.28 0.0197 2.56 0.0299 3.88 0.00537 0.694 0.0107 1.39 0.0163 2.1 0.124 16 0.24 32 0.352 48 0.0652 9.25 0.133 18.5 0.205 27.7 0.0636 8.08 0.123 16.2 0.177 24.3 0.0287 4.26 0.0594 8.53 0.0955 12.8 0.138 16.5 0.179 33-0.35 49.4-0.0397 1.28-0.0794 2.56-0.12 3.88-0.322 8.73-0.322 8.73-1.45 9.86-1.98 0.125-3.96 0.176-5.94 0.188-1.08 0.0142-2.16 0.0284-3.28 0.043-2.79-0.23-2.79-0.23-4.79-2.23-0.212-2.45-0.298-4.78-0.299-7.23-0.00791-0.754-0.0158-1.51-0.024-2.28-0.0241-2.54-0.0339-5.08-0.0438-7.62-0.0142-1.81-0.0292-3.63-0.045-5.44-0.0402-4.94-0.0677-9.88-0.092-14.8-0.0213-4.12-0.0486-8.24-0.0757-12.4-0.0638-9.72-0.117-19.4-0.164-29.2-0.0484-10-0.115-20.1-0.191-30.1-0.0644-8.61-0.117-17.2-0.16-25.8-0.0261-5.14-0.0566-10.3-0.0986-15.4-0.0389-4.84-0.0633-9.68-0.0764-14.5-0.00726-1.78-0.0197-3.55-0.0376-5.33-0.0237-2.42-0.0288-4.85-0.0291-7.27-0.0113-0.704-0.0225-1.41-0.0341-2.13 0.0282-4.95 0.574-9.88 6-11z" fill="#F9FAFB"/>
<path transform="translate(679 1011)" d="m0 0c0.901 0.0271 1.8 0.0541 2.73 0.082 1.03 0.0522 1.03 0.0522 2.08 0.105 1.46 2.65 2 3.89 2 7 0.266 2.07 0.561 4.13 0.875 6.19 0.162 1.09 0.325 2.17 0.492 3.29 0.589 3.56 0.589 3.56 1.61 7.16 1.71 6.64 2.16 13.5 2.88 20.3 0.594 5.31 1.41 9.96 3.14 15 0.64 3.73 1.1 7.49 1.56 11.2 0.248 1.98 0.499 3.97 0.754 5.95 0.108 0.873 0.215 1.75 0.326 2.65 0.256 2.19 0.256 2.19 1.36 4.15h2c-0.0348 0.9-0.0696 1.8-0.105 2.73-0.177 8.39 0.333 16.5 1.48 24.8 0.126 0.919 0.252 1.84 0.382 2.78 0.599 4.11 1.3 8.13 2.34 12.2 0.855 3.36 1.08 6.12 0.906 9.56-6.5 0.368-6.5 0.368-8.69-1.24-1.58-2.12-1.8-3.45-2-6.07-0.0645-0.789-0.129-1.58-0.195-2.39-0.141-2.77-0.188-5.52-0.117-8.3h-2v-6h-1c0.0232-0.748 0.0464-1.5 0.0703-2.27 0.018-0.985 0.0361-1.97 0.0547-2.98 0.0232-0.975 0.0464-1.95 0.0703-2.95-0.0383-3.12-0.0383-3.12-2.2-6.8h-23c-2.06 6.88-3.64 13-4.56 20.1-0.867 6.4-1.96 12.6-3.44 18.9h-8c-0.965-3.86-0.96-6.98-0.477-10.9 0.134-1.11 0.268-2.21 0.406-3.36 0.22-1.72 0.22-1.72 0.445-3.47 0.139-1.16 0.278-2.32 0.422-3.52 1.07-8.59 1.07-8.59 2.2-9.73 0.347-2.14 0.637-4.29 0.902-6.45 0.17-1.34 0.34-2.67 0.51-4.01 0.263-2.11 0.524-4.22 0.783-6.33 0.251-2.03 0.51-4.07 0.77-6.1 0.151-1.22 0.301-2.44 0.457-3.69 0.56-3.31 1.49-6.25 2.58-9.42 0.403-2.19 0.403-2.19 0.562-4.28 0.0748-0.761 0.15-1.52 0.227-2.31 0.104-1.16 0.104-1.16 0.211-2.35 0.384-4.26 0.77-8.27 1.96-12.4 1.44-5.12 1.98-10.3 2.6-15.6 0.247-2.08 0.499-4.16 0.754-6.24 0.108-0.914 0.215-1.83 0.326-2.77 0.357-2.11 0.357-2.11 1.36-3.11 0.624-3.36 1.2-6.72 1.72-10.1 0.498-2.91 0.956-5.39 2.56-7.9 2.39-1.39 4.17-1.3 6.91-1.19zm-1.19 23.2c-2.42 6.74-3.41 13-3.69 20.1-0.309 2.88-0.309 2.88-1.28 4.73-1.22 2.56-1.52 4.73-1.85 7.54-0.124 1.02-0.249 2.04-0.377 3.09-0.183 1.59-0.183 1.59-0.369 3.21-0.248 2.11-0.499 4.22-0.754 6.32-0.108 0.933-0.215 1.87-0.326 2.83-0.357 2.16-0.357 2.16-1.36 3.16-0.0979 1.5-0.13 3-0.125 4.5-0.00258 0.815-0.00516 1.63-0.00781 2.47-0.0917 2.03-0.0917 2.03 1.13 3.03 1.34 0.0863 2.69 0.107 4.04 0.0977 0.809-0.00322 1.62-0.00645 2.45-0.00977 0.85-0.00838 1.7-0.0168 2.58-0.0254 0.854-0.00451 1.71-0.00902 2.59-0.0137 2.12-0.0118 4.23-0.0298 6.35-0.0488 0.194-1.48 0.38-2.96 0.562-4.44 0.104-0.824 0.209-1.65 0.316-2.5 0.04-0.682 0.0799-1.36 0.121-2.07-0.495-0.495-0.495-0.495-1-1-0.141-2.67-0.0425-5.32 0-8h-1c-0.66-6.27-1.32-12.5-2-19h-2c-0.049-1.23-0.098-2.46-0.148-3.73-0.0751-1.63-0.151-3.27-0.227-4.9-0.0309-0.808-0.0619-1.62-0.0938-2.45-0.227-4.64-0.791-8.55-2.53-12.9h-1zm4 18 1 3zm6 38 1 4zm10 5v2c0.66-0.33 1.32-0.66 2-1-0.66-0.33-1.32-0.66-2-1z" fill="#F7F8F8"/>
<path transform="translate(875,1011)" d="m0 0h12c1.03 5.16 1.97 10.3 2.88 15.5 0.265 1.51 0.265 1.51 0.534 3.04 1.38 8 2.58 16 3.64 24.1 0.191 4.02 0.191 4.02 1.95 7.39 0.349 2.36 0.643 4.7 0.902 7.07 0.17 1.47 0.34 2.94 0.51 4.41 0.263 2.32 0.524 4.63 0.783 6.95 0.252 2.24 0.51 4.47 0.77 6.71 0.074 0.683 0.148 1.37 0.224 2.07 0.518 4.43 1.53 8.53 2.81 12.8 0.378 2.45 0.711 4.91 1 7.38 0.502 4.09 1.03 8.12 2 12.1 1.98 8.27 3.18 17 3 25.5h-7c-0.33-1.32-0.66-2.64-1-4h-2c-1.35-2.7-1-5.02-1-8-0.33-0.33-0.66-0.66-1-1-0.0718-1.52-0.0839-3.04-0.0625-4.56 0.00902-0.826 0.018-1.65 0.0273-2.5 0.0116-0.638 0.0232-1.28 0.0352-1.93h-1v-12c-0.99-0.495-0.99-0.495-2-1-0.33-1.32-0.66-2.64-1-4-7.59-0.33-15.2-0.66-23-1-0.598 3.65-1.2 7.3-1.81 11.1-4.52 27.3-4.52 27.3-6.19 28.9-2.67 0.141-5.32 0.0425-8 0-0.979-4.54-0.889-8.06-0.0742-12.6 0.22-1.27 0.44-2.53 0.666-3.84 0.24-1.33 0.48-2.65 0.721-3.98 1.62-9.13 3.1-18.2 4.25-27.4 0.432-3.06 1.1-5.92 1.94-8.88 1.04-4.61 1.47-9.36 2.04-14 0.465-3.2 0.465-3.2 1.46-5.2 0.339-2.23 0.632-4.46 0.902-6.7 0.17-1.37 0.34-2.74 0.51-4.11 0.263-2.15 0.523-4.3 0.783-6.46 0.893-7.37 1.84-14.6 3.8-21.7 0.686-3.44 1.27-6.89 1.86-10.4 0.654-3.67 1.45-6.26 3.14-9.65zm6 24c-2.8 4.01-3.7 7.71-4.32 12.5-0.102 0.717-0.204 1.43-0.309 2.17-0.323 2.29-0.63 4.57-0.937 6.86-0.209 1.51-0.42 3.01-0.631 4.52-0.412 2.94-0.82 5.88-1.23 8.83-1.99 14.3-1.99 14.3-3.26 20.4-0.105 0.912-0.21 1.82-0.318 2.76 1.77 2.18 1.77 2.18 3.97 2.23 1.18-0.0157 1.18-0.0157 2.38-0.0317 1.28-0.00967 1.28-0.00967 2.58-0.0195 0.889-0.0168 1.78-0.0335 2.7-0.0508 1.35-0.0135 1.35-0.0135 2.72-0.0273 2.22-0.0236 4.44-0.0565 6.66-0.0977 0.00773-1.24 0.0155-2.48 0.0234-3.76 0.00435-0.698 0.0087-1.4 0.0132-2.12-0.0809-4.69-0.42-8.2-3.04-12.1-0.258-2.69-0.089-5.29 0-8h-1c-0.049-0.88-0.098-1.76-0.148-2.67-0.0748-1.16-0.15-2.32-0.227-3.52-0.0696-1.15-0.139-2.3-0.211-3.48-0.392-3.16-1.21-5.42-2.41-8.33-0.125-2.1-0.125-2.1 0-4.06 0-3.69-0.174-4.93-2-7.94-0.368-1.32-0.712-2.66-1-4zm17 100v5h1v-5h-1z" fill="#F5F6F7"/>
<path transform="translate(812 1015)" d="m0 0c1.65 1.04 1.65 1.04 4.03 2.98v2c0.99 0.33 1.98 0.66 3 1 0.5 1.67 0.5 1.67 1 4 0.975 2.09 1.98 4.18 3 6.25 2.4 5.09 3.78 9.15 4 14.8-5.62 1.12-5.62 1.12-9 0-0.124-0.743-0.247-1.48-0.375-2.25-0.59-2.59-1.39-4.42-2.62-6.75-0.227-0.784-0.454-1.57-0.688-2.38-2.33-4.66-6.4-7.99-11.3-9.62-7.46-0.665-13-0.664-19 4-6.25 5.96-8.05 13.1-8.34 21.6-0.0599 3.64-0.0484 7.28-0.0247 10.9 5.2e-4 1.59-2.36e-6 3.17-0.00151 4.76 8.92e-5 3.3 0.0104 6.61 0.0286 9.91 0.0228 4.23 0.0232 8.45 0.0165 12.7-0.00335 3.27 0.0033 6.53 0.0131 9.8 0.00383 1.56 0.00501 3.12 0.00341 4.67-3.73e-4 2.18 0.0123 4.35 0.0285 6.53 0.00461 1.24 0.00921 2.47 0.014 3.74 0.563 7.31 3.31 11.8 8.76 16.6 5.98 4.33 11.2 4.72 18.5 3.81 5.65-2.12 9.26-5.63 12-11 1.14-3.3 2.12-6.62 3-10 6.62-1.25 6.62-1.25 10 1-0.33 0.66-0.66 1.32-1 2v1c-1.72 12-1.72 12-5 16h-2c-0.268 0.598-0.536 1.2-0.812 1.81-1.19 2.19-2.28 3.6-4.19 5.19h-2v2c-8.19 4.06-16 5.81-25 3.09-2.39-0.946-4.71-1.95-7.02-3.09v-2c-0.598-0.0825-1.2-0.165-1.81-0.25-2.82-0.966-3.67-2.24-5.19-4.75v-2h-2c-0.338-0.748-0.675-1.5-1.02-2.27-0.446-0.985-0.892-1.97-1.35-2.98-0.661-1.46-0.661-1.46-1.34-2.95-1.16-2.67-1.16-2.67-2.35-4.53-1.31-3.18-1.19-5.94-1.19-9.37-0.0035-0.708-0.00701-1.42-0.0106-2.15-0.00879-2.34-0.00297-4.67 0.00378-7.01-0.00135-1.63-0.00329-3.26-0.0058-4.9-0.00295-3.42 0.00133-6.84 0.0107-10.3 0.0113-4.37 0.00486-8.73-0.00714-13.1-0.00726-3.37-0.00491-6.74 2.56e-4 -10.1 0.00133-1.61-2.75e-4 -3.22-0.00496-4.83-0.0319-14.1 0.907-27.8 11.3-38.5h2c0.33-0.99 0.66-1.98 1-3 10.4-7 21.8-7.75 33-1.98z" fill="#F6F7F8"/>
<path transform="translate(1008 1010)" d="m0 0c1.38 7.9e-4 2.76 0.0289 4.14 0.0793 0.728 0.00707 1.46 0.0141 2.21 0.0214 2.32 0.028 4.65 0.0907 6.97 0.154 1.58 0.0251 3.15 0.0479 4.73 0.0684 3.86 0.0551 7.72 0.141 11.6 0.244 0.495 1.49 0.495 1.49 1 3-0.33 0.33-0.66 0.66-1 1-0.0409 2.33-0.0424 4.67 0 7-2.52 1.26-4.41 1.21-7.23 1.32-0.929 0.0381-1.86 0.0762-2.81 0.115-1.77 0.0647-1.77 0.0647-3.58 0.131-5.63 0.217-5.63 0.217-11.4 0.438-0.33 14.2-0.66 28.4-1 43 3.29 0.822 5.87 1.18 9.2 1.32 1.47 0.0628 1.47 0.0628 2.97 0.127 1.52 0.059 1.52 0.059 3.08 0.119 1.55 0.0648 1.55 0.0648 3.12 0.131 2.54 0.106 5.08 0.208 7.62 0.307v11c-12.4 0.495-12.4 0.495-25 1-0.33 17.5-0.66 35-1 53 10.8 0.289 10.8 0.289 21.5 0.568 1.35 0.0381 2.7 0.0766 4.05 0.115 1.05 0.0247 1.05 0.0247 2.13 0.0499 5.06 0.152 5.06 0.152 7.29 1.27-0.33 3.3-0.66 6.6-1 10-5.94 0.074-11.9 0.129-17.8 0.165-2.02 0.0151-4.05 0.0356-6.07 0.0615-2.9 0.0363-5.81 0.0534-8.71 0.0667-0.908 0.0155-1.82 0.031-2.75 0.0469-1.26 3.4e-4 -1.26 3.4e-4 -2.55 6.87e-4 -1.11 0.00999-1.11 0.00999-2.25 0.0202-0.606-0.119-1.21-0.238-1.83-0.361-2.2-3.31-2.25-4.3-2.26-8.15-0.00708-1.07-0.0142-2.13-0.0215-3.23 0.00248-1.17 0.00495-2.34 0.00751-3.54-0.00511-1.23-0.0102-2.46-0.0155-3.73-0.0115-3.38-0.014-6.76-0.0114-10.1 0.00107-2.82-0.00381-5.64-0.00861-8.46-0.0111-6.66-0.0115-13.3-0.00549-20 0.00604-6.86-0.00627-13.7-0.0276-20.6-0.0176-5.89-0.0236-11.8-0.0204-17.7 0.00181-3.52-8.2e-4 -7.04-0.0147-10.6-0.0149-3.93-0.0056-7.85 0.00601-11.8-0.00764-1.16-0.0153-2.33-0.0232-3.53 0.00701-1.07 0.014-2.14 0.0213-3.25-1.68e-4 -0.928-3.35e-4 -1.86-5.08e-4 -2.81 0.686-4.74 1.92-7.34 6.74-8.16z" fill="#F3F4F5"/>
<path transform="translate(928,1168)" d="m0 0c2.31 0.33 4.62 0.66 7 1 0.125 0.706 0.25 1.41 0.379 2.14 0.647 2.98 1.53 5.74 2.56 8.61 0.509 1.45 0.509 1.45 1.03 2.92 0.807 2.48 0.807 2.48 3.04 3.33l3 9c0.66 0.33 1.32 0.66 2 1v6c0.66 0.33 1.32 0.66 2 1 0.746 1.93 0.746 1.93 1.44 4.31 1.09 3.49 2.29 5.82 4.56 8.69 1.39 3.62 2.33 7.19 3 11h2c0.182 0.905 0.182 0.905 0.367 1.83 0.251 1.2 0.251 1.2 0.508 2.42 0.162 0.789 0.325 1.58 0.492 2.39 0.632 2.36 1.38 4.27 2.63 6.36 0.99 0.495 0.99 0.495 2 1 0.00809-0.856 0.0162-1.71 0.0245-2.59 0.0779-8.06 0.165-16.1 0.263-24.2 0.0499-4.15 0.0963-8.29 0.134-12.4 0.0369-4 0.0832-8 0.136-12 0.0185-1.53 0.0336-3.05 0.0453-4.58 0.0169-2.14 0.0459-4.28 0.0778-6.41 0.0133-1.22 0.0266-2.43 0.0404-3.69 0.264-2.94 0.739-4.63 2.28-7.1h7c-0.0147 1.02-0.0295 2.05-0.0447 3.1-0.138 9.62-0.271 19.2-0.398 28.9-0.0657 4.95-0.133 9.9-0.205 14.8-0.0693 4.77-0.134 9.54-0.195 14.3-0.0241 1.82-0.0501 3.65-0.0778 5.47-0.0385 2.55-0.0706 5.1-0.101 7.64-0.0129 0.76-0.0259 1.52-0.0392 2.3-0.115 3.85-0.115 3.85 1.06 7.45 0.243 4.94 0.255 8.49-2 13h-7c-3.44-6.49-6.24-13.1-8.8-20-1.01-2.57-2.1-4.98-3.38-7.42-2.49-4.78-3.81-9.21-3.81-14.6h-2c-3.96-7.46-7.03-15.1-10-23-1.53-4.79-1.53-4.79-5-8-0.33 24.1-0.66 48.2-1 73h-7c-1.28-3.83-1.16-7.44-1.16-11.4-0.00496-0.86-0.00993-1.72-0.015-2.61-0.0146-2.85-0.0214-5.7-0.0269-8.55-0.00575-1.98-0.0115-3.96-0.0173-5.94-0.0105-4.15-0.0164-8.3-0.0198-12.5-0.00549-5.32-0.0295-10.6-0.058-16-0.0186-4.09-0.0238-8.18-0.0254-12.3-0.00303-1.96-0.0111-3.92-0.0242-5.88-0.0171-2.74-0.0152-5.49-0.00869-8.23-0.00921-0.81-0.0184-1.62-0.0279-2.45 0.0341-4.6 0.592-7.54 3.38-11.2zm26 50 1 2z" fill="#F2F3F4"/>
<path transform="translate(381,1168)" d="m0 0c3.48-0.0588 6.96-0.0939 10.4-0.125 0.974-0.0168 1.95-0.0335 2.95-0.0508 8.88-0.0594 16.4 0.143 23.1 6.49 0.835 0.759 1.67 1.52 2.53 2.3 2.16 2.62 2.59 4.07 2.97 7.39 0.18 0.632 0.361 1.26 0.547 1.91 1.31 6.01 1.23 12.8-0.734 18.6-1.81 2.5-1.81 2.5-4.5 5.12-2.78 2.3-2.78 2.3-2.31 6.38 0.763 0.743 1.53 1.48 2.31 2.25 5.7 5.83 6.75 13.8 6.93 21.8 0.0329 1.13 0.0657 2.27 0.0996 3.44 0.0612 2.37 0.118 4.75 0.172 7.12 0.0342 1.13 0.0683 2.27 0.104 3.44 0.0251 1.03 0.0501 2.06 0.0759 3.12 0.311 2.96 1.07 5.19 2.3 7.88-2.75 0.312-2.75 0.312-6 0-3.68-3.62-4.52-6.2-4.64-11.3-0.0367-1.19-0.0735-2.38-0.111-3.6-0.028-1.85-0.028-1.85-0.0566-3.73-0.038-1.24-0.0761-2.48-0.115-3.76-0.233-9.13-0.233-9.13 0.928-12.6h-2c-1.36-1.98-2.69-3.98-4-6-3.63-4.23-7.54-5.4-13-6h-11c-0.33 15.5-0.66 31-1 47h-7c-1.29-3.86-1.15-7.51-1.15-11.5-0.00504-1.31-0.00504-1.31-0.0102-2.64-0.00951-2.89-0.0115-5.77-0.0125-8.66-0.00321-2-0.00658-4.01-0.0101-6.01-0.00599-4.2-0.00784-8.4-0.00725-12.6 1.02e-4 -5.39-0.0136-10.8-0.0308-16.2-0.0111-4.14-0.0131-8.28-0.0126-12.4-0.00118-1.99-0.00561-3.97-0.0133-5.96-0.00978-2.78-0.00693-5.55-8.95e-4 -8.33-0.00562-0.822-0.0112-1.64-0.017-2.49 0.0213-3.86 0.0556-6.91 2.26-10.2zm7 8c-1.72 5.67-1.18 11.7-1.19 17.6-0.0122 1.24-0.0245 2.49-0.0371 3.77-0.00193 1.19-0.00387 2.38-0.00586 3.61-0.00411 1.09-0.00822 2.18-0.0125 3.3 0.0399 2.97 0.0399 2.97 2.24 5.76 7.24 0.958 14.8 1.03 21-3 4.84-4.07 6.98-8.33 7.96-14.6 0.0547-3.81-1.11-6.16-2.96-9.45h-2c-0.33-0.99-0.66-1.98-1-3-4.93-4.42-9.9-4.14-16.2-4.06-1.12 0.00677-1.12 0.00677-2.26 0.0137-1.83 0.0117-3.66 0.0297-5.49 0.0488zm32 4 1 2zm-2 56 1 2z" fill="#F8F9FA"/>
<path transform="translate(452 1167)" d="m0 0c1.94 0.688 1.94 0.688 3.94 1.69-0.33 0.99-0.66 1.98-1 3-0.0622 2.48-0.067 4.93-0.0217 7.41 0.00961 0.751 0.0192 1.5 0.0291 2.28 0.033 2.48 0.0733 4.97 0.114 7.45 0.0243 1.72 0.0481 3.44 0.0715 5.17 0.0628 4.53 0.132 9.06 0.202 13.6 0.0707 4.62 0.136 9.25 0.201 13.9 0.129 9.07 0.265 18.1 0.404 27.2 0.99 0.33 1.98 0.66 3 1 1.67 1.67 3.33 3.33 5 5 4.88 3.08 10.4 2.73 16 2 4.04-1.81 6.54-4.31 9-8 0.37-2.54 0.37-2.54 0.414-5.46 0.0385-1.15 0.077-2.31 0.117-3.5 0.0466-1.91 0.0466-1.91 0.0942-3.86 0.0403-1.34 0.0809-2.68 0.122-4.02 0.241-8.76 0.263-17.5 0.207-26.3-0.00811-1.55-0.00811-1.55-0.0164-3.13-0.0286-5.18-0.0747-10.4-0.149-15.5-0.0157-1.92-0.0308-3.84-0.0454-5.77-0.0187-0.882-0.0373-1.76-0.0566-2.67-0.0195-4.71 0.104-8.04 3.31-11.8 2.69-0.312 2.69-0.312 5 0 3.65 16.7 2.16 35.5 2.29 52.6 0.0175 2.01 0.0418 4.02 0.0731 6.04 0.0422 2.87 0.0576 5.73 0.0666 8.6 0.0262 1.28 0.0262 1.28 0.0529 2.58-0.0219 6.2-1.6 10.7-4.48 16.2-0.394 0.759-0.788 1.52-1.19 2.3-2.81 5.35-6.11 7.71-11.8 9.7-3.19 0.527-6.27 0.562-9.5 0.5-0.803 0.0155-1.61 0.0309-2.43 0.0469-6.76-0.0438-12.2-1.74-17.1-6.51-0.446-0.651-0.892-1.3-1.35-1.97-0.715-1.04-0.715-1.04-1.45-2.11-1.36-2.26-2.37-4.45-3.18-6.95-0.511-1.09-0.511-1.09-1.03-2.21-1.17-3.38-1.22-6.14-1.21-9.72-0.0019-0.677-0.0038-1.35-0.00575-2.05-0.00369-2.23 0.00697-4.45 0.0182-6.68 0.00119-1.55 0.00164-3.11 0.00139-4.66 0.00156-3.25 0.00983-6.5 0.0233-9.75 0.017-4.16 0.0208-8.32 0.0201-12.5 2.72e-4 -3.2 0.00576-6.41 0.013-9.61 0.00318-1.53 0.00515-3.07 0.00589-4.6 0.00217-2.14 0.0109-4.29 0.0216-6.43 0.00381-1.22 0.00762-2.44 0.0116-3.7 0.206-4.78 0.206-4.78 1.13-7.1 3-2 3-2 5.06-1.69z" fill="#F4F5F6"/>
<path transform="translate(626,1173)" d="m0 0v3c0.99 0.33 1.98 0.66 3 1 6.48 12.2 4.31 30.9 4.26 44.3-0.0108 3.4 2.06e-5 6.81 0.0127 10.2-0.00132 2.18-0.00388 4.36-0.00781 6.54 0.00405 1.01 0.0081 2.02 0.0123 3.06-0.0335 5.02-0.282 9.16-2.28 13.9h-2c-0.268 0.598-0.536 1.2-0.812 1.81-2.42 4.46-5.54 6.24-10.2 8.19-2.82 0.416-5.59 0.42-8.44 0.375-0.725 0.0116-1.45 0.0232-2.2 0.0352-6.01-0.0324-10.7-1.19-15.4-5.14-0.532-0.626-1.06-1.25-1.61-1.9-0.54-0.611-1.08-1.22-1.64-1.85-5.28-7.95-6.28-14.8-6.24-24.3-0.0062-1.21-0.0124-2.41-0.0188-3.66-0.00707-2.54-0.00397-5.08 0.00877-7.62 0.0139-3.87-0.0202-7.73-0.0583-11.6-9.51e-4 -2.48 9.09e-4 -4.96 0.00586-7.44-0.0133-1.15-0.0265-2.29-0.0402-3.47 0.103-9.01 2.66-15.6 7.98-22.8 10.6-10.3 23.2-8.32 35.7-2.62zm-25 4v2c-0.577 0.0206-1.15 0.0412-1.75 0.0625-2.88 1.2-3.81 3.01-5.32 5.66-2.98 7.31-3.24 14.2-3.23 22-0.00429 1.11-0.00857 2.22-0.013 3.36-0.00572 2.33-0.00626 4.66-0.00191 7 0.00317 3.57-0.0204 7.14-0.0457 10.7-0.00227 2.27-0.00298 4.54-0.00195 6.81-0.00921 1.06-0.0184 2.13-0.0279 3.23-0.0717 7.12-0.0717 7.12 3.39 13.1 0.99 0.33 1.98 0.66 3 1 0.33 0.99 0.66 1.98 1 3h3v2c4.21 2.1 9.43 1.54 14 1 3.01-1.34 4.57-2.68 7-5v-2h2c1.08-3.23 1.16-5.64 1.21-9.03 0.0199-1.24 0.0399-2.48 0.0604-3.76 0.017-1.35 0.0339-2.71 0.0506-4.06 0.0206-1.39 0.0416-2.77 0.063-4.16 0.0552-3.64 0.105-7.29 0.153-10.9 0.0503-3.72 0.106-7.44 0.161-11.2 0.107-7.3 0.209-14.6 0.307-21.9h-2v-3h-2c-0.33-0.99-0.66-1.98-1-3-5.42-4.86-13.2-5.26-20-3z" fill="#F9FAFB"/>
<path transform="translate(940 1010)" d="m0 0c1.76 7.91e-4 3.52 0.029 5.28 0.0793 1.39 0.0106 1.39 0.0106 2.81 0.0214 2.97 0.028 5.93 0.0908 8.89 0.154 2.01 0.0251 4.02 0.0479 6.03 0.0684 4.93 0.0551 9.86 0.141 14.8 0.244 0.495 1.49 0.495 1.49 1 3-0.33 0.33-0.66 0.66-1 1-0.0409 2.33-0.0424 4.67 0 7-3.67 1.84-8.08 1.41-12.1 1.62-0.947 0.125-1.89 0.25-2.87 0.379-1.22 2.44-1.14 4.02-1.15 6.75-0.0125 1.5-0.0125 1.5-0.0253 3.04-0.00418 1.1-0.00837 2.21-0.0127 3.35-0.00829 1.16-0.0166 2.32-0.0251 3.51-0.0174 2.52-0.0326 5.05-0.0458 7.57-0.021 3.99-0.0479 7.97-0.0767 12-0.0652 9.18-0.121 18.4-0.176 27.5-0.0508 8.42-0.104 16.8-0.165 25.2-0.033 4.61-0.0583 9.21-0.0823 13.8-0.0166 2.4-0.0335 4.8-0.0507 7.2-0.00418 1.11-0.00837 2.21-0.0127 3.35-0.0125 1.5-0.0125 1.5-0.0253 3.03-0.00515 0.874-0.0103 1.75-0.0156 2.65-0.136 1.98-0.136 1.98-1.14 2.98-3.44 0.25-3.44 0.25-7 0-2.17-3.25-2.25-4.13-2.24-7.88-0.00275-1.01-0.0055-2.01-0.00833-3.05 0.00719-1.1 0.0144-2.2 0.0218-3.34-2.92e-4 -1.16-5.84e-4 -2.32-8.85e-4 -3.52 0.0014-3.85 0.017-7.69 0.0326-11.5 0.00373-2.66 0.00667-5.33 0.00858-7.99 0.00622-6.3 0.0226-12.6 0.0427-18.9 0.0223-7.17 0.0333-14.3 0.0434-21.5 0.0209-14.8 0.0561-29.5 0.101-44.3-0.892-0.0606-1.78-0.121-2.7-0.184-1.17-0.0838-2.34-0.168-3.55-0.254-1.16-0.0812-2.32-0.162-3.52-0.246-2.54-0.249-4.79-0.598-7.23-1.32-0.846-3.31-1.2-5.4-0.112-8.68 2.42-2.67 2.87-2.69 6.31-2.89z" fill="#FBFCFD"/>
<path transform="translate(351,1172)" d="m0 0c1.04 3.13 0.934 3.99 0 7-2.12 0.688-2.12 0.688-5 1-1.36-0.712-1.36-0.712-2.75-1.44-5.51-2.65-11.4-2.07-17.2-0.562v2c-0.99 0.33-1.98 0.66-3 1-6.02 7.46-5.28 18.5-5.2 27.6 0.00283 1.16 0.00566 2.32 0.00858 3.52 0.0111 3.68 0.0362 7.36 0.0617 11 0.01 2.51 0.0192 5.02 0.0273 7.52 0.0219 6.12 0.0553 12.2 0.0977 18.4 0.959 0.402 0.959 0.402 1.94 0.812 2.06 1.19 2.06 1.19 3.06 4.19h3l1 2c4.66 1.55 9.14 1.73 14 1 2.45-1.35 4.37-2.82 6.44-4.69 1.56-1.31 1.56-1.31 3.56-1.31v-29c-4.89-0.289-4.89-0.289-9.78-0.568-5.11-0.321-5.11-0.321-6.22-1.43-0.0408-2-0.0425-4 0-6 2.43-1.21 4.01-1.13 6.72-1.13 0.932-0.00129 1.86-0.00258 2.82-0.00391 1.46 0.0058 1.46 0.0058 2.96 0.0117 0.976-0.00387 1.95-0.00773 2.96-0.0117 1.4 0.00193 1.4 0.00193 2.82 0.00391 0.857 0.00113 1.71 0.00226 2.6 0.00342 2.12 0.129 2.12 0.129 4.12 1.13-0.33 0.99-0.66 1.98-1 3 0.01 2.46 0.0765 4.89 0.184 7.34 0.0419 1.49 0.0816 2.98 0.119 4.47 0.0612 2.33 0.134 4.66 0.246 7 0.446 9.64 0.283 16.5-6.35 24.2-5.45 5.04-11 5.54-18.2 5.47-0.768 0.02-1.54 0.04-2.33 0.0605-6.73-0.00572-10.9-1.85-15.9-6.61-3.61-4.68-5.69-7.91-5.82-13.9h-2c-0.127-7.63-0.215-15.3-0.275-22.9-0.025-2.59-0.0591-5.19-0.103-7.78-0.0611-3.74-0.0891-7.48-0.111-11.2-0.0258-1.15-0.0516-2.29-0.0782-3.47-0.00316-9.21 2.48-16 7.57-23.6h2c0.33-0.99 0.66-1.98 1-3 1.71-1.13 1.71-1.13 3.81-2.12 0.687-0.333 1.37-0.665 2.08-1.01 8.77-3.61 17.8-2.29 26.1 2.13z" fill="#F1F2F2"/>
<path transform="translate(739,1167)" d="m0 0c1.68 0.286 3.34 0.618 5 1 0.772 2.74 1.13 5.19 1.13 8.04 0.00193 1.12 0.00193 1.12 0.00391 2.26-0.00387 0.768-0.00773 1.54-0.0117 2.33 0.00387 0.776 0.00773 1.55 0.0117 2.35-0.01 5.77-0.01 5.77-1.14 8.02-0.101 1.67-0.138 3.34-0.145 5.01-0.00638 1.04-0.0128 2.09-0.0193 3.17-0.00111 1.13-0.00223 2.27-0.00337 3.43-0.00333 1.16-0.00666 2.32-0.0101 3.52-0.00507 2.46-0.00741 4.92-0.00725 7.39-0.00218 3.77-0.0203 7.53-0.0393 11.3-0.00293 2.39-0.00492 4.78-0.00586 7.17-0.00719 1.13-0.0144 2.25-0.0218 3.42 0.00308 1.05 0.00615 2.11 0.00932 3.19-0.00143 0.924-0.00285 1.85-0.00432 2.8 0.274 2.88 0.957 5.01 2.25 7.6 0.66 0.33 1.32 0.66 2 1v2h3c1.02 1.32 2.02 2.65 3 4 3.62 1.21 6.93 1.11 10.7 1.06 0.702-0.00451 1.4-0.00902 2.13-0.0137 1.73-0.0118 3.46-0.0297 5.19-0.0488v-2c1.65-1.35 3.32-2.68 5-4 2.38-3.57 2.3-6.13 2.3-10.3 0.0127-1.1 0.0127-1.1 0.0256-2.23 0.0258-2.43 0.0379-4.86 0.0504-7.3 0.0162-1.69 0.0334-3.38 0.0515-5.07 0.0457-4.45 0.0805-8.9 0.112-13.4 0.0518-7.12 0.117-14.2 0.188-21.4 0.0228-2.49 0.0391-4.98 0.0547-7.46 0.0134-1.53 0.027-3.05 0.0409-4.58 0.00392-1.04 0.00392-1.04 0.00792-2.1 0.0349-3.24 0.18-6.19 1.17-9.29 4.75-1.12 4.75-1.12 7 0-0.33 0.99-0.66 1.98-1 3-0.0706 2.54-0.0845 5.05-0.05 7.59 0.00628 0.771 0.0126 1.54 0.019 2.34 0.0138 1.67 0.0298 3.35 0.0476 5.02 0.0266 2.65 0.0445 5.3 0.0595 7.96 0.0427 7.54 0.0904 15.1 0.171 22.6 0.0486 4.61 0.0775 9.23 0.0937 13.8 0.00989 1.76 0.0271 3.51 0.0518 5.27 0.0338 2.46 0.0426 4.92 0.0459 7.38 0.0239 1.08 0.0239 1.08 0.0483 2.19-0.0367 6.12-2.34 9.6-6.52 13.9-0.669 0.571-1.34 1.14-2.03 1.73-0.672 0.584-1.34 1.17-2.04 1.77-3.03 2.26-5.62 2.55-9.28 2.55-0.839 0.00129-1.68 0.00258-2.54 0.00391-1.31-0.0058-1.31-0.0058-2.64-0.0117-1.31 0.0058-1.31 0.0058-2.65 0.0117-0.837-0.00129-1.67-0.00258-2.54-0.00391-0.766-0.00113-1.53-0.00226-2.32-0.00342-1.92-0.129-1.92-0.129-3.92-1.13v-2c-1.65-0.33-3.3-0.66-5-1v-2c-0.99-0.33-1.98-0.66-3-1-7.17-9.37-7.99-18.4-7.75-29.8 8e-3 -1.58 0.0132-3.17 0.0156-4.75 0.0121-3.29 0.0468-6.58 0.1-9.87 0.0683-4.21 0.0969-8.42 0.111-12.6 0.0151-4.04 0.0495-8.08 0.0855-12.1 0.00528-0.764 0.0106-1.53 0.016-2.32 0.0185-2.17 0.0507-4.33 0.0873-6.49 0.025-1.84 0.025-1.84 0.0505-3.72 0.301-3.39 0.783-6.74 3.29-9.25zm3 3c0.66 0.66 1.32 1.32 2 2v-2h-2z" fill="#F4F5F6"/>
<path transform="translate(584,1011)" d="m0 0c2.31 0.33 4.62 0.66 7 1-0.00138 0.933-0.00138 0.933-0.00279 1.88-0.0221 15.1-0.0386 30.2-0.049 45.3-0.00516 7.31-0.0122 14.6-0.0236 21.9-0.00995 6.37-0.0164 12.7-0.0186 19.1-0.00131 3.37-0.00439 6.75-0.0116 10.1-0.00721 3.76-0.00826 7.52-0.0078 11.3-0.0036 1.12-0.00719 2.25-0.0109 3.41 0.00137 1.02 0.00275 2.04 0.00417 3.09-0.00138 1.34-0.00138 1.34-0.00279 2.7-0.015 2.19-0.015 2.19 1.12 4.14 0.923-0.00524 1.85-0.0105 2.8-0.0159 3.43-0.017 6.85-0.0296 10.3-0.0391 1.48-0.00503 2.97-0.0119 4.45-0.0205 2.13-0.0121 4.26-0.0178 6.4-0.0222 1.28-0.00524 2.57-0.0105 3.89-0.0159 3.19 0.114 3.19 0.114 6.19 1.11-0.14 1.48-0.288 2.96-0.438 4.44-0.0812 0.824-0.162 1.65-0.246 2.5-0.316 2.07-0.316 2.07-1.32 3.07-3.01 0.126-5.99 0.189-9 0.203-0.904 0.0057-1.81 0.0114-2.74 0.0173-1.92 0.00946-3.83 0.016-5.75 0.0198-2.94 0.00971-5.88 0.0407-8.82 0.0723-1.86 0.00653-3.71 0.0118-5.57 0.0156-1.33 0.0185-1.33 0.0185-2.68 0.0374-2.48-0.00909-2.48-0.00909-6.45-0.366-2.13-3.19-2.25-3.98-2.25-7.64-0.00419-0.953-0.00839-1.91-0.0127-2.89 0.00562-1.04 0.0112-2.09 0.017-3.16-0.0019-1.1-0.0038-2.2-0.00575-3.34-0.00372-3.65 0.00701-7.31 0.0182-11 0.00119-2.54 0.00164-5.09 0.00139-7.63 0.00157-5.34 0.00962-10.7 0.0233-16 0.0156-6.15 0.021-12.3 0.0203-18.4-6.15e-4 -5.93 0.00464-11.9 0.0128-17.8 0.00317-2.51 0.00515-5.02 0.00589-7.54 0.00219-3.53 0.011-7.06 0.0216-10.6-4.53e-4 -1.02-9.06e-4 -2.05-0.00137-3.1 0.0901-20.7 0.0901-20.7 3.15-25.9z" fill="#EDEEEF"/>
<path transform="translate(531 1168)" d="m0 0c0.917-0.0122 1.83-0.0245 2.78-0.0371 7.71-0.0164 15.8 0.346 22.2 5.22 2.71 2.93 4.31 5.08 5 9 0.351 0.969 0.701 1.94 1.06 2.94 1.8 6.18 1.97 14-0.0625 20.1h-2c-0.0864 0.596-0.173 1.19-0.262 1.8-0.944 2.81-2.15 3.62-4.55 5.32-0.687 0.498-1.37 0.995-2.08 1.51-0.695 0.451-1.39 0.902-2.11 1.37-0.568 0.378-1.14 0.755-1.72 1.14-3.55 1.33-7.14 1.29-10.9 1.42-5.35-0.0197-5.35-0.0197-10.4 1.44-0.946 2.77-1.14 5.4-1.21 8.31-0.0199 0.841-0.0399 1.68-0.0604 2.55-0.0251 1.35-0.0251 1.35-0.0506 2.72-0.0208 0.927-0.0416 1.85-0.063 2.81-0.0653 2.95-0.124 5.91-0.183 8.86-0.0432 2.01-0.0868 4.01-0.131 6.02-0.107 4.91-0.208 9.82-0.307 14.7h-7c-1.28-3.84-1.14-7.45-1.13-11.4-0.00175-0.862-0.0035-1.72-0.00531-2.61-0.00441-2.85-0.00148-5.71 0.00189-8.56-6.73e-4 -1.98-0.00164-3.96-0.0029-5.94-0.00148-4.16 6.72e-4 -8.31 0.00534-12.5 0.00569-5.33 0.00242-10.7-0.00357-16-0.00361-4.09-0.00246-8.19 1.28e-4 -12.3 6.67e-4 -1.96-1.53e-4 -3.93-0.00248-5.89-0.00254-2.75 0.00133-5.49 0.0069-8.24-0.00202-0.813-0.00405-1.63-0.00613-2.46 0.0257-6.83 0.0257-6.83 1.14-10.1 3.67-1.83 8.02-1.18 12.1-1.19zm-3.06 8.19c-1.86 3.95-2.24 7.05-2.2 11.4 0.00645 1.2 0.0129 2.4 0.0195 3.64 0.0168 1.25 0.0335 2.49 0.0508 3.78 0.00902 1.27 0.018 2.53 0.0273 3.83 0.0235 3.12 0.0564 6.24 0.0977 9.35h2v2c12 0.77 12 0.77 23-3 4.77-5.35 5.81-11.2 5.48-18.2-0.714-4.17-2.13-7.17-5.48-9.81-5.34-2.83-9.46-3.4-15.4-3.19-1.1 0.0203-1.1 0.0203-2.22 0.041-1.78 0.0349-3.56 0.0887-5.35 0.146z" fill="#EBECED"/>
<path transform="translate(810,1167)" d="m0 0c2.01 0.287 4.01 0.619 6 1 0.33 0.99 0.66 1.98 1 3-0.33 0.33-0.66 0.66-1 1 0.172 1.61 0.423 3.22 0.707 4.81 0.175 0.994 0.349 1.99 0.529 3.01 0.19 1.05 0.38 2.1 0.576 3.18 0.179 1.02 0.357 2.03 0.541 3.08 0.806 4.53 1.65 9.04 2.69 13.5 1.12 4.88 1.75 9.81 2.39 14.8 1.5 12.2 1.5 12.2 5.56 23.6h2c0.049-0.704 0.098-1.41 0.148-2.13 1.52-20.1 1.52-20.1 3.83-26.6 1.42-4.5 1.84-9.01 2.39-13.7 3.04-24 3.04-24 7.62-28.6 2.62-0.125 2.62-0.125 5 0 1.09 3.26 0.905 3.86 0 7-0.283 1.65-0.547 3.29-0.797 4.95-0.152 0.982-0.303 1.96-0.459 2.98-0.163 1.06-0.326 2.11-0.494 3.2-1.62 10.3-3.47 20.6-5.5 30.8-1.17 5.94-2.25 11.9-3.22 17.9-0.994 5.98-2.08 12-3.15 17.9-0.229 1.28-0.459 2.56-0.695 3.88-0.559 3.12-1.12 6.24-1.68 9.37h-9c-0.33-1.65-0.66-3.3-1-5h-1c0.0651-1.99 0.13-3.97 0.195-5.96-0.0628-2.36-0.0628-2.36-2.2-5.04-0.0791-2.33-0.088-4.67 0-7h-1c0.0412-1.24 0.0825-2.47 0.125-3.75 0.00596-3.41-0.525-5.24-2.12-8.25-0.258-1.87-0.509-3.75-0.725-5.62-0.502-4.34-1.11-8.67-1.71-13-0.122-0.915-0.244-1.83-0.369-2.77-0.702-7.88-0.702-7.88-4.19-14.6-0.237-2.27-0.415-4.54-0.562-6.81-0.0838-1.24-0.168-2.49-0.254-3.77-0.133-2.47-0.184-4.94-0.184-7.42h-2c0.875-7.88 0.875-7.88 2-9zm1 17 1 2z" fill="#F4F5F6"/>
<path transform="translate(879 1167)" d="m0 0c1.11 0.00838 2.22 0.0168 3.36 0.0254 1.74 0.0435 1.74 0.0435 3.51 0.0879 1.16 0.00967 2.32 0.0193 3.52 0.0293 8.58 0.115 8.58 0.115 10.9 1.28-0.33 2.31-0.66 4.62-1 7-6.6 0.33-13.2 0.66-20 1-0.0459 4.38-0.0857 8.76-0.11 13.1-0.0101 1.49-0.0237 2.98-0.041 4.47-0.0242 2.14-0.0356 4.28-0.0444 6.42-0.0105 1.29-0.0209 2.58-0.0317 3.9-0.101 3.18-0.101 3.18 2.23 5.07 2.03 0.369 2.03 0.369 4.35 0.414 0.851 0.0387 1.7 0.0773 2.58 0.117 0.889 0.0309 1.78 0.0619 2.7 0.0938 0.897 0.0387 1.79 0.0773 2.72 0.117 2.22 0.0944 4.44 0.18 6.66 0.258-0.33 2.31-0.66 4.62-1 7-6.6 0.33-13.2 0.66-20 1v40c8.14-0.0396 8.14-0.0396 16.3-0.0901 1.01-0.0025 2.02-5e-3 3.06-0.00757 1.56-0.00786 1.56-0.00786 3.14-0.0159 2.52 0.114 2.52 0.114 4.52 1.11-0.33 1.98-0.66 3.96-1 6h-34c-1.3-3.89-1.16-7.58-1.16-11.6-0.00496-0.882-0.00993-1.76-0.015-2.67-0.0146-2.92-0.0214-5.84-0.0269-8.76-0.00575-2.03-0.0115-4.05-0.0173-6.08-0.0105-4.25-0.0164-8.5-0.0198-12.7-0.00549-5.45-0.0295-10.9-0.058-16.3-0.0186-4.19-0.0238-8.37-0.0254-12.6-0.00303-2.01-0.0111-4.02-0.0242-6.03-0.017-2.81-0.0152-5.62-0.00869-8.42-0.00921-0.832-0.0184-1.66-0.0279-2.52 0.0242-3.34 0.142-5.79 1.74-8.76 2.4-2.17 4.14-1.95 7.33-1.91z" fill="#EEEFF0"/>
<path transform="translate(1024,1168)" d="m0 0c2.31 0.33 4.62 0.66 7 1v88c3.48 1.74 7.65 1.37 11.5 1.52 3.65 0.19 5.38 0.406 8.5 2.48-0.33 1.32-0.66 2.64-1 4h-28c-1.28-3.83-1.16-7.44-1.16-11.4-0.00496-0.86-0.00993-1.72-0.015-2.61-0.0146-2.85-0.0214-5.7-0.0269-8.55-0.00575-1.98-0.0115-3.96-0.0173-5.94-0.0105-4.15-0.0164-8.3-0.0198-12.5-0.00549-5.32-0.0295-10.6-0.058-16-0.0186-4.09-0.0238-8.18-0.0254-12.3-0.00303-1.96-0.0111-3.92-0.0242-5.88-0.0171-2.74-0.0152-5.49-0.00869-8.23-0.00921-0.81-0.0184-1.62-0.0279-2.45 0.0341-4.6 0.592-7.54 3.38-11.2z" fill="#F5F6F7"/>
<path transform="translate(712,1167)" d="m0 0c2 0.25 2 0.25 4 1 1.19 3.57 1.14 6.81 1.13 10.5 0.00164 0.765 0.00327 1.53 0.00496 2.32 0.00857 8-0.0459 16-0.105 24-0.0261 3.79-0.0329 7.58-0.0225 11.4 0.0125 4.59-0.00935 9.17-0.055 13.8-0.0117 1.74-0.0117 3.48 6.1e-4 5.23 0.0565 9.32 0.0753 16.4-6.08 24-5.11 4.9-9.99 6.26-17 6.15-0.791-0.0335-1.58-0.067-2.4-0.102-0.822-0.018-1.64-0.0361-2.49-0.0547-2-0.0466-4.01-0.118-6.01-0.195-0.625-1.81-0.625-1.81-1-4 0.66-0.99 1.32-1.98 2-3 2.94-0.384 5.68-0.604 8.62-0.688 0.802-0.0342 1.6-0.0683 2.43-0.104 1.98-0.0826 3.96-0.147 5.95-0.209v-2c1.62-1.71 3.29-3.38 5-5 1.91-1.91 1.15-5.41 1.16-8.01 0.00508-0.733 0.0102-1.47 0.0154-2.22 0.0107-1.6 0.0193-3.2 0.0261-4.79 0.0118-2.53 0.0312-5.06 0.0531-7.59 0.0617-7.2 0.116-14.4 0.149-21.6 0.021-4.4 0.0563-8.79 0.101-13.2 0.0142-1.68 0.0229-3.35 0.0261-5.03 0.00491-2.35 0.0281-4.7 0.0553-7.04-0.00301-0.691-0.00601-1.38-0.00911-2.09 0.0806-4.69 1.06-8.07 4.43-11.4z" fill="#F5F6F7"/>
<path transform="translate(997,1167)" d="m0 0c2.97 0.495 2.97 0.495 6 1-0.33 0.99-0.66 1.98-1 3-0.0917 3-0.126 5.97-0.114 8.97-1.46e-4 0.917-2.92e-4 1.83-4.43e-4 2.78 6.97e-4 3.04 0.00848 6.07 0.0163 9.11 0.00186 2.1 0.00329 4.21 0.00429 6.31 0.00382 5.54 0.0136 11.1 0.0247 16.6 0.0102 5.65 0.0148 11.3 0.0198 17 0.0107 11.1 0.0278 22.2 0.0488 33.3h-6c-1.16-17.8-1.19-35.7-1.19-53.6 1.03e-4 -4.22-0.0137-8.43-0.0308-12.7-0.0111-3.27-0.0131-6.55-0.0126-9.82-0.00118-1.56-0.00558-3.11-0.0133-4.67-0.00978-2.16-0.00693-4.32-8.95e-4 -6.48-0.00143-1.22-0.00285-2.45-0.00432-3.71 0.235-2.96 0.691-4.62 2.25-7.11z" fill="#F5F6F7"/>
<path transform="translate(1130,898)" d="m0 0c-0.33 0.99-0.66 1.98-1 3-6.12 0.319-12.2 0.63-18.4 0.938-0.922 0.0464-1.84 0.0928-2.79 0.141-12.7 0.636-25.5 1.12-38.2 1.42-9.21 0.223-18.3 0.598-27.5 1.77-12.3 1.48-24.8 1.43-37.2 1.73 0.33-0.99 0.66-1.98 1-3 1.24-0.0297 1.24-0.0297 2.5-0.0601 3.11-0.0789 6.23-0.166 9.34-0.257 1.99-0.0564 3.98-0.104 5.97-0.151 1.28-0.0387 2.55-0.0773 3.87-0.117 1.16-0.0314 2.33-0.0628 3.52-0.0952 2.94-0.247 5.45-0.658 8.3-1.31 6.88-1.45 13.8-1.46 20.8-1.61 1.47-0.0387 2.95-0.0784 4.42-0.119 3.86-0.104 7.72-0.198 11.6-0.29 6.16-0.148 12.3-0.31 18.5-0.472 2.12-0.0547 4.25-0.105 6.37-0.154 7.98-0.196 15.9-0.588 23.9-1.16 1.64-0.114 3.27-0.202 4.91-0.202z" fill="#000100"/>
<path transform="translate(1277 891)" d="m0 0c1.63-0.00999 1.63-0.00999 3.29-0.0202 2.29-0.0101 4.57-0.0148 6.86-0.0145 3.49-0.00438 6.99-0.0408 10.5-0.0786 2.23-0.00587 4.45-0.00984 6.68-0.0117 1.04-0.0144 2.08-0.0287 3.15-0.0435 6.01 0.0378 9.57 0.454 14.1 4.5 0.495 0.99 0.495 0.99 1 2 0.99 0.33 1.98 0.66 3 1-0.33 0.99-0.66 1.98-1 3-3.08-1.75-5.56-3.44-8-6-2.41-1.2-3.93-1.13-6.61-1.15-0.958-0.00638-1.92-0.0128-2.9-0.0193-1.04-0.00111-2.08-0.00223-3.15-0.00337-1.07-0.00333-2.14-0.00666-3.24-0.0101-2.27-0.00507-4.53-0.00741-6.8-0.00725-3.45-0.00218-6.91-0.0203-10.4-0.0393-2.2-0.00294-4.4-0.00492-6.6-0.00586-1.03-0.00719-2.06-0.0144-3.12-0.0218-5.49 0.0173-9.93 0.621-15.2 2.25-2.61 0.223-5.14 0.369-7.75 0.414-1.09 0.0294-1.09 0.0294-2.21 0.0594-2.35 0.0604-4.7 0.107-7.04 0.152-1.62 0.0352-3.24 0.0706-4.86 0.106-3.22 0.0684-6.43 0.129-9.65 0.185-3.96 0.0697-7.92 0.174-11.9 0.283-2.06 0.0397-4.12 0.0777-6.18 0.113-0.931 0.0298-1.86 0.0596-2.82 0.0903-6.14 0.0551-6.14 0.0551-8.71-2.42-0.3-0.654-0.601-1.31-0.91-1.98 0.58 0.156 1.16 0.312 1.76 0.473 1.17 0.292 1.17 0.292 2.37 0.59 1.15 0.296 1.15 0.296 2.32 0.598 2.55 0.474 2.55 0.474 5.05-0.124 4.72-0.722 9.36-0.732 14.1-0.783 2.09-0.0329 4.18-0.0661 6.27-0.0996 3.28-0.0474 6.55-0.0919 9.83-0.131 3.18-0.0398 6.35-0.0913 9.53-0.144 1.46-0.0126 1.46-0.0126 2.95-0.0255 4.01-0.0724 7.39-0.234 11.3-1.36 4.99-1.41 9.79-1.32 15-1.33z" fill="#000100"/>
<path transform="translate(924,752)" d="m0 0h1v179h-1v-179z" fill="#FBFCFD"/>
<path transform="translate(400,1029)" d="m0 0h1v113h-1v-113z" fill="#FBFCFD"/>
<path transform="translate(812 1015)" d="m0 0c1.65 1.04 1.65 1.04 4.03 2.98v2c-3.04-0.919-5.62-1.73-8.24-3.55-3.58-1.87-6.24-1.81-10.3-1.76-1.93 0.0058-1.93 0.0058-3.91 0.0117-5.15 0.431-8.49 1.98-12.5 5.11-0.679 0.525-1.36 1.05-2.06 1.59-2.71 2.16-5.37 4.36-8 6.6 1.37-2.95 2.88-5.52 5-8h2c0.33-0.99 0.66-1.98 1-3 10.4-7 21.8-7.75 33-1.98z" fill="#000100"/>
<path transform="translate(626,1173)" d="m0 0v3c0.99 0.33 1.98 0.66 3 1 1.19 2.56 1.19 2.56 2 5-0.688-0.597-0.688-0.597-1.39-1.21-0.92-0.795-0.92-0.795-1.86-1.61-0.603-0.522-1.21-1.04-1.83-1.58-0.634-0.53-1.27-1.06-1.92-1.61-0.633-0.534-1.27-1.07-1.92-1.62-5.48-3.64-12.6-3.73-18.9-2.76-5.93 1.31-9.74 3.2-13.2 8.38-0.66-0.33-1.32-0.66-2-1 4.25-5.84 8.59-8.49 15.4-10.8 8.28-0.592 15.1 1.39 22.6 4.81z" fill="#000100"/>
<path transform="translate(936,1011)" d="m0 0h42c0.495 1.49 0.495 1.49 1 3-1.26-0.00524-2.51-0.0105-3.81-0.0159-4.66-0.0181-9.31-0.0296-14-0.0391-2.02-0.00503-4.03-0.0119-6.05-0.0205-2.9-0.0121-5.79-0.0178-8.69-0.0222-0.903-0.00516-1.81-0.0103-2.74-0.0156-0.841-7.55e-5 -1.68-1.51e-4 -2.55-2.29e-4 -0.739-0.00222-1.48-0.00444-2.24-0.00673-2.17 0.0494-2.17 0.0494-4.96 1.12 0.66-1.32 1.32-2.64 2-4z" fill="#000100"/>
<path transform="translate(394,887)" d="m0 0c1.39 0.0667 2.79 0.0854 4.19 0.0625 1.26-0.0206 2.52-0.0412 3.81-0.0625v2c-4.12 0.863-6.92 0.834-11 0-11-0.874-18.6 1.92-27 9-0.678 0.568-1.36 1.14-2.05 1.72-1.66 1.41-3.31 2.84-4.95 4.28l3-6h2c0.33-0.99 0.66-1.98 1-3 4.34-4 4.34-4 8-4v-2c7.57-2.71 15.1-4.62 23-2z" fill="#161716"/>
<path transform="translate(381,1168)" d="m0 0c3.48-0.0588 6.96-0.0939 10.4-0.125 0.974-0.0168 1.95-0.0335 2.95-0.0508 16.1-0.108 16.1-0.108 21.7 5.3 0.568 0.539 1.14 1.08 1.72 1.63 0.401 0.41 0.802 0.82 1.21 1.24-0.66 0.33-1.32 0.66-2 1-0.866-0.928-0.866-0.928-1.75-1.88-9.77-6.39-24-4.32-35.2-4.12 0.33-0.99 0.66-1.98 1-3z" fill="#000100"/>
<path transform="translate(318,1249)" d="m0 0c1.94 0.812 1.94 0.812 4 2 0.33 0.99 0.66 1.98 1 3h3c0.33 0.66 0.66 1.32 1 2 4.66 1.55 9.14 1.73 14 1 3.05-1.63 5.51-3.61 8-6 0.66 0.33 1.32 0.66 2 1-4.43 4.83-8.63 8.43-15.3 9.56-5.71-0.871-11.5-2.83-15.2-7.45-1.1-1.92-1.1-1.92-2.47-5.11z" fill="#000100"/>
<path transform="translate(879,1258)" d="m0 0c4.12-0.0289 8.25-0.0468 12.4-0.0625 1.76-0.0126 1.76-0.0126 3.56-0.0254 1.68-0.00483 1.68-0.00483 3.4-0.00977 1.56-0.00786 1.56-0.00786 3.14-0.0159 2.52 0.114 2.52 0.114 4.52 1.11-0.33 0.99-0.66 1.98-1 3-0.99-0.33-1.98-0.66-3-1-1.52-0.0697-3.04-0.0845-4.56-0.0625-0.879 0.00773-1.76 0.0155-2.66 0.0234-1.37 0.0193-1.37 0.0193-2.77 0.0391-1.81 0.0255-3.62 0.0466-5.44 0.0625-0.803 0.0116-1.61 0.0232-2.43 0.0352-2.13-0.0977-2.13-0.0977-5.13-1.1v-2z" fill="#000100"/>
<path transform="translate(1e3 1011)" d="m0 0h33c0.495 1.49 0.495 1.49 1 3-1.42-0.00786-1.42-0.00786-2.87-0.0159-3.53-0.0171-7.05-0.0296-10.6-0.0391-1.52-0.00502-3.05-0.0118-4.57-0.0205-2.19-0.0122-4.39-0.0178-6.58-0.0222-1.32-0.00524-2.64-0.0105-4-0.0159-2.7 0.0904-4.84 0.295-7.39 1.11 0.66-1.32 1.32-2.64 2-4z" fill="#000100"/>
<path transform="translate(781,1128)" d="m0 0c0.908 0.619 1.82 1.24 2.75 1.88 6.5 4.25 11.4 5.14 19.2 4.12 3-1.31 5.43-2.99 8-5 0.66-0.33 1.32-0.66 2-1-1.51 3.86-3.52 5.78-7 8-7.12 2.94-12.9 1.55-20-1-0.66-0.33-1.32-0.66-2-1v-2h-2c-0.33-1.32-0.66-2.64-1-4z" fill="#000100"/>
<path transform="translate(351,1172)" d="m0 0c0.495 1.48 0.495 1.48 1 3-6.59-1.78-6.59-1.78-8.88-3.04-5.26-2.38-11.8-1.81-17.1 0.164-2.4 1.21-4.71 2.47-6.99 3.88v-3c1.25-0.651 2.5-1.3 3.75-1.94 0.696-0.36 1.39-0.719 2.11-1.09 8.61-3.91 18-2.34 26.1 2.03z" fill="#000100"/>
<path transform="translate(459,1252)" d="m0 0c0.51 0.361 1.02 0.722 1.55 1.09 6.39 4.08 11.9 5.08 19.5 3.91 2.73-1.07 4.61-2.26 7-4-1.22 3.78-3.55 5.42-7.01 7.24-4.86 1.86-8.9 1.13-13.7-0.488-3.06-1.65-5.08-3.06-7.25-5.75v-2z" fill="#000100"/>
<path transform="translate(777,1251)" d="m0 0c0 3 0 3-2.19 5.56-4.36 3.78-7.84 4.92-13.7 4.75-3.82-0.568-7.01-2.07-10.1-4.32-2-2.75-2-2.75-3-5h3c1.02 1.32 2.02 2.65 3 4 3.62 1.21 6.93 1.11 10.7 1.06 0.702-0.00451 1.4-0.00902 2.13-0.0137 1.73-0.0118 3.46-0.0297 5.19-0.0488v-2c1.63-1.38 3.29-2.72 5-4z" fill="#000100"/>
<path transform="translate(594,1251)" d="m0 0c3 1 3 1 4 3 0.99 0.33 1.98 0.66 3 1v2c11.2 0.715 11.2 0.715 21-4-1.41 3.41-2.73 5.24-6 7-5.36 1.25-9.98 1.51-15-1-2.51-1.83-4.9-3.71-7-6v-2z" fill="#000100"/>
<path transform="translate(413,1203)" d="m0 0c0.33 0.66 0.66 1.32 1 2-4.35 4.72-7.22 6.83-13.7 7.23-1.97-0.0213-1.97-0.0213-3.99-0.043-1.01-9.67e-4 -1.01-9.67e-4 -2.05-0.00195-4.98-0.0446-4.98-0.0446-7.26-1.19l1-4c0.33 0.66 0.66 1.32 1 2 12.3 0.773 12.3 0.773 22.9-4.69 0.526-0.65 0.526-0.65 1.06-1.31z" fill="#000100"/>
<path transform="translate(552,1204)" d="m0 0c0.33 0.66 0.66 1.32 1 2-3.96 4.99-9.33 6.57-15.5 7.29-5.94 0.213-5.94 0.213-8.28-1.81-0.41-0.487-0.82-0.975-1.24-1.48 1.54-0.0735 1.54-0.0735 3.11-0.148 1.36-0.0751 2.72-0.151 4.08-0.227 0.674-0.0309 1.35-0.0619 2.04-0.0938 4-0.234 7.12-0.934 10.8-2.53h3c0.33-0.99 0.66-1.98 1-3z" fill="#000100"/>
<path transform="translate(1012,1067)" d="m0 0c0.553 0.158 1.11 0.317 1.67 0.48 2.55 0.569 4.92 0.73 7.53 0.836 1.47 0.0628 1.47 0.0628 2.97 0.127 1.02 0.0393 2.03 0.0786 3.08 0.119 1.55 0.0648 1.55 0.0648 3.12 0.131 2.54 0.106 5.08 0.208 7.62 0.307 0.33 0.99 0.66 1.98 1 3-8.25-0.33-16.5-0.66-25-1-0.66-1.32-1.32-2.64-2-4z" fill="#000100"/>
<path transform="translate(706,1250)" d="m0 0c0.33 0.99 0.66 1.98 1 3-3.32 3.84-6.18 6.66-11.3 7.62-2.25 0.127-4.51 0.201-6.76 0.215-2.92 0.166-4.49 0.658-6.95 2.17 0.66-1.65 1.32-3.3 2-5 8.41-0.495 8.41-0.495 17-1v-2c1.63-1.71 3.29-3.38 5-5z" fill="#000100"/>
<path transform="translate(878,1207)" d="m0 0c1.49 0.99 1.49 0.99 3 2 2.12 0.364 2.12 0.364 4.45 0.414 0.848 0.0387 1.7 0.0773 2.57 0.117 1.32 0.0464 1.32 0.0464 2.67 0.0938 0.893 0.0387 1.79 0.0773 2.71 0.117 2.2 0.0942 4.4 0.18 6.61 0.258-0.33 0.99-0.66 1.98-1 3-6.27-0.33-12.5-0.66-19-1-0.66-1.65-1.32-3.3-2-5z" fill="#000100"/>
<path transform="translate(1030,1257)" d="m0 0c0.99 0.33 1.98 0.66 3 1 3.18 0.226 6.36 0.393 9.55 0.518 3.64 0.19 5.35 0.413 8.45 2.48-0.33 0.66-0.66 1.32-1 2-0.99-0.33-1.98-0.66-3-1-3.21-0.161-6.42-0.296-9.64-0.342-1.99-0.084-1.99-0.084-5.36-0.658-1.46-2.04-1.46-2.04-2-4z" fill="#000100"/>
<path transform="translate(786,1014)" d="m0 0c-1.52 4.26-4.29 5.62-8 8-2.39 1.94-4.7 3.96-7 6 1.43-2.93 2.87-5.51 5-8h2c0.33-0.99 0.66-1.98 1-3 4.33-3 4.33-3 7-3z" fill="#282929"/>
<path transform="translate(676 1011)" d="m0 0c1.37 0.0174 1.37 0.0174 2.78 0.0352 0.919 0.00902 1.84 0.018 2.79 0.0273 0.71 0.0116 1.42 0.0232 2.15 0.0352 0.66 1.32 1.32 2.64 2 4-0.664-0.0954-1.33-0.191-2.01-0.289-6.7-0.914-6.7-0.914-13 1.29 2.41-4.97 2.41-4.97 5.29-5.1z" fill="#000100"/>
<path transform="translate(499,1170)" d="m0 0h2v29h-1c-0.33-9.57-0.66-19.1-1-29z" fill="#000100"/>
<path transform="translate(1205,1109)" d="m0 0h1v29h-1v-29z" fill="#000100"/>
<path transform="translate(516,985)" d="m0 0h1v26h-1v-26z" fill="#000100"/>
<path transform="translate(994,1244)" d="m0 0h1v18h-1v-18z" fill="#FBFCFD"/>
<path transform="translate(569,534)" d="m0 0h1v18h-1v-18z" fill="#000100"/>
<path transform="translate(924,1221)" d="m0 0h1v17h-1v-17z" fill="#FBFCFD"/>
<path transform="translate(744,1228)" d="m0 0h1v16h-1v-16z" fill="#000100"/>
<path transform="translate(1025,63)" d="m0 0h1v13h-1v-13z" fill="#000100"/>
<path transform="translate(582,1210)" d="m0 0h1v12h-1v-12z" fill="#FBFCFD"/>
<path transform="translate(633,1188)" d="m0 0h1v11h-1v-11z" fill="#000100"/>
<path transform="translate(888,895)" d="m0 0h1v10h-1v-10z" fill="#000100"/>
<path transform="translate(633,1207)" d="m0 0h1v9h-1v-9z" fill="#000100"/>
<path transform="translate(1205,993)" d="m0 0h1v9h-1v-9z" fill="#000100"/>
<path transform="translate(339,602)" d="m0 0h1v9h-1v-9z" fill="#FBFCFD"/>
<path transform="translate(999)" d="m0 0h1v9h-1v-9z" fill="#FBFCFD"/>
<path transform="translate(489,1201)" d="m0 0h1v8h-1v-8z" fill="#FBFCFD"/>
<path transform="translate(872,234)" d="m0 0h1v8h-1v-8z" fill="#FBFCFD"/>
<path transform="translate(1288,162)" d="m0 0h1v8h-1v-8z" fill="#FBFCFD"/>
<path transform="translate(744,1191)" d="m0 0h1v7h-1v-7z" fill="#000100"/>
<path transform="translate(1284,415)" d="m0 0h1v7h-1v-7z" fill="#000100"/>
<path transform="translate(426,1258)" d="m0 0h2c-0.33 1.32-0.66 2.64-1 4-0.33-1.32-0.66-2.64-1-4z" fill="#000100"/>
<path transform="translate(1138,1170)" d="m0 0h1v6h-1v-6z" fill="#FBFCFD"/>
<path transform="translate(693,1058)" d="m0 0h1v6h-1v-6z" fill="#000100"/>
<path transform="translate(1293,320)" d="m0 0h1v6h-1v-6z" fill="#000100"/>
<path transform="translate(825,1220)" d="m0 0h1v5h-1v-5z" fill="#000100"/>
<path transform="translate(949,1203)" d="m0 0h2c-0.33 1.32-0.66 2.64-1 4-0.33-1.32-0.66-2.64-1-4z" fill="#000100"/>
<path transform="translate(994,1173)" d="m0 0h1v5h-1v-5z" fill="#FBFCFD"/>
<path transform="translate(900,1089)" d="m0 0h1v5h-1v-5z" fill="#000100"/>
<path transform="translate(1204,1082)" d="m0 0h1v5h-1v-5z" fill="#000100"/>
<path transform="translate(899,1079)" d="m0 0h1v5h-1v-5z" fill="#000100"/>
<path transform="translate(823,1029)" d="m0 0c0.99 0.495 0.99 0.495 2 1-0.33 0.99-0.66 1.98-1 3-0.33-1.32-0.66-2.64-1-4z" fill="#000100"/>
<path transform="translate(339,593)" d="m0 0h1v5h-1v-5z" fill="#FBFCFD"/>
<path transform="translate(1038,266)" d="m0 0h1v5h-1v-5z" fill="#000100"/>
<path transform="translate(318,1242)" d="m0 0 1 4z" fill="#000100"/>
<path transform="translate(824,1212)" d="m0 0 1 4z" fill="#000100"/>
<path transform="translate(489,1192)" d="m0 0 1 4z" fill="#FBFCFD"/>
<path transform="translate(908,1136)" d="m0 0 1 4z" fill="#000100"/>
<path transform="translate(890,1024)" d="m0 0 1 4z" fill="#000100"/>
<path transform="translate(1329,955)" d="m0 0 2 1c-0.33 0.66-0.66 1.32-1 2-0.33-0.99-0.66-1.98-1-3z" fill="#000100"/>
<path transform="translate(1195,800)" d="m0 0 2 1c-0.33 0.66-0.66 1.32-1 2-0.33-0.99-0.66-1.98-1-3z" fill="#000100"/>
<path transform="translate(1094,693)" d="m0 0 1 4z" fill="#000100"/>
<path transform="translate(1079,579)" d="m0 0 2 1c-0.33 0.66-0.66 1.32-1 2-0.33-0.99-0.66-1.98-1-3z" fill="#000100"/>
<path transform="translate(785,554)" d="m0 0 2 1c-0.33 0.66-0.66 1.32-1 2-0.33-0.99-0.66-1.98-1-3z" fill="#000100"/>
<path transform="translate(1279,498)" d="m0 0 1 4z" fill="#000100"/>
<path transform="translate(1297,300)" d="m0 0 1 4z" fill="#000100"/>
<path transform="translate(549,480)" d="m0 0h2c-0.33 0.66-0.66 1.32-1 2-0.33-0.66-0.66-1.32-1-2z" fill="#000100"/>
</svg>
