<svg xmlns="http://www.w3.org/2000/svg" width="1280" height="1280" viewBox="0 0 1600 1576"><path fill="#F9FAFB" d="M1000 0h18l.148 3.95.227 5.18.094 2.59.117 2.54.095 2.32c.252 2.55.252 2.55 1.33 5.35 1.03 3.22 1.2 5.67 1.14 9.03l-.033 3.37-.065 3.48c-.808 12.4-.808 12.4 1.94 24.2 1.34 11.6 1.29 23.4 1.48 35.1.142 8.44.473 16.5 2.06 24.8 1.01 6.88.906 13.9 1.02 20.8.044 2.33.09 4.67.143 7 .032 1.44.06 2.88.08 4.32-.206 3.28-.206 3.28 1.21 5.99 1.39 8.95 1.05 18 .874 27-.06 5.8.263 10.5 2.13 16 .234 1.6.43 3.2.562 4.81.269 3.21.269 3.21 1.44 6.19.143 2.14.227 4.29.28 6.44l.114 3.96.105 4.16c.26 11.1.26 11.1 1.28 22.2.269 2.66.34 5.31.399 7.98l.072 3.06c.043 2.06.074 4.13.094 6.2.17 6.24 1.09 11.1 3.78 16.7 1.84 4.7 1.45 9.54-.12 14.2-.398 4.71-.432 7.63 1.95 11.7 2.22 4.25 2.86 8.02 3.24 12.8l.228 2.34c.617 6.62.974 13.3 1.24 19.9.135 3.13.135 3.13 1.31 5.17 1.13 2.29 1.5 4.16 1.85 6.68l.375 2.66.37 2.8c.132.947.263 1.89.397 2.87.746 5.51 1.36 11 1.77 16.5.258 2.43.716 4.71 1.26 7.09 1.38 6.71 1.42 13.4 1.57 20.2.159 5.2.714 9.28 2.43 14.2.415 3.86.46 7.75.566 11.6l.09 2.35.056 2.12c.2 2.23.2 2.23 2.29 4.9 1.37 5.01 1.36 10.2 1.61 15.4.142 3.94.142 3.94 1.39 7.62.233 3.51.394 7.01.518 10.5.157 3.38.372 6.15 1.49 9.38 1.68 5.23 1.43 10.6 1.56 16.1l.09 2.63.056 2.39c.121 2.2.121 2.2 2.29 3.97.271 2 .271 2 .31 4.43l.076 2.66c.035 1.85.066 3.7.093 5.55l.08 2.67.041 2.44c.49 2.76 1.72 4.05 3.4 6.26.417 2.12.417 2.12.477 4.37l.094 2.49.055 2.58c.152 4.99.368 9.67 1.38 14.6.24 3.55.343 7.11.43 10.7.209 4.91 1.34 7.9 3.57 12.3.334 2.77.553 5.36.625 8.12.088 4.96.088 4.96.873 9.83.54 2.2.676 4.19.748 6.45l.1 2.5c.06 1.73.117 3.45.171 5.18l.104 2.5.076 2.27c.34 2.39 1.21 4 2.3 6.13.244 2.45.402 4.91.5 7.38.187 5.29.187 5.29 1.5 10.4 1.52 4.94 1.44 9.87 1.57 15 .06 2.08.123 4.16.191 6.23l.073 2.77c.034 2.28.034 2.28 1.17 4.24.138 1.35.225 2.71.28 4.06l.114 2.41.21 5.05.114 2.41.092 2.21c.089 1.94.089 1.94 1.19 3.85.233 3.57.395 7.13.518 10.7.182 3.98.448 6.8 2.48 10.3 1.81 6.98 2.28 13.8 2 21l3 1 .152 2.06c.232 3.08.477 6.17.723 9.25l.238 3.25.254 3.12.222 2.87c.28 2.7.28 2.7 2.41 5.45.142 2.77.188 5.43.125 8.19l-.028 2.27c-.023 1.85-.06 3.69-.097 5.54l3 1c.194 1.48.38 2.96.562 4.44l.316 2.5c.04.682.08 1.36.12 2.07l-1 1a110.13 110.13 0 0 0-.062 5.56l.027 3.07.036 2.37h2l1 5h2l.312 2.69c.71 3.42 1.79 5.42 3.69 8.31l2 4h11c.081-2.71.14-5.42.188-8.12l.076-2.3c.066-5.12-.931-7.95-3.26-12.6-.405-2.89-.376-5.72-.312-8.62l-.01-2.27c.037-3.83.168-6.86 2.32-10.1h2v-2l47-1v-2c4.04-.317 6.32-.421 9.81 1.75 5.57 5.73 5.44 12.4 5.71 20 .186 4.02.576 6.67 2.48 10.2.287 2.24.49 4.49.625 6.75l.227 3.55.148 2.7h10c.206-.763.412-1.53.625-2.31 1.38-2.69 1.38-2.69 4.31-3.69 3.31-1.7 3.31-1.7 4.02-4.97.483-2.32.921-4.66 1.31-7 .762-3.13 1.33-4.05 3.74-6.03 1.64-3.1 2.11-5.81 2.38-9.25.307-3.46 1.05-5.91 2.62-9 2.35-4.82 2.47-9.31 2.73-14.6.375-4.37 1.67-8.08 3.27-12.1 2.28-5.99 3.22-10.6 3-17l1-3c.138-1.88.225-3.77.281-5.66l.113-3.35.105-3.5c.069-2.28.142-4.56.219-6.84l.092-3.07c.189-2.59.189-2.59 1.19-5.59.266-2.77.444-5.53.62-8.31.38-2.69.38-2.69 1.38-4.46 1.32-2.95 1.29-5.38 1.34-8.61l.09-3.73.067-3.89c.043-2.54.095-5.08.156-7.62l.057-3.41c.284-2.93.953-4.4 2.29-6.96.347-2.46.347-2.46.379-5.1.05-1.45.05-1.45.104-2.93l.08-3.04c.06-1.99.124-3.98.19-5.97l.073-2.67c.174-2.3.174-2.3 1.17-5.3.122-1.36.2-2.72.246-4.09l.1-2.38c.06-1.64.118-3.29.172-4.93l.104-2.38.076-2.16c.303-2.06.303-2.06 1.28-4.02 1.19-2.39 1.44-4.31 1.69-6.96l.268-2.8.252-2.91.287-2.93c.696-4.87.696-4.87-.475-9.45-.291-3.03-.278-6.08-.312-9.12-.03-.83-.058-1.66-.088-2.52-.044-4.29.132-7.31 2.38-11 3.38-5.99 2.67-13 2.71-19.7.038-2.7.087-5.41.137-8.11l.034-3.61c.142-2.97.142-2.97 1.14-5.97h2l-.124-1.96c-.18-2.93-.34-5.86-.501-8.79l-.195-3.08-.156-2.97-.16-2.73c.147-2.66.779-4.2 2.14-6.47h2l-.062-3.31c.063-3.69.063-3.69 1.06-6.69h2c-.06-.832-.06-.832-.124-1.68-.179-2.52-.34-5.05-.5-7.57l-.196-2.64-.156-2.56-.159-2.35c.155-2.52.937-4 2.14-6.2.305-2.45.305-2.45.375-5 .38-4.68.38-4.68 2.56-7.5l2.06-1.5 2-2-2.38-.25c-2.62-.75-2.62-.75-3.73-2.36-1.17-3.14-1.52-6.06-1.83-9.39-.133-1.22-.266-2.43-.402-3.69.34-3.31.34-3.31 2.84-5.75l2.5-1.56 3 2 2-1 2 1v-2l-7-1-1-7h-1c-.054-2.1-.093-4.21-.125-6.31l-.07-3.55c.195-3.14.195-3.14 2.2-6.14l2-1-.016-2.08c-.02-3.1-.034-6.2-.047-9.3l-.025-3.27-.01-3.12-.016-2.89c.114-2.34.114-2.34 1.11-4.34.28-1.62.501-3.24.688-4.88l.324-2.62c-.012-2.75-.6-4.18-2.01-6.51l3-1c1.23-3.01 1.23-3.01 2-6l-3-1c-.027-1.62-.046-3.25-.062-4.88l-.035-2.74c.097-2.38.097-2.38 1.1-4.38.198-1.81.345-3.63.465-5.45l.236-3.32c.156-2.3.31-4.61.46-6.91.08-1.1.16-2.2.24-3.33l.204-3.04c.426-3.17 1.33-5.93 2.39-8.94.27-1.95.48-3.91.625-5.88l.227-2.93.148-2.2h-2c-.043-1.67-.04-3.33 0-5l1-1c.146-1.99.227-3.98.28-5.97l.114-3.67.105-3.86c.068-2.51.14-5.02.219-7.53l.091-3.39c.19-2.58.19-2.58 1.19-3.58.16-2.21.277-4.42.375-6.62.343-5.51.98-9.55 3.62-14.4h2v-2h-2c-.956-5.84-1.15-11.2 0-17l1-1c1.23-7.67 2.68-16.9-1-24h2l-.07-2.64c-.122-8.02.458-15.5 2.07-23.4h1c.082-2.06.14-4.12.188-6.19l.105-3.48c-.32-3.65-1.42-5.27-3.29-8.33.287-1.34.628-2.68 1-4 .12-1.57.2-3.13.246-4.7l.1-2.72c.06-1.87.118-3.73.172-5.6.53-14 .53-14 3.48-17 .136-3.07.21-6.11.246-9.18l.1-5.69c.047-3 .091-6.01.13-9.01.04-2.89.092-5.78.144-8.67l.026-2.73.05-2.54.031-2.23c.272-1.95.272-1.95 2.27-4.95.275-1.98.275-1.98.195-4.16l-.02-2.53-.05-2.72-.023-2.8c-.024-2.95-.061-5.9-.102-8.85-.053-3.89-.093-7.77-.125-11.7l-.05-2.72-.02-2.52-.032-2.22c.227-1.81.227-1.81 2.23-3.81.1-2.29-.068-4.52-.223-6.81.223-2.19.223-2.19 1.7-3.54 1.98-2.16 1.94-3.42 2.03-6.32l.1-2.44.076-3.08.312-9.81h23c1 9 1 9 0 11-.237 2.51-.422 4.99-.562 7.5l-.135 2.19c-.23 3.95-.307 7.85-.177 11.8.053 3.2-.316 5.34-1.62 8.25-2.03 4.72-1.6 9.26-1.47 14.3-.03 3.71-.398 7.12-.965 10.8-.796 5.65-1.33 11.2-1.63 16.9l-.115 2.23c-.15 3.02-.291 6.03-.427 9.05-.103 2.24-.218 4.48-.333 6.73l-.184 3.98c-.38 3.22-.38 3.22-2.38 6.22-.286 2.77-.466 5.47-.562 8.25l-.112 2.45c-.117 2.58-.223 5.16-.326 7.74-.136 3.4-.283 6.79-.438 10.2l-.083 2.36c-.175 3.83-.499 6.71-2.48 10-.277 2.56-.277 2.56-.188 5.19l.02 2.67c-.067 2.13-.067 2.13 1.17 3.14.326 4.64.326 7.26-1.56 11.6-2.23 5.19-1.18 10.5-.566 15.9.129 3.49.129 3.49-.805 5.79-2 5.07-1.51 10.7-1.63 16.1l-.09 2.76-.057 2.51c-.312 2.5-1.17 4.07-2.29 6.3-.24 2.14-.24 2.14-.125 4.37l.047 2.49.156 5.14c.087 4.59-.173 7.75-2.08 12-.203 2.66-.203 2.66-.062 5.38.077 4.37-.027 8.35-.938 12.6l-2 2c-.26 2.88-.418 5.68-.5 8.56-.2 5.07-.393 9.93-1.62 14.9-1.19 3.49-1.19 3.49.125 6.56.56 5.47-.076 9.35-2.27 14.4-1.26 4.44-1.27 9-1.44 13.6-.211 5.68-.211 5.68-.787 7.89-.613 2.55-.702 4.95-.786 7.58l-.113 3.23-.105 3.36c-.72 22.4-.72 22.4-2.5 25.9a79.311 79.311 0 0 0-.246 4.46l-.1 2.67c-.06 1.86-.118 3.72-.172 5.59l-.104 2.68-.076 2.45c-.303 2.14-.303 2.14-2.3 5.14-.369 2.77-.369 2.77-.414 5.92l-.117 3.55-.093 3.72c-.04 1.21-.078 2.41-.117 3.66-.146 4.78-.29 9.55-.156 14.3-.085 3.18-.44 5.78-1.07 8.87-1.06 5.7-1.43 11.3-1.59 17l-.112 3.1c-.116 3.25-.222 6.49-.326 9.74-.416 12.8-.91 25.6-2.3 38.3-.7 6.45-1.08 12.9-1.27 19.4-.06 1.95-.123 3.9-.191 5.85l-.073 2.5c-.174 2.02-.174 2.02-1.17 4.02a86.18 86.18 0 0 0-.246 4.65l-.1 2.8c-.06 1.95-.118 3.89-.172 5.84l-.104 2.8-.075 2.56c-.303 2.35-.303 2.35-1.3 4.21-1.13 2.42-1.31 4.13-1.4 6.79l-.111 2.77-.092 2.97-.12 3.06c-.123 3.23-.235 6.45-.345 9.68a3491.9 3491.9 0 0 1-.357 9.7c-.077 2.01-.148 4.02-.214 6.04l-.102 2.75-.083 2.43c-.183 1.96-.183 1.96-1.18 3.96a76.853 76.853 0 0 0-.246 4.39l-.1 2.65c-.06 1.84-.118 3.67-.172 5.51-.183 4.7-.733 8.08-2.48 12.5-.368 3.39-.463 6.78-.562 10.2-.06 1.81-.123 3.61-.19 5.42l-.073 2.41c-.174 1.98-.174 1.98-1.17 3.98a82.168 82.168 0 0 0-.246 4.54l-.1 2.76c-.06 1.91-.118 3.81-.172 5.72-.199 5.34-.929 9.84-2.48 15-.253 2.6-.44 5.2-.562 7.81-.338 6.99-.338 6.99-1.44 9.19-.15 1.37-.248 2.75-.316 4.13l-.127 2.44-.119 2.55-.13 2.57c-.107 2.1-.208 4.2-.308 6.3h-2c-.33 6.27-.66 12.5-1 19h-2c-1.38 8.05-2.27 15.9-2.56 24.1-.5 3.29-1.14 3.71-3.44 5.9-.689 2.65-.689 2.65-1 5.62-.78 5.44-2.11 10.2-4 15.4h-2c-.193.652-.387 1.3-.586 1.98-.539 1.81-1.08 3.62-1.63 5.42-.583 1.94-1.13 3.89-1.66 5.85-1.49 3.65-3.4 5.89-6.12 8.75h-2l-1 3h-2v3l-2 1c-.268.763-.536 1.53-.812 2.31-1.48 3.35-3.27 4.52-6.19 6.69-.804.908-1.61 1.82-2.44 2.75-2.56 2.25-2.56 2.25-5.88 2.56l-2.69-.312v2l-5 2v3l-2 1c-.964 2.89-1.15 4.83-1.21 7.84l-.06 2.97-.05 3.2-.064 3.28c-.065 3.46-.124 6.93-.183 10.4l-.13 7.04c-.108 5.76-.21 11.5-.308 17.3 5.42 1.46 9.43 2.15 15 1 3.5-.19 7.01-.208 10.5-.246l6.23-.1c3.25-.047 6.5-.091 9.75-.13 3.15-.04 6.31-.092 9.46-.145l2.9-.025c4.52-.082 8.73-.385 13.1-1.36 5.37-1.18 10.6-1.32 16-1.33l3.08-.02c2.13-.01 4.26-.015 6.38-.015 3.25-.004 6.5-.04 9.75-.078 2.08-.006 4.15-.01 6.23-.012l2.93-.044c5.83.04 9.14.628 13.6 4.5l1 2 3 1-.07 1.79-.055 2.39-.07 2.36c.068 2.49.068 2.49 1.17 4.75 3.69 9.71 2.13 22.1 2.03 32.5-.026 2.87-.046 5.74-.062 8.61l-.036 3.8c-.23 2.74-.23 2.74 1.1 3.84.072 1.69.084 3.38.063 5.06-.01.92-.018 1.84-.027 2.79l-.036 2.15c-8.98 5.74-21 4.1-31.2 3.62l-3.58-.148c-6.5-.278-13-.625-19.5-1.04-11.9-.74-23.4-.442-35.2.846-11.1 1.12-22.3.897-33.5.716-1.86 5.06-3.4 9.53-3.25 15l.082 3.05c-.105 6.97-.105 6.97 2.17 12.9.094 1.69.117 3.38.114 5.07v3.28l-.015 3.56-.005 3.63c-.005 3.84-.018 7.68-.03 11.5-.006 2.6-.01 5.19-.014 7.79-.011 6.38-.028 12.8-.05 19.1h-2c-.222 32.4-.222 32.4.5 64.7.514 13.7.709 27.4.788 41.2.017 2.46.04 4.92.072 7.38.042 3.47.057 6.93.067 10.4l.052 3.16c-.018 6.29-.732 10.1-4.48 15.2-11.7 7.3-34.9 5.42-48 3-.878-.16-1.76-.322-2.66-.488-6.75-1.58-6.75-1.58-9.4-5.76-1.74-6.96-2.07-13.6-2-20.7l.014-2.65c.012-2.14.03-4.27.049-6.41h-1l-2-98h-1c-.624-24.3-1.2-48.7-1-73h-1v-19c-16.9-4.66-34.1-2.9-51.4-2.14-10.2.435-20.4.791-30.6 1.14l-3.03.107c-5.32.184-10.6.332-16 .412-1.57.029-3.13.07-4.7.123-11.7.387-11.7.387-15.5-2.08-3.71-4.08-4.82-8.23-5.76-13.6h-1v-14h-1c-.05-5.18-.086-10.4-.11-15.5-.01-1.76-.024-3.52-.041-5.28-.024-2.53-.036-5.07-.044-7.6l-.032-2.37c0-4.19.335-7.45 2.23-11.2l2.5-.06c3.11-.079 6.23-.166 9.34-.257 1.99-.056 3.98-.104 5.97-.15l3.87-.118 3.52-.095c2.94-.247 5.45-.658 8.3-1.31 6.86-1.44 13.8-1.46 20.7-1.61a3388.299 3388.299 0 0 1 16.01-.409c6.14-.147 12.3-.31 18.4-.472 2.11-.054 4.22-.105 6.33-.154 9.7-.239 19.4-.745 29-1.37l-.013-1.72c-.045-5.99-.075-12-.097-18-.01-2.23-.023-4.45-.04-6.68-.095-12.4-.05-24.4 2.15-36.6l-11-2v-3h-2v-2h-6c-.29-.742-.578-1.48-.876-2.25-.37-.908-.743-1.82-1.12-2.75-.289-.722-.577-1.44-.875-2.19-.987-1.97-.987-1.97-3.05-2.68-2.51-1.38-3.12-2.5-4.32-5.07-.335-.69-.67-1.38-1.02-2.09-.734-1.97-.734-1.97-.734-4.97l-1.86-.285c-2.68-.894-3.13-1.67-4.39-4.15-1.96-4.19-2-7.71-1.6-12.3-.194-2.93-1.29-4.09-3.15-6.3-.667-1.67-1.33-3.33-2-5l-1.56-1.94c-1.83-2.62-2.02-4.93-2.44-8.06l-1-1c.01-3.01.133-6.01.258-9.02-.295-3.41-1.24-4.33-3.26-6.98-.2-2.8.001-5.45.188-8.25.024-2.83.024-2.83-1.68-5.14-2-3.45-1.81-5.96-1.7-9.92l.082-3.8c.053-1.43.053-1.43.105-2.89h-2c-.125-7.62-.125-7.62 1-11h-2c-2.62-3.93-2.08-6.52-1.88-11.1.013-2.94.013-2.94-1.13-5.74-1.41-4.45-1.06-8.72-.83-13.3.091-3.3.082-5.42-1.64-8.29-2.53-4.21-2-8.77-2.05-13.6-.059-2-.257-3.99-.473-5.97l-3-2c-1.19-3.56-1.35-6.97-1.56-10.7l-.13-2.13c-.107-1.73-.208-3.46-.308-5.19-14.4-5.46-28.8-10.8-43.5-15.2-4.34-1.34-8.38-2.98-12.5-4.93-2.85-1.18-5.75-1.68-8.76-2.28-3.15-.779-5.93-2.11-8.86-3.48-7.23-3.26-14.9-5.58-22.4-8.07-1.72-.573-3.44-1.15-5.16-1.72-1.32-.439-1.32-.439-2.66-.887-2.68-.892-5.35-1.78-8.03-2.68l-2.61-.865c-1.68-.563-3.35-1.14-5.02-1.73-8.9-3.11-16.3-2.78-25.3-.044-4.13 1.16-8.31 2-12.5 2.86-13.8 1.8-13.8 1.8-25.8 7.06-1.36.33-2.74.61-4.12.867l-2.57.49c-.907.17-1.81.342-2.75.518-1.85.358-3.7.72-5.55 1.09l-2.53.494c-3.34.735-6.58 1.71-9.83 2.77-3.7 1.08-7.45 1.85-11.2 2.65-6.15 1.32-12.2 2.85-18.2 4.69-6.05 1.84-12.1 3.31-18.3 4.56-5.1 1.08-10.1 2.47-15.2 3.81-7.47 1.98-14.9 3.84-22.5 5.44-.783.167-1.57.335-2.37.508-3.41.703-6.44 1.12-9.94 1.12v2c-.969.454-1.94.908-2.94 1.38-3.13 1.28-3.13 1.28-4.06 3.62-.112 2.4-.165 4.77-.174 7.17l-.02 2.24c-.014 1.61-.026 3.21-.036 4.82-.016 2.54-.04 5.08-.065 7.61-.07 7.22-.13 14.4-.182 21.6-.031 4.41-.073 8.82-.12 13.2-.016 1.68-.028 3.37-.037 5.05-.012 2.35-.036 4.7-.063 7.05 0 .7 0 1.4-.002 2.12-.073 4.82-.073 4.82-2.3 7.05-1.99.37-1.99.37-4.31.438l-2.3.12c-3.67-.858-5.05-2.64-7.39-5.56-.48-2.97-.656-5.35-.599-8.31l-.011-2.5c-.007-2.71.022-5.43.052-8.14.005-1.89.007-3.78.007-5.67.006-3.96.03-7.91.065-11.9.045-5.07.06-10.1.064-15.2.004-3.9.02-7.8.038-11.7.01-1.87.016-3.74.02-5.61.01-2.61.032-5.22.059-7.83 0-.772 0-1.55.002-2.34.052-3.73.095-6.74 2.3-9.84 5.27-3.49 11.4-4.34 17.5-5.56 5.96-1.22 11.8-2.41 17.5-4.44h2l-.003-1.72c-.022-13.8-.039-27.7-.05-41.5-.004-6.69-.012-13.4-.023-20.1-.01-6.46-.017-12.9-.02-19.4-.001-2.46-.005-4.92-.01-7.38-.007-3.46-.008-6.92-.008-10.4l-.01-3.05c.007-5.74.304-11.4.896-17.1.317-3.34.357-6.65.36-10l.003-1.99c0-1.36-.001-2.73-.005-4.09-.006-2.07 0-4.14.006-6.21 0-1.34-.002-2.68-.004-4.02l-.003-3.61c-.133-3.55-.566-6.96-1.13-10.5h-2v-2c-.812-.37-.812-.37-1.64-.75-2.89-1.53-5.46-3.34-8.11-5.25-.985-.7-1.97-1.4-2.98-2.12-.748-.618-1.5-1.24-2.27-1.88v-2l-2.14-.722c-3.34-1.49-5.79-3.39-8.61-5.71l-2.92-2.37c-2.33-2.19-2.33-2.19-3.33-5.19 5.3-2.2 10.6-4.23 16.1-6 3.5-1.14 6.81-2.35 10.1-3.94 4.18-1.94 8.51-3.19 12.9-4.44 7.18-2.02 14-4.53 20.9-7.39 2.98-1.23 2.98-1.23 5.98-2.23 1.17-3.5 1.16-6.33 1.21-10l.086-4.29c.04-2.23.077-4.47.104-6.7.318-24.4.318-24.4 6.6-34 .544-.897 1.09-1.79 1.65-2.72 3.08-4.95 5.94-9.4 10.4-13.3.596-.552 1.19-1.1 1.8-1.67 11.3-10.3 11.3-10.3 16.2-10.3v-2c4.67-2.38 9.38-4.69 14.1-6.94.972-.463 1.94-.926 2.95-1.4 3.65-1.62 7.41-2.93 11.2-4.26l1.97-.7c1.59-.566 3.19-1.13 4.78-1.7l-.014-2.41c-.04-7.49-.07-15-.09-22.5-.01-3.85-.025-7.7-.047-11.6-.022-3.72-.034-7.43-.04-11.1-.003-1.42-.01-2.84-.021-4.25-.014-1.98-.015-3.97-.016-5.95l-.013-3.43c.24-2.79.24-2.79 2.24-5.79 4.38-2.74 8.6-3.57 13.6-4.46 3.1-.69 5.65-1.99 8.4-3.54l3-1c1.11-1.87 1.11-1.87 2-4 .66-1.07 1.32-2.14 2-3.25 2.4-4.72 2.75-9.64 3.28-14.8.49-4.6 1.36-8.62 3-12.9.78-2.2 1.22-4.35 1.65-6.64.905-4.4 2.65-7.6 5.06-11.4 9.23 1.27 9.23 1.27 12 2 2.65 5.31.56 11.6-.938 17-1.35 5-2.43 9.86-3.06 15h-2l-.586 3.51-.79 4.62c-.125.76-.252 1.52-.382 2.3-.751 4.35-1.74 8.4-3.24 12.6l-.641 2.23-.61 1.96-.577 1.98c-2.85 4.46-8.91 5.42-13.7 6.71-5.21 1.55-8.26 2.7-11.4 7.12-.92 2.76-1.12 4.36-1.11 7.2v2.55l.016 2.74.004 2.81c.006 2.97.018 5.93.03 8.89l.015 6.03c.01 4.93.028 9.86.048 14.8 3.61 1.2 6.57 1.13 10.4 1.12l3.96.008c3.45-.018 3.45-.018 5.91-.617 3.51-.656 6.99-.787 10.5-.903l2.24-.078c1.55-.052 3.11-.1 4.66-.148 2.37-.075 4.75-.165 7.12-.257l4.54-.143 2.14-.088c3.77-.096 6.27.161 9.51 2.1 2.32.377 4.66.682 7 .938 11.5 1.4 21.4 4.43 32 9.06 2.08.834 4.17 1.67 6.25 2.5 4.95 2.06 9.3 4.53 13.8 7.5.99.557 1.98 1.11 3 1.69.66.433 1.32.866 2 1.31v2l4 1v2l5-1 .188-3.69.105-2.07c-.144-2.37-.144-2.37-1.78-4.49-2.32-4.21-1.95-8.56-1.96-13.2-.105-4.03-.517-6.76-2.56-10.3-2.93-5.31-2.56-10.8-2.56-16.7.183-8.42.183-8.42-1.93-16.4-2.44-5.59-2.05-11.6-2.14-17.6-.051-2.38-.106-4.75-.164-7.13l-.053-3.16c-.113-3.21-.113-3.21-.653-6.61-.499-3.5-.693-6.88-.786-10.4l-.112-3.96-.053-2.06c-.092-3.57-.196-7.13-.3-10.7l-.062-2.16c-.286-9.75-.734-19.5-1.19-29.2h-1c-.828-11.6-1.09-23.1-.963-34.7l.026-3.1.035-2.76c-.092-2.33-.511-4.22-1.1-6.46a63.36 63.36 0 0 1-.133-4.04l-.004-2.26.012-2.33-.012-2.35c.01-5.77.01-5.77 1.14-8.02.084-1.59.107-3.19.098-4.79l-.01-2.85-.026-2.98-.013-3.01c-.012-2.46-.029-4.91-.049-7.37h-1l.098-6.15c.108-1.86.108-1.86-1.1-2.85-.208-2.8-.355-5.58-.465-8.39l-.236-5.28c-.12-2.77-.235-5.54-.348-8.31-.398-9.57-.811-19-2.59-28.4-.56-4.05-.044-7.62.636-11.6zm300 10 1 2zm0 6 1 3zm-287 10c-2.38 1.94-2.38 1.94-2.19 5.44.027 3.52.027 3.52 1.19 6.56l3 1c1.18-2.37 1.13-3.87 1.12-6.5l.008-2.41c0-2.15 0-2.15-1.13-4.09h-2zm284 2 1 4zm-3 18v10h1V46h-1zm0 18 1 3zm-287 55v16h1v-16h-1zm281 25 1 4zm-375 31 1 2zm-47 140c-1.54.563-3.08 1.13-4.62 1.69-19.1 7.66-34.2 18.9-43.2 37.6-1.86 4.39-2.25 7.97-2.23 12.7l.01 3.52.025 3.66.014 3.7c.012 3.02.028 6.03.049 9.05h2v2c4.55 1.04 7.37.904 11.8-.688l3.19-1.14c2.62-1 5.22-2.04 7.81-3.11 4.12-1.69 8.31-3.07 12.6-4.38 6.56-2.02 13.1-4.1 19.6-6.25 1.3-.421 1.3-.421 2.62-.851 4.12-1.37 8.11-2.84 12.1-4.65 4.11-1.88 8.22-3.19 12.6-4.38 9.13-2.59 18-5.64 26.9-9.18 18.5-7.37 18.5-7.37 26.9-3.87 2.69 1.22 5.3 2.54 7.91 3.92 3.04 1.79 3.04 1.79 6.19 1.57v2c.646.317 1.29.634 1.96.961 6.67 3.3 13.3 6.7 19.9 10.2l2.42 1.27c3.59 1.89 7.13 3.81 10.6 5.88 3.09 1.94 3.09 1.94 6.78 2.16 4.32.72 5.35 2.47 8.38 5.56 3.91 2.16 7.5 4 12 4 .98-2.94 1.16-4.99 1.19-8.06l.043-2.66c-.009-2.48-.009-2.48-2.23-4.28-.315-1.98-.315-1.98-.422-4.4l-.16-2.68-.168-2.85c-.63-8.36-1.54-15.5-7.25-22.1l-3-1c-.31-.639-.62-1.28-.938-1.94-1.31-2.55-2.55-2.84-5.06-4.06l-1-3a87.086 87.086 0 0 0-6.06-4.44c-.596-.403-1.19-.806-1.81-1.22-4.26-2.84-8.42-5.34-13.1-7.34-1.06-.471-2.13-.941-3.22-1.43-8.74-3.76-17.5-6.19-26.8-8.13-1.94-.434-3.87-.96-5.79-1.49-26.7-6.72-63.1-3.16-88.2 8.05zm409 14 1 3zm-247 26v5h1v-5h-1zm-107 16c-4.14 1.48-8.32 2.84-12.5 4.21-4.05 1.33-8.07 2.69-12.1 4.21-5.66 2.15-11.4 3.98-17.2 5.85-5.32 1.75-10.5 3.67-15.7 5.82-3.36 1.29-6.75 2.09-10.3 2.87v2l-3.19.188c-3.81.475-7.02 1.58-10.6 3.01-7.9 3.1-15.9 5.77-24 8.43-1.45.481-2.91.963-4.36 1.45-2.75.912-5.51 1.82-8.26 2.73-4.21 1.39-8.42 2.79-12.6 4.2v2l-3.12.188c-6.55.802-16.2 3.09-20.9 7.81-.033 2.72.416 4.37 2.28 6.39 1.68 1.47 3.4 2.86 5.16 4.24 8.35 6.65 8.35 6.65 8.82 10.5l.013 2.47.03 2.84.001 3.11.026 3.28c.025 3.58.037 7.17.05 10.7l.051 7.45c.042 5.87.075 11.7.102 17.6.054 11.1.122 22.3.198 33.4.023 3.67.04 7.34.055 11l.041 6.7.008 3.12.02 2.82.013 2.47c-.069 1.86-.069 1.86 1.13 2.85.1 2.63.14 5.24.133 7.87l.003 2.4c0 1.68-.002 3.35-.006 5.03-.005 2.57 0 5.13.007 7.7l-.004 4.88.006 2.33c-.014 3.2-.12 5.75-1.14 8.8.308 2.08.308 2.08.938 4.19l1.06 3.81c4.07 1.22 5.96.394 10-1 1.58-.292 3.16-.56 4.75-.812 6.76-1.16 13.3-3.08 19.9-4.95 7.03-1.99 14.1-3.82 21.3-5.17 4.1-.784 8.06-1.88 12.1-3.06 5.21-1.53 10.3-2.68 15.7-3.57 3.21-.574 6.26-1.48 9.38-2.43 7.1-2.04 14.2-3.78 21.4-5.44 6.2-1.45 12.3-3.06 18.5-4.73 1.01-.275 2.03-.549 3.07-.832l2.17-.594c10.6-2.36 20.6 2.53 30.2 6.57 2.96 1.15 5.95 2.15 8.97 3.15 3.04 1 6.07 2.02 9.11 3.04 2.33.781 4.67 1.56 7 2.34 1.16.391 2.33.781 3.53 1.18 5.95 1.99 11.9 3.92 17.9 5.64 2.16.697 4.13 1.57 6.17 2.56 5.04 2.35 10.3 3.75 15.6 5.26 4.84 1.39 9.47 3 14.1 4.96 2.96 1.22 5.98 2.19 9.03 3.18 2.19.735 4.33 1.56 6.48 2.41 3.66 1.54 3.66 1.54 7.69 1.31.738-3.99.738-3.99 1-8-.961-1.36-1.96-2.7-3-4 .208-2.92.889-5.58 1.63-8.4 1.35-5.6 1.35-5.6.12-11.2-1.52-2.52-1.52-2.52-3.75-3.44-1.17-5.75-.835-10.7.04-16.5.22-2.57.22-2.57-1.48-4.27-2.45-3.51-2.09-7.18-2.19-11.4.093-5.61.093-5.61-1.38-10.9-.049-1.56-.037-3.12.008-4.68l.05-2.81c.045-1.96.097-3.92.156-5.88l.043-2.81.067-2.58c-.4-2.76-1.36-3.35-3.32-5.24-.492-1.97-.492-1.97-.66-4.2l-.217-2.47c-.06-.849-.122-1.7-.186-2.57-.364-4.66-.719-8.99-2.02-13.5-.947-3.35-.978-5.57-.543-9 .336-2.8.625-5.43.625-8.25h-2l-.06-2.16c-.095-3.22-.205-6.44-.315-9.66l-.094-3.39-.117-3.25-.095-3c-.157-2.78-.157-2.78-2.32-5.54h-2l.215-1.77c.316-2.66.613-5.32.91-7.98l.34-2.79.293-2.7c.095-.817.19-1.63.286-2.48-.05-2.63-.79-4.02-2.04-6.29-.043-1.62-.04-3.25 0-4.88-.28-3.24-.482-4.63-2.86-6.9-2.65-1.6-5.33-2.93-8.14-4.23-1.94-.977-3.88-1.96-5.81-2.94-1-.491-2-.982-3.04-1.49-3.34-1.67-6.62-3.42-9.9-5.2-8.22-5.1-8.22-5.1-17.2-7.38v-2l-1.96-.961c-7.46-3.69-14.8-7.54-22.2-11.4-1.54-.815-3.08-1.63-4.62-2.44-1.47-.772-2.94-1.55-4.4-2.34-12.4-6.51-23.8-1.23-36.1 3.21zm352 30v2h3v-2h-3zm-10 71 1 3zm-12 113 1 2zm-4 34v5h1v-5h-1zm-180 44 1 4zm175 14 1 2zm-3 16 1 2zm-10 66v8h1v-8h-1zm-5 19v8h1v-8h-1zm-24 45v4h2l-1-4h-1zm-66 187v14h1v-14h-1zm3 98 1 4z"/><path fill="#F5F6F7" d="M494 318c5.26-.316 8.45.334 13 3-.583 8.9-2.16 17.7-5.07 26.1-.838 2.61-1.21 4.74-1.37 7.46-.366 3.94-1.5 6.05-3.56 9.44-.827 3.3-1.39 6.65-2 10-.677 3.33-1.29 6.17-3.56 8.81-2.3 1.12-4.07 1.58-6.56 2.06-5.96 1.19-12.5 3.25-16.5 8.09-2.01 4.37-1.88 8.39-1.91 13.2l-.054 2.94c-.054 3.09-.088 6.17-.121 9.26-.034 2.1-.068 4.19-.104 6.29-.085 5.13-.152 10.3-.21 15.4h2v2l2.25.008c17.7.628 38.2 5.53 52.7 16l3 1v2c.727.258 1.45.516 2.2.78 8.97 3.9 15.1 11.6 20.8 19.2.695.843 1.39 1.68 2.1 2.55 1.66 2.14 2.79 4 3.9 6.45.392.759.782 1.52 1.18 2.3 5.27 10.3 8.2 20.5 10.8 31.7.182.744.363 1.48.549 2.25.574 3.5.576 6.93.55 10.5l-.005 2.2c-.005 2.3-.018 4.6-.03 6.91a4612.526 4612.526 0 0 1-.063 16.2c-4 .059-7.1-.127-10.9-1.5-.781-.277-1.56-.556-2.37-.843l-1.76-.656v-2l-2.95-.312c-4.53-.653-8.65-2.13-12.9-3.69-.852-.304-1.7-.608-2.58-.921-2.85-1.02-5.7-2.05-8.54-3.08l-9.75-3.51c-2.11-.761-4.22-1.52-6.32-2.29-6.03-2.18-12.1-4.27-18.2-6.27-2.83-.95-5.64-1.96-8.45-2.99l-2.73-.988c-1.64-.601-3.26-1.22-4.88-1.87-13.2-5-23-.348-35.3 4.92-3.26 1.36-6.56 2.53-9.9 3.69-5.24 1.83-10.3 3.89-15.4 6.06-3.32 1.36-6.68 2.56-10.1 3.75-5.26 1.85-10.4 3.87-15.5 6.05-7.77 3.26-15.6 6.34-23.5 9.45l-2.14.848c-1.83.722-3.66 1.44-5.49 2.15l-3.04 1.19c-2.34.812-2.34.812-4.34.812-.487 4.87.579 7.63 3.03 11.7 2.8 6.68 2.14 14.8 2.18 21.9l.03 3.43c.031 3.72.056 7.44.081 11.2l.063 7.77c.05 6.11.095 12.2.138 18.3.05 6.96.104 13.9.16 20.9.114 14.3.22 28.6.323 42.9 3.8 1.64 5.54 2.27 9.5.875l2.62-.883 2.88-.992c2.19-.673 4.37-1.34 6.56-2 3.71-1.14 7.39-2.31 11.1-3.56 4.18-1.42 8.42-2.55 12.7-3.69 3.19-.888 6.3-1.92 9.43-3 3.27-1.09 6.59-2.05 9.9-3.01 2.37-.714 2.37-.714 4.64-1.68 3.57-1.4 7.22-2.44 10.9-3.5l4.57-1.33 2.22-.643c2.56-.745 5.11-1.51 7.66-2.28l2.32-.684c1.85-.567 3.67-1.22 5.49-1.88 8.28-1.74 15 .09 22.5 3.79 3.69 1.74 7.45 3.13 11.3 4.52 5.47 2 10.6 4.25 15.8 6.94 1.33.364 2.66.705 4 1v2l3.25.375c3.75.625 3.75.625 5.75 1.69 2.98 1.4 5.76 1.06 9 .938l1-3h2l1-3h2l1-3h2l1-3c1.63-1.37 3.3-2.71 5-4l1.69-1.75c1.31-1.25 1.31-1.25 3.31-1.25l.688-2.25c1.56-3.27 3.43-4.61 6.31-6.75l1-2c6.06-.357 9.33.228 14.7 3.38 1.31.743 2.61 1.48 3.93 2.21l2.12 1.19c4.13 2.22 8.39 4.17 12.6 6.16 8.02 3.77 15.9 7.77 23.7 12 3.83 2.05 7.69 4.03 11.6 5.98 1.06.534 2.13 1.07 3.23 1.62 3.35 1.6 6.73 3.07 10.1 4.51v2l2.38.71c4.66 1.66 9.04 3.77 13.5 5.91l2.66 1.27c2.16 1.03 4.31 2.06 6.46 3.1v2l2.62.313c3.54.72 6.22 1.96 9.38 3.69v2l2.67.328c3.4.685 5.65 1.7 8.64 3.42.95.538 1.9 1.08 2.88 1.63.927.535 1.85 1.07 2.81 1.62 5.25 2.98 10.4 5.74 16 8 .969.392 1.94.784 2.94 1.19l2.06.812v2c.735.12 1.47.243 2.23.368 2.7.616 4.7 1.45 7.14 2.74.805.425 1.61.85 2.44 1.29l2.51 1.35c.817.43 1.63.86 2.47 1.3 14.3 7.63 14.3 7.63 17.2 11.9.197 3.01.274 5.92.261 8.93l.012 2.8c.01 3.11.006 6.22.002 9.33l.015 6.67c.014 6.05.014 12.1.012 18.1-.001 5.04.004 10.1.008 15.1.012 12.6.011 25.1.005 37.7-.005 10.9.006 21.9.025 32.8.02 11.2.027 22.4.024 33.6-.002 6.3 0 12.6.015 18.9.012 5.92.01 11.8-.003 17.8-.002 2.18 0 4.36.009 6.53.01 2.96.002 5.92-.01 8.88l.022 2.64c-.022 2.39-.022 2.39-.397 6.16-3.71 2.47-6.7 2.43-11 2-2.81-1.01-3.67-1.33-5-4-.107-2.37-.155-4.72-.158-7.09l-.015-2.24c-.016-2.49-.024-4.98-.032-7.48l-.03-5.35c-.027-4.86-.048-9.72-.068-14.6-.022-5.11-.05-10.2-.076-15.3-.045-8.61-.085-17.2-.123-25.8-.054-12-.113-24.1-.174-36.1-.048-9.44-.094-18.9-.14-28.3l-.014-3.01c-.023-4.84-.046-9.68-.067-14.5-.016-3.65-.038-7.29-.065-10.9-.054-8.21-.033-16.4.198-24.6.048-2.16.094-4.31.138-6.47.052-1.96.142-3.92.233-5.87.335-5.95.335-5.95-2.12-11.1-1.79-1.31-3.46-2.25-5.49-3.13-.735-.403-1.47-.807-2.23-1.22-.625-.277-1.25-.554-1.89-.84a734.49 734.49 0 0 1-2.13-.968l-2.18-.97c-5.18-2.36-10-4.78-14.8-7.94-1.98-1.18-3.93-1.95-6.09-2.75-7.85-2.97-15.1-7.22-22.5-11.2-7.39-4-7.39-4-15.2-7.15v-2l-6-1v-2c-.985-.253-1.97-.505-2.98-.766-4.3-1.23-8.24-3.05-12.3-4.98l-2.27-1.08c-4.96-2.38-9.8-4.92-14.6-7.6-8.83-4.82-17.9-9.19-27.1-13.3-5.67-2.61-11.2-5.47-16.8-8.28-1.54-.772-3.08-1.54-4.62-2.31-1.8-.902-3.6-1.82-5.34-2.86-1.98-.977-1.98-.977-4.01-.723-2.77 1.22-4.38 2.96-6.46 5.14-.74.768-1.48 1.54-2.25 2.33-.764.799-1.53 1.6-2.32 2.42-2.64 2.66-5.3 5.3-7.97 7.94l-3.09 3.06c-.516.508-1.03 1.02-1.56 1.54-3.02 3-5.76 6.08-8.37 9.46-1.62 1.81-1.62 1.81-3 3h-2v3l-3 1c-1.37 1.64-2.7 3.31-4 5-2.12 2.31-2.12 2.31-4 4h-2l-1 3h-2l-1 3a213.45 213.45 0 0 1-5 4l-1 2h-2v3l-3 1c-1.67 2-3.34 4-5 6h-2l-1 3h-2l-1 3h-2l-1 3a213.45 213.45 0 0 1-5 4l-1 2h-2v3l-3 1c-1.37 1.64-2.7 3.31-4 5-2.12 2.31-2.12 2.31-4 4h-2l-1 3a625.07 625.07 0 0 1-5 4c-.99 1.24-.99 1.24-2 2.5-2.1 2.63-4.38 4.4-7 6.5-.99 1.24-.99 1.24-2 2.5-2 2.5-2 2.5-4.44 4.44-2.72 2.05-2.72 2.05-5.06 5.06-2.33 2.8-4.67 4.75-7.5 7-1.36 1.64-2.7 3.31-4 5l-1.56 1.38c-4.9 5.54-4.88 12-4.87 19l-.03 3.12c-.03 3.44-.039 6.88-.048 10.3-.017 2.47-.036 4.94-.056 7.41-.04 5.33-.07 10.7-.093 16-.033 7.76-.083 15.5-.138 23.3-.088 12.7-.164 25.3-.23 38-.065 12.2-.134 24.3-.21 36.5l-.014 2.25c-.05 8.19-.103 16.4-.156 24.6l-.042 6.6-.029 4.37c-.054 8.42-.106 16.8-.15 25.3-.18 33.7-.584 67.3-1.37 101h-14c-.607-59.8-1.11-120-1.12-180-.002-3.79-.006-7.59-.01-11.4-.006-5.95-.006-11.9-.002-17.8.001-2.18 0-4.37-.001-6.55-.003-2.97 0-5.93.006-8.9l-.006-2.64c.021-5.93.021-5.93 1.14-8.16h-2c-1.35-1.65-2.69-3.32-4-5l-2-1v-2c-1.94-.054-3.87-.093-5.81-.125l-3.27-.07c-3.11-.035-3.11-.035-5.92 2.2h-3v3l-3 1c-10.3 12.1-13.4 28.2-13.5 43.6l-.05 3.98c-.045 3.59-.072 7.17-.095 10.8-.028 3.83-.073 7.66-.115 11.5-.095 8.93-.163 17.9-.227 26.8l-.093 11.9c-.191 24-.334 48-.464 72-.043 7.86-.088 15.7-.138 23.6-.028 4.39-.052 8.78-.072 13.2-.017 3.3-.04 6.61-.061 9.91l-.013 3.63-.025 3.27-.016 2.85c-.136 2.12-.136 2.12-1.14 3.12-2.35.072-4.71.083-7.06.062l-3.91-.027-3.03-.035c-1.2-3.59-1.14-6.84-1.13-10.6l-.005-2.36c-.005-2.63-.002-5.26.002-7.89l-.005-5.67c-.003-5.17.002-10.3.009-15.5l.008-9.72c.027-34.4.177-68.7.44-103 .038-4.96.072-9.92.102-14.9.036-5.87.083-11.7.137-17.6.019-2.17.034-4.33.046-6.5.016-2.96.045-5.93.077-8.89l.007-2.61c.065-4.64.606-8.32 2.31-12.7.417-2.12.793-4.24 1.12-6.38l.508-3.21.367-2.41h2v-2h2l.562-3.88c1.29-5.91 4.46-10.6 8.44-15.1h2l1-3c4.34-4 4.34-4 8-4v-2c7.57-2.71 15.1-4.62 23-2 2.33.039 4.67.044 7 0v-12c-4.98-.025-9.96-.043-14.9-.055-1.69-.005-3.38-.012-5.07-.02-2.44-.013-4.89-.019-7.33-.023l-2.26-.016c-7.11 0-13.7.651-20.4 3.11-3.26 1.01-6.52 2.01-9.78 3l-3.22 1c-1.1.31-2.21.62-3.34.938-.877.351-1.75.701-2.66 1.06l-1 3h-2c-1.27 4.9-1.15 9.75-1.14 14.8l-.01 3c-.011 3.33-.015 6.65-.019 9.98l-.02 7.15c-.015 5.14-.027 10.3-.036 15.4-.014 7.44-.035 14.9-.058 22.3-.038 12.1-.073 24.2-.105 36.3l-.006 2.19c-.027 10.3-.05 20.5-.074 30.8l-.004 2.18-.005 2.18c-.027 12-.062 24.1-.102 36.1-.023 6.75-.042 13.5-.05 20.3-.01 6.36-.028 12.7-.053 19.1-.007 2.33-.011 4.65-.012 6.98-.007 22.6-.007 22.6-2.3 33.4-9.18.195-9.18.195-12 0-2-2-2-2-2.25-4.92l.002-3.82-.007-2.13c-.006-2.37.003-4.74.011-7.11 0-1.7-.003-3.4-.005-5.1-.005-4.66.003-9.31.013-14 .008-4.94.006-9.87.005-14.8 0-9.5.012-19 .028-28.5.012-7.61.02-15.2.026-22.8.037-48.6.099-97.2.614-146l.03-2.92c.054-5.37.115-10.7.186-16.1.02-1.54.039-3.08.056-4.62.024-2.03.055-4.06.086-6.1.015-1.11.03-2.22.047-3.36.148-2.75.539-5.27 1.16-7.94h-2c-.046-13.1-.082-26.2-.104-39.4-.01-6.09-.025-12.2-.047-18.3-.022-5.87-.034-11.7-.04-17.6-.003-2.24-.01-4.49-.021-6.73-.014-3.14-.016-6.27-.016-9.41l-.021-2.83.008-2.59-.006-2.25c.246-1.95.246-1.95 2.25-4.95h-2l-.438-2.75c-.599-3.67-.599-3.67-1.56-7.25l-2-1c-4-5.41-4-5.41-4-9h-2l1-5 4-1v-2c2.91-2.04 4.4-3 8-3 1.03 2.57 2.05 5.14 3 7.75.784 2.41.784 2.41 3 3.25.144.62.29 1.24.438 1.88.67 2.53 1.58 3.46 3.56 5.12l2 1c.31 1.75.31 1.75.438 4 .295 3.44.92 6.32 2.12 9.56 1.57 4.36 1.76 7.82 1.44 12.4l-1 2c-.093 3.02-.126 6.02-.114 9.04v2.84c0 3.11.008 6.21.016 9.32l.005 6.45c.003 5.67.013 11.3.024 17 .01 5.78.015 11.6.02 17.3.01 11.3.028 22.7.049 34 1.44-.313 2.87-.627 4.31-.942l2.42-.53c2.83-.658 5.57-1.52 8.33-2.4 18.2-5.2 39.2-9.2 57.9-5.12l-.064-2.46c-.083-3.7-.135-7.4-.187-11.1l-.102-3.87-.039-3.76-.063-3.44c1-7.43 5.96-12.3 11.1-17.3.657-.658 1.31-1.32 1.99-1.99 2.16-2.16 4.33-4.3 6.5-6.45 1.51-1.5 3.02-3.01 4.53-4.51 3.96-3.95 7.94-7.9 11.9-11.8 4.04-4.01 8.07-8.03 12.1-12 6.51-6.49 13-13 19.6-19.4.572-.568 1.14-1.14 1.73-1.72.528-.52 1.06-1.04 1.6-1.58 1.26-1.26 2.5-2.55 3.73-3.85 1.71-1.59 1.71-1.59 3.71-1.59l1-3h2l.633-1.65c1.88-3.23 4.49-5.51 7.24-7.98.53-.49 1.06-.98 1.61-1.48 2.16-1.96 4.13-3.71 6.78-4.98 2.32-1.22 2.66-2.57 3.74-4.91 1.66-1.92 1.66-1.92 3.5-3.75.608-.614 1.22-1.23 1.84-1.86 1.66-1.39 1.66-1.39 3.66-1.39v-8c-.547-.106-1.09-.212-1.66-.32-5.64-1.16-10.8-2.84-16.2-4.99l-2.36-.933c-5.43-2.16-10.8-4.42-16.2-6.81-9.94-3.51-20.8-1.3-30.5 2.27-3.46 1.23-7 2.11-10.5 3.04-2.93.817-5.79 1.78-8.68 2.75-2.6.781-5.2 1.55-7.81 2.31-1.12.327-1.12.327-2.25.661-3.68 1.08-7.37 2.15-11.1 3.22-9.15 2.66-18.2 5.48-27.3 8.4-4.84 1.56-9.68 3.03-14.6 4.41l-2.81.938c-2.76.921-5.53 1.82-8.31 2.69l-2.51.79c-2.37.585-2.37.585-6.37.585-1.08-3.24-1.15-5.65-1.19-9.06l-.051-3.8-.041-4.15-.056-4.32c-.05-3.82-.094-7.65-.137-11.5-.075-6.73-.158-13.5-.245-20.2l-.028-2.25c-.152-11.8-.468-23.6-.857-35.4a703.64 703.64 0 0 1-.3-34.1c.03-2.09.048-4.19.064-6.28l.05-3.57c-.317-5.11-1.4-9.89-4.52-14-.435-.578-.87-1.16-1.32-1.75-1.52-1.86-1.52-1.86-4.05-4.25-2.34-2.41-3.32-4.2-4.31-7.38h-2c-.311-2.31-.311-2.31 0-5 3.47-2.49 7.09-3.87 11.1-5.19 1.03-.344 2.07-.688 3.13-1.04 2.74-.77 2.74-.77 5.74-.77v-2c.954-.338 1.91-.675 2.89-1.02 1.27-.45 2.53-.9 3.8-1.35 1.86-.66 1.86-.66 3.76-1.34 2.88-1.04 5.71-2.14 8.55-3.29-.012-.575-.026-1.15-.04-1.74-.133-6.04-.223-12.1-.288-18.1-.03-2.25-.071-4.49-.123-6.74-.534-23.6-.534-23.6 6.45-33.4.519-.923 1.04-1.85 1.57-2.8.706-1.09.706-1.09 1.43-2.2h2v-2h2l2-5h2l2-4h2v-2c3.46-3 3.46-3 6-3l1-3c2.21-1.61 2.21-1.61 4.94-3.19.896-.53 1.79-1.06 2.71-1.61 2.35-1.21 2.35-1.21 4.35-1.21v-2c.857-.326 1.71-.652 2.6-.988 1.14-.437 2.29-.874 3.46-1.32l3.41-1.3c2.3-.906 4.59-1.87 6.84-2.89 4.45-1.81 8.9-2.98 13.6-4.12.847-.217 1.69-.433 2.57-.656 5.52-1.37 10.9-2.2 16.6-2.72-.12-4.73-.244-9.46-.372-14.2-.043-1.6-.085-3.2-.125-4.81-.23-9.01-.557-18-1.37-26.9-.217-5.06.164-10.3 1.87-15.1 3.22-3.38 7.64-4.38 12-5.69.712-.225 1.42-.45 2.16-.682 3.46-1.06 6.19-1.63 9.84-1.63v-2h2v-2l2-1c.756-2.75 1.41-5.46 2-8.25 1.03-4.79 2.17-9.2 4-13.8.52-2.41.996-4.83 1.44-7.25 1.39-7.31 3.14-14.1 6.56-20.8zm-42 86 1 3zm-16 56c-.658.172-1.32.343-1.99.52-9.99 2.67-18.9 6.56-28 11.5v2c-.742.268-1.49.536-2.25.812-2.64 1.14-4.61 2.28-6.75 4.19v2l-1.7.656c-3.07 1.79-4.82 4.08-7.05 6.84-.799.98-1.6 1.96-2.42 2.97-2.02 2.28-2.02 2.28-1.83 4.53h-2c-3.84 8.45-3.18 17.7-3.19 26.8l-.037 4.02-.006 3.84-.012 3.5c.025 3.09.025 3.09 2.24 5.89 6.68-.607 12.7-2.78 19-5v-2l3.5-.25c3.82-.479 6.65-1.73 10-3.58 3.18-1.51 6.48-2.55 9.83-3.61 5.35-1.71 10.3-3.75 15.2-6.37 10.9-5.42 23.2-9.47 35.1-5.67.968.329.968.329 1.96.664.692.226 1.38.451 2.1.684 5.41 1.79 10.7 3.8 16 5.89 10 3.93 20.3 7.32 30.5 10.7 5.2 1.71 10.3 3.61 15.3 5.76 3.75 1.33 7.37 1.57 11.3 1.83 1.27-3.8.94-7.19.688-11.1l-.14-2.31c-.366-5.36-1.13-10.4-2.55-15.6h-2c-.402-1.55-.402-1.55-.812-3.12-1.01-3.53-2.46-6.63-4.19-9.88-.667-1.33-1.33-2.67-2-4h-2l-.188-1.69c-1.15-3.27-3.31-5.04-5.81-7.31l-2.2-2.11c-5.56-5.21-11.1-9.22-17.8-12.9-.898-.549-1.8-1.1-2.72-1.66-6.13-3.64-11.1-5.3-18.3-5.34v-2c-17.5-5.27-37.4-4.64-55 0zm-72 47 1 2zm188 19 1 2zm182 250v29h1v-29h-1zM312 959v10h1v-10h-1z"/><path fill="#F7F8F9" d="M870 837c.639.598 1.28 1.2 1.94 1.81v2l1.94.812c2.06 1.19 2.06 1.19 3.06 4.19l2 2c2.94 5.35 4.32 11.3 6.06 17.2.659 2.71.659 2.71 1.94 3.84 1.33 10.5 1.08 21.2.914 31.8l-.064 5.1c-.046 3.55-.095 7.11-.147 10.7-.066 4.45-.123 8.9-.178 13.4a4683.876 4683.876 0 0 1-.572 35.51c-.09 4.5-.192 8.99-.313 13.5-.053 2-.097 4-.14 6l-.108 3.58-.083 3.11c-.31 2.42-.31 2.42-2.31 4.42-2.5.371-2.5.371-5.44.438l-2.93.121c-2.63-.559-2.63-.559-4.28-2.52-1.85-4.17-1.69-7.68-1.56-12.2l.039-2.86c.03-2.14.067-4.27.109-6.41.072-3.86.117-7.73.156-11.6.076-7.35.176-14.7.283-22.1.055-3.85.106-7.69.154-11.5.039-2.99.082-5.98.126-8.98.02-1.42.039-2.84.056-4.26.024-1.97.054-3.94.085-5.9l.047-3.38c.136-2.48.513-4.5 1.16-6.88.097-2.51.142-4.99.125-7.5l-.012-2.15c-.15-14.3-1.2-27.1-11.6-37.9-6.22-5.46-11.7-6.97-19.7-6.87l-2.56.02c-9.68.25-16.1 2.99-23.2 9.42h-2c-.247.517-.495 1.03-.75 1.56-1.29 2.51-2.7 4.94-4.15 7.36-.362.685-.724 1.37-1.1 2.07-.51.946-1.02 1.89-1.54 2.86-2.23 5.29-1.9 10.8-1.89 16.4l-.031 3.7c-.025 3.33-.037 6.66-.043 9.98-.01 3.48-.035 6.97-.06 10.5-.043 6.59-.072 13.2-.095 19.8-.027 7.51-.071 15-.116 22.5-.093 15.4-.164 30.9-.222 46.3-2.88.626-2.88.626-6 1l-2-2-2.44-.811c-3.45-1.6-4.03-2.68-5.56-6.19-.445-3.72-.41-7.42-.388-11.2l-.016-3.42c-.013-3.73-.005-7.46.006-11.2a4726.078 4726.078 0 0 1 .007-24.08c.016-6.27.011-12.5-.006-18.8-.015-6.05-.013-12.1-.004-18.2.002-2.57 0-5.13-.008-7.7-.008-3.59.004-7.19.02-10.8l-.018-3.19c.11-12.9 5.38-24.5 13.4-34.5h2l1-3c3.44-3 3.44-3 6-3v-2c20.5-12 41-14.1 61.1.188zm2.94 40.8 1 4zm-85 37v24h1v-24h-1zM577 827l3.17-.049 3.03-.002 2.76-.009c2.77.437 3.64 1.22 5.36 3.37l-1 1a110.13 110.13 0 0 0-.063 5.56l.028 3.07.035 2.37c-2.56 1.28-4.42 1.14-7.28 1.18l-3.25.073a672.2 672.2 0 0 1-6.72.093c-10.5.27-19 3.13-27.8 8.72l-3.29 2.04c-2.84 1.8-2.84 1.8-4.65 4.9h-2c-.269.714-.539 1.43-.816 2.16-1.2 2.87-2.6 5.5-4.12 8.21-6.74 12.3-10.3 24.5-11.7 38.4-.395 3.24-.395 3.24-1.39 5.24-1.66 11.1-1.17 22.5-1.21 33.6l-.03 6.54c-.027 5.89-.048 11.8-.068 17.7-.022 6.16-.05 12.3-.076 18.5-.05 11.7-.095 23.3-.138 35-.05 13.3-.104 26.5-.16 39.8-.114 27.3-.221 54.6-.323 81.9-2.12.054-4.25.093-6.38.125l-3.59.07c-3.04-.194-3.04-.194-5.04-2.2a126.67 126.67 0 0 1-.254-8.99l-.01-2.86c-.008-3.18-.001-6.36.005-9.54l-.01-6.81c-.01-6.19-.006-12.4 0-18.6.005-6.47 0-12.9-.003-19.4-.003-11.6.003-23.1.013-34.7.009-10.5.007-21-.002-31.4-.01-12.2-.015-24.3-.009-36.5.003-6.44.004-12.9-.003-19.3-.006-6.06-.001-12.1.01-18.2.003-2.22.002-4.45-.002-6.67-.006-3.04 0-6.08.01-9.12l-.013-2.65c.036-5.66.881-10.8 2.27-16.2.316-1.46.627-2.93.93-4.39 3.02-14.2 7.32-26.7 14.1-39.6.67-1.33 1.34-2.66 2-4h2l.812-1.94c1.19-2.06 1.19-2.06 4.19-3.06.31-.783.62-1.57.938-2.38 1.21-3 2.31-3.99 5.06-5.62h2l1-3c7.24-5.18 15.5-7.61 24-10l2.66-1.09c5-1.36 9.88-1.24 15-1.22zm-75.7 85.3 1 2zm0 7v7h1v-7h-1z"/><path fill="#F9FAFB" d="m931 744 2.93.121 2.94.066c2.5.371 2.5.371 4.5 2.37v2l.045 6 .03 3.88.016 2.1c.124 16 .24 32 .352 48 .065 9.25.133 18.5.205 27.7.064 8.08.123 16.2.177 24.3.029 4.26.06 8.53.095 12.8.138 16.5.18 33-.35 49.4l-.12 3.88c-.322 8.73-.322 8.73-1.45 9.86-1.98.125-3.96.176-5.94.188l-3.28.043c-2.79-.23-2.79-.23-4.79-2.23a82.831 82.831 0 0 1-.299-7.23l-.024-2.28c-.024-2.54-.033-5.08-.043-7.62l-.045-5.44c-.04-4.94-.068-9.88-.092-14.8-.022-4.12-.049-8.24-.076-12.4-.064-9.72-.117-19.4-.164-29.2-.048-10-.115-20.1-.191-30.1-.064-8.61-.117-17.2-.16-25.8-.026-5.14-.057-10.3-.099-15.4-.039-4.84-.063-9.68-.076-14.5-.007-1.78-.02-3.55-.038-5.33-.023-2.42-.028-4.85-.029-7.27l-.034-2.13c.028-4.95.574-9.88 6-11z"/><path fill="#F7F8F8" d="m679 1011 2.73.082 2.08.105c1.46 2.65 2 3.89 2 7 .266 2.07.561 4.13.875 6.19l.492 3.29c.589 3.56.589 3.56 1.61 7.16 1.71 6.64 2.16 13.5 2.88 20.3.594 5.31 1.41 9.96 3.14 15 .64 3.73 1.1 7.49 1.56 11.2.248 1.98.499 3.97.754 5.95l.326 2.65c.256 2.19.256 2.19 1.36 4.15h2l-.105 2.73c-.177 8.39.333 16.5 1.48 24.8l.382 2.78c.599 4.11 1.3 8.13 2.34 12.2.855 3.36 1.08 6.12.906 9.56-6.5.368-6.5.368-8.69-1.24-1.58-2.12-1.8-3.45-2-6.07l-.195-2.39c-.141-2.77-.188-5.52-.117-8.3h-2v-6h-1l.07-2.27.055-2.98.07-2.95c-.038-3.12-.038-3.12-2.2-6.8h-23c-2.06 6.88-3.64 13-4.56 20.1-.867 6.4-1.96 12.6-3.44 18.9h-8c-.965-3.86-.96-6.98-.477-10.9l.406-3.36.445-3.47.422-3.52c1.07-8.59 1.07-8.59 2.2-9.73.347-2.14.637-4.29.902-6.45l.51-4.01c.263-2.11.524-4.22.783-6.33.251-2.03.51-4.07.77-6.1.151-1.22.301-2.44.457-3.69.56-3.31 1.49-6.25 2.58-9.42.403-2.19.403-2.19.562-4.28l.227-2.31.211-2.35c.384-4.26.77-8.27 1.96-12.4 1.44-5.12 1.98-10.3 2.6-15.6.247-2.08.5-4.16.754-6.24l.326-2.77c.357-2.11.357-2.11 1.36-3.11.624-3.36 1.2-6.72 1.72-10.1.498-2.91.956-5.39 2.56-7.9 2.39-1.39 4.17-1.3 6.91-1.19zm-1.19 23.2c-2.42 6.74-3.41 13-3.69 20.1-.309 2.88-.309 2.88-1.28 4.73-1.22 2.56-1.52 4.73-1.85 7.54l-.377 3.09-.369 3.21c-.248 2.11-.499 4.22-.754 6.32l-.326 2.83c-.357 2.16-.357 2.16-1.36 3.16-.098 1.5-.13 3-.125 4.5l-.008 2.47c-.092 2.03-.092 2.03 1.13 3.03 1.34.086 2.69.107 4.04.098l2.45-.01 2.58-.025 2.59-.014c2.12-.012 4.23-.03 6.35-.049.194-1.48.38-2.96.562-4.44.104-.824.21-1.65.316-2.5l.121-2.07-1-1c-.14-2.67-.042-5.32 0-8h-1c-.66-6.27-1.32-12.5-2-19h-2l-.148-3.73c-.075-1.63-.15-3.27-.227-4.9-.03-.808-.062-1.62-.094-2.45-.227-4.64-.79-8.55-2.53-12.9h-1zm4 18 1 3zm6 38 1 4zm10 5v2l2-1-2-1z"/><path fill="#F5F6F7" d="M875 1011h12c1.03 5.16 1.97 10.3 2.88 15.5l.534 3.04c1.38 8 2.58 16 3.64 24.1.191 4.02.191 4.02 1.95 7.39.349 2.36.643 4.7.902 7.07l.51 4.41c.263 2.32.524 4.63.783 6.95.252 2.24.51 4.47.77 6.71l.224 2.07c.518 4.43 1.53 8.53 2.81 12.8.378 2.45.711 4.91 1 7.38.502 4.09 1.03 8.12 2 12.1 1.98 8.27 3.18 17 3 25.5h-7l-1-4h-2c-1.35-2.7-1-5.02-1-8l-1-1a74.408 74.408 0 0 1-.063-4.56l.028-2.5.035-1.93h-1v-12l-2-1-1-4-23-1c-.598 3.65-1.2 7.3-1.81 11.1-4.52 27.3-4.52 27.3-6.19 28.9-2.67.141-5.32.043-8 0-.979-4.54-.889-8.06-.074-12.6.22-1.27.44-2.53.666-3.84l.72-3.98c1.62-9.13 3.1-18.2 4.25-27.4.433-3.06 1.1-5.92 1.94-8.88 1.04-4.61 1.47-9.36 2.04-14 .466-3.2.466-3.2 1.46-5.2.34-2.23.633-4.46.903-6.7l.51-4.11c.263-2.15.523-4.3.783-6.46.893-7.37 1.84-14.6 3.8-21.7.686-3.44 1.27-6.89 1.86-10.4.654-3.67 1.45-6.26 3.14-9.65zm6 24c-2.8 4.01-3.7 7.71-4.32 12.5l-.309 2.17c-.323 2.29-.63 4.57-.937 6.86-.209 1.51-.42 3.01-.631 4.52-.412 2.94-.82 5.88-1.23 8.83-1.99 14.3-1.99 14.3-3.26 20.4l-.318 2.76c1.77 2.18 1.77 2.18 3.97 2.23l2.38-.032 2.58-.02 2.7-.05 2.72-.027c2.22-.024 4.44-.057 6.66-.098l.023-3.76.014-2.12c-.081-4.69-.42-8.2-3.04-12.1-.258-2.69-.09-5.29 0-8h-1c-.05-.88-.098-1.76-.148-2.67l-.227-3.52-.211-3.48c-.392-3.16-1.21-5.42-2.41-8.33-.125-2.1-.125-2.1 0-4.06 0-3.69-.174-4.93-2-7.94a68.734 68.734 0 0 1-1-4zm17 100v5h1v-5h-1z"/><path fill="#F6F7F8" d="M812 1015c1.65 1.04 1.65 1.04 4.03 2.98v2l3 1c.5 1.67.5 1.67 1 4 .975 2.09 1.98 4.18 3 6.25 2.4 5.09 3.78 9.15 4 14.8-5.62 1.12-5.62 1.12-9 0l-.375-2.25c-.59-2.59-1.39-4.42-2.62-6.75l-.688-2.38c-2.33-4.66-6.4-7.99-11.3-9.62-7.46-.665-13-.664-19 4-6.25 5.96-8.05 13.1-8.34 21.6-.06 3.64-.048 7.28-.025 10.9l-.001 4.76c0 3.3.01 6.61.028 9.91.023 4.23.024 8.45.017 12.7-.003 3.27.003 6.53.013 9.8.004 1.56.005 3.12.003 4.67 0 2.18.013 4.35.029 6.53l.014 3.74c.563 7.31 3.31 11.8 8.76 16.6 5.98 4.33 11.2 4.72 18.5 3.81 5.65-2.12 9.26-5.63 12-11 1.14-3.3 2.12-6.62 3-10 6.62-1.25 6.62-1.25 10 1l-1 2v1c-1.72 12-1.72 12-5 16h-2c-.268.598-.536 1.2-.812 1.81-1.19 2.19-2.28 3.6-4.19 5.19h-2v2c-8.19 4.06-16 5.81-25 3.09a93.512 93.512 0 0 1-7.02-3.09v-2l-1.81-.25c-2.82-.966-3.67-2.24-5.19-4.75v-2h-2c-.338-.748-.675-1.5-1.02-2.27l-1.35-2.98c-.661-1.46-.661-1.46-1.34-2.95-1.16-2.67-1.16-2.67-2.35-4.53-1.31-3.18-1.19-5.94-1.19-9.37l-.01-2.15c-.01-2.34-.004-4.67.003-7.01l-.006-4.9c-.003-3.42.002-6.84.011-10.3.011-4.37.005-8.73-.007-13.1-.007-3.37-.005-6.74 0-10.1.001-1.61 0-3.22-.005-4.83-.032-14.1.907-27.8 11.3-38.5h2l1-3c10.4-7 21.8-7.75 33-1.98z"/><path fill="#F3F4F5" d="M1008 1010c1.38 0 2.76.029 4.14.08l2.21.02c2.32.029 4.65.091 6.97.155 1.58.025 3.15.048 4.73.068 3.86.055 7.72.141 11.6.244.495 1.49.495 1.49 1 3l-1 1c-.04 2.33-.042 4.67 0 7-2.52 1.26-4.41 1.21-7.23 1.32l-2.81.115-3.58.131-11.4.438-1 43c3.29.822 5.87 1.18 9.2 1.32l2.97.127 3.08.12 3.12.13c2.54.106 5.08.208 7.62.307v11l-25 1-1 53c10.8.29 10.8.29 21.5.568l4.05.115 2.13.05c5.06.152 5.06.152 7.29 1.27l-1 10c-5.94.074-11.9.129-17.8.165-2.02.015-4.05.036-6.07.061-2.9.037-5.81.054-8.71.067l-2.75.047h-2.55l-2.25.021-1.83-.361c-2.2-3.31-2.25-4.3-2.26-8.15l-.022-3.23.008-3.54-.015-3.73c-.012-3.38-.014-6.76-.012-10.1.001-2.82-.004-5.64-.008-8.46-.012-6.66-.012-13.3-.006-20 .006-6.86-.006-13.7-.028-20.6-.017-5.89-.023-11.8-.02-17.7.002-3.52 0-7.04-.015-10.6-.015-3.93-.005-7.85.006-11.8l-.023-3.53.021-3.25v-2.81c.686-4.74 1.92-7.34 6.74-8.16z"/><path fill="#F2F3F4" d="m928 1168 7 1 .379 2.14c.647 2.98 1.53 5.74 2.56 8.61.509 1.45.509 1.45 1.03 2.92.807 2.48.807 2.48 3.04 3.33l3 9 2 1v6l2 1c.746 1.93.746 1.93 1.44 4.31 1.09 3.49 2.29 5.82 4.56 8.69 1.39 3.62 2.33 7.19 3 11h2l.367 1.83.508 2.42.492 2.39c.632 2.36 1.38 4.27 2.63 6.36l2 1 .024-2.59c.078-8.06.165-16.1.263-24.2.05-4.15.097-8.29.134-12.4.037-4 .084-8 .136-12 .019-1.53.034-3.05.046-4.58.017-2.14.046-4.28.078-6.41l.04-3.69c.264-2.94.739-4.63 2.28-7.1h7l-.045 3.1c-.138 9.62-.27 19.2-.398 28.9-.065 4.95-.133 9.9-.205 14.8-.069 4.77-.134 9.54-.195 14.3-.024 1.82-.05 3.65-.078 5.47-.038 2.55-.07 5.1-.1 7.64l-.04 2.3c-.115 3.85-.115 3.85 1.06 7.45.243 4.94.255 8.49-2 13h-7c-3.44-6.49-6.24-13.1-8.8-20-1.01-2.57-2.1-4.98-3.38-7.42-2.49-4.78-3.81-9.21-3.81-14.6h-2c-3.96-7.46-7.03-15.1-10-23-1.53-4.79-1.53-4.79-5-8l-1 73h-7c-1.28-3.83-1.16-7.44-1.16-11.4l-.015-2.61c-.014-2.85-.021-5.7-.027-8.55l-.017-5.94c-.01-4.15-.016-8.3-.02-12.5-.005-5.32-.03-10.6-.058-16-.018-4.09-.024-8.18-.025-12.3a1144.5 1144.5 0 0 0-.024-5.88 956.28 956.28 0 0 1-.009-8.23l-.028-2.45c.034-4.6.592-7.54 3.38-11.2zm26 50 1 2z"/><path fill="#F8F9FA" d="M381 1168c3.48-.059 6.96-.094 10.4-.125l2.95-.05c8.88-.06 16.4.142 23.1 6.49.835.758 1.67 1.52 2.53 2.3 2.16 2.62 2.59 4.07 2.97 7.39l.547 1.91c1.31 6.01 1.23 12.8-.734 18.6-1.81 2.5-1.81 2.5-4.5 5.12-2.78 2.3-2.78 2.3-2.31 6.38.763.742 1.53 1.48 2.31 2.25 5.7 5.83 6.75 13.8 6.93 21.8l.1 3.44c.06 2.37.118 4.75.172 7.12l.104 3.44.076 3.12c.31 2.96 1.07 5.19 2.3 7.88-2.75.311-2.75.311-6 0-3.68-3.62-4.52-6.2-4.64-11.3l-.111-3.6-.057-3.73-.115-3.76c-.233-9.13-.233-9.13.928-12.6h-2c-1.36-1.98-2.69-3.98-4-6-3.63-4.23-7.54-5.4-13-6h-11l-1 47h-7c-1.29-3.86-1.15-7.51-1.15-11.5l-.01-2.64c-.01-2.89-.012-5.77-.013-8.66l-.01-6.01c-.006-4.2-.008-8.4-.007-12.6 0-5.39-.014-10.8-.03-16.2-.012-4.14-.014-8.28-.014-12.4 0-1.99-.005-3.97-.013-5.96-.01-2.78-.007-5.55 0-8.33l-.018-2.49c.022-3.86.056-6.91 2.26-10.2zm7 8c-1.72 5.67-1.18 11.7-1.19 17.6l-.037 3.77-.006 3.61-.012 3.3c.04 2.97.04 2.97 2.24 5.76 7.24.958 14.8 1.03 21-3 4.84-4.07 6.98-8.33 7.96-14.6.054-3.81-1.11-6.16-2.96-9.45h-2l-1-3c-4.93-4.42-9.9-4.14-16.2-4.06l-2.26.014c-1.83.011-3.66.03-5.49.048zm32 4 1 2zm-2 56 1 2z"/><path fill="#F4F5F6" d="M452 1167c1.94.688 1.94.688 3.94 1.69l-1 3a170.28 170.28 0 0 0-.022 7.41l.03 2.28c.032 2.48.073 4.97.113 7.45a8746.222 8746.222 0 0 0 .274 18.77c.07 4.62.136 9.25.2 13.9.13 9.07.266 18.1.405 27.2l3 1 5 5c4.88 3.08 10.4 2.73 16 2 4.04-1.81 6.54-4.31 9-8 .37-2.54.37-2.54.414-5.46l.117-3.5.094-3.86.122-4.02c.241-8.76.263-17.5.207-26.3l-.016-3.13c-.029-5.18-.075-10.4-.15-15.5l-.045-5.77-.056-2.67c-.02-4.71.104-8.04 3.31-11.8 2.69-.312 2.69-.312 5 0 3.65 16.7 2.16 35.5 2.29 52.6.017 2.01.042 4.02.073 6.04.042 2.87.057 5.73.066 8.6l.053 2.58c-.022 6.2-1.6 10.7-4.48 16.2-.394.759-.788 1.52-1.19 2.3-2.81 5.35-6.11 7.71-11.8 9.7-3.19.527-6.27.562-9.5.5-.803.015-1.61.03-2.43.047-6.76-.044-12.2-1.74-17.1-6.51l-1.35-1.97-1.45-2.11a32.566 32.566 0 0 1-3.18-6.95c-.51-1.09-.51-1.09-1.03-2.21-1.17-3.38-1.22-6.14-1.21-9.72l-.005-2.05c-.004-2.23.007-4.45.018-6.68l.001-4.66c.002-3.25.01-6.5.023-9.75.017-4.16.021-8.32.02-12.5 0-3.2.006-6.41.014-9.61.003-1.53.005-3.07.005-4.6.003-2.14.011-4.29.022-6.43l.012-3.7c.206-4.78.206-4.78 1.13-7.1 3-2 3-2 5.06-1.69z"/><path fill="#F9FAFB" d="M626 1173v3l3 1c6.48 12.2 4.31 30.9 4.26 44.3-.01 3.4 0 6.81.013 10.2-.002 2.18-.004 4.36-.008 6.54l.012 3.06c-.033 5.02-.282 9.16-2.28 13.9h-2c-.268.598-.536 1.2-.812 1.81-2.42 4.46-5.54 6.24-10.2 8.19-2.82.416-5.59.42-8.44.375l-2.2.035c-6.01-.032-10.7-1.19-15.4-5.14-.532-.626-1.06-1.25-1.61-1.9-.54-.61-1.08-1.22-1.64-1.85-5.28-7.95-6.28-14.8-6.24-24.3l-.019-3.66c-.007-2.54-.004-5.08.01-7.62.013-3.87-.021-7.73-.06-11.6 0-2.48.002-4.96.007-7.44l-.04-3.47c.103-9.01 2.66-15.6 7.98-22.8 10.6-10.3 23.2-8.32 35.7-2.62zm-25 4v2l-1.75.063c-2.88 1.2-3.81 3.01-5.32 5.66-2.98 7.31-3.24 14.2-3.23 22l-.013 3.36c-.006 2.33-.006 4.66-.002 7 .003 3.57-.02 7.14-.046 10.7-.002 2.27-.003 4.54-.002 6.81l-.027 3.23c-.072 7.12-.072 7.12 3.39 13.1l3 1 1 3h3v2c4.21 2.1 9.43 1.54 14 1 3.01-1.34 4.57-2.68 7-5v-2h2c1.08-3.23 1.16-5.64 1.21-9.03l.06-3.76.05-4.06.064-4.16c.055-3.64.105-7.29.153-10.9.05-3.72.106-7.44.16-11.2.108-7.3.21-14.6.308-21.9h-2v-3h-2l-1-3c-5.42-4.86-13.2-5.26-20-3z"/><path fill="#FBFCFD" d="M940 1010c1.76 0 3.52.029 5.28.08l2.81.02c2.97.029 5.93.091 8.89.155 2.01.025 4.02.048 6.03.068 4.93.055 9.86.141 14.8.244.495 1.49.495 1.49 1 3l-1 1c-.04 2.33-.042 4.67 0 7-3.67 1.84-8.08 1.41-12.1 1.62l-2.87.38c-1.22 2.44-1.14 4.02-1.15 6.75l-.025 3.04-.013 3.35-.025 3.51c-.018 2.52-.033 5.05-.046 7.57-.02 3.99-.048 7.97-.077 12-.065 9.18-.12 18.4-.176 27.5-.05 8.42-.104 16.8-.165 25.2-.033 4.61-.058 9.21-.082 13.8l-.05 7.2-.013 3.35-.026 3.03-.015 2.65c-.136 1.98-.136 1.98-1.14 2.98-3.44.25-3.44.25-7 0-2.17-3.25-2.25-4.13-2.24-7.88l-.009-3.05.022-3.34v-3.52c0-3.85.016-7.69.032-11.5.004-2.66.007-5.33.009-7.99.006-6.3.022-12.6.042-18.9.023-7.17.034-14.3.044-21.5.02-14.8.056-29.5.1-44.3l-2.7-.185-3.55-.254-3.52-.246c-2.54-.249-4.79-.598-7.23-1.32-.845-3.31-1.2-5.4-.111-8.68 2.42-2.67 2.87-2.69 6.31-2.89z"/><path fill="#F1F2F2" d="M351 1172c1.04 3.13.934 3.99 0 7-2.12.688-2.12.688-5 1l-2.75-1.44c-5.51-2.65-11.4-2.07-17.2-.562v2l-3 1c-6.02 7.46-5.28 18.5-5.2 27.6l.009 3.52c.01 3.68.036 7.36.061 11 .01 2.51.02 5.02.028 7.52.021 6.12.055 12.2.097 18.4l1.94.812c2.06 1.19 2.06 1.19 3.06 4.19h3l1 2c4.66 1.55 9.14 1.73 14 1 2.45-1.35 4.37-2.82 6.44-4.69 1.56-1.31 1.56-1.31 3.56-1.31v-29c-4.89-.289-4.89-.289-9.78-.568-5.11-.321-5.11-.321-6.22-1.43-.04-2-.042-4 0-6 2.43-1.21 4.01-1.13 6.72-1.13l2.82-.004 2.96.012 2.96-.012 2.82.004 2.6.003c2.12.13 2.12.13 4.12 1.13l-1 3c.01 2.46.077 4.89.184 7.34.042 1.49.082 2.98.12 4.47.06 2.33.133 4.66.245 7 .446 9.64.283 16.5-6.35 24.2-5.45 5.04-11 5.54-18.2 5.47l-2.33.06c-6.73-.005-10.9-1.85-15.9-6.61-3.61-4.68-5.69-7.91-5.82-13.9h-2c-.127-7.63-.215-15.3-.275-22.9-.025-2.59-.059-5.19-.103-7.78-.06-3.74-.089-7.48-.11-11.2l-.079-3.47c-.003-9.21 2.48-16 7.57-23.6h2l1-3c1.71-1.13 1.71-1.13 3.81-2.12.687-.332 1.37-.664 2.08-1.01 8.77-3.61 17.8-2.29 26.1 2.13z"/><path fill="#F4F5F6" d="M739 1167c1.68.286 3.34.618 5 1 .772 2.74 1.13 5.19 1.13 8.04l.004 2.26-.012 2.33.012 2.35c-.01 5.77-.01 5.77-1.14 8.02a89.137 89.137 0 0 0-.145 5.01l-.02 3.17-.003 3.43-.01 3.52c-.005 2.46-.007 4.92-.007 7.39-.002 3.77-.02 7.53-.04 11.3l-.005 7.17-.022 3.42.01 3.19-.005 2.8c.274 2.88.957 5.01 2.25 7.6l2 1v2h3c1.02 1.32 2.02 2.65 3 4 3.62 1.21 6.93 1.11 10.7 1.06l2.13-.014c1.73-.012 3.46-.03 5.19-.049v-2c1.65-1.35 3.32-2.68 5-4 2.38-3.57 2.3-6.13 2.3-10.3l.026-2.23c.025-2.43.037-4.86.05-7.3l.051-5.07c.046-4.45.08-8.9.112-13.4.052-7.12.117-14.2.188-21.4.023-2.49.04-4.98.055-7.46l.041-4.58.008-2.1c.035-3.24.18-6.19 1.17-9.29 4.75-1.12 4.75-1.12 7 0l-1 3c-.07 2.54-.085 5.05-.05 7.59l.019 2.34c.014 1.67.03 3.35.048 5.02.026 2.65.044 5.3.06 7.96.042 7.54.09 15.1.17 22.6.049 4.61.078 9.23.094 13.8.01 1.76.027 3.51.052 5.27.033 2.46.042 4.92.045 7.38l.049 2.19c-.037 6.12-2.34 9.6-6.52 13.9-.67.572-1.34 1.14-2.03 1.73-.672.585-1.34 1.17-2.04 1.77-3.03 2.26-5.62 2.55-9.28 2.55l-2.54.004-2.64-.011-2.65.011c-.837 0-1.67-.002-2.54-.004l-2.32-.003c-1.92-.129-1.92-.129-3.92-1.13v-2l-5-1v-2l-3-1c-7.17-9.37-7.99-18.4-7.75-29.8.008-1.58.013-3.17.015-4.75.012-3.29.047-6.58.1-9.87.069-4.21.097-8.42.111-12.6.015-4.04.05-8.08.086-12.1l.016-2.32c.018-2.17.05-4.33.087-6.49l.05-3.72c.302-3.39.784-6.74 3.29-9.25zm3 3 2 2v-2h-2z"/><path fill="#EDEEEF" d="m584 1011 7 1-.003 1.88c-.022 15.1-.038 30.2-.049 45.3-.005 7.31-.012 14.6-.023 21.9-.01 6.37-.017 12.7-.019 19.1-.001 3.37-.004 6.75-.012 10.1-.007 3.76-.008 7.52-.007 11.3l-.011 3.41.004 3.09-.003 2.7c-.015 2.19-.015 2.19 1.12 4.14l2.8-.016c3.43-.017 6.85-.03 10.3-.039 1.48-.005 2.97-.012 4.45-.02 2.13-.013 4.26-.018 6.4-.023l3.89-.016c3.19.114 3.19.114 6.19 1.11-.14 1.48-.288 2.96-.438 4.44l-.246 2.5c-.316 2.07-.316 2.07-1.32 3.07-3.01.126-5.99.19-9 .203l-2.74.018c-1.92.01-3.83.016-5.75.02-2.94.01-5.88.04-8.82.072-1.86.006-3.71.012-5.57.015l-2.68.038c-2.48-.01-2.48-.01-6.45-.366-2.13-3.19-2.25-3.98-2.25-7.64l-.013-2.89.017-3.16-.005-3.34c-.004-3.65.007-7.31.018-11l.001-7.63c.002-5.34.01-10.7.024-16 .015-6.15.02-12.3.02-18.4 0-5.93.004-11.9.013-17.8.003-2.51.005-5.02.006-7.54.002-3.53.01-7.06.021-10.6l-.001-3.1c.09-20.7.09-20.7 3.15-25.9z"/><path fill="#EBECED" d="m531 1168 2.78-.037c7.71-.016 15.8.346 22.2 5.22 2.71 2.93 4.31 5.08 5 9 .351.969.701 1.94 1.06 2.94 1.8 6.18 1.97 14-.063 20.1h-2l-.262 1.8c-.944 2.81-2.15 3.62-4.55 5.32l-2.08 1.51c-.695.45-1.39.902-2.11 1.37-.568.378-1.14.755-1.72 1.14-3.55 1.33-7.14 1.29-10.9 1.42-5.35-.02-5.35-.02-10.4 1.44-.946 2.77-1.14 5.4-1.21 8.31l-.06 2.55-.05 2.72-.063 2.81c-.066 2.95-.124 5.91-.183 8.86l-.131 6.02c-.107 4.91-.208 9.82-.307 14.7h-7c-1.28-3.84-1.14-7.45-1.13-11.4l-.006-2.61c-.004-2.85-.001-5.71.002-8.56l-.003-5.94c-.001-4.16 0-8.31.006-12.5.005-5.33.002-10.7-.004-16-.004-4.09-.003-8.19 0-12.3 0-1.96 0-3.93-.002-5.89-.003-2.75 0-5.49.006-8.24l-.006-2.46c.026-6.83.026-6.83 1.14-10.1 3.67-1.83 8.02-1.18 12.1-1.19zm-3.06 8.19c-1.86 3.95-2.24 7.05-2.2 11.4l.02 3.64.05 3.78.028 3.83c.023 3.12.056 6.24.097 9.35h2v2c12 .77 12 .77 23-3 4.77-5.35 5.81-11.2 5.48-18.2-.714-4.17-2.13-7.17-5.48-9.81-5.34-2.83-9.46-3.4-15.4-3.19l-2.22.041c-1.78.035-3.56.089-5.35.146z"/><path fill="#F4F5F6" d="M810 1167c2.01.287 4.01.619 6 1l1 3-1 1c.172 1.61.423 3.22.707 4.81l.529 3.01.576 3.18.541 3.08c.806 4.53 1.65 9.04 2.69 13.5 1.12 4.88 1.75 9.81 2.39 14.8 1.5 12.2 1.5 12.2 5.56 23.6h2l.148-2.13c1.52-20.1 1.52-20.1 3.83-26.6 1.42-4.5 1.84-9.01 2.39-13.7 3.04-24 3.04-24 7.62-28.6 2.62-.125 2.62-.125 5 0 1.09 3.26.905 3.86 0 7-.283 1.65-.547 3.29-.797 4.95-.152.982-.303 1.96-.459 2.98l-.494 3.2c-1.62 10.3-3.47 20.6-5.5 30.8-1.17 5.94-2.25 11.9-3.22 17.9-.994 5.98-2.08 12-3.15 17.9l-.695 3.88c-.559 3.12-1.12 6.24-1.68 9.37h-9l-1-5h-1l.195-5.96c-.063-2.36-.063-2.36-2.2-5.04-.08-2.33-.088-4.67 0-7h-1l.125-3.75c.006-3.41-.525-5.24-2.12-8.25a256.96 256.96 0 0 1-.725-5.62c-.502-4.34-1.11-8.67-1.71-13l-.369-2.77c-.702-7.88-.702-7.88-4.19-14.6-.237-2.27-.415-4.54-.562-6.81l-.254-3.77c-.133-2.47-.184-4.94-.184-7.42h-2c.875-7.88.875-7.88 2-9zm1 17 1 2z"/><path fill="#EEEFF0" d="m879 1167 3.36.025 3.51.088 3.52.03c8.58.115 8.58.115 10.9 1.28l-1 7-20 1c-.046 4.38-.086 8.76-.11 13.1-.01 1.49-.024 2.98-.041 4.47-.024 2.14-.036 4.28-.044 6.42l-.032 3.9c-.101 3.18-.101 3.18 2.23 5.07 2.03.369 2.03.369 4.35.414l2.58.117 2.7.093c.897.04 1.79.078 2.72.117 2.22.095 4.44.18 6.66.258l-1 7-20 1v40c8.14-.04 8.14-.04 16.3-.09l3.06-.007 3.14-.016c2.52.114 2.52.114 4.52 1.11l-1 6h-34c-1.3-3.89-1.16-7.58-1.16-11.6l-.015-2.67c-.015-2.92-.022-5.84-.027-8.76l-.017-6.08c-.01-4.25-.017-8.5-.02-12.7-.006-5.45-.03-10.9-.058-16.3-.019-4.19-.024-8.37-.025-12.6-.004-2.01-.012-4.02-.025-6.03-.017-2.81-.015-5.62-.008-8.42l-.028-2.52c.024-3.34.142-5.79 1.74-8.76 2.4-2.17 4.14-1.95 7.33-1.91z"/><path fill="#F5F6F7" d="m1024 1168 7 1v88c3.48 1.74 7.65 1.37 11.5 1.52 3.65.19 5.38.406 8.5 2.48l-1 4h-28c-1.28-3.83-1.16-7.44-1.16-11.4l-.015-2.61c-.015-2.85-.021-5.7-.027-8.55l-.017-5.94c-.01-4.15-.017-8.3-.02-12.5-.005-5.32-.03-10.6-.058-16-.019-4.09-.024-8.18-.025-12.3a1144.5 1144.5 0 0 0-.025-5.88 956.28 956.28 0 0 1-.008-8.23l-.028-2.45c.034-4.6.592-7.54 3.38-11.2zM712 1167c2 .25 2 .25 4 1 1.19 3.57 1.14 6.81 1.13 10.5l.005 2.32c.009 8-.046 16-.105 24-.026 3.79-.033 7.58-.023 11.4.013 4.59-.009 9.17-.055 13.8-.011 1.74-.011 3.48.001 5.23.057 9.32.075 16.4-6.08 24-5.11 4.9-9.99 6.26-17 6.15l-2.4-.102-2.49-.055c-2-.046-4.01-.118-6.01-.195-.625-1.81-.625-1.81-1-4l2-3c2.94-.384 5.68-.604 8.62-.688l2.43-.104c1.98-.082 3.96-.147 5.95-.209v-2c1.62-1.71 3.29-3.38 5-5 1.91-1.91 1.15-5.41 1.16-8.01l.015-2.22c.011-1.6.02-3.2.027-4.79.011-2.53.03-5.06.053-7.59.061-7.2.116-14.4.149-21.6.02-4.4.056-8.79.1-13.2.015-1.68.024-3.35.027-5.03.005-2.35.028-4.7.055-7.04l-.009-2.09c.08-4.69 1.06-8.07 4.43-11.4zM997 1167l6 1-1 3c-.092 3-.126 5.97-.114 8.97v2.78c0 3.04.008 6.07.016 9.11l.004 6.31c.004 5.54.014 11.1.025 16.6.01 5.65.015 11.3.02 17 .01 11.1.027 22.2.048 33.3h-6c-1.16-17.8-1.19-35.7-1.19-53.6 0-4.22-.013-8.43-.03-12.7-.011-3.27-.013-6.55-.013-9.82-.001-1.56-.006-3.11-.013-4.67-.01-2.16-.007-4.32-.001-6.48l-.004-3.71c.235-2.96.69-4.62 2.25-7.11z"/><path fill="#000100" d="m1130 898-1 3c-6.12.319-12.2.63-18.4.938l-2.79.141c-12.7.636-25.5 1.12-38.2 1.42-9.21.223-18.3.598-27.5 1.77-12.3 1.48-24.8 1.43-37.2 1.73l1-3 2.5-.06c3.11-.079 6.23-.166 9.34-.257 1.99-.057 3.98-.104 5.97-.151l3.87-.117 3.52-.095c2.94-.247 5.45-.658 8.3-1.31 6.88-1.45 13.8-1.46 20.8-1.61a3591.628 3591.628 0 0 1 16.02-.409c6.16-.148 12.3-.31 18.5-.472a2375 2375 0 0 1 6.37-.154c7.98-.196 15.9-.588 23.9-1.16 1.64-.114 3.27-.202 4.91-.202zM1277 891l3.29-.02c2.29-.01 4.57-.015 6.86-.015 3.49-.004 6.99-.04 10.5-.078 2.23-.006 4.45-.01 6.68-.012l3.15-.044c6.01.038 9.57.454 14.1 4.5l1 2 3 1-1 3c-3.08-1.75-5.56-3.44-8-6-2.41-1.2-3.93-1.13-6.61-1.15l-2.9-.019-3.15-.003-3.24-.01c-2.27-.005-4.53-.008-6.8-.008-3.45-.002-6.91-.02-10.4-.039l-6.6-.006-3.12-.021c-5.49.017-9.93.62-15.2 2.25-2.61.223-5.14.369-7.75.414l-2.21.059c-2.35.06-4.7.107-7.04.152l-4.86.106c-3.22.068-6.43.129-9.65.185-3.96.07-7.92.174-11.9.283-2.06.04-4.12.078-6.18.113l-2.82.09c-6.14.055-6.14.055-8.71-2.42l-.91-1.98 1.76.473 2.37.59 2.32.598c2.55.474 2.55.474 5.05-.124 4.72-.722 9.36-.732 14.1-.783l6.27-.1c3.28-.047 6.55-.091 9.83-.13 3.18-.04 6.35-.092 9.53-.144l2.95-.026c4.01-.072 7.39-.234 11.3-1.36 4.99-1.41 9.79-1.32 15-1.33z"/><path fill="#FBFCFD" d="M924 752h1v179h-1V752zM400 1029h1v113h-1v-113z"/><path fill="#000100" d="M812 1015c1.65 1.04 1.65 1.04 4.03 2.98v2c-3.04-.919-5.62-1.73-8.24-3.55-3.58-1.87-6.24-1.81-10.3-1.76l-3.91.012c-5.15.43-8.49 1.98-12.5 5.11l-2.06 1.59c-2.71 2.16-5.37 4.36-8 6.6 1.37-2.95 2.88-5.52 5-8h2l1-3c10.4-7 21.8-7.75 33-1.98zM626 1173v3l3 1c1.19 2.56 1.19 2.56 2 5-.688-.597-.688-.597-1.39-1.21-.92-.795-.92-.795-1.86-1.61-.603-.522-1.21-1.04-1.83-1.58-.634-.53-1.27-1.06-1.92-1.61-.633-.534-1.27-1.07-1.92-1.62-5.48-3.64-12.6-3.73-18.9-2.76-5.93 1.31-9.74 3.2-13.2 8.38l-2-1c4.25-5.84 8.59-8.49 15.4-10.8 8.28-.592 15.1 1.39 22.6 4.81zM936 1011h42c.495 1.49.495 1.49 1 3l-3.81-.016c-4.66-.018-9.31-.03-14-.039-2.02-.005-4.03-.012-6.05-.02-2.9-.013-5.79-.018-8.69-.023l-2.74-.015h-2.55l-2.24-.007c-2.17.05-2.17.05-4.96 1.12l2-4z"/><path fill="#161716" d="M394 887c1.39.067 2.79.085 4.19.063L402 887v2c-4.12.863-6.92.834-11 0-11-.874-18.6 1.92-27 9l-2.05 1.72c-1.66 1.41-3.31 2.84-4.95 4.28l3-6h2l1-3c4.34-4 4.34-4 8-4v-2c7.57-2.71 15.1-4.62 23-2z"/><path fill="#000100" d="M381 1168c3.48-.059 6.96-.094 10.4-.125l2.95-.05c16.1-.109 16.1-.109 21.7 5.3l1.72 1.63c.401.41.802.82 1.21 1.24l-2 1-1.75-1.88c-9.77-6.39-24-4.32-35.2-4.12l1-3zM318 1249c1.94.812 1.94.812 4 2l1 3h3l1 2c4.66 1.55 9.14 1.73 14 1 3.05-1.63 5.51-3.61 8-6l2 1c-4.43 4.83-8.63 8.43-15.3 9.56-5.71-.871-11.5-2.83-15.2-7.45-1.1-1.92-1.1-1.92-2.47-5.11zM879 1258c4.12-.029 8.25-.047 12.4-.063l3.56-.025 3.4-.01 3.14-.016c2.52.114 2.52.114 4.52 1.11l-1 3-3-1c-1.52-.07-3.04-.084-4.56-.062l-2.66.023-2.77.04c-1.81.025-3.62.046-5.44.062l-2.43.035c-2.13-.098-2.13-.098-5.13-1.1v-2zM1000 1011h33c.495 1.49.495 1.49 1 3l-2.87-.016c-3.53-.017-7.05-.03-10.6-.039-1.52-.005-3.05-.012-4.57-.02-2.19-.013-4.39-.018-6.58-.023l-4-.016c-2.7.09-4.84.295-7.39 1.11l2-4zM781 1128c.908.619 1.82 1.24 2.75 1.88 6.5 4.25 11.4 5.14 19.2 4.12 3-1.31 5.43-2.99 8-5l2-1c-1.51 3.86-3.52 5.78-7 8-7.12 2.94-12.9 1.55-20-1l-2-1v-2h-2l-1-4zM351 1172c.495 1.48.495 1.48 1 3-6.59-1.78-6.59-1.78-8.88-3.04-5.26-2.38-11.8-1.81-17.1.164-2.4 1.21-4.71 2.47-6.99 3.88v-3c1.25-.651 2.5-1.3 3.75-1.94l2.11-1.09c8.61-3.91 18-2.34 26.1 2.03zM459 1252c.51.361 1.02.722 1.55 1.09 6.39 4.08 11.9 5.08 19.5 3.91 2.73-1.07 4.61-2.26 7-4-1.22 3.78-3.55 5.42-7.01 7.24-4.86 1.86-8.9 1.13-13.7-.488-3.06-1.65-5.08-3.06-7.25-5.75v-2zM777 1251c0 3 0 3-2.19 5.56-4.36 3.78-7.84 4.92-13.7 4.75-3.82-.568-7.01-2.07-10.1-4.32-2-2.75-2-2.75-3-5h3c1.02 1.32 2.02 2.65 3 4 3.62 1.21 6.93 1.11 10.7 1.06l2.13-.014c1.73-.012 3.46-.03 5.19-.049v-2c1.63-1.38 3.29-2.72 5-4zM594 1251c3 1 3 1 4 3l3 1v2c11.2.715 11.2.715 21-4-1.41 3.41-2.73 5.24-6 7-5.36 1.25-9.98 1.51-15-1-2.51-1.83-4.9-3.71-7-6v-2zM413 1203l1 2c-4.35 4.72-7.22 6.83-13.7 7.23l-3.99-.043-2.05-.002c-4.98-.045-4.98-.045-7.26-1.19l1-4 1 2c12.3.773 12.3.773 22.9-4.69l1.06-1.31zM552 1204l1 2c-3.96 4.99-9.33 6.57-15.5 7.29-5.94.213-5.94.213-8.28-1.81-.41-.487-.82-.975-1.24-1.48l3.11-.148 4.08-.227c.674-.03 1.35-.062 2.04-.094 4-.234 7.12-.934 10.8-2.53h3l1-3zM1012 1067c.553.158 1.11.317 1.67.48 2.55.569 4.92.73 7.53.836l2.97.127 3.08.119 3.12.131c2.54.106 5.08.208 7.62.307l1 3-25-1-2-4zM706 1250l1 3c-3.32 3.84-6.18 6.66-11.3 7.62-2.25.127-4.51.201-6.76.215-2.92.166-4.49.658-6.95 2.17l2-5 17-1v-2c1.63-1.71 3.29-3.38 5-5zM878 1207c1.49.99 1.49.99 3 2 2.12.364 2.12.364 4.45.414l2.57.117 2.67.094 2.71.117c2.2.094 4.4.18 6.61.258l-1 3c-6.27-.33-12.5-.66-19-1l-2-5zM1030 1257l3 1c3.18.226 6.36.393 9.55.518 3.64.19 5.35.413 8.45 2.48l-1 2-3-1c-3.21-.161-6.42-.296-9.64-.342-1.99-.084-1.99-.084-5.36-.658-1.46-2.04-1.46-2.04-2-4z"/><path fill="#282929" d="M786 1014c-1.52 4.26-4.29 5.62-8 8-2.39 1.94-4.7 3.96-7 6 1.43-2.93 2.87-5.51 5-8h2l1-3c4.33-3 4.33-3 7-3z"/><path fill="#000100" d="m676 1011 2.78.035 2.79.028 2.15.035 2 4-2.01-.29c-6.7-.913-6.7-.913-13 1.29 2.41-4.97 2.41-4.97 5.29-5.1zM499 1170h2v29h-1c-.33-9.57-.66-19.1-1-29zM1205 1109h1v29h-1v-29zM516 985h1v26h-1v-26z"/><path fill="#FBFCFD" d="M994 1244h1v18h-1v-18z"/><path fill="#000100" d="M569 534h1v18h-1v-18z"/><path fill="#FBFCFD" d="M924 1221h1v17h-1v-17z"/><path fill="#000100" d="M744 1228h1v16h-1v-16zM1025 63h1v13h-1V63z"/><path fill="#FBFCFD" d="M582 1210h1v12h-1v-12z"/><path fill="#000100" d="M633 1188h1v11h-1v-11zM888 895h1v10h-1v-10zM633 1207h1v9h-1v-9zM1205 993h1v9h-1v-9z"/><path fill="#FBFCFD" d="M339 602h1v9h-1v-9zM999 0h1v9h-1V0zM489 1201h1v8h-1v-8zM872 234h1v8h-1v-8zM1288 162h1v8h-1v-8z"/><path fill="#000100" d="M744 1191h1v7h-1v-7zM1284 415h1v7h-1v-7zM426 1258h2l-1 4-1-4z"/><path fill="#FBFCFD" d="M1138 1170h1v6h-1v-6z"/><path fill="#000100" d="M693 1058h1v6h-1v-6zM1293 320h1v6h-1v-6zM825 1220h1v5h-1v-5zM949 1203h2l-1 4-1-4z"/><path fill="#FBFCFD" d="M994 1173h1v5h-1v-5z"/><path fill="#000100" d="M900 1089h1v5h-1v-5zM1204 1082h1v5h-1v-5zM899 1079h1v5h-1v-5zM823 1029l2 1-1 3-1-4z"/><path fill="#FBFCFD" d="M339 593h1v5h-1v-5z"/><path fill="#000100" d="M1038 266h1v5h-1v-5zM318 1242l1 4zM824 1212l1 4z"/><path fill="#FBFCFD" d="m489 1192 1 4z"/><path fill="#000100" d="m908 1136 1 4zM890 1024l1 4zM1329 955l2 1-1 2-1-3zM1195 800l2 1-1 2-1-3zM1094 693l1 4zM1079 579l2 1-1 2-1-3zM785 554l2 1-1 2-1-3zM1279 498l1 4zM1297 300l1 4zM549 480h2l-1 2-1-2z"/></svg>