<?xml version="1.0" encoding="UTF-8"?>
<svg version="1.1" viewBox="0 0 1360 1600" width="1280" height="1280" xmlns="http://www.w3.org/2000/svg">
<path transform="translate(348,212)" d="m0 0c2.04 0.285 4.08 0.578 6.12 0.875 1.14 0.162 2.27 0.325 3.45 0.492 3.29 0.607 6.29 1.5 9.43 2.63 0.0427 1.67 0.0406 3.33 0 5-0.33 0.33-0.66 0.66-1 1-0.124 0.99-0.248 1.98-0.375 3-0.374 2.88-1.04 5.45-2 8.19-2.69 7.73-4.7 15.7-5.62 23.8h-2c0.0928 1.45 0.0928 1.45 0.188 2.94 0 3.86-1.02 6.93-2.32 10.5-2.03 5.93-3.54 12.1-4.36 18.3-0.726 4.72-2.36 8.97-4.5 13.2h-3v2h-6v2c-0.929 0.254-1.86 0.508-2.82 0.77-7.77 2.07-7.77 2.07-15.2 4.98-2.99 1.27-4.75 1.36-7.94 1.25-0.0258 7.15-0.043 14.3-0.0549 21.4-0.00496 2.42-0.0117 4.84-0.0205 7.26-0.0546 15.5 0.203 30.9 1.08 46.3 0.874 0.0431 0.874 0.0431 1.77 0.0871 1.61 0.0792 3.21 0.158 4.82 0.238 1.69 0.0832 3.39 0.164 5.08 0.243 0.726 0.0381 1.45 0.0762 2.2 0.115 1.12 0.055 1.12 0.055 2.25 0.111 1.88 0.205 1.88 0.205 3.88 1.21 1.92 0.186 1.92 0.186 3.88 0.375 8.49 0.876 16.3 3.17 24.1 6.62 1.66 0.519 3.33 1.02 5 1.5 4.18 1.21 8.05 2.7 12 4.5v2h4v2c0.572 0.122 1.14 0.245 1.73 0.371 2.37 0.657 4.34 1.57 6.52 2.69 0.706 0.362 1.41 0.724 2.14 1.1 0.531 0.277 1.06 0.554 1.61 0.84v2h3v2c0.804 0.371 0.804 0.371 1.62 0.75 5.58 2.94 11 6.69 15.4 11.2v2h2v2h2c1.51 1.46 1.51 1.46 3.12 3.38 0.539 0.626 1.08 1.25 1.63 1.9 1.24 1.73 1.24 1.73 1.24 3.73h2c1.24 1.51 1.24 1.51 2.6 3.61 0.49 0.753 0.98 1.51 1.48 2.28 0.508 0.797 1.02 1.59 1.54 2.42 0.516 0.786 1.03 1.57 1.56 2.38 3.81 5.93 3.81 5.93 3.81 9.31h2v4h2c0.254 0.785 0.508 1.57 0.77 2.38 2.21 6.86 2.21 6.86 4.98 13.5 1.32 3.29 1.51 5.62 1.25 9.12h2c2.32 13 3.44 25.5 3.28 38.8-0.0318 2.74-0.0411 5.47-0.0469 8.21-0.00915 1.76-0.0195 3.52-0.0312 5.28-0.00425 0.808-0.0085 1.62-0.0129 2.45-0.0495 3.89-0.241 7.5-1.19 11.3h-6v-2c-0.722 0.04-1.44 0.0799-2.19 0.121-3.06-0.132-5.02-0.833-7.81-2.06-3.34-1.45-6.41-2.45-10-3.06v-2h-5v-2c-0.887-0.0825-1.77-0.165-2.69-0.25-5.94-0.823-11.6-2.91-17.3-4.75v-2c-0.681 0.0619-1.36 0.124-2.06 0.188-3-0.192-5.02-1.01-7.72-2.27-3.87-1.61-7.92-2.69-11.9-3.86-3.28-1.06-3.28-1.06-6.62-2.5-4.15-1.78-8.36-3.18-12.7-4.56-4.18-1.35-8.29-2.69-12.3-4.44-6.06-2.57-12.3-4.48-18.6-6.51-5.72-1.88-11.3-3.88-16.8-6.33-4.13-1.3-8.1-0.527-12.3 0.286l-3.12 0.562c-0.619 0.144-1.24 0.289-1.88 0.438v2h-5v2c-2.06 0.649-4.12 1.29-6.19 1.94-1.15 0.36-2.3 0.719-3.48 1.09-2.78 0.81-5.49 1.46-8.33 1.97v2c-0.909 0.255-0.909 0.255-1.84 0.516-6.94 2.01-13.9 4.23-20.3 7.6-2.38 1.12-4.28 1.03-6.88 0.887v2c-1.28 0.416-1.28 0.416-2.59 0.84-1.1 0.362-2.21 0.724-3.35 1.1-1.1 0.36-2.2 0.719-3.34 1.09-2.6 0.711-2.6 0.711-3.72 1.97-1.67 0.0406-3.33 0.0427-5 0v2c-2.25 0.841-4.5 1.67-6.75 2.5-0.634 0.238-1.27 0.477-1.92 0.723-3.36 1.23-5.7 1.78-9.33 1.78v2c-3.37 1.5-5.2 2-9 2v2c-0.811 0.231-1.62 0.461-2.46 0.699-6.42 1.89-12.4 4.05-18.4 6.93-4.75 2.08-9.64 3.73-14.5 5.4-3.56 0.994-3.56 0.994-6.57 2.97-1.67 0.0406-3.33 0.0427-5 0v2l-8 3c0.33 1.32 0.66 2.64 1 4h2v2h2c3 3.46 3 3.46 3 6h2c2.06 3.09 2.26 3.77 2.3 7.27 0.025 1.32 0.025 1.32 0.0505 2.67 0.00838 0.974 0.0168 1.95 0.0254 2.95 0.0167 1.04 0.0334 2.09 0.0505 3.16 0.054 3.55 0.0936 7.09 0.133 10.6 0.035 2.54 0.0708 5.07 0.107 7.61 0.0907 6.46 0.169 12.9 0.244 19.4 0.0702 6.03 0.146 12.1 0.223 18.1 0.135 10.6 0.265 21.1 0.391 31.7 0.0227 1.89 0.0454 3.78 0.0683 5.67 0.31 25.6 0.469 51.2 0.403 76.9 2.97-0.33 5.94-0.66 9-1v-2c0.797-0.193 1.59-0.387 2.41-0.586 6.57-1.6 6.57-1.6 13-3.6 2.66-0.845 4.79-0.976 7.56-0.812v-2h6v-2c0.797-0.193 1.59-0.387 2.41-0.586 6.57-1.6 6.57-1.6 13-3.6 2.66-0.845 4.79-0.976 7.56-0.812v-2c1.14-0.273 1.14-0.273 2.31-0.551 6.35-1.55 12.5-3.3 18.7-5.45 8.56-2.92 17.1-5.66 25.8-8.09 2.78-0.803 5.5-1.7 8.23-2.66 3.08-1.06 5.64-1.57 8.94-1.25v-2h6v-2c0.545-0.11 1.09-0.219 1.65-0.332 4.08-0.857 7.94-1.84 11.8-3.29 4.63-1.62 8.62-1.61 13.5-1.38v2c0.839 0.107 1.68 0.214 2.54 0.324 3.8 0.743 7.21 2.01 10.8 3.49 0.657 0.268 1.31 0.535 1.99 0.811 4.33 1.78 8.62 3.63 12.9 5.61 1.92 0.798 3.81 1.31 5.83 1.76v2h5v2c0.763 0.0825 1.53 0.165 2.31 0.25 5.1 1.04 9.83 2.89 14.7 4.75v2h5v2c0.701 0.125 1.4 0.25 2.12 0.379 3.05 0.659 5.92 1.56 8.88 2.56 1.01 0.339 2.02 0.678 3.06 1.03 2.68 0.944 5.31 1.96 7.94 3.04v-2h2v-2c1.38-1.62 1.38-1.62 3-3h2v-2h2v-2h2v-2c1.38-1.62 1.38-1.62 3-3h2v-2h2v-2c2.37-2.62 2.37-2.62 5-5h2v-2h2v-2c2.38-2.62 2.38-2.62 5-5h2v-2h2v-2c2.38-2.62 2.38-2.62 5-5h2v-2h2v-2c2.39 0.576 4.67 1.22 7 2v2c0.639 0.0825 1.28 0.165 1.94 0.25 4.27 1.05 8.09 2.89 12.1 4.75v2h4v2c0.639 0.0825 1.28 0.165 1.94 0.25 4.27 1.05 8.09 2.89 12.1 4.75v2h4v2c0.828 0.184 0.828 0.184 1.67 0.371 2.62 0.709 5.06 1.67 7.58 2.69 0.892 0.362 1.78 0.724 2.7 1.1l2.05 0.84v2h4v2c0.828 0.184 0.828 0.184 1.67 0.371 2.62 0.709 5.06 1.67 7.58 2.69 0.892 0.362 1.78 0.724 2.7 1.1 0.675 0.277 1.35 0.554 2.05 0.84v2h4v2c0.863 0.19 0.863 0.19 1.74 0.385 2.28 0.621 4.24 1.45 6.37 2.46 0.754 0.358 1.51 0.715 2.29 1.08 1.17 0.56 1.17 0.56 2.36 1.13 0.793 0.377 1.59 0.754 2.4 1.14 1.95 0.928 3.9 1.86 5.85 2.79v2c0.722 0.124 1.44 0.248 2.19 0.375 2.77 0.615 5.21 1.51 7.81 2.62v2c0.863 0.19 0.863 0.19 1.74 0.385 2.28 0.621 4.24 1.45 6.37 2.46 0.754 0.358 1.51 0.715 2.29 1.08 1.17 0.56 1.17 0.56 2.36 1.13 0.793 0.377 1.59 0.754 2.4 1.14 1.95 0.928 3.9 1.86 5.85 2.79v2c0.684 0.102 1.37 0.204 2.07 0.309 3.51 0.829 6.48 2.21 9.74 3.75 1.16 0.548 2.32 1.1 3.52 1.66 0.88 0.422 1.76 0.843 2.67 1.28v2c0.639 0.0825 1.28 0.165 1.94 0.25 4.27 1.05 8.09 2.89 12.1 4.75v2h4v2h4v2c1.08 0.186 1.08 0.186 2.19 0.375 2.77 0.615 5.21 1.51 7.81 2.62v2h4v2c0.552 0.122 1.1 0.245 1.67 0.371 2.62 0.709 5.06 1.67 7.58 2.69 0.892 0.362 1.78 0.724 2.7 1.1 0.675 0.277 1.35 0.554 2.05 0.84v2h4v2l1.69 0.344c3.54 1 6.63 2.8 9.88 4.5 2.17 1.03 4.1 1.68 6.44 2.16v2l1.69 0.312c2.75 0.818 4.86 2.21 7.31 3.69 2.19 0.696 2.19 0.696 4 1v2c0.731 0.113 1.46 0.227 2.21 0.344 2.87 0.675 4.83 1.65 7.35 3.16 2.82 1.68 5.21 2.86 8.44 3.5v2c1.32 0.33 2.64 0.66 4 1l8 4c0.33 107 0.66 213 1 323 3.63-0.66 7.26-1.32 11-2 2.16-0.228 4.33-0.425 6.5-0.562 3.14-0.202 5.51-0.439 8.5-1.44 2.21-0.0836 4.42-0.107 6.64-0.0977 1.3 0.00322 2.6 0.00645 3.94 0.00977 1.37 0.00836 2.74 0.0168 4.12 0.0254 1.38 0.00502 2.77 0.00958 4.15 0.0137 3.39 0.0118 6.77 0.0283 10.2 0.0488-0.108-17.7-0.221-35.4-0.339-53.1-0.0549-8.22-0.108-16.4-0.158-24.7-0.0434-7.18-0.0898-14.4-0.14-21.5-0.0262-3.79-0.051-7.57-0.0722-11.4-0.0241-4.26-0.0524-8.53-0.0856-12.8-0.00523-0.673-0.0105-1.35-0.0158-2.04-0.0871-10.2-0.379-20.5-0.905-30.7-0.816-16.7 4.46-29.5 12.7-43.9h2c0.33-0.99 0.66-1.98 1-3h2v-2h2v-2h2v-2h2c0.33-0.99 0.66-1.98 1-3h2v-2c3-2 3-2 6-2v-2c13.5-7.96 25.9-11.4 41.6-11.2 0.972-0.00773 1.94-0.0155 2.95-0.0234 8.31 0.0223 15.6 1.47 23.4 4.27v2l1.56 0.25c4.56 1.4 8.49 4.12 12.4 6.75v2h2v2h2c1.62 1.38 1.62 1.38 3 3v2h2v3h2v3h2c1.18 2.22 2.34 4.45 3.5 6.69 0.334 0.626 0.668 1.25 1.01 1.9 1.86 3.62 2.93 6.33 2.49 10.4h2c4.02 13.9 3.43 28.2 3.33 42.6-0.0136 2.18-0.0215 4.36-0.0275 6.54-0.0745 26.1-0.6 52.1-1.24 78.2-0.0325 1.33-0.0325 1.33-0.0657 2.69-0.484 19.7-1.03 39.3-2 59-1.73 0.0273-3.45 0.0465-5.18 0.0625-0.961 0.0116-1.92 0.0232-2.91 0.0352-4.17-0.14-7.88-1.04-11.9-2.1-0.0249-4.98-0.0429-9.96-0.0549-14.9-5e-3 -1.69-0.0118-3.38-0.0205-5.07-0.0122-2.44-0.0178-4.89-0.0222-7.33-0.00516-0.746-0.0103-1.49-0.0156-2.26-7.55e-5 -0.72-1.51e-4 -1.44-2.29e-4 -2.18-0.00222-0.622-0.00444-1.24-0.00673-1.88 0.105-2.03 0.349-4.06 0.616-6.08 0.538-4.15 0.67-8.27 0.694-12.5 0.00829-0.777 0.0166-1.55 0.0251-2.35 0.0173-1.67 0.0325-3.34 0.0458-5.02 0.0212-2.65 0.0482-5.31 0.0767-7.96 0.0594-5.63 0.112-11.3 0.163-16.9 0.0595-6.53 0.122-13.1 0.192-19.6 0.0264-2.6 0.0473-5.2 0.068-7.8 0.0166-1.61 0.0335-3.22 0.0507-4.83 0.00418-0.712 0.00837-1.42 0.0127-2.16 0.054-4.42 0.402-8.73 0.952-13.1 0.36-3.3 0.355-6.59 0.358-9.9 9.57e-4 -0.695 0.00191-1.39 0.0029-2.11 6.73e-4 -1.45-0.00112-2.9-0.00534-4.35-0.00543-2.23 7.24e-6 -4.45 0.00635-6.68-6.6e-4 -1.41-0.00194-2.83-0.00391-4.24l-0.00342-3.87c0.203-2.8 0.203-2.8-1.13-3.91-0.16-1.33-0.278-2.66-0.375-4-0.638-6.27-2.5-11.8-5.31-17.4-1.31-2.62-1.31-2.62-1.31-5.62h-2c-1.29-1.46-1.29-1.46-2.62-3.38-0.669-0.94-0.669-0.94-1.35-1.9-1.02-1.73-1.02-1.73-1.02-3.73h-2v-2l-2.06-0.75c-2.83-1.2-5.38-2.64-8-4.25-6.07-3.13-11.7-3.42-18.4-3.44-1.46-0.00471-1.46-0.00471-2.95-0.00952-8.43 0.139-14.8 2.02-22.6 5.45-1.32 0.369-2.65 0.72-4 1v2h-3v2c-1.32 0.33-2.64 0.66-4 1v2h-2v2h-2v2h-2c-0.268 0.563-0.536 1.13-0.812 1.71-1.69 3.27-3.74 6.29-5.75 9.37-3.37 6.85-3.73 14.1-3.65 21.6 0.00161 0.918 0.00322 1.84 0.00487 2.78 0.00793 3.02 0.0305 6.04 0.0535 9.05 0.00913 2.14 0.0175 4.28 0.0252 6.43 0.0232 5.59 0.06 11.2 0.102 16.8 0.0242 3.21 0.0462 6.43 0.0676 9.64 0.0838 12.3 0.198 24.6 0.33 36.8 0.0445 4.14 0.086 8.29 0.125 12.4 0.212 22.5 0.455 44.9 1.5 67.4 4.62 1.32 9.24 2.64 14 4v2h5v2h4v2c0.784 0.309 1.57 0.619 2.38 0.938 2.63 1.06 2.63 1.06 4.62 2.06v2h2v2c0.639 0.268 1.28 0.536 1.94 0.812 2.06 1.19 2.06 1.19 3.06 4.19h2c4.83 8.14 7.11 15.1 7.75 24.5 0.169 2.59 0.169 2.59 1.25 5.45 0.0937 1.76 0.129 3.53 0.131 5.3 0.00601 1.65 0.00601 1.65 0.0121 3.33-5.29e-4 1.21-0.00106 2.41-0.0016 3.66 0.00533 1.95 0.0107 3.9 0.0162 5.85 0.0052 2.1 0.00811 4.2 0.0106 6.29 0.00592 4.38 0.0225 8.76 0.0413 13.1 0.00634 1.5 0.0127 3 0.019 4.5 0.00317 0.752 0.00633 1.5 0.00959 2.28 0.042 10.2 0.075 20.4 0.0874 30.6 0.00841 6.88 0.031 13.8 0.0694 20.6 0.0197 3.64 0.0322 7.27 0.0272 10.9-0.00555 4.07 0.0199 8.13 0.0475 12.2-0.0066 1.19-0.0132 2.38-0.02 3.61 0.0811 7.3 0.796 14.3 4.55 20.7 2.03 1.32 2.03 1.32 4 2v2c7.04-0.719 7.04-0.719 14-2v-2h3v-2h3v-2c3.46-3 3.46-3 6-3v-2l5-2v-2c0.99-0.33 1.98-0.66 3-1 0.861 12.9 0.861 12.9-2.38 16.8-2.62 2.19-2.62 2.19-4.62 2.19v2h-2v2c-2.38 2.63-2.38 2.63-5 5h-2v2c-4.38 3-4.38 3-7 3v2c-3 2-3 2-6 2v2h-3v2c-2.66 0.981-5.33 1.95-8 2.91-1.77 0.644-3.53 1.31-5.27 2.02-8.56 3.33-18.1 3.26-26.7 0.0664v-2c-1.65-0.33-3.3-0.66-5-1v-2c-0.598-0.248-1.2-0.495-1.81-0.75-2.52-1.44-3.69-2.78-5.19-5.25v-3h-2c-0.144-1.13-0.289-2.27-0.438-3.44-0.174-3.37-0.174-3.37-1.56-4.56-0.0724-2.02-0.0838-4.04-0.0625-6.06 0.00902-1.1 0.018-2.21 0.0273-3.35l0.0352-2.59c-1.61 0.959-1.61 0.959-3.25 1.94-2.56 1.47-4.8 2.59-7.75 3.06v2c-2.26 1.64-4.51 3.15-6.88 4.62-0.651 0.42-1.3 0.84-1.97 1.27-4.88 3.1-4.88 3.1-7.15 3.1v2c-2.62 1.43-5.24 2.86-7.87 4.28-1.97 1.08-3.94 2.19-5.89 3.31-8.99 5.14-17.9 8.43-28.2 9.41-0.33 0.33-0.66 0.66-1 1-1.62 0.0992-3.25 0.131-4.88 0.133-0.985 0.00129-1.97 0.00258-2.98 0.00391-1.04-0.00387-2.07-0.00773-3.14-0.0117-1.55 0.0058-1.55 0.0058-3.14 0.0117-0.985-0.00129-1.97-0.00258-2.98-0.00391-0.91-0.00113-1.82-0.00226-2.76-0.00342-2.12-0.129-2.12-0.129-3.12-1.13-1.09-0.0825-2.19-0.165-3.31-0.25-7.34-0.809-14.2-4.42-20.7-7.75v-2h-3v-2l-1.69-0.688c-2.97-1.69-5.03-3.78-7.31-6.31v-2h-2v-2h-2v-3h-2c-6.11-13.9-10.5-30.1-5-45 2.14-4.77 4.55-9.39 7-14h2c0.227-0.701 0.454-1.4 0.688-2.12 1.66-3.64 3.54-5.97 6.31-8.88h3v-2c3.46-3 3.46-3 6-3v-2c1.98-0.66 3.96-1.32 6-2v-2c1.25-0.651 2.5-1.3 3.75-1.94 1.04-0.539 1.04-0.539 2.11-1.09 2.04-0.928 3.95-1.5 6.14-1.97v-2h4v-2c2.39-0.985 4.79-1.96 7.19-2.94 1.01-0.417 1.01-0.417 2.04-0.842 3.57-1.45 6.94-2.63 10.8-3.22v-2h5v-2c1.28-0.416 1.28-0.416 2.59-0.84 1.1-0.362 2.21-0.724 3.35-1.1 1.1-0.36 2.2-0.719 3.34-1.09 2.6-0.711 2.6-0.711 3.72-1.97 1.67-0.0406 3.33-0.0427 5 0v-2c2.21-0.65 4.42-1.29 6.62-1.94 1.23-0.36 2.46-0.719 3.73-1.09 3.22-0.858 6.36-1.49 9.65-1.97v-2c8.01-2.5 16-4.89 24.1-7.17 1.98-0.568 3.95-1.18 5.9-1.83 0.962-21.1 0.962-21.1-5-40-0.0406-1.67-0.0427-3.33 0-5h-2v-4h-2c-1.69-1.98-3.35-3.98-5-6-0.66-0.33-1.32-0.66-2-1v-2h-2v-2c-0.516-0.103-1.03-0.206-1.56-0.312-2.44-0.688-2.44-0.688-5.62-2.12-9.97-4.25-20.2-4.04-30.8-3.56-0.33 0.33-0.66 0.66-1 1-2.67 0.141-5.32 0.0425-8 0v2c-0.908 0.268-1.82 0.536-2.75 0.812-2.98 1.09-4.79 2.26-7.25 4.19h-2v2h-2v2h-2v2h-2c-0.144 0.598-0.289 1.2-0.438 1.81-0.45 1.75-0.991 3.47-1.56 5.19-0.127 2.07-0.202 4.14-0.246 6.21-0.0329 1.23-0.0657 2.45-0.0996 3.72-0.0609 2.58-0.118 5.16-0.172 7.74-0.0512 1.85-0.0512 1.85-0.104 3.73-0.0251 1.12-0.0501 2.25-0.0759 3.4-0.315 3.33-1.13 6.08-2.3 9.2h-2v2c-2.56 2.3-3.48 3-7 3v2c-7.71 2.68-15.3 3.23-23 0v-2l-1.69-0.125c-4.42-1.67-6.77-6.06-9.31-9.88-1.93-11.2-0.59-21.3 5.47-30.9 0.505-0.706 1.01-1.41 1.53-2.14h2v-3h2v-2c6.21-6.07 13.7-10.4 21-15 0.884-0.584 1.77-1.17 2.68-1.77 2.32-1.23 2.32-1.23 6.32-1.23v-2c0.66-0.33 1.32-0.66 2-1-3.96-0.33-7.92-0.66-12-1v-311h-2v-2h-4v-2c-0.552-0.122-1.1-0.245-1.67-0.371-2.62-0.709-5.06-1.67-7.58-2.69-0.892-0.362-1.78-0.724-2.7-1.1-0.675-0.277-1.35-0.554-2.05-0.84v-2h-4v-2l-1.69-0.344c-3.54-1-6.63-2.8-9.88-4.5-2.17-1.03-4.1-1.68-6.44-2.16v-2c-0.575-0.127-1.15-0.254-1.74-0.385-2.28-0.621-4.24-1.45-6.37-2.46-0.754-0.358-1.51-0.715-2.29-1.08-0.777-0.373-1.55-0.746-2.36-1.13-0.793-0.377-1.59-0.754-2.4-1.14-1.95-0.928-3.9-1.86-5.85-2.79v-2c-1.08-0.186-1.08-0.186-2.19-0.375-2.77-0.615-5.21-1.51-7.81-2.62v-2c-0.665-0.0812-1.33-0.162-2.02-0.246-3.96-1-7.18-2.84-10.7-4.82-8.59-4.67-17.4-8.86-26.2-12.9v-2h-4v-2c-0.722-0.124-1.44-0.248-2.19-0.375-2.77-0.615-5.21-1.51-7.81-2.62v-2h-4v-2h-4v-2c-0.722-0.124-1.44-0.248-2.19-0.375-2.77-0.615-5.21-1.51-7.81-2.62v-2h-4v-2c-0.557-0.113-1.11-0.227-1.69-0.344-3.54-1-6.63-2.8-9.88-4.5-2.17-1.03-4.1-1.68-6.44-2.16v-2c-0.557-0.113-1.11-0.227-1.69-0.344-3.54-1-6.63-2.8-9.88-4.5-2.17-1.03-4.1-1.68-6.44-2.16v-2c-0.846-0.268-1.69-0.536-2.56-0.812-3.58-1.24-6.98-2.66-10.4-4.19v-2l-2.21-0.344c-2.87-0.675-4.83-1.65-7.35-3.16-2.82-1.68-5.21-2.86-8.44-3.5v-2c-0.863-0.19-0.863-0.19-1.74-0.385-2.28-0.621-4.24-1.45-6.37-2.46-0.754-0.358-1.51-0.715-2.29-1.08l-2.36-1.13c-0.793-0.377-1.59-0.754-2.4-1.14-1.95-0.928-3.9-1.86-5.85-2.79v-2h-6c-0.402 0.897-0.402 0.897-0.812 1.81-1.19 2.19-2.28 3.6-4.19 5.19h-2v2h-2v2h-2c-0.402 0.959-0.402 0.959-0.812 1.94-1.19 2.06-1.19 2.06-4.19 3.06v2h-2v2h-2c-0.402 0.959-0.402 0.959-0.812 1.94-1.19 2.06-1.19 2.06-4.19 3.06v2h-2v2h-2c-0.402 0.959-0.402 0.959-0.812 1.94-1.19 2.06-1.19 2.06-4.19 3.06v2h-2v2h-2c-0.33 0.99-0.66 1.98-1 3h-2v2h-2v2h-2v2h-2c-0.33 0.99-0.66 1.98-1 3h-2v2h-2v2h-2v2h-2c-0.33 0.99-0.66 1.98-1 3h-2v2h-2v2h-2v2h-2v2c-1.38 1.62-1.38 1.62-3 3h-2v2h-2v2h-2v2c-1.38 1.62-1.38 1.62-3 3h-2v2h-2v2h-2v2c-1.38 1.62-1.38 1.62-3 3h-2v2h-2v2h-2v2c-1.38 1.62-1.38 1.62-3 3h-2v2h-2v2h-2v2c-1.38 1.62-1.38 1.62-3 3h-2v2h-2v2c-2.37 2.62-2.37 2.62-5 5h-2v2h-2v2c-2.37 2.62-2.37 2.62-5 5h-2v2h-2v2c-1.61 1.59-1.61 1.59-3.75 3.38-2.32 1.96-4.5 3.88-6.62 6.06-1.62 1.56-1.62 1.56-3.62 1.56-0.402 0.897-0.402 0.897-0.812 1.81-1.19 2.19-2.28 3.6-4.19 5.19h-2v2h-2v2h-2c-0.402 0.959-0.402 0.959-0.812 1.94-1.19 2.06-1.19 2.06-4.19 3.06v2h-2v2h-2c-0.33 0.99-0.66 1.98-1 3h-2v2h-2v2h-2v2h-2c-0.33 0.99-0.66 1.98-1 3h-2v2h-2v2h-2v2h-2v2c-1.37 1.62-1.37 1.62-3 3h-2v2h-2v2c-2.37 2.62-2.37 2.62-5 5h-2v2h-2v2c-2.37 2.62-2.37 2.62-5 5h-2v2h-2c0.00138 1.14 0.00138 1.14 0.00279 2.3 0.0223 18.6 0.0387 37.3 0.049 55.9 0.00512 9.01 0.0121 18 0.0236 27 0.0101 7.87 0.0164 15.7 0.0186 23.6 0.00128 4.15 0.00421 8.3 0.0116 12.5 0.0267 15.5-0.0178 31-0.592 46.5-0.831 23-0.744 45.9-0.817 68.9-0.0199 5.96-0.044 11.9-0.0679 17.9-0.0472 11.8-0.0906 23.6-0.131 35.4-0.0396 11.4-0.0811 22.8-0.125 34.3-0.00275 0.716-0.0055 1.43-0.00833 2.17-0.0239 6.23-0.048 12.5-0.0721 18.7-0.103 26.6-0.197 53.3-0.292 79.9h119c-0.00786-13.9-0.00786-13.9-0.0159-28.1-0.016-29.6-0.0272-59.2-0.0352-88.8-0.00125-4.59-0.00255-9.19-0.00387-13.8-3.93e-4 -1.37-3.93e-4 -1.37-7.95e-4 -2.77-0.00436-14.8-0.0122-29.7-0.0214-44.5-0.00934-15.2-0.0149-30.4-0.0169-45.6-0.00137-9.39-0.00572-18.8-0.0138-28.2-0.00527-6.43-0.00689-12.9-0.00558-19.3 6.43e-4 -3.71-3.71e-4 -7.43-0.0057-11.1-0.00573-4.02-0.00379-8.04-0.00105-12.1-0.00437-1.78-0.00437-1.78-0.00883-3.59 0.00199-1.07 0.00398-2.14 0.00603-3.24-3.8e-4 -0.929-7.59e-4 -1.86-0.00115-2.81 0.124-2.21 0.124-2.21 1.12-4.21 0.207-2.5 0.373-4.99 0.5-7.5 0.365-7.23 0.365-7.23 1.5-9.5 0.346-1.79 0.652-3.58 0.938-5.38 0.259-1.6 0.259-1.6 0.523-3.23 0.361-2.27 0.72-4.55 1.08-6.82 0.173-1.08 0.345-2.15 0.523-3.26 0.156-0.994 0.312-1.99 0.473-3.01 0.465-2.3 0.465-2.3 1.46-3.3 0.368-2.33 0.702-4.66 1-7h2v-5h2c-0.0722-0.664-0.144-1.33-0.219-2.01 0.3-4.1 1.91-7.15 3.72-10.8 0.501-1.04 0.501-1.04 1.01-2.1 0.821-1.7 1.65-3.39 2.49-5.09h2c0.0825-0.516 0.165-1.03 0.25-1.56 1.07-3.48 2.89-6.31 4.75-9.44h2v-3h2v-2h2c0.402-0.959 0.402-0.959 0.812-1.94 1.19-2.06 1.19-2.06 4.19-3.06v-2h2v-2h2v-2c1.43-1.29 1.43-1.29 3.31-2.62 0.922-0.669 0.922-0.669 1.86-1.35 1.82-1.02 1.82-1.02 4.82-1.02v-2c18-9.33 34.8-13.4 55-13.2 2.26 0.0186 4.53 0.0205 6.79 0.0203 11 0.0375 11 0.0375 12.2 1.19 0.168 1.97 0.168 1.97 0.188 4.5 0.0142 0.815 0.0284 1.63 0.043 2.47-0.313 4.12-1.26 8.03-2.23 12-0.886 0.00935-1.77 0.0187-2.68 0.0283-21.5-0.0156-21.5-0.0156-42.6 4.13-2.77 0.84-2.77 0.84-6.77 0.84v2h-4v2c-0.531 0.254-1.06 0.508-1.61 0.77-3.75 1.83-7.07 3.68-10.4 6.23h-2v2h-2v2c-2.37 2.62-2.37 2.62-5 5h-2v3h-2v3h-2c-0.268 0.681-0.536 1.36-0.812 2.06-1.35 3.33-2.76 6.63-4.19 9.94h-2c-0.113 0.673-0.227 1.35-0.344 2.04-0.932 4.2-2.4 8.21-3.84 12.3-1.46 4.23-2.23 8.28-2.82 12.7-0.33 0.33-0.66 0.66-1 1-4.26 16.4-5.15 33.8-5.15 50.7-0.00423 1.32-0.00846 2.63-0.0128 3.99-0.0115 3.62-0.0171 7.23-0.0216 10.9-6e-3 3.92-0.0177 7.83-0.0286 11.7-0.0183 6.77-0.0331 13.5-0.0458 20.3-0.0184 9.79-0.043 19.6-0.0694 29.4-0.0427 15.9-0.0818 31.8-0.118 47.7-0.00216 0.949-0.00433 1.9-0.00655 2.88-0.0197 8.68-0.0392 17.4-0.0587 26-0.013 5.79-0.0261 11.6-0.0392 17.4-0.00216 0.952-0.00432 1.9-0.00654 2.88-0.0361 15.8-0.076 31.7-0.119 47.5-0.0262 9.77-0.0488 19.5-0.067 29.3-0.0126 6.68-0.0287 13.4-0.0476 20.1-0.0108 3.86-0.0199 7.72-0.0247 11.6-0.00522 4.17-0.018 8.35-0.0316 12.5-4.44e-4 1.85-4.44e-4 1.85-8.97e-4 3.74-0.00486 1.11-0.00972 2.22-0.0147 3.36-0.00212 0.965-0.00423 1.93-0.00641 2.92-0.129 2.16-0.129 2.16-1.13 3.16-2.86 0.251-5.69 0.428-8.56 0.556-0.927 0.0422-1.85 0.0844-2.81 0.128-13.1 0.531-26.3 0.443-39.4 0.417-3.78-0.00635-7.57-0.00685-11.4-0.00803-7.13-0.00308-14.3-0.0112-21.4-0.0213-8.13-0.0113-16.3-0.0167-24.4-0.0217-16.7-0.0104-33.4-0.0279-50.1-0.0503 5.7e-4 -1.05 5.7e-4 -1.05 0.00115-2.12 0.0224-41.4 0.0395-82.8 0.0499-124 0.00125-4.97 0.00255-9.93 0.00387-14.9 2.62e-4 -0.989 5.25e-4 -1.98 7.95e-4 -3 0.00435-16 0.0122-32 0.0214-48.1 0.00934-16.4 0.0149-32.9 0.0169-49.3 0.00137-10.1 0.00572-20.3 0.0138-30.4 0.00527-6.95 0.00689-13.9 0.00558-20.9-6.42e-4 -4.01 3.63e-4 -8.03 0.0057-12 0.00485-3.67 0.00512-7.35 0.00169-11-6.25e-4 -1.96 0.0037-3.93 0.00818-5.89-0.00199-1.16-0.00398-2.32-0.00603-3.52 5.7e-4 -1.51 5.7e-4 -1.51 0.00115-3.04-0.112-2.36-0.448-4.36-1.12-6.62h-2v-2h-2c-1.63-1.38-1.63-1.38-3-3v-2h-2v-2c-6.55-2.33-13.6-3.45-20.4-1.21-2.8 1.34-5.04 2.61-7.21 4.84-1.41 1.36-1.41 1.36-3.41 1.36v2h-2v2h-2c-0.33 1.32-0.66 2.64-1 4h-2l-0.438 1.81c-0.45 1.75-0.991 3.47-1.56 5.19h-2v4h-2c-0.182 0.853-0.182 0.853-0.367 1.72-0.79 3.64-1.61 7.21-2.7 10.8-0.962 3.59-1.38 6.99-1.69 10.7-0.246 1.82-0.246 1.82-1.25 2.82-0.107 1.83-0.142 3.66-0.151 5.49-0.00834 1.19-0.0167 2.39-0.0253 3.62-0.00431 1.34-0.00854 2.67-0.0127 4.01-0.00794 1.4-0.0163 2.8-0.0251 4.2-0.0181 3.04-0.0331 6.07-0.0458 9.11-0.0204 4.87-0.048 9.74-0.0767 14.6-0.0552 9.55-0.103 19.1-0.15 28.7-0.0714 14.4-0.148 28.8-0.232 43.2-0.00477 0.835-0.00954 1.67-0.0145 2.53-0.166 28.8-0.557 57.7-1.09 86.5-0.211 11.6-0.36 23.1-0.493 34.7-0.0108 0.94-0.0217 1.88-0.0328 2.85-0.0628 5.49-0.123 11-0.183 16.5-0.0525 4.79-0.107 9.58-0.161 14.4-0.104 9.21-0.206 18.4-0.307 27.6-8.07 0.0231-16.1 0.0409-24.2 0.0518-3.75 0.00523-7.49 0.0123-11.2 0.0236-3.61 0.0108-7.22 0.0168-10.8 0.0194-1.38 0.00185-2.76 0.00547-4.14 0.0109-1.93 0.00721-3.86 0.00768-5.78 0.0078-1.1 0.00222-2.2 0.00444-3.33 0.00673-2.47-0.12-2.47-0.12-3.47-1.12-0.0954-1.8-0.12-3.6-0.117-5.39-9.3e-4 -1.76-9.3e-4 -1.76-0.00188-3.55 0.0067-1.95 0.0067-1.95 0.0135-3.94 0.00123-1.37 0.00203-2.75 0.00244-4.12 0.00243-3.77 0.0112-7.53 0.0211-11.3 0.00954-4.02 0.0135-8.04 0.0182-12.1 0.0124-9.37 0.0341-18.7 0.0575-28.1 0.00789-3.24 0.0151-6.47 0.0223-9.71 0.0464-21 0.109-41.9 0.177-62.9 0.0292-9.03 0.0566-18.1 0.084-27.1 0.0492-16.3 0.0991-32.5 0.15-48.8 0.00299-0.961 0.00598-1.92 0.00906-2.91 0.039-12.5 0.0785-25 0.118-37.6 0.153-48.2 0.296-96.4 0.408-145 0.00412-1.77 0.00824-3.55 0.0124-5.32 0.00305-1.31 0.00305-1.31 0.00617-2.66 0.0145-6.21 0.03-12.4 0.0458-18.6 0.0472-18.6 0.0886-37.2 0.11-55.7 0.00916-7.69 0.0212-15.4 0.0422-23.1 0.0191-7.04 0.0282-14.1 0.0299-21.1 0.00223-2.55 0.00788-5.11 0.0172-7.66 0.012-3.45 0.0118-6.91 0.00832-10.4 0.00641-1.01 0.0128-2.01 0.0194-3.05-0.00347-0.918-0.00695-1.84-0.0105-2.78 0.00119-0.79 0.00239-1.58 0.00362-2.4-0.278-2.44-1.13-4.01-2.25-6.17v-3h-2c-0.985-1.75-1.96-3.5-2.94-5.25-0.545-0.975-1.09-1.95-1.65-2.95-1.18-2.33-1.93-4.25-2.41-6.8h-2c-1.67-3.33-3.33-6.67-5-10l5-2v-2h4v-2c3.42-2.54 5.76-3.36 10-3v3h2v4h2c0.364 0.678 0.727 1.36 1.1 2.05 4.04 7.48 8.18 14.9 12.9 21.9v3h2v169h4v-2c7.86-2.94 15.6-5.56 23.8-7.42 2.19-0.366 2.19-0.366 3.23-1.58 24.6-4.64 49.1-4.56 74-3 0.00143-0.59 0.00285-1.18 0.00432-1.79 0.0197-6.15 0.074-12.3 0.148-18.4 0.0232-2.29 0.0376-4.59 0.043-6.88 0.00929-3.3 0.0503-6.6 0.0974-9.9-0.00393-1.02-0.00787-2.05-0.0119-3.1 0.147-7.17 0.147-7.17 3.17-11 0.842-0.635 1.68-1.27 2.55-1.92 0.953-1.11 1.89-2.24 2.81-3.38 2.83-3.36 5.97-6.16 9.3-9 3.47-2.99 6.57-6.19 9.45-9.75 2.05-2.42 3.76-4.21 6.44-5.88h2c0.402-0.897 0.402-0.897 0.812-1.81 1.19-2.19 2.28-3.6 4.19-5.19h2v-2h2c0.402-0.897 0.402-0.897 0.812-1.81 1.19-2.19 2.28-3.6 4.19-5.19h2v-2h2v-2h2c0.402-0.959 0.402-0.959 0.812-1.94 1.19-2.06 1.19-2.06 4.19-3.06v-2h2v-2h2c0.402-0.959 0.402-0.959 0.812-1.94 1.19-2.06 1.19-2.06 4.19-3.06v-2h2v-2h2c0.33-0.99 0.66-1.98 1-3h2v-2h2v-2h2v-2c1.39-1.36 1.39-1.36 3.35-2.97 6.3-5.36 12-11.3 17.8-17.3 0.86-0.871 1.72-1.74 2.61-2.64 0.776-0.793 1.55-1.59 2.35-2.4 1.94-1.72 1.94-1.72 3.94-1.72v-2h2c0.402-0.897 0.402-0.897 0.812-1.81 1.19-2.19 2.28-3.6 4.19-5.19h2v-2h2c0.402-0.897 0.402-0.897 0.812-1.81 1.19-2.19 2.28-3.6 4.19-5.19h2v-2h2v-2h2c0.402-0.959 0.402-0.959 0.812-1.94 1.19-2.06 1.19-2.06 4.19-3.06v-2h2v-2h2c0.33-0.99 0.66-1.98 1-3h2v-2h2v-2h2v-2h2c0.33-0.99 0.66-1.98 1-3h2v-2h2v-2h2c-0.658-3.12-0.658-3.12-3.04-4.1-0.853-0.318-1.71-0.637-2.59-0.965-0.897-0.336-1.79-0.673-2.72-1.02-3.2-1.1-6.38-2.06-9.66-2.92v-2c-0.965-0.153-0.965-0.153-1.95-0.309-4.08-0.925-7.93-2.33-11.9-3.75-0.788-0.282-1.58-0.563-2.39-0.854-1.93-0.692-3.87-1.39-5.8-2.08v-2h-5v-2c-0.701-0.113-1.4-0.227-2.12-0.344-4.22-0.962-7.99-2.77-11.9-4.5-2.67-1.05-5.11-1.7-7.94-2.16v-2c-1.76 0.155-1.76 0.155-3.56 0.312-0.661 0.058-1.32 0.116-2 0.176-2.64 0.555-4.89 1.58-7.34 2.68-5.15 2.05-10.6 3.2-16 4.58-5.28 1.39-10.1 3.01-15.1 5.25-1.85 0.487-3.7 0.97-5.56 1.41-10.4 2.49-10.4 2.49-20.3 6.22-3.02 1.33-5.82 2.1-9.01 2.84-2.32 0.593-4.54 1.36-6.8 2.16-3.22 1.11-5.87 1.71-9.31 1.38v2l-2.2 0.516c-6.52 1.57-12.8 3.43-19.1 5.71-2.71 0.774-4.89 0.917-7.69 0.77v2h-7v2c-1.07 0.254-2.15 0.508-3.25 0.77-1.44 0.347-2.87 0.695-4.31 1.04-0.704 0.166-1.41 0.331-2.13 0.502-3.52 0.86-6.8 1.83-10.1 3.31-3.35 1.45-5.58 1.64-9.19 1.38v2c-1.73 0.508-3.46 1.01-5.19 1.5-1.44 0.418-1.44 0.418-2.92 0.844-2.76 0.626-5.08 0.706-7.89 0.656-0.0103-1.22-0.0206-2.45-0.0312-3.71-0.0986-11.6-0.201-23.3-0.308-34.9-0.0547-5.99-0.108-12-0.158-18-0.0484-5.8-0.101-11.6-0.156-17.4-0.0201-2.19-0.0388-4.38-0.0561-6.57-0.0979-12.3-0.377-24.5-0.932-36.8-0.374-8.43-0.533-16.9-0.588-25.3-0.017-2.47-0.0402-4.95-0.0649-7.42-0.0694-7.01-0.132-14-0.182-21-0.0318-4.34-0.0729-8.68-0.12-13-0.016-1.64-0.0283-3.28-0.0369-4.91-0.0121-2.27-0.0363-4.54-0.0631-6.81-0.0103-1.29-0.0206-2.57-0.0312-3.9-0.253-3.02-0.676-4.72-2.27-7.24h-2c-0.66-1.65-1.32-3.3-2-5h-2c-1.61-1.73-3.14-3.54-4.62-5.38l-2.48-3.02c-1.9-2.6-1.9-2.6-1.9-4.6-0.99-0.33-1.98-0.66-3-1v-2h-2v-2h-2v-5h4v-2h5v-2c1.41-0.508 2.83-1.01 4.25-1.5 1.18-0.418 1.18-0.418 2.39-0.844 2.36-0.656 2.36-0.656 6.36-0.656v-2h5v-2h5v-2c1.41-0.508 2.83-1.01 4.25-1.5 1.18-0.418 1.18-0.418 2.39-0.844 2.36-0.656 2.36-0.656 6.36-0.656v-2h5v-2c2.64-0.66 5.28-1.32 8-2 0.00365-0.922 0.00729-1.84 0.011-2.79 0.0379-8.71 0.0949-17.4 0.173-26.1 0.0394-4.48 0.0716-8.95 0.0871-13.4 0.0152-4.33 0.0497-8.65 0.0973-13 0.0148-1.65 0.0227-3.29 0.0236-4.94 0.0164-15.9 0.0164-15.9 4.61-22.7h2v-3h2c0.227-0.66 0.454-1.32 0.688-2 2.23-5.1 5.04-10.3 9.31-14h2v-2h2v-2h2v-2h2c0.33-0.99 0.66-1.98 1-3h2v-2h2v-2c1.46-1.29 1.46-1.29 3.38-2.62 0.626-0.446 1.25-0.892 1.9-1.35 1.73-1.02 1.73-1.02 3.73-1.02v-2h3v-2c1.75-0.985 3.5-1.96 5.25-2.94 0.975-0.545 1.95-1.09 2.95-1.65 2.33-1.18 4.25-1.93 6.8-2.41v-2c1.73-0.65 3.46-1.3 5.19-1.94 0.963-0.36 1.93-0.719 2.92-1.09 2.63-0.884 5.16-1.5 7.89-1.97v-2c10.3-3 20.4-5.62 30.9-7.42 2.96-0.415 2.96-0.415 5.06-1.58 2.21-0.0709 4.42-0.0842 6.62-0.0625 1.19 0.00902 2.38 0.018 3.6 0.0273 1.37 0.0174 1.37 0.0174 2.77 0.0352-0.108-8.14-0.221-16.3-0.339-24.4-0.0548-3.78-0.108-7.56-0.158-11.3-0.0482-3.66-0.101-7.31-0.156-11-0.0202-1.39-0.0389-2.77-0.0561-4.16-0.0953-7.59-0.354-15.1-1.07-22.7-0.276-3.03-0.391-6.04-0.412-9.08-0.0142-0.982-0.0284-1.96-0.043-2.98 0.23-2.4 0.23-2.4 2.23-4.4 2.63-0.125 2.63-0.125 5 0v-2c0.799-0.242 1.6-0.485 2.42-0.734 7.57-2.31 15.1-4.74 22.6-7.27 1.75-0.584 3.5-1.17 5.25-1.75 1.24-0.413 2.48-0.825 3.75-1.25 0.133-0.855 0.266-1.71 0.402-2.59 0.177-1.1 0.353-2.21 0.535-3.35 0.174-1.1 0.348-2.2 0.527-3.34 0.535-2.72 0.535-2.72 1.54-3.72 0.368-2.33 0.702-4.66 1-7h2c-0.04-1.01-0.0799-2.02-0.121-3.06 0.124-4.02 0.859-7.11 2.06-10.9 1.46-4.68 2.47-9.13 3.06-14h2c-0.0387-0.846-0.0773-1.69-0.117-2.56 0.129-3.77 0.908-6.83 1.99-10.4 0.348-1.18 0.696-2.35 1.05-3.56 0.984-3.16 2.01-6.3 3.07-9.44zm-77 199c-0.99 0.124-1.98 0.248-3 0.375-4.56 0.601-8.68 2.11-13 3.62-2.19 0.732-4.37 1.46-6.56 2.19-1.03 0.344-2.07 0.688-3.13 1.04l-2.31 0.77v2h-4v2c-0.66 0.0825-1.32 0.165-2 0.25-5.14 1.29-9.61 3.82-14 6.75v2c-0.568 0.108-1.14 0.217-1.72 0.328-6.28 1.85-12.1 6.77-16.3 11.7v2h-2v2h-2c-2.4 2.64-2.4 2.64-3 6h-2v3h-2v2h-2c-5.49 7.5-5.67 14.2-5.49 23.2 0.00935 1.35 0.0165 2.71 0.0214 4.06 0.0189 3.54 0.0679 7.07 0.124 10.6 0.0515 3.62 0.0741 7.24 0.0992 10.9 0.0534 7.08 0.138 14.2 0.244 21.2 3.51-0.562 6.76-1.13 10.1-2.41 0.703-0.267 1.41-0.535 2.13-0.811 0.713-0.278 1.43-0.556 2.16-0.842 1.1-0.422 1.1-0.422 2.23-0.854 1.8-0.69 3.6-1.39 5.39-2.08v-2c0.928-0.0825 1.86-0.165 2.81-0.25 5.31-0.732 10.2-2.82 15.2-4.75v-2h5v-2c0.928-0.0825 1.86-0.165 2.81-0.25 5.31-0.732 10.2-2.82 15.2-4.75v-2c0.639 0.0825 1.28 0.165 1.94 0.25 3.78-0.308 6.49-1.64 9.88-3.28 2.06-0.916 3.99-1.5 6.18-1.97v-2h5v-2c1.1 0.0522 1.1 0.0522 2.22 0.105 2.89-0.11 4.65-0.652 7.28-1.79 5.26-2.22 10.6-4.25 15.9-6.26 2.48-0.81 2.48-0.81 3.59-2.05 2.5-0.125 2.5-0.125 5 0 0.33 0.33 0.66 0.66 1 1 1.67 0.0406 3.33 0.0427 5 0v2c5.64 1.92 11.3 3.71 17 5.35 1.97 0.648 1.97 0.648 2.97 1.65 1.67 0.0406 3.33 0.0427 5 0v2c0.664 0.193 1.33 0.387 2.01 0.586 7.53 2.22 7.53 2.22 10.8 3.6 2.51 0.934 4.53 0.965 7.19 0.812v2h5v2c9.83 3.25 9.83 3.25 20 5v2c3.82 1.42 6.91 2.24 11 2v2c6.81 2.6 6.81 2.6 14 3v2h6v2h5v2c1.41 0.508 2.83 1.01 4.25 1.5 0.789 0.278 1.58 0.557 2.39 0.844 2.59 0.835 2.59 0.835 6.36 0.656 0.0269-2.15 0.0463-4.29 0.0625-6.44 0.0174-1.79 0.0174-1.79 0.0352-3.62 0.241-2.83 0.241-2.83-1.1-3.94-0.186-2.04-0.323-4.08-0.438-6.12-0.347-4.92-0.998-9.18-2.56-13.9-0.506-1.87-1.01-3.75-1.5-5.62-0.944-3.58-2.07-6.96-3.5-10.4h-2c-0.124-0.887-0.248-1.77-0.375-2.69-0.569-3.02-1.39-5.52-2.62-8.31h-2c-0.217-0.928-0.217-0.928-0.438-1.88-0.494-2.16-0.494-2.16-1.56-4.12h-2v-3h-2c-0.309-0.784-0.619-1.57-0.938-2.38-0.991-2.55-0.991-2.55-2.06-4.62h-2v-2h-2v-2h-2c-0.268-0.598-0.536-1.2-0.812-1.81-1.19-2.19-2.28-3.6-4.19-5.19h-2v-2h-2v-2c-1.49-1.36-1.49-1.36-3.38-2.62-0.626-0.446-1.25-0.892-1.9-1.35-1.68-1.19-1.68-1.19-3.73-1.02v-2h-3v-2c-1.41-0.844-2.83-1.67-4.25-2.5-1.18-0.696-1.18-0.696-2.39-1.41-2.53-1.37-2.53-1.37-6.36-1.09v-2h-4v-2h-5v-2c-6.64-2.4-13.2-3.98-20.2-5.35-2.84-0.648-2.84-0.648-3.84-1.65-9.33-2.11-18.7-2.31-28.2-2.26-2.27 0.0107-4.53 4.26e-5 -6.8-0.0127-15-0.845-15-0.845-28 3.27zm-100 585c-3.37 0.316-6.75 0.511-10.1 0.719-2.77-0.0358-2.77-0.0358-3.87 1.28-1.58 0.304-3.16 0.567-4.75 0.812-6.61 1.14-12.9 3.1-19.2 5.19v2h-5v2l-2.69 0.375c-3.02 0.569-5.52 1.39-8.31 2.62v2h-2c-1.78 73.3-2.3 147-2.2 220 0.0133 10.6 0.0185 21.2 0.0179 31.9-4e-5 0.713-7.99e-5 1.43-1.21e-4 2.16-4.04e-5 0.712-8.07e-5 1.42-1.22e-4 2.16-7.22e-4 13.8 0.0062 27.6 0.0154 41.4 0.00212 3.92 0.00284 7.85 0.00324 11.8 9.97e-4 6.09 0.00704 12.2 0.0172 18.3 0.00293 2.23 0.00415 4.46 0.00357 6.69-4.87e-4 3.02 0.00512 6.05 0.0124 9.07-0.00155 0.891-0.0031 1.78-0.00469 2.7-0.368 3.88-0.368 3.88 1.14 7.14 3.47 0.251 6.96 0.185 10.4 0.188 0.98 0.0122 1.96 0.0245 2.97 0.0371l2.84 0.00586c0.863 0.00411 1.73 0.00822 2.61 0.0125 2.35-0.0424 2.35-0.0424 4.14-2.24 0.311-3.13 0.311-3.13 0.265-6.88 0.00438-0.717 0.00876-1.43 0.0133-2.17 0.0124-2.42 0.0105-4.84 0.00882-7.26 0.00602-1.73 0.0129-3.47 0.0207-5.2 0.015-3.76 0.0237-7.52 0.0277-11.3 0.00678-6.05 0.0286-12.1 0.0525-18.2 0.045-11.9 0.0757-23.8 0.104-35.7 0.121-50.7 0.276-101 1.29-152 0.0576-2.96 0.11-5.92 0.162-8.87 0.0812-4.62 0.177-9.23 0.283-13.9 0.0368-1.67 0.0694-3.35 0.097-5.02 0.462-27.2 0.462-27.2 4.67-31.4 0.0408-2 0.0425-4 0-6h2c0.254-0.664 0.508-1.33 0.77-2.01 1.79-4.6 3.67-8.76 6.23-13v-3h2v-3h2c0.33-1.32 0.66-2.64 1-4h2v-2h2c2.67-2.33 2.67-2.33 5-5v-2h2v-2l2-0.75c2.42-1.01 4.68-2.1 7-3.31 2.99-1.52 5.64-2.52 9-2.94v-2c3.15 0.138 6.29 0.287 9.44 0.438 0.898 0.0393 1.8 0.0786 2.72 0.119l2.59 0.127c0.791 0.0367 1.58 0.0733 2.4 0.111 1.86 0.205 1.86 0.205 2.86 1.21 1.67 0.0406 3.33 0.0427 5 0v2h4v2h4c0.0289-3.96 0.0468-7.92 0.0625-11.9l0.0254-3.42c0.00483-1.61 0.00483-1.61 0.00977-3.26 0.00786-1.49 0.00786-1.49 0.0159-3.02 0.0504-2.44 0.0504-2.44-1.11-4.43-6.51-0.0253-13-0.0428-19.5-0.0549-2.22-0.00504-4.43-0.0119-6.65-0.0205-3.18-0.0121-6.36-0.0178-9.55-0.0222-1.49-0.00774-1.49-0.00774-3.02-0.0156-0.921-7.55e-5 -1.84-1.51e-4 -2.79-2.29e-4 -1.22-0.00333-1.22-0.00333-2.46-0.00673-2.06-0.00559-2.06-0.00559-3.99 1.12zm588 269v2c-0.639-0.0825-1.28-0.165-1.94-0.25-3.71 0.303-6.3 1.58-9.64 3.16-3.71 1.67-7.55 2.88-11.4 4.09v2c-0.699 0.104-1.4 0.209-2.12 0.316-3.31 0.785-5.98 2.07-9.01 3.62l-3.13 1.59c-2.84 1.47-2.84 1.47-5.74 3.47v2l-1.69 0.25c-3.05 0.989-4.96 2.6-7.31 4.75v2l-1.69 0.688c-2.97 1.69-5.03 3.78-7.31 6.31v2h-2c-3.85 7.66-5.49 14.2-5.5 22.8-0.0058 0.779-0.0116 1.56-0.0176 2.36 0.121 5.72 1.45 10.6 3.52 15.9h2c0.144 0.619 0.289 1.24 0.438 1.88 0.494 2.16 0.494 2.16 1.56 4.12h2c0.268 0.639 0.536 1.28 0.812 1.94 1.07 2.39 1.07 2.39 4.19 3.06v2h2v2c2.65 1.46 3.89 2 7 2v2c15.6 4.99 29.3 2.89 43.9-4.34 4.08-2.12 8.08-4.35 12.1-6.66v-2h4v-2h3v-2c0.743-0.268 1.48-0.536 2.25-0.812 3.72-1.59 3.72-1.59 6.75-4.19 0.381-2.81 0.506-5.24 0.454-8.05 5.84e-4 -0.82 0.00117-1.64 0.00177-2.48-0.00279-2.71-0.0339-5.42-0.0652-8.13-0.00746-1.88-0.0132-3.76-0.0172-5.64-0.0153-4.95-0.0546-9.89-0.0988-14.8-0.0409-5.05-0.0592-10.1-0.0793-15.1-0.0429-9.9-0.111-19.8-0.195-29.7-8.59 0-19.2 4.75-27 8z" fill="#000002"/>
<path transform="translate(960,6)" d="m0 0c-0.875 6.87-0.875 6.87-2 8-0.231 1.35-0.412 2.7-0.562 4.06-0.144 1.3-0.289 2.6-0.438 3.94h-2v7h-2c0.0374 1.02 0.0748 2.04 0.113 3.09-0.113 3.89-0.768 6.84-1.93 10.5-1.38 4.58-2.64 9.14-3.69 13.8-1.34 6-2.9 11.9-4.55 17.8-1 3.7-1 3.7-1.55 7.43-1.41 8.47-1.41 8.47-4.41 11-3.88 1.83-7.67 2.86-12 2.3v2h-6v2c-2.25 0.647-4.5 1.29-6.75 1.94-1.25 0.36-2.51 0.719-3.8 1.09-2.48 0.698-4.95 1.36-7.45 1.97 0.141 3.17 0.289 6.33 0.438 9.5 0.0393 0.887 0.0786 1.77 0.119 2.69 0.0419 0.877 0.0838 1.75 0.127 2.66 0.055 1.19 0.055 1.19 0.111 2.41 0.16 2.14 0.42 4.27 0.719 6.39 0.652 5.07 0.611 10.1 0.584 15.2-0.00212 1.51-0.00212 1.51-0.00429 3.06-0.00556 3.2-0.0181 6.4-0.0309 9.6-0.00502 2.18-0.00958 4.36-0.0137 6.54-0.011 5.32-0.0277 10.6-0.0488 16 0.557-0.0873 1.11-0.175 1.69-0.264 2.58-0.401 5.15-0.797 7.73-1.19 1.31-0.206 1.31-0.206 2.66-0.416 32.8-5.01 67.5-2.88 99.9 3.87v2c1.01-0.0619 2.02-0.124 3.06-0.188 4.37 0.208 6.97 1.41 10.9 3.19 2.98 0.786 5.98 1.42 9 2v2h5v2c1.07 0.184 1.07 0.184 2.17 0.371 2.88 0.64 5.42 1.56 8.14 2.69 0.883 0.362 1.77 0.724 2.68 1.1 0.664 0.277 1.33 0.554 2.01 0.84v2h4v2h3v2c0.835 0.186 0.835 0.186 1.69 0.375 2.53 0.685 4.89 1.62 7.31 2.62v2h2v2h3v2c1.32 0.33 2.64 0.66 4 1v2c1.65 0.66 3.3 1.32 5 2v2h2v2h2v2c0.99 0.33 1.98 0.66 3 1v2h2v2h2v2h2c1.73 1.9 1.73 1.9 3.62 4.38 0.947 1.22 0.947 1.22 1.91 2.46 1.46 2.16 1.46 2.16 1.46 4.16h2v3h2c0.838 1.46 1.67 2.91 2.5 4.38 0.464 0.812 0.928 1.62 1.41 2.46 1.09 2.16 1.09 2.16 1.09 4.16h2c0.254 0.724 0.508 1.45 0.77 2.2 0.344 0.967 0.688 1.93 1.04 2.93 0.336 0.951 0.673 1.9 1.02 2.88 1.12 3.03 1.12 3.03 2.68 5.94 2.78 5.71 4.05 11.9 5.49 18.1 0.304 1.26 0.608 2.52 0.922 3.82 2.2 10.2 2.37 20.4 2.39 30.8 0.00359 0.69 0.00717 1.38 0.0109 2.09 0.0286 10.2-0.847 20.2-2.32 30.3-1.98-0.66-3.96-1.32-6-2v-2h-4v-2c-2.97-0.99-5.94-1.98-9-3v-2h-4v-2c-0.863-0.19-0.863-0.19-1.74-0.385-2.28-0.621-4.24-1.45-6.37-2.46-0.754-0.358-1.51-0.715-2.29-1.08-1.17-0.56-1.17-0.56-2.36-1.13-0.793-0.377-1.59-0.754-2.4-1.14-1.95-0.928-3.9-1.86-5.85-2.79v-2c-0.562-0.122-1.12-0.245-1.7-0.371-2.49-0.681-4.7-1.62-7.05-2.69-0.799-0.362-1.6-0.724-2.42-1.1-0.603-0.277-1.21-0.554-1.83-0.84v-2h-4v-2c-0.552-0.122-1.1-0.245-1.67-0.371-2.62-0.709-5.06-1.67-7.58-2.69-0.892-0.362-1.78-0.724-2.7-1.1-0.675-0.277-1.35-0.554-2.05-0.84v-2h-3v-2c-0.562-0.122-1.12-0.245-1.7-0.371-2.49-0.681-4.7-1.62-7.05-2.69-0.799-0.362-1.6-0.724-2.42-1.1-0.603-0.277-1.21-0.554-1.83-0.84v-2h-4v-2c-0.552-0.122-1.1-0.245-1.67-0.371-2.62-0.709-5.06-1.67-7.58-2.69-0.892-0.362-1.78-0.724-2.7-1.1-0.675-0.277-1.35-0.554-2.05-0.84v-2c-1.18-0.34-1.18-0.34-2.38-0.688-4.75-1.72-9.15-3.99-13.6-6.31v-2h-4v-2c-0.552-0.122-1.1-0.245-1.67-0.371-2.62-0.709-5.06-1.67-7.58-2.69-0.892-0.362-1.78-0.724-2.7-1.1-0.675-0.277-1.35-0.554-2.05-0.84v-2c-1.79-0.34-1.79-0.34-3.62-0.688-1.01-0.191-1.01-0.191-2.04-0.387-3.28 0.104-5.44 1.57-8.34 3.07-2.3 0.717-4.61 1.38-6.94 2-3.84 1.05-7.52 2.07-11.1 3.75-2.93 1.25-4.8 1.54-7.94 1.25v2c-2.21 0.65-4.42 1.29-6.62 1.94-1.23 0.36-2.46 0.719-3.73 1.09-3.22 0.858-6.36 1.49-9.65 1.97v2c-0.776 0.231-1.55 0.461-2.35 0.699-7.3 2.2-14.4 4.64-21.6 7.35-2.91 0.898-5.07 1.16-8.09 0.953v2c-1.5 0.416-1.5 0.416-3.03 0.84-1.3 0.366-2.61 0.732-3.91 1.1-0.659 0.182-1.32 0.365-2 0.553-3.3 0.736-3.3 0.736-6.06 2.51-1.67 0.0406-3.33 0.0427-5 0v2c-0.73 0.219-1.46 0.438-2.21 0.664-6.75 2.05-13.5 4.18-20.2 6.4-0.748 0.245-1.5 0.49-2.27 0.743-4.57 1.52-8.95 3.27-13.4 5.19-9.07 3.48-9.07 3.48-14 3v2c-0.73 0.219-1.46 0.438-2.21 0.664-6.75 2.05-13.5 4.18-20.2 6.4-0.748 0.245-1.5 0.49-2.27 0.743-4.57 1.52-8.95 3.27-13.4 5.19-9.07 3.48-9.07 3.48-14 3v2c-0.799 0.242-1.6 0.485-2.42 0.734-12.6 2.69-12.6 2.69-23.6 8.27-1.67 0.0406-3.33 0.0427-5 0v2c-7.92 1.98-7.92 1.98-16 4 1.5 4 1.5 4 4 5v2h3v2h2v2c2.33 1.21 4.5 2.17 7 3v2h2v2c0.557 0.268 1.11 0.536 1.69 0.812 2.52 1.3 4.95 2.61 7.31 4.19v2h2v230c10.3-1.71 10.3-1.71 20-5 2.33-0.0402 4.67-0.0432 7 0v-2l3.06-0.375c3.79-0.602 7.25-1.54 10.9-2.62 2.5-0.719 5-1.43 7.5-2.12 1.25-0.353 2.5-0.706 3.78-1.07 3.7-0.8 6.95-0.95 10.7-0.805v-2c1.52-0.186 1.52-0.186 3.06-0.375 3.79-0.602 7.25-1.54 10.9-2.62 2.5-0.719 5-1.43 7.5-2.12 1.25-0.353 2.5-0.706 3.78-1.07 3.7-0.8 6.95-0.95 10.7-0.805v-2c1.52-0.186 1.52-0.186 3.06-0.375 3.79-0.602 7.25-1.54 10.9-2.62 2.5-0.719 5-1.43 7.5-2.12 1.25-0.353 2.5-0.706 3.78-1.07 3.7-0.8 6.95-0.95 10.7-0.805v-2c1.52-0.186 1.52-0.186 3.06-0.375 3.79-0.602 7.25-1.54 10.9-2.62 2.5-0.719 5-1.43 7.5-2.12 1.25-0.353 2.5-0.706 3.78-1.07 3.7-0.8 6.95-0.95 10.7-0.805v-2c1.52-0.186 1.52-0.186 3.06-0.375 5-0.793 9.7-2.26 14.6-3.7 11.1-3.15 19-4.38 29.8 0.0977 2.51 0.96 4.9 1.52 7.54 1.97v2h6v2h5v2c0.99 0.124 1.98 0.248 3 0.375 4.09 0.577 8.01 1.57 12 2.62v2h5v2c1.33 0.124 1.33 0.124 2.69 0.25 5.95 0.836 11.6 2.94 17.3 4.75 2.33 0.687 4.66 1.35 7 2v2c0.722-0.04 1.44-0.0799 2.19-0.121 3.06 0.132 5.02 0.833 7.81 2.06 3.34 1.45 6.41 2.45 10 3.06v2c0.681-0.0619 1.36-0.124 2.06-0.188 3.08 0.197 5.21 1.12 8 2.36 3.12 1.34 6.33 2.39 9.56 3.45 0.963 0.325 0.963 0.325 1.95 0.656 3.45 1.15 6.85 2.1 10.4 2.72v2c1.26 0.184 1.26 0.184 2.54 0.371 3.7 0.673 7.23 1.64 10.8 2.69 1.25 0.362 2.49 0.724 3.77 1.1 0.941 0.277 1.88 0.554 2.85 0.84v2c0.701-0.0412 1.4-0.0825 2.12-0.125 3.26 0.142 5.83 0.992 8.88 2.12v2l2.69 0.25c8.68 1.25 17.1 4.52 25.1 7.87 2.68 1.09 5.41 2.01 8.17 2.88-0.66 3.3-1.32 6.6-2 10h-2c0.0619 1.11 0.0619 1.11 0.125 2.25-0.129 2.84-0.696 4.34-2.12 6.75-5.01-0.847-9.69-2.53-14.5-4.18-3.49-1.19-6.89-2.2-10.5-2.82v-2h-5v-2c-0.66 0.0619-1.32 0.124-2 0.188-3.18-0.199-5.63-1.09-8.57-2.27-2.9-1.1-5.83-1.97-8.8-2.86-4.01-1.21-7.89-2.51-11.8-4.12-5.16-2.15-10.5-3.58-15.9-4.94v-2h-5v-2c-0.73 0.0374-1.46 0.0748-2.21 0.113-2.95-0.12-4.73-0.729-7.41-1.93-3.59-1.52-7.1-2.72-10.9-3.69-4.5-1.16-8.65-2.73-12.9-4.52-4.42-1.69-8.99-2.83-13.6-3.98v-2c-0.701 0.0412-1.4 0.0825-2.12 0.125-3.26-0.142-5.83-0.992-8.88-2.12v-2c-1.33-0.124-1.33-0.124-2.69-0.25-5.94-0.823-11.6-2.91-17.3-4.75v-2c-1.33-0.124-1.33-0.124-2.69-0.25-7.28-1.04-14.6-3.45-21.3-6.44-5.42-2.37-9.17-2.43-15-1.31-0.33 0.33-0.66 0.66-1 1l-3.12 0.438c-3.05 0.442-5.77 1.06-8.7 1.96-4.12 1.15-8.3 2-12.5 2.92-2.6 0.414-2.6 0.414-3.7 1.68-2.33 0.333-4.67 0.667-7 1-0.33 0.33-0.66 0.66-1 1l-3.12 0.438c-3.05 0.442-5.77 1.06-8.7 1.96-4.12 1.15-8.3 2-12.5 2.92-2.6 0.414-2.6 0.414-3.7 1.68-2.33 0.333-4.67 0.667-7 1-0.33 0.33-0.66 0.66-1 1l-3.12 0.438c-3.05 0.442-5.77 1.06-8.7 1.96-4.12 1.15-8.3 2-12.5 2.92-2.6 0.414-2.6 0.414-3.7 1.68-2.33 0.333-4.67 0.667-7 1-0.33 0.33-0.66 0.66-1 1l-3.12 0.438c-3.05 0.442-5.77 1.06-8.7 1.96-4.12 1.15-8.3 2-12.5 2.92-2.6 0.414-2.6 0.414-3.7 1.68-2.33 0.333-4.67 0.667-7 1-0.33 0.33-0.66 0.66-1 1l-3.12 0.438c-3.05 0.442-5.77 1.06-8.7 1.96-4.12 1.15-8.3 2-12.5 2.92-2.6 0.414-2.6 0.414-3.7 1.68-2.33 0.333-4.67 0.667-7 1-0.33 0.33-0.66 0.66-1 1l-3.12 0.438c-3.05 0.442-5.77 1.06-8.7 1.96-4.12 1.15-8.3 2-12.5 2.92-2.6 0.414-2.6 0.414-3.7 1.68-2.33 0.333-4.67 0.667-7 1-0.33 0.33-0.66 0.66-1 1l-3.12 0.438c-3.05 0.443-5.79 1.07-8.73 1.96-3.92 1.1-7.9 1.93-11.9 2.82-3.46 0.824-6.86 1.79-10.3 2.78-0.00423 0.587-0.00846 1.17-0.0128 1.78-0.103 14.3-0.212 28.5-0.327 42.8-0.0553 6.89-0.109 13.8-0.158 20.7-0.0474 6.65-0.0999 13.3-0.156 19.9-0.0205 2.54-0.0392 5.08-0.0561 7.63-0.024 3.55-0.054 7.09-0.0856 10.6-0.00576 1.06-0.0115 2.12-0.0174 3.22-0.0147 1.44-0.0147 1.44-0.0297 2.91-0.00645 0.84-0.0129 1.68-0.0196 2.54-0.139 1.9-0.139 1.9-1.14 2.9h-19v-131c4.95-1.32 9.9-2.64 15-4 2.31-0.66 4.62-1.32 7-2 2.33-0.074 4.67-0.0952 7 0v-2c1.52-0.186 1.52-0.186 3.06-0.375 3.86-0.529 3.86-0.529 7.19-1.56 4.83-1.37 9.81-2.16 14.8-3.06v-226c-1.32-0.66-2.64-1.32-4-2-0.66-0.33-1.32-0.66-2-1v-2h-3v-2h-2v-2c-2.33-1.21-4.5-2.17-7-3v-2h-2v-2h-2v-2c-1.02-0.309-1.02-0.309-2.06-0.625-3.35-1.57-5.66-3.57-8.39-6.04-1.53-1.43-1.53-1.43-3.55-2.34v-2c-0.572-0.268-1.14-0.536-1.73-0.812-2.34-1.23-4.39-2.61-6.52-4.19l-2.14-1.56-1.61-1.44v-2h-2v-3c15.5-6.32 15.5-6.32 21-6v-2c1.5-0.416 1.5-0.416 3.03-0.84 1.3-0.366 2.61-0.732 3.91-1.1 0.659-0.182 1.32-0.365 2-0.553 3.3-0.736 3.3-0.736 6.06-2.51 1.67-0.0406 3.33-0.0427 5 0v-2c1.33-0.371 1.33-0.371 2.69-0.75 10.6-2.94 10.6-2.94 20.8-6.75 7.48-3.2 15.4-5.74 23.5-6.5v-2h5v-2h4c-0.0105-0.933-0.0209-1.87-0.0317-2.83-0.161-16.7-0.201-33.3 0.844-49.9 0.0701-1.22 0.14-2.44 0.212-3.7 0.452-6.41 1.33-11.7 3.98-17.5h2v-4h2v-3h2c0.464-1.18 0.464-1.18 0.938-2.38 1.06-2.63 1.06-2.63 2.06-4.62h2v-3h2c0.268-0.578 0.536-1.16 0.812-1.75 1.22-2.31 2.49-4.27 4.19-6.25h2v-2c5.48-5 5.48-5 8-5v-2h3v-2c1.46-1.29 1.46-1.29 3.38-2.62 0.626-0.446 1.25-0.892 1.9-1.35 1.73-1.02 1.73-1.02 3.73-1.02v-2c1.43-0.841 2.87-1.67 4.31-2.5 0.801-0.464 1.6-0.928 2.43-1.41 2.26-1.09 2.26-1.09 5.26-1.09v-2h4v-2c1.73-0.793 3.46-1.58 5.19-2.38 0.963-0.441 1.93-0.882 2.92-1.34 0.955-0.425 1.91-0.851 2.89-1.29 0.862-0.384 1.72-0.768 2.61-1.16 2.39-0.836 2.39-0.836 6.39-0.836v-2c0.941-0.266 1.88-0.531 2.85-0.805 1.87-0.53 1.87-0.53 3.77-1.07 1.84-0.522 1.84-0.522 3.73-1.05 3.25-0.952 6.44-1.99 9.65-3.07-0.00444-1.16-0.00888-2.32-0.0135-3.52-0.0405-10.9-0.0705-21.8-0.0902-32.8-0.0105-5.61-0.0246-11.2-0.0473-16.8-0.0217-5.41-0.0337-10.8-0.0389-16.2-0.00371-2.07-0.0109-4.14-0.0217-6.21-0.0144-2.89-0.0165-5.78-0.0156-8.67-0.00719-0.862-0.0144-1.72-0.0218-2.61 0.0207-5.92 0.0207-5.92 2.25-8.15 2.24-0.852 2.24-0.852 4.88-1.62 0.864-0.26 1.73-0.521 2.62-0.789 2.51-0.586 2.51-0.586 6.51-0.586v-2h5v-2c5.98-1.73 12-3.37 18-5 0.11-0.629 0.219-1.26 0.332-1.91 0.159-0.856 0.317-1.71 0.48-2.59 0.226-1.25 0.226-1.25 0.457-2.53 0.73-2.97 0.73-2.97 2.17-6.66 1.86-4.82 2.8-9.74 3.75-14.8l0.537-2.78c0.431-2.24 0.856-4.48 1.28-6.72h2c-0.0619-0.969-0.124-1.94-0.188-2.94 0-3.86 1.02-6.93 2.32-10.5 2.07-6.05 3.68-12.4 4.43-18.7 0.144-0.928 0.289-1.86 0.438-2.81 5.64-2.82 15.3 1.5 21 3zm-32 189c-2.37 0.23-4.75 0.411-7.12 0.562-1.28 0.0838-2.56 0.168-3.88 0.254-0.987 0.0606-1.97 0.121-2.99 0.184v2c-0.593-0.029-1.19-0.058-1.8-0.0879-6.8-0.185-12.8 0.884-19.3 2.59-1.43 0.358-1.43 0.358-2.9 0.723-2.33 0.582-4.65 1.17-6.98 1.78v2c-1.18-0.124-1.18-0.124-2.38-0.25-5.05 0.348-9.02 2.26-13.6 4.25-0.942 0.374-1.88 0.748-2.86 1.13-7.72 3.08-14.9 6.81-22.1 10.9v2h-4v2c-0.784 0.309-1.57 0.619-2.38 0.938-2.55 0.991-2.55 0.991-4.62 2.06v2h-2v2h-3v2h-2v2c-0.598 0.268-1.2 0.536-1.81 0.812-2.19 1.19-3.6 2.28-5.19 4.19v2h-2v2h-2v3h-2v2h-2c-2.43 3.37-3 4.73-3 9h-2v4h-2c-0.33 17.2-0.66 34.3-1 52 4 1.33 6.58 0.0027 10.4-1.38 4.17-1.48 8.24-2.9 12.6-3.62v-2h5v-2h6v-2c1.18-0.103 2.35-0.206 3.56-0.312 4.2-0.512 7.58-1.94 11.4-3.69 2.94-0.688 2.94-0.688 5-1v-2c0.887-0.0825 1.77-0.165 2.69-0.25 7.98-1.12 15.7-4.2 23.3-6.75v-2h6v-2c0.887-0.0825 1.77-0.165 2.69-0.25 5.94-0.823 11.6-2.91 17.3-4.75v-2c0.887-0.0825 1.77-0.165 2.69-0.25 8.21-1.17 15.9-4.05 23.3-7.75 3.38-0.688 3.38-0.688 6-1v-2c0.887-0.0825 1.77-0.165 2.69-0.25 5.94-0.823 11.6-2.91 17.3-4.75v-2c0.959 0.0928 0.959 0.0928 1.94 0.188 5.56-0.341 10.6-2.52 15.6-4.81 3.95-1.58 7.22-2.01 11.4-2.38v2c1.58 0.843 3.16 1.67 4.75 2.5 0.882 0.464 1.76 0.928 2.67 1.41 2.73 1.35 2.73 1.35 6.58 1.09v2c2.1 1.17 4.2 2.34 6.31 3.5 0.595 0.334 1.19 0.668 1.8 1.01 2.84 1.56 4.59 2.49 7.88 2.49v2h4v2c1.58 0.843 3.16 1.67 4.75 2.5 0.882 0.464 1.76 0.928 2.67 1.41 2.73 1.35 2.73 1.35 6.58 1.09v2c2.1 1.17 4.2 2.34 6.31 3.5 0.595 0.334 1.19 0.668 1.8 1.01 2.84 1.56 4.59 2.49 7.88 2.49v2h4v2c1.58 0.843 3.16 1.67 4.75 2.5 0.882 0.464 1.76 0.928 2.67 1.41 2.73 1.35 2.73 1.35 6.58 1.09v2c1.41 0.844 2.83 1.67 4.25 2.5 0.789 0.464 1.58 0.928 2.39 1.41 2.53 1.37 2.53 1.37 6.36 1.09v2c2.65 1.46 3.89 2 7 2v2c0.887 0.351 1.77 0.701 2.69 1.06 5.01 2.12 9.69 4.85 14.4 7.51 2.8 1.65 2.8 1.65 5.89 1.43 1.03-3.1 1-4.66 0.695-7.85-0.0889-0.933-0.178-1.87-0.27-2.83-0.0993-0.972-0.199-1.94-0.301-2.95-0.0915-0.98-0.183-1.96-0.277-2.97-0.0562-4.55-0.0562-4.55-1.85-8.41-0.492-2.16-0.943-4.33-1.38-6.5-1.18-5.69-2.65-11-4.62-16.5h-2v-4h-2c-0.0825-0.66-0.165-1.32-0.25-2-0.998-3.99-2.82-7.39-4.75-11h-2v-3h-2c-0.402-1.11-0.402-1.11-0.812-2.25-1.14-2.64-2.28-4.61-4.19-6.75h-2v-2h-2v-2h-2c-0.33-0.99-0.66-1.98-1-3h-2v-2h-2v-2h-2v-2c-3.22-2.32-3.22-2.32-7-3v-2h-3v-2h-3v-2h-3v-2c-4.26-2.36-4.26-2.36-9-3v-2h-4v-2c-1.91-0.842-3.83-1.67-5.75-2.5-1.07-0.464-2.13-0.928-3.23-1.41-3.11-1.32-3.11-1.32-7.02-1.09v-2c-0.692-0.17-1.38-0.34-2.1-0.516-0.978-0.242-1.96-0.485-2.96-0.734-1.09-0.269-2.18-0.539-3.3-0.816-3.15-0.808-6.27-1.68-9.39-2.58-6.3-1.78-11.7-2.82-18.2-2.36v-2c-0.904-0.0606-1.81-0.121-2.74-0.184-1.18-0.0838-2.36-0.168-3.57-0.254-1.17-0.0812-2.34-0.162-3.55-0.246-3.14-0.316-3.14-0.316-6.14-1.32-1.54-0.0917-3.08-0.128-4.62-0.129-0.934-0.00315-1.87-0.0063-2.83-0.00955-1.51 0.00304-1.51 0.00304-3.05 0.00613-1.03-9.57e-4 -2.07-0.00191-3.13-0.0029-2.19-6.81e-4 -4.37 0.00117-6.56 0.00534-3.36 0.00536-6.71 4.82e-5 -10.1-0.00635-2.12 6.61e-4 -4.24 0.00194-6.37 0.00391-1.01-0.00202-2.02-0.00405-3.06-0.00613-1.4 0.00473-1.4 0.00473-2.82 0.00955-1.23 0.00119-1.23 0.00119-2.49 0.00241-2.08 8.29e-4 -2.08 8.29e-4 -4 1.13z" fill="#000002"/>
<path transform="translate(1171 1161)" d="m0 0c1.28-0.00773 2.55-0.0155 3.87-0.0234 11.4 0.0234 21.9 1.7 32.9 4.9 1.21 0.344 1.21 0.344 2.44 0.695 1.94 0.554 3.88 1.12 5.81 1.68v2h4v2c0.572 0.122 1.14 0.245 1.73 0.371 2.37 0.657 4.34 1.57 6.52 2.69 0.706 0.362 1.41 0.724 2.14 1.1 0.797 0.416 0.797 0.416 1.61 0.84v2c1.11 0.402 1.11 0.402 2.25 0.812 2.64 1.14 4.61 2.28 6.75 4.19v2h2v2h2v2c0.99 0.33 1.98 0.66 3 1v2h2v2h2c1.29 1.64 1.29 1.64 2.62 3.81 0.446 0.708 0.892 1.42 1.35 2.14 1.02 2.04 1.02 2.04 1.02 5.04h2c0.794 1.87 1.59 3.75 2.38 5.62 0.441 1.04 0.882 2.09 1.34 3.16 5.07 12.6 5.29 21.9 5.29 36.2h-174c-0.564 18-0.564 18 5 37 0.0408 2 0.0425 4 0 6h2c0.193 0.603 0.387 1.21 0.586 1.83 0.26 0.799 0.521 1.6 0.789 2.42 0.255 0.789 0.51 1.58 0.773 2.39 0.793 2.36 0.793 2.36 1.95 4.47 0.898 1.89 0.898 1.89 0.898 4.89h2c2 3 2 3 2 6h2c3 4.38 3 4.38 3 7h2v2h2c2.62 2.38 2.62 2.38 5 5v2h2v2c0.557 0.268 1.11 0.536 1.69 0.812 2.52 1.3 4.95 2.61 7.31 4.19v2c0.681 0.247 1.36 0.495 2.06 0.75 2.33 0.991 4.34 2.03 6.5 3.31 2.66 1.5 4.49 2.47 7.44 2.94v2c1.07 0.203 1.07 0.203 2.15 0.41 2.83 0.587 5.61 1.29 8.41 2.03 16.3 4.06 30.1 3.95 46.4 0.926 2.66-0.486 5.32-0.928 7.99-1.36v-2h5v-2h4v-2c5.75-3 5.75-3 8-3v-2h3v-2h2v-2c1.38-1.62 1.38-1.62 3-3h2v-2h2v-3h2c0.272-0.739 0.544-1.48 0.824-2.24 1.11-2.61 2.35-4.64 3.99-6.95 2.82-4.11 5.02-8.33 7.11-12.8 1.08-1.97 1.08-1.97 3.08-2.97 0.99 0.33 1.98 0.66 3 1v2h3c0.286 5.34-0.14 9.11-2.2 14-1.19 2.92-1.98 5.92-2.8 8.96h-2c-0.104 0.71-0.209 1.42-0.316 2.15-0.766 3.19-2 5.56-3.62 8.41-1.76 3.12-3.49 6.22-5.06 9.44h-2c-0.66 1.65-1.32 3.3-2 5h-2c-0.33 1.32-0.66 2.64-1 4h-2v2h-2c-0.33 0.99-0.66 1.98-1 3h-2v2h-2v2h-2v2c-2.07 1.8-4.13 3.47-6.31 5.12-0.595 0.468-1.19 0.936-1.8 1.42-4.51 3.46-4.51 3.46-7.88 3.46v2c-3 2-3 2-7 2v2c-0.773 0.254-1.55 0.508-2.34 0.77-1.04 0.344-2.08 0.688-3.16 1.04-1.1 0.364-2.2 0.727-3.34 1.1-2.48 0.85-4.87 1.77-7.29 2.77-3.89 1.52-7.72 1.84-11.9 2.1-2-0.00186-2-0.00186-3 1.21-2.12 0.1-4.25 0.131-6.37 0.133-1.3 0.00129-2.59 0.00258-3.93 0.00391-0.679-0.00209-1.36-0.00419-2.06-0.00635-2.07-0.00534-4.14-5.92e-5 -6.21 0.00635-1.3-0.00129-2.59-0.00258-3.93-0.00391-1.2-0.00113-2.4-0.00226-3.63-0.00342-2.87-0.129-2.87-0.129-4.87-1.13-1.52-0.155-3.04-0.275-4.56-0.375-5.19-0.482-9.57-1.84-14.4-3.62-2.1-0.691-4.21-1.38-6.31-2.06-3.38-1.1-6.55-2.26-9.69-3.94v-2h-4v-2c-0.516-0.0825-1.03-0.165-1.56-0.25-3.48-1.07-6.31-2.89-9.44-4.75v-2c-1.65-0.66-3.3-1.32-5-2v-2c-1.32-0.33-2.64-0.66-4-1v-2h-2v-2c-0.99-0.33-1.98-0.66-3-1v-2h-2v-2h-2c-3-3.46-3-3.46-3-6h-2v-3h-2v-2h-2c-3-5.62-3-5.62-3-9h-2v-4h-2c-0.792-2.21-1.58-4.42-2.38-6.62-0.441-1.23-0.882-2.46-1.34-3.73-0.638-1.81-0.638-1.81-1.29-3.65-0.382-1.05-0.763-2.1-1.16-3.19-1.14-3.79-0.979-6.88-0.844-10.8h-2c-0.0606-1.29-0.121-2.58-0.184-3.9-0.0844-1.68-0.169-3.36-0.254-5.04-0.059-1.28-0.059-1.28-0.119-2.58-0.0419-0.809-0.0838-1.62-0.127-2.45-0.0367-0.749-0.0733-1.5-0.111-2.27-0.023-1.79-0.023-1.79-1.21-2.77-0.0998-2.51-0.139-4.99-0.125-7.5-0.00387-0.703-0.00773-1.41-0.0117-2.13 0.0101-5.24 0.0101-5.24 1.14-6.37 0.144-1.33 0.227-2.66 0.281-4 0.0561-1.21 0.0561-1.21 0.113-2.44 0.0348-0.846 0.0696-1.69 0.105-2.56 0.0686-1.67 0.141-3.33 0.219-5 0.0303-0.743 0.0606-1.48 0.0918-2.25 0.189-1.75 0.189-1.75 1.19-2.75 0.124-1.15 0.247-2.31 0.375-3.5 0.55-4.78 2.02-8.99 3.62-13.5 0.733-2.19 1.46-4.37 2.19-6.56 0.604-1.81 1.21-3.62 1.81-5.44h2c0.102-0.705 0.204-1.41 0.309-2.14 0.791-3.27 2.1-5.75 3.75-8.68 0.548-0.976 1.1-1.95 1.66-2.96 0.422-0.736 0.843-1.47 1.28-2.23h2c0.124-0.835 0.124-0.835 0.25-1.69 0.989-3.05 2.6-4.96 4.75-7.31h2v-2h2c0.268-0.639 0.536-1.28 0.812-1.94 1.19-2.06 1.19-2.06 4.19-3.06v-2h2v-2h2v-2c4.38-3 4.38-3 7-3v-2c3-2 3-2 6-2v-2c20.5-10.7 40.7-16.4 64-16.2zm-23 16.2v2c-1.03-0.103-2.06-0.206-3.12-0.312-6.61-0.0597-12.8 2.93-18.9 5.31v2h-3v2c-0.743 0.268-1.48 0.536-2.25 0.812-2.64 1.14-4.61 2.28-6.75 4.19v2l-4 2v2h-2c-0.99 2.47-0.99 2.47-2 5h-2c-2.43 3.37-3 4.73-3 9h-2v4h-2c-0.51 2.02-1.01 4.04-1.5 6.06-0.278 1.13-0.557 2.25-0.844 3.41-0.87 4.08-0.87 4.08-0.656 10.5h117v-15l-1-1c-0.455-2.65-0.702-5.32-1-8h-2c-0.124-1.07-0.247-2.14-0.375-3.25-0.521-3.13-1.03-5.08-2.62-7.75h-2v-3h-2v-2h-2v-2h-2c-0.268-0.639-0.536-1.28-0.812-1.94-1.07-2.39-1.07-2.39-4.19-3.06v-2c-2.65-1.46-3.89-2-7-2v-2c-9.73-4.03-9.73-4.03-20-6-0.495-0.495-0.495-0.495-1-1-2.53-0.0731-5.03-0.0925-7.56-0.0625-0.711 0.00451-1.42 0.00902-2.15 0.0137-1.76 0.0118-3.52 0.0298-5.28 0.0488z" fill="#000002"/>
<path transform="translate(557,1168)" d="m0 0v2h4v2h4v2c0.743 0.124 1.49 0.247 2.25 0.375 2.55 0.58 4.48 1.36 6.75 2.62v2h2v2h3v2h2v2c0.639 0.268 1.28 0.536 1.94 0.812 2.06 1.19 2.06 1.19 3.06 4.19h2v2h2c1.29 1.61 1.29 1.61 2.62 3.75 0.446 0.696 0.892 1.39 1.35 2.11 1.02 2.14 1.02 2.14 1.02 6.14h2c1.19 9.81 1.36 16.9-5 25h-2v2c-10.4 4.13-21.3 4.41-32 1-1.33-0.341-2.66-0.679-4-1v-2h-3v-2h-2v-2h-2v-3h-2c-1.89-7.02-3.29-13.8-4-21-0.33-0.33-0.66-0.66-1-1-0.0406-1.67-0.0427-3.33 0-5h-2v-4h-2c-2.62-2.38-2.62-2.38-5-5v-2h-2v-2c-1.28-0.307-1.28-0.307-2.59-0.621-1.1-0.269-2.21-0.539-3.35-0.816-1.1-0.267-2.2-0.534-3.34-0.809-2.72-0.754-2.72-0.754-3.72-1.75-4.22-0.255-8.46-0.185-12.7-0.188-1.19-0.0122-2.37-0.0245-3.59-0.0371-1.15-0.00193-2.3-0.00387-3.48-0.00586-1.05-0.00411-2.1-0.00822-3.19-0.0125-3.3 0.263-5.96 1.1-9.05 2.24-1.62 0.401-3.24 0.779-4.88 1.12-0.781 0.168-1.56 0.335-2.37 0.508-0.58 0.121-1.16 0.242-1.76 0.367v2h-4v2h-3v2c-1.32 0.33-2.64 0.66-4 1v2h-2v2h-2v2c-2.38 2.62-2.38 2.62-5 5h-2c-0.268 0.701-0.536 1.4-0.812 2.12-1.26 3.04-2.69 5.95-4.19 8.88h-2v4h-2c-0.103 0.639-0.206 1.28-0.312 1.94-0.579 2.58-1.31 4.89-2.19 7.38-1.47 4.25-2.02 8.23-2.5 12.7-0.33 0.33-0.66 0.66-1 1-1.04 8.29-1.23 16.7-1 25 0.0284 1.16 0.0567 2.33 0.0859 3.52 0.452 10.3 2.07 20.6 6.04 30.2 0.871 2.29 0.871 2.29 0.871 6.29h2v5h2c0.716 1.73 1.43 3.45 2.15 5.18 0.92 2.09 0.92 2.09 2.85 4.82v3h2c1.22 1.71 1.22 1.71 2.5 3.94 1.68 3.12 1.68 3.12 4.5 5.06 0.667 1.33 1.33 2.67 2 4 0.66 0.33 1.32 0.66 2 1v2h2v2h2v2c1.65 0.66 3.3 1.32 5 2v2c0.784 0.309 1.57 0.619 2.38 0.938 2.62 1.06 2.62 1.06 4.62 2.06v2h4v2c1.1 0.201 1.1 0.201 2.22 0.406 2.53 0.539 4.84 1.28 7.28 2.09 15.3 4.22 34 3.81 49.1-0.781 2.46-0.726 4.91-1.25 7.44-1.72v-2h4v-2c2.97-0.99 5.94-1.98 9-3v-2h2v-2h3v-2h2v-2c1.98-1.69 3.98-3.35 6-5 0.33-0.66 0.66-1.32 1-2h2c0.66-1.65 1.32-3.3 2-5h2c0.0825-0.516 0.165-1.03 0.25-1.56 1.07-3.48 2.89-6.31 4.75-9.44h2v-4h2c0.124-0.577 0.247-1.15 0.375-1.75 0.631-2.27 1.51-4.18 2.62-6.25 2.31 0.33 4.62 0.66 7 1 0.77 8.77-2.01 15.9-5 24h-2v5h-2c-0.124 0.557-0.247 1.11-0.375 1.69-0.685 2.53-1.62 4.89-2.62 7.31h-2c-0.144 0.598-0.289 1.2-0.438 1.81-0.45 1.75-0.991 3.47-1.56 5.19h-2c-0.309 0.784-0.619 1.57-0.938 2.38-1.06 2.63-1.06 2.63-2.06 4.62h-2v2h-2c-0.268 0.598-0.536 1.2-0.812 1.81-1.19 2.19-2.28 3.6-4.19 5.19h-2v2h-2v2c-1.38 1.62-1.38 1.62-3 3h-2v2c-2.97 0.99-2.97 0.99-6 2v2c-4.95 2.88-9.95 5.56-15.1 8.12-0.681 0.347-1.36 0.694-2.06 1.05-5.95 2.98-11.1 5.15-17.9 4.82v2c-8.61 1.73-16.9 2.28-25.6 2.19-1.17-6.45e-4 -2.34-0.00129-3.54-0.00195-8.55-0.0446-8.55-0.0446-10.8-1.19-1.87-0.228-3.75-0.41-5.62-0.562-1-0.0838-2.01-0.168-3.04-0.254-0.771-0.0606-1.54-0.121-2.34-0.184v-2c-0.981-0.102-1.96-0.204-2.97-0.309-4.41-0.629-8.34-2.13-12.5-3.75-0.732-0.282-1.46-0.563-2.22-0.854-1.78-0.688-3.57-1.39-5.35-2.08v-2h-4v-2c-0.784-0.309-1.57-0.619-2.38-0.938-2.62-1.06-2.62-1.06-4.62-2.06v-2h-3v-2c-0.619-0.309-1.24-0.619-1.88-0.938l-4.12-2.06v-2c-1.65-0.66-3.3-1.32-5-2v-2h-2v-2h-2c-0.99-2.47-0.99-2.47-2-5h-2c-3-3.46-3-3.46-3-6h-2v-3h-2c-0.841-1.43-1.67-2.87-2.5-4.31-0.464-0.801-0.928-1.6-1.41-2.43-1.09-2.26-1.09-2.26-1.09-5.26h-2c-0.793-2.04-1.58-4.08-2.38-6.12-0.441-1.14-0.882-2.27-1.34-3.45-2.08-5.54-3.48-10.6-4.29-16.4-0.33-0.33-0.66-0.66-1-1-0.209-1.81-0.368-3.62-0.5-5.44-0.214-3.93-0.214-3.93-1.5-7.56-0.0987-2.53-0.14-5.03-0.133-7.56-9.57e-4 -0.747-0.00191-1.49-0.0029-2.26-6.81e-4 -1.58 0.00117-3.16 0.00534-4.74 0.00535-2.42 5.17e-5 -4.85-0.00635-7.27 6.61e-4 -1.53 0.00194-3.07 0.00391-4.6-0.00202-0.727-0.00405-1.45-0.00613-2.2 0.024-5.13 0.024-5.13 1.14-7.36 0.228-1.87 0.41-3.75 0.562-5.62 0.0838-1 0.168-2.01 0.254-3.04 0.0606-0.771 0.121-1.54 0.184-2.34h2v-7h2c0.0825-0.928 0.165-1.86 0.25-2.81 0.732-5.31 2.82-10.2 4.75-15.2h2c0.104-0.552 0.209-1.1 0.316-1.67 0.829-2.82 2.11-5.05 3.62-7.58 0.525-0.892 1.05-1.78 1.59-2.7 0.486-0.675 0.972-1.35 1.47-2.05h2c0.268-0.743 0.536-1.48 0.812-2.25 1.14-2.64 2.28-4.61 4.19-6.75h2v-2h2v-2h2v-2c1.38-1.62 1.38-1.62 3-3h2v-2c1.65-0.66 3.3-1.32 5-2v-2c2.34-1.73 2.34-1.73 5.38-3.62 1.5-0.947 1.5-0.947 3.02-1.91 2.6-1.46 2.6-1.46 4.6-1.46v-2c0.99-0.412 1.98-0.825 3-1.25 2.59-1.1 4.96-2.27 7.44-3.62 30.2-15.4 67.1-14.1 98.6-4.12z" fill="#000002"/>
<path transform="translate(957,1096)" d="m0 0h9c0.0155 1.31 0.0155 1.31 0.0312 2.65 0.0978 8.23 0.2 16.5 0.308 24.7 0.0553 4.23 0.109 8.46 0.158 12.7 0.0476 4.08 0.0999 8.16 0.156 12.2 0.0204 1.56 0.0392 3.12 0.0561 4.68 0.024 2.18 0.054 4.35 0.0856 6.53 0.0233 1.86 0.0233 1.86 0.0471 3.76-0.156 2.69-0.156 2.69 1.16 3.78 1.81 0.123 3.62 0.178 5.44 0.205 1.16 0.0199 2.32 0.0399 3.52 0.0604 1.26 0.0167 2.53 0.0334 3.83 0.0506 1.29 0.0208 2.57 0.0416 3.9 0.063 3.42 0.0553 6.85 0.105 10.3 0.153 3.49 0.0502 6.98 0.106 10.5 0.161 6.86 0.108 13.7 0.209 20.6 0.307v16c-1.75 0.0251-3.5 0.0501-5.31 0.0759-5.78 0.0838-11.6 0.172-17.3 0.263-3.5 0.0553-7.01 0.109-10.5 0.158-4.02 0.0567-8.05 0.121-12.1 0.186-1.9 0.0251-1.9 0.0251-3.83 0.0506-1.16 0.0199-2.32 0.0399-3.52 0.0604-1.03 0.0155-2.06 0.0311-3.12 0.0471-2.28-0.1-2.28-0.1-3.32 1.16-0.0988 1.89-0.126 3.79-0.127 5.69-0.00282 1.24-0.00564 2.47-0.00854 3.74 0.00194 1.38 0.00399 2.76 0.00613 4.14-0.00135 1.45-0.00313 2.89-0.00531 4.34-0.00457 3.94-0.00278 7.87 3.79e-4 11.8 0.00252 4.11 1.86e-4 8.22-0.00139 12.3-0.00182 6.91 5.85e-4 13.8 0.00534 20.7 0.00544 7.99 0.00368 16-0.00183 24-0.00453 6.85-0.00518 13.7-0.00256 20.6 0.00156 4.1 0.00176 8.19-0.00154 12.3-0.00288 3.85-8.97e-4 7.7 0.00489 11.6 0.00133 1.42 9.36e-4 2.83-0.00126 4.25-0.00272 1.93 0.00129 3.86 0.00568 5.78 3.77e-4 1.08 7.54e-4 2.16 0.00114 3.28-0.0452 2.53-0.0452 2.53 1.13 4.54 0.404 3.11 0.766 6.21 1.07 9.33 0.5 4.28 1.55 7.11 3.93 10.7v2h2v2c0.743 0.289 1.49 0.577 2.25 0.875 2.75 1.12 2.75 1.12 4.44 2.18 3.3 1.35 6.49 1.24 10 1.2 0.71-0.00387 1.42-0.00773 2.15-0.0117 5.29-0.0868 10.1-0.781 15.2-2.24v-2h4v-2c2.37-2.62 2.37-2.62 5-5h2c0.289-0.969 0.577-1.94 0.875-2.94 1.12-3.06 1.12-3.06 3.12-4.06 1.71-0.07 3.42-0.0844 5.12-0.0625 0.91 0.00902 1.82 0.018 2.76 0.0273 1.05 0.0174 1.05 0.0174 2.12 0.0352-0.99 2.64-1.98 5.28-3 8h-2v4h-2c-0.227 0.681-0.454 1.36-0.688 2.06-1.62 3.64-3.64 6.97-6.31 9.94h-2v2h-2v2h-2v2c-1.46 1.29-1.46 1.29-3.38 2.62-0.626 0.446-1.25 0.892-1.9 1.35-1.73 1.02-1.73 1.02-3.73 1.02v2h-3v2h-4v2c-1.39 0.416-1.39 0.416-2.81 0.84-1.2 0.362-2.4 0.724-3.63 1.1-1.19 0.36-2.39 0.719-3.62 1.09-2.8 0.682-2.8 0.682-3.94 1.97-15.1 1.96-26.5 0.943-40-6-0.99-0.33-1.98-0.66-3-1v-2h-3v-2c-0.866-0.34-0.866-0.34-1.75-0.688-6.73-3.93-10.8-13.1-12.8-20.3-4.26-17.9-2.74-37.5-2.68-55.8 0.0127-4.2 0.0137-8.41 0.0161-12.6 0.00616-7.93 0.0225-15.9 0.0427-23.8 0.0225-9.04 0.0334-18.1 0.0434-27.1 0.0208-18.6 0.0574-37.1 0.101-55.7h-39v-8c1.43-0.674 2.87-1.34 4.31-2 0.801-0.371 1.6-0.743 2.43-1.12 2.26-0.875 2.26-0.875 5.26-0.875v-2h4v-2c4.38-3 4.38-3 7-3v-2c1.65-1.03 3.32-2.02 5-3 1.43-1 2.85-2.02 4.25-3.06 0.686-0.507 1.37-1.01 2.08-1.54 1.79-1.32 1.79-1.32 2.67-3.4h2v-2c1.98-1.69 3.98-3.35 6-5l1-2h2v-2h2v-2h2c0.66-1.65 1.32-3.3 2-5h2c0.33-1.32 0.66-2.64 1-4h2v-3h2c0.268-0.846 0.536-1.69 0.812-2.56 1.24-3.58 2.66-6.98 4.19-10.4h2c0.371-1.24 0.371-1.24 0.75-2.5 1.21-3.38 2.67-6.41 4.35-9.57 1.11-2.21 1.11-2.21 1.9-5.93z" fill="#000002"/>
<path transform="translate(954,815)" d="m0 0h19v269h-19c-1.13-9-1.13-9-1.13-13-0.00261-0.921-0.00522-1.84-0.0079-2.79 0.00223-0.988 0.00446-1.98 0.00676-2.99-0.00156-1.07-0.00312-2.14-0.00473-3.24-0.00398-3.57-8.33e-4 -7.13 0.00232-10.7-0.00136-2.56-0.00314-5.12-0.00531-7.68-0.00408-6.22-0.00349-12.4-5.87e-4 -18.7 0.00226-5.06 0.00256-10.1 0.00148-15.2-1.53e-4 -0.72-3.06e-4 -1.44-4.64e-4 -2.18-3.2e-4 -1.46-6.44e-4 -2.93-9.73e-4 -4.39-0.00285-13.7 4.23e-4 -27.4 0.0058-41.1 0.00447-11.8 0.00369-23.5-9.19e-4 -35.3-0.00535-13.7-0.00746-27.3-0.00439-41 3.19e-4 -1.46 6.33e-4 -2.91 9.43e-4 -4.37 1.54e-4 -0.716 3.09e-4 -1.43 4.68e-4 -2.17 8.65e-4 -5.06-5.97e-4 -10.1-0.00295-15.2-0.00309-6.79-9.07e-4 -13.6 0.00489-20.4 0.00133-2.5 9.32e-4 -5-0.00126-7.5-0.00271-3.4 6.66e-4 -6.79 0.00568-10.2-0.00223-1-0.00446-2.01-0.00676-3.04 0.00261-0.903 0.00522-1.81 0.0079-2.74 1.62e-4 -0.785 3.25e-4 -1.57 4.92e-4 -2.38 0.125-1.78 0.125-1.78 1.13-2.78z" fill="#000002"/>
<path transform="translate(117,1447)" d="m0 0v2h3v2h2l1 2c0.99 0.33 1.98 0.66 3 1v-7h12c0.0233 9.7 0.041 19.4 0.0518 29.1 0.0052 4.51 0.0122 9.01 0.0236 13.5 0.0109 4.36 0.0169 8.71 0.0194 13.1 0.00183 1.65 0.00541 3.31 0.0109 4.96 0.0789 25 0.0789 25-3.11 34.3h-2v4h-2c-0.268 0.639-0.536 1.28-0.812 1.94-1.19 2.06-1.19 2.06-4.19 3.06v2h-2v2c-9.92 3.84-20.9 4.81-31 1-0.99-0.33-1.98-0.66-3-1v-2c-0.959-0.402-0.959-0.402-1.94-0.812-2.06-1.19-2.06-1.19-3.06-4.19h-2v-4h-2v-5h12c0.99 3.46 0.99 3.46 2 7h4v2h16v-2h4v-2h2c1.61-3.65 2.45-7.05 3-11h2v-12h-2v2c-2.37 2.62-2.37 2.62-5 5h-2v2c-8.96 3.05-16.2 2.57-25-1-0.66-0.33-1.32-0.66-2-1v-2c-0.897-0.371-0.897-0.371-1.81-0.75-2.52-1.44-3.69-2.78-5.19-5.25v-3h-2c-3.01-9.44-3.16-18.7-3.12-28.6-0.00387-1.08-0.00773-2.17-0.0117-3.29 0.00959-7.89 0.0279-15.3 3.2-22.7 0.543-1.28 0.543-1.28 1.1-2.59 0.277-0.629 0.554-1.26 0.84-1.91h2c0.186-0.897 0.186-0.897 0.375-1.81 0.625-2.19 0.625-2.19 2.62-5.19h2v-2c8.48-4.79 17.9-6.06 27-2zm-14 7v2h-4v2h-2v2h-2c-0.646 1.77-1.29 3.54-1.94 5.31-0.36 0.986-0.719 1.97-1.09 2.99-2.39 6.64-2.19 12.7-2.22 19.7-0.0206 1.28-0.0413 2.55-0.0625 3.87-0.0368 9 0.375 17.6 5.38 25.3 1.74 2.04 1.74 2.04 3.94 1.81v2c4.09 2.73 7.2 2.6 12 2 5.21-1.38 8.18-3.69 10.9-8.31 1.95-3.94 2.7-7.33 3.06-11.7 0.33-0.33 0.66-0.66 1-1 0.285-4.12 0.232-8.25 0.25-12.4 0.0206-1.14 0.0412-2.29 0.0625-3.46 0.0468-10.3-1.45-19.5-7.31-28.2-2.95-2.37-2.95-2.37-7-2v-2h-9z" fill="#000002"/>
<path transform="translate(468,986)" d="m0 0h59v2c-1.73 0.155-1.73 0.155-3.5 0.312-4.51 0.546-8.29 2.02-12.5 3.69h-2c-0.309 0.784-0.619 1.57-0.938 2.38-1.06 2.62-1.06 2.62-2.06 4.62-0.0937 1.37-0.126 2.75-0.127 4.13-0.00282 0.865-0.00564 1.73-0.00854 2.62 0.00202 0.951 0.00405 1.9 0.00613 2.88-0.00175 1-0.0035 2-0.00531 3.03-0.00442 3.32-0.00148 6.64 0.00189 9.96-6.73e-4 2.3-0.00164 4.6-0.0029 6.9-0.00148 4.82 6.76e-4 9.65 0.00534 14.5 0.00569 6.19 0.00242 12.4-0.00357 18.6-0.00361 4.75-0.00247 9.5 1.28e-4 14.2 6.68e-4 2.28-1.56e-4 4.57-0.00248 6.85-0.00253 3.19 0.00132 6.38 0.0069 9.57-0.00202 0.949-0.00405 1.9-0.00613 2.88 0.00282 0.868 0.00564 1.74 0.00854 2.63 3.77e-4 0.754 7.54e-4 1.51 0.00114 2.29 0.0553 2.19 0.0553 2.19 1.13 4.97h2v2h2v2c5.52-0.118 11-0.242 16.6-0.372 1.88-0.0434 3.76-0.085 5.63-0.125 2.7-0.0576 5.39-0.121 8.09-0.186 0.843-0.0167 1.69-0.0334 2.55-0.0506 4.22 0.00188 4.22 0.00188 8.17-1.27 2-0.04 4-0.0435 6 0v-2c0.969-0.454 1.94-0.908 2.94-1.38 3.13-1.28 3.13-1.28 4.06-3.62h2v-2c1.33-1.33 2.67-2.67 4-4 0.495-1.48 0.495-1.48 1-3h2c0.103-0.536 0.206-1.07 0.312-1.62 0.868-3 2.24-5.61 3.69-8.38 1.49 0.99 1.49 0.99 3 2-0.454 0.99-0.908 1.98-1.38 3-1.34 3.13-2.25 6.23-3.03 9.55-0.794 3.25-1.69 6.47-2.6 9.7-0.495 1.77-0.495 1.77-1 3.58-1 3.17-1 3.17-3 7.17h-102v-2c0.736-0.133 1.47-0.266 2.23-0.402 1.46-0.265 1.46-0.265 2.96-0.535 1.44-0.261 1.44-0.261 2.92-0.527 2.64-0.488 5.27-1 7.89-1.54v-3h2c0.96-5.65 1.15-11.1 1.16-16.8 0.00496-0.964 0.00993-1.93 0.015-2.92 0.0145-3.17 0.0214-6.34 0.0269-9.51 0.00576-2.21 0.0115-4.43 0.0173-6.64 0.0105-4.63 0.0163-9.26 0.0198-13.9 0.00549-5.93 0.0295-11.9 0.058-17.8 0.0186-4.57 0.0238-9.14 0.0254-13.7 0.00302-2.18 0.011-4.37 0.0242-6.55 0.0171-3.06 0.0152-6.12 0.00869-9.17 0.00921-0.895 0.0184-1.79 0.0279-2.71-0.0419-6.33-0.69-12.6-5.38-17.3-4.47-2.3-9.07-2.59-14-3v-2z" fill="#000002"/>
<path transform="translate(628 1026)" d="m0 0c0.995-0.0245 1.99-0.049 3.01-0.0742 6.8-0.0268 11.7 1.19 17.7 4.45 0.66 0.33 1.32 0.66 2 1v2h2v2h2c2.99 9.37 3.15 18.6 3.21 28.4 0.028 2.38 0.0567 4.75 0.0859 7.13 0.0415 3.72 0.0784 7.44 0.104 11.2 0.0274 3.61 0.0733 7.22 0.122 10.8 0.00325 1.12 0.00651 2.24 0.00986 3.4 0.0248 1.55 0.0248 1.55 0.0502 3.13 0.00809 0.91 0.0162 1.82 0.0245 2.76 0.129 0.723 0.259 1.45 0.392 2.19 2.68 2.24 2.68 2.24 5 1.81 2.25-0.913 3.34-2.08 5-3.81h2v-2h2v5h-2v3h-2v2h-2v2h-2v2h-3v2c-4.52 2.26-8.05 2.24-13 2-0.99-0.33-1.98-0.66-3-1v-2h-2c-1.32-3.62-2-6.1-2-10h-3v2c-1.98 0.495-1.98 0.495-4 1v2c-5.29 4-5.29 4-9 4v2c-7.14 3.17-15.6 3.25-22.9 0.5-4.7-2.46-7.3-5.5-9.06-10.5-1.59-8.46-1.91-16.6 3-24h2v-2h2v-2h2v-2c4.38-3 4.38-3 7-3v-2h4v-2c1.07-0.422 2.14-0.843 3.25-1.28 1.4-0.553 2.79-1.11 4.19-1.66 1.06-0.417 1.06-0.417 2.14-0.842 3.47-1.18 3.47-1.18 6.42-3.22 1.67-0.0406 3.33-0.0427 5 0v-2c1.98-0.66 3.96-1.32 6-2 0.0543-2.23 0.0929-4.46 0.125-6.69 0.0232-1.24 0.0464-2.48 0.0703-3.76-0.187-3.4-0.832-5.49-2.2-8.55v-3c-2.33-1.21-4.5-2.17-7-3v-2h-13v2c-1.32 0.33-2.64 0.66-4 1v2h-2c-0.049 1.04-0.098 2.07-0.148 3.14-0.0751 1.37-0.151 2.74-0.227 4.11-0.0309 0.682-0.0619 1.36-0.0938 2.07-0.212 3.64-0.431 6.63-2.53 9.68-2.34 1.17-3.89 1.2-6.5 1.25-1.19 0.0387-1.19 0.0387-2.41 0.0781-0.691-0.108-1.38-0.217-2.09-0.328-2.3-3.45-2.27-4.87-2.25-8.94-0.00516-1.04-0.0103-2.08-0.0156-3.15 0.259-2.84 0.8-4.5 2.27-6.91h2v-2h2v-2c1.54-1.22 1.54-1.22 3.62-2.5 0.673-0.423 1.35-0.846 2.04-1.28 6.52-3.4 12.4-3.58 19.6-3.59zm7.06 39.9c-0.817 0.278-1.63 0.557-2.48 0.844-0.626 0.217-1.25 0.433-1.9 0.656v2c-1.06 0.153-1.06 0.153-2.14 0.309-3.27 0.791-5.75 2.1-8.68 3.75-0.976 0.548-1.95 1.1-2.96 1.66-0.736 0.422-1.47 0.843-2.23 1.28v2h-2c-2.43 3.37-3 4.73-3 9h-2c-0.457 6.4 0.512 10.6 4 16 0.66 0.66 1.32 1.32 2 2h3v2c4.66 0.838 8.37 1.02 13 0v-2c0.516-0.0825 1.03-0.165 1.56-0.25 3.52-1.08 6.3-2.8 9.44-4.75 1.53-3.07 1.12-6.27 1.1-9.63-0.00141-0.752-0.00283-1.5-0.00429-2.28-0.0056-2.4-0.0182-4.81-0.0309-7.21-0.00501-1.63-0.00958-3.26-0.0137-4.89-0.011-4-0.0283-7.99-0.0488-12-2.47 0-4.29 0.701-6.62 1.5z" fill="#000002"/>
<path transform="translate(437,1449)" d="m0 0v2c0.959 0.402 0.959 0.402 1.94 0.812 2.06 1.19 2.06 1.19 3.06 4.19h2v4h2v5h2c3.66 14.9 2.28 30 0 45h-2c0.0516 0.726 0.103 1.45 0.156 2.2-0.179 3.22-1.02 4.87-2.66 7.61-0.464 0.79-0.928 1.58-1.41 2.39-0.361 0.592-0.722 1.18-1.09 1.79h-2v2h-2v2c-6.79 3.63-13.5 5.3-21.1 3.5-4.67-1.56-7.7-3.63-10.9-7.5v-2h-2v36h-12v-111h10c1 1 1 1 1.06 4.06-0.0206 0.969-0.0412 1.94-0.0625 2.94h3c0.33-0.99 0.66-1.98 1-3h2v-2h2v-2c9.12-4.06 18.5-2.79 27 2zm-29 10c-1.97 2.85-1.97 2.85-3 6-0.346 0.887-0.691 1.77-1.05 2.69-1.1 3.82-1.29 7.4-1.32 11.4-0.00903 0.762-0.0181 1.52-0.0274 2.31-0.0145 1.61-0.0234 3.22-0.0271 4.83-0.0118 2.42-0.061 4.84-0.112 7.27-0.0993 9.49 0.0417 19.9 7.09 27.2 4.32 2.91 9.43 3.19 14.4 2.39 2.21-0.956 2.21-0.956 4-2v-2h2v-2h2c0.652-1.39 1.3-2.79 1.94-4.19 0.36-0.777 0.719-1.55 1.09-2.36 2.57-6.49 2.19-13.2 2.21-20.1 0.00965-2.02 0.0407-4.04 0.0723-6.06 0.0303-7.62-0.514-14.2-3.31-21.3h-2v-3h-2v-2h-2v-2h-4v-2c-6.7-0.598-10.9 0.5-16 5z" fill="#000002"/>
<path transform="translate(530 1445)" d="m0 0c0.677-0.00773 1.35-0.0155 2.05-0.0234 4.73 0.0181 8.57 0.814 13 2.27v2c0.557 0.0825 1.11 0.165 1.69 0.25 5.85 1.9 8.38 6.12 11.2 11.2 2.78 6.27 3.52 12.3 3.8 19 0.0383 0.876 0.0767 1.75 0.116 2.66 0.523 14.2 0.624 31.2-9.3 42.6-1.5 1.28-1.5 1.28-3.5 1.28v2c-10.5 4.84-21.9 5.57-33 2-1.35-0.639-2.68-1.3-4-2v-2c-0.99-0.33-1.98-0.66-3-1-1.39-1.49-1.39-1.49-2.69-3.31-0.437-0.594-0.874-1.19-1.32-1.8-0.988-1.89-0.988-1.89-0.988-5.89h-2c-3.34-10.6-3.35-21.9-3-33 0.0284-0.987 0.0567-1.97 0.0859-2.99 0.519-9.71 3.19-18.7 9.91-26 6.31-5.57 12.5-7.35 20.9-7.25zm-4.94 9.25v2c-0.784 0.0825-1.57 0.165-2.38 0.25-2.77 0.478-2.77 0.478-3.94 2.81-0.227 0.639-0.454 1.28-0.688 1.94h-2c-6.58 15.8-7.43 34.6-2 51 0.633 1.35 1.29 2.69 2 4h2v3h3v2h4v2h11v-2h4v-2c0.639-0.227 1.28-0.454 1.94-0.688 2.33-1.17 2.33-1.17 2.81-3.94 0.0825-0.784 0.165-1.57 0.25-2.38h2c1.75-4.6 2.44-8.92 2.69-13.8 0.0391-0.733 0.0781-1.47 0.118-2.22 0.236-5.38 0.17-10.7-0.118-16.1-0.0346-0.686-0.0691-1.37-0.105-2.08-0.304-4.54-1.21-8.49-2.58-12.8h-2c-0.0825-0.784-0.165-1.57-0.25-2.38-0.478-2.77-0.478-2.77-2.81-3.94-0.639-0.227-1.28-0.454-1.94-0.688v-2h-4v-2h-11z" fill="#000002"/>
<path transform="translate(992 1445)" d="m0 0c1.04-0.0116 1.04-0.0116 2.09-0.0234 4.36 0.0165 7.92 0.674 12 2.27v2h3v2h2c2.98 3.55 4.9 6.86 5.31 11.5-0.103 0.825-0.206 1.65-0.312 2.5h2c0.196 3.81 0.38 7.62 0.562 11.4 0.0841 1.63 0.0841 1.63 0.17 3.3 0.0483 1.03 0.0967 2.07 0.146 3.13 0.0471 0.958 0.0943 1.92 0.143 2.9-0.0217 2.22-0.0217 2.22-1.02 3.22-3.02 0.148-6.01 0.235-9.03 0.281-1.36 0.0276-1.36 0.0276-2.75 0.0558-3.89 0.079-7.79 0.147-11.7 0.215-2.84 0.0516-5.67 0.109-8.51 0.167-0.889 0.0136-1.78 0.0272-2.69 0.0411-3.99-0.314-3.99-0.314-7.34 1.24-0.233 1.68-0.413 3.37-0.562 5.06-0.0838 0.919-0.168 1.84-0.254 2.79-0.0606 0.71-0.121 1.42-0.184 2.15h2c0.0387 1.09 0.0387 1.09 0.0781 2.2 0.361 6.15 0.84 10.1 4.92 14.8 0.66 0.33 1.32 0.66 2 1v2c2.93 0.978 4.88 1.13 7.94 1.12 0.855 0.00258 1.71 0.00516 2.59 0.00781 2.35-0.126 4.28-0.278 6.47-1.13 0.495-1.48 0.495-1.48 1-3h2c1.57-5.03 2.45-9.76 3-15h11v11h-2v5h-2c-0.33 1.65-0.66 3.3-1 5h-2v2h-2v2c-9.82 4.43-18.8 5.62-29.1 1.75-0.63-0.249-1.26-0.498-1.91-0.754-0.99-0.33-1.98-0.66-3-1v-2h-2c-2.3-2.56-3-3.48-3-7h-2v-4h-2c-2.03-7.79-2.31-15.4-2.26-23.4 0.0107-2.05 4.63e-5 -4.09-0.0127-6.14-0.00667-7.35 0.412-14.3 2.27-21.4h2c0.217-1.14 0.217-1.14 0.438-2.31 0.562-2.69 0.562-2.69 1.56-5.69h2c0.268-0.598 0.536-1.2 0.812-1.81 1.19-2.19 2.28-3.6 4.19-5.19h2v-2c4.3-2.11 8.24-2.3 12.9-2.25zm-4.94 9.25v2c-1.65 0.33-3.3 0.66-5 1v2h-2c-2.97 4.78-3.46 8.92-3.79 14.5-0.211 2.49-0.211 2.49-1.21 5.49 2.87 1.44 5.34 1.11 8.54 1.1 1.3-0.00322 2.6-0.00645 3.95-0.00977 1.38-0.00836 2.76-0.0168 4.14-0.0254 1.39-0.00501 2.78-0.00958 4.16-0.0137 3.4-0.0118 6.81-0.0283 10.2-0.0488 1.47-2.94 0.849-5.37 0.562-8.62-0.102-1.19-0.204-2.38-0.309-3.6-0.126-1.37-0.126-1.37-0.254-2.77h-2c-0.144-0.784-0.289-1.57-0.438-2.38-0.44-2.59-0.44-2.59-1.56-4.62h-2v-2c-3.06-1.78-5.22-2.23-8.75-2.12-1.2 0.0271-1.2 0.0271-2.42 0.0547-0.905 0.0348-0.905 0.0348-1.83 0.0703z" fill="#000002"/>
<path transform="translate(1119,1447)" d="m0 0v2h2v2c0.99 0.33 1.98 0.66 3 1 3.3 4.95 3.13 11.1 3.13 16.8 0.00175 0.653 0.0035 1.31 0.00531 1.98 0.00437 2.14 0.0015 4.28-0.00189 6.41 6.74e-4 1.49 0.00164 2.98 0.0029 4.47 0.00147 3.11-6.56e-4 6.23-0.00534 9.34-0.00572 4-0.0024 8 0.00357 12 0.0036 3.07 0.00247 6.15-1.28e-4 9.22-6.69e-4 1.48 1.57e-4 2.95 0.00248 4.43 0.00253 2.05-0.00131 4.11-0.0069 6.16-7.96e-4 1.17-0.00159 2.34-0.00241 3.55-0.127 2.62-0.127 2.62-1.13 3.62-1.66 0.0982-3.33 0.13-5 0.125-1.36 0.00387-1.36 0.00387-2.75 0.00781-2.25-0.133-2.25-0.133-3.25-1.13-0.113-2-0.157-4-0.174-6-0.0135-1.29-0.027-2.57-0.0409-3.89-0.00506-0.691-0.0101-1.38-0.0153-2.1-0.0164-2.16-0.0396-4.32-0.0649-6.48-0.0708-6.14-0.131-12.3-0.182-18.4-0.0319-3.76-0.0732-7.51-0.12-11.3-0.016-1.43-0.0283-2.86-0.0369-4.29-0.0122-2.01-0.0374-4.01-0.0631-6.02-0.0103-1.14-0.0206-2.28-0.0312-3.46-0.275-3.1-0.855-5.3-2.27-8.06-0.66-0.33-1.32-0.66-2-1v-2c-4.29-0.66-8.58-1.32-13-2v2h-5v2c-1.32 0.33-2.64 0.66-4 1v2h-2c-1.62 4.29-2.26 7.89-2.32 12.5-0.0199 1.26-0.0397 2.52-0.0602 3.82-0.0119 1.36-0.0235 2.72-0.035 4.08-0.0187 1.4-0.0383 2.81-0.0587 4.21-0.0512 3.68-0.0909 7.36-0.128 11-0.0401 3.76-0.0912 7.52-0.141 11.3-0.0966 7.37-0.18 14.7-0.258 22.1h-12v-83h12v8c0.784-0.66 1.57-1.32 2.38-2 2.62-2 2.62-2 4.62-2v-2c9.04-5.36 19.2-5.71 29-2z" fill="#000002"/>
<path transform="translate(754,1447)" d="m0 0h12v70h2c0.33 1.32 0.66 2.64 1 4h3v2c1.73-0.142 3.46-0.289 5.19-0.438 0.963-0.0812 1.93-0.162 2.92-0.246 2.68-0.293 5.26-0.743 7.89-1.32v-2c1.48-1.16 2.96-2.31 4.49-3.39 3.55-3.79 3.76-8.93 3.83-13.9 0.0199-1.22 0.0397-2.44 0.0602-3.7 0.0116-1.3 0.0231-2.61 0.035-3.95 0.0187-1.36 0.0383-2.72 0.0587-4.08 0.0511-3.56 0.0909-7.12 0.128-10.7 0.0402-3.64 0.0912-7.28 0.141-10.9 0.0965-7.13 0.18-14.3 0.258-21.4h12v83h-12v-9c-0.784 0.825-1.57 1.65-2.38 2.5-2.62 2.5-2.62 2.5-4.62 2.5v2c-7.26 3.88-14.4 5.29-22.5 3.43-4.81-1.5-7.78-2.87-10.7-7.13-3.82-7.51-3.35-15.3-3.24-23.5 0.00747-1.56 0.0132-3.11 0.0172-4.67 0.0152-4.07 0.0544-8.14 0.0988-12.2 0.0411-4.16 0.0592-8.33 0.0793-12.5 0.0427-8.15 0.111-16.3 0.195-24.4z" fill="#000002"/>
<path transform="translate(279,1447)" d="m0 0h12c0.0103 0.858 0.0206 1.72 0.0312 2.6 0.0979 8.08 0.2 16.2 0.308 24.2 0.0552 4.15 0.109 8.31 0.158 12.5 0.0477 4.01 0.1 8.01 0.156 12 0.0204 1.53 0.0391 3.06 0.0561 4.59 0.0241 2.14 0.0541 4.28 0.0856 6.42 0.0155 1.22 0.0311 2.44 0.0471 3.69 0.0289 3.03 0.0289 3.03 1.16 5.98h2v2h2v2h12v-2h4v-2c1.98-0.495 1.98-0.495 4-1v-2h2c0.33-1.98 0.66-3.96 1-6h2v-63h12v83h-12c-0.495-4.45-0.495-4.45-1-9-0.619 0.825-1.24 1.65-1.88 2.5-0.701 0.825-1.4 1.65-2.12 2.5h-2v2c-7.03 3.76-14.4 5.55-22.3 3.36-2.64-0.984-5.19-2.1-7.71-3.36v-2h-2c-4.12-12.4-4.12-12.4-4.11-18.5-1.46e-4 -0.654-2.92e-4 -1.31-4.43e-4 -1.98 6.96e-4 -2.16 0.00847-4.32 0.0163-6.48 0.00187-1.5 0.00329-3 0.00429-4.49 0.00382-3.94 0.0136-7.88 0.0247-11.8 0.0102-4.02 0.0148-8.04 0.0198-12.1 0.0107-7.89 0.0278-15.8 0.0488-23.7z" fill="#000002"/>
<path transform="translate(856,1447)" d="m0 0h13c0.277 1.22 0.554 2.43 0.84 3.68 0.366 1.58 0.732 3.17 1.1 4.75 0.182 0.802 0.365 1.6 0.553 2.43 0.606 3.88 0.606 3.88 2.51 7.13 0.0409 2.33 0.0424 4.67 0 7h2c0.627 2.48 1.25 4.96 1.88 7.44 0.185 0.734 0.37 1.47 0.56 2.22 0.943 3.77 1.84 7.53 2.63 11.3 0.728 3.4 1.86 6.46 3.15 9.68 1.4 4.12 2.18 8.4 3.04 12.7 0.246 0.878 0.492 1.76 0.746 2.66 0.99 0.495 0.99 0.495 2 1 0.182-1.03 0.182-1.03 0.367-2.09 1.07-6.01 2.27-12 3.63-17.9h2v-7h2c-0.0412-0.846-0.0825-1.69-0.125-2.56 0.11-3.03 0.579-5.42 1.48-8.29 1.4-4.66 2.48-9.42 3.64-14.1h2c-0.0619-0.99-0.124-1.98-0.188-3-0.0151-3.74 0.97-6.6 2.43-10 0.985-2.44 0.985-2.44 1.75-6.99h12c0 4.47-0.416 6.27-2.2 10.1-1.3 3.02-2.05 6.17-2.86 9.35-1.25 4.86-2.54 9.69-3.94 14.5h-2c0.0619 0.66 0.124 1.32 0.188 2-0.204 3.26-1.18 5.79-2.39 8.8-1.32 3.64-2.05 7.41-2.8 11.2h-2c0.0619 0.66 0.124 1.32 0.188 2-0.198 3.17-1.08 5.61-2.26 8.54-1.58 4.19-2.79 8.51-4.06 12.8-0.867 2.66-0.867 2.66-1.87 3.66-2.19 0.0726-4.38 0.0837-6.56 0.0625-1.2-0.00902-2.4-0.018-3.63-0.0273-1.39-0.0174-1.39-0.0174-2.81-0.0352-4.59-10.4-4.59-10.4-4-16h-2c-0.268-1.13-0.536-2.27-0.812-3.44-0.778-3.16-1.73-6.19-2.81-9.25-1.11-3.22-1.71-5.87-1.38-9.31h-2c-1.76-6.06-3.34-12.2-4.9-18.3-1.02-3.73-1.02-3.73-2.59-7.16-1.67-3.95-2.72-7.83-3.7-12-0.177-0.732-0.354-1.46-0.537-2.22-0.431-1.78-0.854-3.56-1.28-5.35z" fill="#000002"/>
<path transform="translate(687,1447)" d="m0 0h11c0.116 12.9 0.205 25.8 0.259 38.7 0.0261 5.99 0.0614 12 0.118 18 0.0544 5.78 0.0842 11.6 0.0972 17.4 0.00922 2.2 0.0272 4.41 0.0543 6.61 0.0364 3.09 0.0413 6.18 0.039 9.28 0.018 0.906 0.036 1.81 0.0545 2.75-0.0496 6.15-1.41 10.7-5.62 15.3-5.15 3.12-10.1 3.32-16 3v-10c4.46-0.99 4.46-0.99 9-2 0.33-32.7 0.66-65.3 1-99z" fill="#000002"/>
<path transform="translate(1251,1418)" d="m0 0h10v112h-10c-1.57-1.57-1.13-3.11-1.13-5.29-0.00282-0.925-0.00564-1.85-0.00854-2.8 0.00304-1.54 0.00304-1.54 0.00613-3.1-0.00175-1.07-0.0035-2.14-0.00531-3.25-0.00442-3.56-0.00148-7.12 0.00189-10.7-6.73e-4 -2.46-0.00164-4.92-0.0029-7.39-0.00148-5.17 6.79e-4 -10.3 0.00534-15.5 0.0057-6.64 0.00242-13.3-0.00357-19.9-0.0036-5.09-0.00247-10.2 1.28e-4 -15.3 6.7e-4 -2.45-1.6e-4 -4.9-0.00248-7.35-0.00253-3.42 0.00131-6.83 0.0069-10.3-0.00202-1.02-0.00405-2.05-0.00613-3.1 0.00282-0.925 0.00564-1.85 0.00854-2.8 3.77e-4 -0.809 7.54e-4 -1.62 0.00114-2.45 0.126-1.84 0.126-1.84 1.13-2.84z" fill="#000002"/>
<path transform="translate(196,1447)" d="m0 0h11c0.33 3.63 0.66 7.26 1 11 0.33-0.66 0.66-1.32 1-2h2c0.268-0.639 0.536-1.28 0.812-1.94 1.19-2.06 1.19-2.06 4.19-3.06v-2h3v-2h13v10c-1.49 0.186-1.49 0.186-3 0.375-5.13 0.73-10.1 1.99-15 3.62v2h-2v2h-2c-1.97 7.45-2.34 14.4-2.41 22.1-0.0194 1.23-0.0387 2.46-0.0587 3.73-0.0594 3.9-0.106 7.8-0.152 11.7-0.0372 2.66-0.0773 5.31-0.117 7.97-0.0957 6.49-0.18 13-0.258 19.5h-11v-83z" fill="#000002"/>
<path transform="translate(1182,1447)" d="m0 0h12v83h-12v-83z" fill="#000002"/>
<path transform="translate(690 1418)" d="m0 0c2.83 0.0326 5.66 0.0651 8.5 0.0977v14h-11v-8c-3.96-0.33-7.92-0.66-12-1v-3c0.782-0.0606 1.56-0.121 2.37-0.184 1.01-0.0838 2.02-0.168 3.07-0.254 1.01-0.0812 2.02-0.162 3.06-0.246 2.87-0.362 3.12-1.3 6.01-1.41z" fill="#000002"/>
<path transform="translate(1182,1418)" d="m0 0h12v14h-12v-14z" fill="#000002"/>
</svg>
