<svg xmlns="http://www.w3.org/2000/svg" width="1280" height="1280" viewBox="0 0 1360 1600"><path fill="#000002" d="M348 212c2.04.285 4.08.578 6.12.875 1.14.162 2.27.325 3.45.492 3.29.607 6.29 1.5 9.43 2.63.043 1.67.04 3.33 0 5l-1 1-.375 3c-.374 2.88-1.04 5.45-2 8.19-2.69 7.73-4.7 15.7-5.62 23.8h-2l.188 2.94c0 3.86-1.02 6.93-2.32 10.5-2.03 5.93-3.54 12.1-4.36 18.3-.726 4.72-2.36 8.97-4.5 13.2h-3v2h-6v2l-2.82.77c-7.77 2.07-7.77 2.07-15.2 4.98-2.99 1.27-4.75 1.36-7.94 1.25-.026 7.15-.043 14.3-.055 21.4-.005 2.42-.012 4.84-.02 7.26-.055 15.5.203 30.9 1.08 46.3l1.77.087 4.82.238c1.69.083 3.39.164 5.08.243l2.2.115 2.25.111c1.88.205 1.88.205 3.88 1.21l3.88.375c8.49.876 16.3 3.17 24.1 6.62a225.8 225.8 0 0 0 5 1.5c4.18 1.21 8.05 2.7 12 4.5v2h4v2l1.73.371c2.37.657 4.34 1.57 6.52 2.69l2.14 1.1 1.61.84v2h3v2c.804.371.804.371 1.62.75 5.58 2.94 11 6.69 15.4 11.2v2h2v2h2c1.51 1.46 1.51 1.46 3.12 3.38.539.626 1.08 1.25 1.63 1.9 1.24 1.73 1.24 1.73 1.24 3.73h2c1.24 1.51 1.24 1.51 2.6 3.61.49.753.98 1.51 1.48 2.28.508.797 1.02 1.59 1.54 2.42l1.56 2.38c3.81 5.93 3.81 5.93 3.81 9.31h2v4h2l.77 2.38c2.21 6.86 2.21 6.86 4.98 13.5 1.32 3.29 1.51 5.62 1.25 9.12h2c2.32 13 3.44 25.5 3.28 38.8-.032 2.74-.042 5.47-.047 8.21-.01 1.76-.02 3.52-.032 5.28l-.012 2.45c-.05 3.89-.241 7.5-1.19 11.3h-6v-2l-2.19.121c-3.06-.132-5.02-.833-7.81-2.06-3.34-1.45-6.41-2.45-10-3.06v-2h-5v-2l-2.69-.25c-5.94-.823-11.6-2.91-17.3-4.75v-2l-2.06.188c-3-.192-5.02-1.01-7.72-2.27-3.87-1.61-7.92-2.69-11.9-3.86-3.28-1.06-3.28-1.06-6.62-2.5-4.15-1.78-8.36-3.18-12.7-4.56-4.18-1.35-8.29-2.69-12.3-4.44-6.06-2.57-12.3-4.48-18.6-6.51-5.72-1.88-11.3-3.88-16.8-6.33-4.13-1.3-8.1-.527-12.3.286l-3.12.562c-.62.144-1.24.29-1.88.438v2h-5v2c-2.06.65-4.12 1.29-6.19 1.94l-3.48 1.09c-2.78.81-5.49 1.46-8.33 1.97v2l-1.84.516c-6.94 2.01-13.9 4.23-20.3 7.6-2.38 1.12-4.28 1.03-6.88.887v2l-2.59.84c-1.1.362-2.21.724-3.35 1.1-1.1.36-2.2.72-3.34 1.09-2.6.711-2.6.711-3.72 1.97-1.67.04-3.33.043-5 0v2c-2.25.841-4.5 1.67-6.75 2.5-.634.238-1.27.477-1.92.723-3.36 1.23-5.7 1.78-9.33 1.78v2c-3.37 1.5-5.2 2-9 2v2l-2.46.7c-6.42 1.89-12.4 4.05-18.4 6.93-4.75 2.08-9.64 3.73-14.5 5.4-3.56.993-3.56.993-6.57 2.97-1.67.04-3.33.042-5 0v2l-8 3 1 4h2v2h2c3 3.46 3 3.46 3 6h2c2.06 3.09 2.26 3.77 2.3 7.27l.05 2.67.025 2.95.051 3.16c.054 3.55.094 7.09.133 10.6a7744.377 7744.377 0 0 1 .351 27.01c.07 6.03.146 12.1.223 18.1.135 10.6.265 21.1.391 31.7l.068 5.67c.31 25.6.47 51.2.403 76.9l9-1v-2l2.41-.587c6.57-1.6 6.57-1.6 13-3.6 2.66-.845 4.79-.976 7.56-.812v-2h6v-2l2.41-.586c6.57-1.6 6.57-1.6 13-3.6 2.66-.845 4.79-.976 7.56-.812v-2c1.14-.273 1.14-.273 2.31-.55 6.35-1.55 12.5-3.3 18.7-5.45 8.56-2.92 17.1-5.66 25.8-8.09 2.78-.804 5.5-1.7 8.23-2.66 3.08-1.06 5.64-1.57 8.94-1.25v-2h6v-2l1.65-.333c4.08-.857 7.94-1.84 11.8-3.29 4.63-1.62 8.62-1.61 13.5-1.38v2l2.54.324c3.8.743 7.21 2.01 10.8 3.49.657.268 1.31.535 1.99.811 4.33 1.78 8.62 3.63 12.9 5.61 1.92.798 3.81 1.31 5.83 1.76v2h5v2l2.31.25c5.1 1.04 9.83 2.89 14.7 4.75v2h5v2l2.12.38c3.05.658 5.92 1.56 8.88 2.56 1.01.338 2.02.677 3.06 1.03 2.68.943 5.31 1.96 7.94 3.04v-2h2v-2c1.38-1.62 1.38-1.62 3-3h2v-2h2v-2h2v-2c1.38-1.62 1.38-1.62 3-3h2v-2h2v-2c2.37-2.62 2.37-2.62 5-5h2v-2h2v-2c2.38-2.62 2.38-2.62 5-5h2v-2h2v-2c2.38-2.62 2.38-2.62 5-5h2v-2h2v-2c2.39.575 4.67 1.22 7 2v2l1.94.25c4.27 1.05 8.09 2.89 12.1 4.75v2h4v2l1.94.25c4.27 1.05 8.09 2.89 12.1 4.75v2h4v2l1.67.37c2.62.71 5.06 1.67 7.58 2.69.892.362 1.78.724 2.7 1.1l2.05.84v2h4v2l1.67.371c2.62.71 5.06 1.67 7.58 2.69.892.362 1.78.724 2.7 1.1l2.05.84v2h4v2l1.74.385c2.28.621 4.24 1.45 6.37 2.46.754.358 1.51.715 2.29 1.08l2.36 1.13c.793.377 1.59.754 2.4 1.14 1.95.928 3.9 1.86 5.85 2.79v2c.722.124 1.44.248 2.19.375 2.77.615 5.21 1.51 7.81 2.62v2l1.74.385c2.28.621 4.24 1.45 6.37 2.46.754.358 1.51.715 2.29 1.08l2.36 1.13c.793.377 1.59.754 2.4 1.14 1.95.928 3.9 1.86 5.85 2.79v2c.684.102 1.37.204 2.07.31 3.51.828 6.48 2.21 9.74 3.75 1.16.547 2.32 1.1 3.52 1.66.88.421 1.76.842 2.67 1.28v2l1.94.25c4.27 1.05 8.09 2.89 12.1 4.75v2h4v2h4v2l2.19.374c2.77.615 5.21 1.51 7.81 2.62v2h4v2l1.67.371c2.62.71 5.06 1.67 7.58 2.69.892.362 1.78.724 2.7 1.1l2.05.84v2h4v2l1.69.344c3.54 1 6.63 2.8 9.88 4.5 2.17 1.03 4.1 1.68 6.44 2.16v2l1.69.312c2.75.818 4.86 2.21 7.31 3.69 2.19.696 2.19.696 4 1v2l2.21.344c2.87.675 4.83 1.65 7.35 3.16 2.82 1.68 5.21 2.86 8.44 3.5v2l4 1 8 4c.33 107 .66 213 1 323l11-2c2.16-.228 4.33-.425 6.5-.562 3.14-.202 5.51-.439 8.5-1.44 2.21-.083 4.42-.107 6.64-.098l3.94.01 4.12.026a4075.97 4075.97 0 0 1 14.35.063c-.108-17.7-.22-35.4-.339-53.1-.055-8.22-.108-16.4-.158-24.7-.043-7.18-.09-14.4-.14-21.5-.026-3.79-.05-7.57-.072-11.4-.024-4.26-.052-8.53-.085-12.8l-.016-2.04c-.087-10.2-.38-20.5-.905-30.7-.816-16.7 4.46-29.5 12.7-43.9h2l1-3h2v-2h2v-2h2v-2h2l1-3h2v-2c3-2 3-2 6-2v-2c13.5-7.96 25.9-11.4 41.6-11.2.972-.009 1.94-.016 2.95-.024 8.31.022 15.6 1.47 23.4 4.27v2l1.56.25c4.56 1.4 8.49 4.12 12.4 6.75v2h2v2h2c1.62 1.38 1.62 1.38 3 3v2h2v3h2v3h2c1.18 2.22 2.34 4.45 3.5 6.69.334.626.668 1.25 1.01 1.9 1.86 3.62 2.93 6.33 2.49 10.4h2c4.02 13.9 3.43 28.2 3.33 42.6-.014 2.18-.022 4.36-.028 6.54-.074 26.1-.6 52.1-1.24 78.2l-.065 2.69c-.484 19.7-1.03 39.3-2 59-1.73.027-3.45.046-5.18.062l-2.91.035c-4.17-.14-7.88-1.04-11.9-2.1-.025-4.98-.043-9.96-.055-14.9-.005-1.69-.012-3.38-.02-5.07-.013-2.44-.019-4.89-.023-7.33l-.016-2.26v-2.18l-.007-1.88c.105-2.03.35-4.06.616-6.08.538-4.15.67-8.27.694-12.5l.025-2.35c.018-1.67.033-3.34.046-5.02.021-2.65.048-5.31.077-7.96.06-5.63.112-11.3.163-16.9.06-6.53.122-13.1.192-19.6.026-2.6.047-5.2.068-7.8l.05-4.83.013-2.16c.054-4.42.402-8.73.952-13.1.36-3.3.355-6.59.358-9.9l.003-2.11c0-1.45 0-2.9-.005-4.35-.006-2.23 0-4.45.006-6.68 0-1.41-.002-2.83-.004-4.24l-.003-3.87c.203-2.8.203-2.8-1.13-3.91-.16-1.33-.278-2.66-.375-4-.638-6.27-2.5-11.8-5.31-17.4-1.31-2.62-1.31-2.62-1.31-5.62h-2c-1.29-1.46-1.29-1.46-2.62-3.38-.67-.94-.67-.94-1.35-1.9-1.02-1.73-1.02-1.73-1.02-3.73h-2v-2l-2.06-.75c-2.83-1.2-5.38-2.64-8-4.25-6.07-3.13-11.7-3.42-18.4-3.44l-2.95-.01c-8.43.14-14.8 2.02-22.6 5.45-1.32.37-2.65.72-4 1v2h-3v2l-4 1v2h-2v2h-2v2h-2l-.812 1.71c-1.69 3.27-3.74 6.29-5.75 9.37-3.37 6.85-3.73 14.1-3.65 21.6l.005 2.78c.008 3.02.03 6.04.053 9.05a5020.749 5020.749 0 0 0 .127 23.23c.025 3.21.047 6.43.068 9.64.084 12.3.198 24.6.33 36.8.045 4.14.086 8.29.125 12.4.212 22.5.455 44.9 1.5 67.4l14 4v2h5v2h4v2l2.38.939c2.63 1.06 2.63 1.06 4.62 2.06v2h2v2l1.94.812c2.06 1.19 2.06 1.19 3.06 4.19h2c4.83 8.14 7.11 15.1 7.75 24.5.17 2.59.17 2.59 1.25 5.45.094 1.76.13 3.53.131 5.3l.012 3.33-.001 3.66.016 5.85c.005 2.1.008 4.2.01 6.29.006 4.38.023 8.76.042 13.1l.019 4.5.01 2.28c.041 10.2.074 20.4.087 30.6.008 6.88.03 13.8.07 20.6.019 3.64.031 7.27.026 10.9-.005 4.07.02 8.13.048 12.2l-.02 3.61c.08 7.3.796 14.3 4.55 20.7 2.03 1.32 2.03 1.32 4 2v2c7.04-.72 7.04-.72 14-2v-2h3v-2h3v-2c3.46-3 3.46-3 6-3v-2l5-2v-2l3-1c.86 12.9.86 12.9-2.38 16.8-2.62 2.19-2.62 2.19-4.62 2.19v2h-2v2c-2.38 2.63-2.38 2.63-5 5h-2v2c-4.38 3-4.38 3-7 3v2c-3 2-3 2-6 2v2h-3v2c-2.66.98-5.33 1.95-8 2.91-1.77.644-3.53 1.31-5.27 2.02-8.56 3.33-18.1 3.26-26.7.066v-2l-5-1v-2c-.598-.248-1.2-.495-1.81-.75-2.52-1.44-3.69-2.78-5.19-5.25v-3h-2l-.438-3.44c-.174-3.37-.174-3.37-1.56-4.56a130.68 130.68 0 0 1-.063-6.06l.028-3.35.035-2.59-3.25 1.94c-2.56 1.47-4.8 2.59-7.75 3.06v2c-2.26 1.64-4.51 3.15-6.88 4.62-.651.42-1.3.84-1.97 1.27-4.88 3.1-4.88 3.1-7.15 3.1v2c-2.62 1.43-5.24 2.86-7.87 4.28-1.97 1.08-3.94 2.19-5.89 3.31-8.99 5.14-17.9 8.43-28.2 9.41l-1 1c-1.62.1-3.25.131-4.88.133l-2.98.004-3.14-.012-3.14.012-2.98-.004-2.76-.003c-2.12-.13-2.12-.13-3.12-1.13l-3.31-.25c-7.34-.81-14.2-4.42-20.7-7.75v-2h-3v-2l-1.69-.688c-2.97-1.69-5.03-3.78-7.31-6.31v-2h-2v-2h-2v-3h-2c-6.11-13.9-10.5-30.1-5-45 2.14-4.77 4.55-9.39 7-14h2l.688-2.12c1.66-3.64 3.54-5.97 6.31-8.88h3v-2c3.46-3 3.46-3 6-3v-2l6-2v-2c1.25-.651 2.5-1.3 3.75-1.94 1.04-.54 1.04-.54 2.11-1.09 2.04-.928 3.95-1.5 6.14-1.97v-2h4v-2c2.39-.985 4.79-1.96 7.19-2.94l2.04-.842c3.57-1.45 6.94-2.63 10.8-3.22v-2h5v-2l2.59-.84c1.1-.362 2.21-.724 3.35-1.1 1.1-.36 2.2-.72 3.34-1.09 2.6-.711 2.6-.711 3.72-1.97 1.67-.04 3.33-.043 5 0v-2c2.21-.65 4.42-1.29 6.62-1.94 1.23-.36 2.46-.72 3.73-1.09 3.22-.858 6.36-1.49 9.65-1.97v-2c8.01-2.5 16-4.89 24.1-7.17 1.98-.568 3.95-1.18 5.9-1.83.962-21.1.962-21.1-5-40-.04-1.67-.043-3.33 0-5h-2v-4h-2c-1.69-1.98-3.35-3.98-5-6l-2-1v-2h-2v-2l-1.56-.312c-2.44-.688-2.44-.688-5.62-2.12-9.97-4.25-20.2-4.04-30.8-3.56l-1 1c-2.67.14-5.32.042-8 0v2c-.908.268-1.82.536-2.75.812-2.98 1.09-4.79 2.26-7.25 4.19h-2v2h-2v2h-2v2h-2l-.438 1.81c-.45 1.75-.991 3.47-1.56 5.19-.127 2.07-.202 4.14-.246 6.21l-.1 3.72c-.06 2.58-.118 5.16-.172 7.74l-.104 3.73-.076 3.4c-.315 3.33-1.13 6.08-2.3 9.2h-2v2c-2.56 2.3-3.48 3-7 3v2c-7.71 2.68-15.3 3.23-23 0v-2l-1.69-.125c-4.42-1.67-6.77-6.06-9.31-9.88-1.93-11.2-.59-21.3 5.47-30.9.505-.706 1.01-1.41 1.53-2.14h2v-3h2v-2c6.21-6.07 13.7-10.4 21-15l2.68-1.77c2.32-1.23 2.32-1.23 6.32-1.23v-2l2-1-12-1v-311h-2v-2h-4v-2l-1.67-.371c-2.62-.71-5.06-1.67-7.58-2.69-.892-.362-1.78-.724-2.7-1.1l-2.05-.84v-2h-4v-2l-1.69-.344c-3.54-1-6.63-2.8-9.88-4.5-2.17-1.03-4.1-1.68-6.44-2.16v-2l-1.74-.385c-2.28-.621-4.24-1.45-6.37-2.46-.754-.358-1.51-.715-2.29-1.08-.777-.373-1.55-.746-2.36-1.13-.793-.377-1.59-.754-2.4-1.14-1.95-.928-3.9-1.86-5.85-2.79v-2c-1.08-.186-1.08-.186-2.19-.375-2.77-.615-5.21-1.51-7.81-2.62v-2l-2.02-.246c-3.96-1-7.18-2.84-10.7-4.82-8.59-4.67-17.4-8.86-26.2-12.9v-2h-4v-2c-.722-.124-1.44-.248-2.19-.375-2.77-.615-5.21-1.51-7.81-2.62v-2h-4v-2h-4v-2c-.722-.124-1.44-.248-2.19-.375-2.77-.615-5.21-1.51-7.81-2.62v-2h-4v-2c-.557-.113-1.11-.227-1.69-.344-3.54-1-6.63-2.8-9.88-4.5-2.17-1.03-4.1-1.68-6.44-2.16v-2c-.557-.113-1.11-.227-1.69-.344-3.54-1-6.63-2.8-9.88-4.5-2.17-1.03-4.1-1.68-6.44-2.16v-2l-2.56-.812c-3.58-1.24-6.98-2.66-10.4-4.19v-2l-2.21-.344c-2.87-.675-4.83-1.65-7.35-3.16-2.82-1.68-5.21-2.86-8.44-3.5v-2l-1.74-.385c-2.28-.621-4.24-1.45-6.37-2.46-.754-.358-1.51-.715-2.29-1.08l-2.36-1.13c-.793-.377-1.59-.754-2.4-1.14-1.95-.928-3.9-1.86-5.85-2.79v-2h-6l-.812 1.81c-1.19 2.19-2.28 3.6-4.19 5.19h-2v2h-2v2h-2l-.812 1.94c-1.19 2.06-1.19 2.06-4.19 3.06v2h-2v2h-2l-.812 1.94c-1.19 2.06-1.19 2.06-4.19 3.06v2h-2v2h-2l-.812 1.94c-1.19 2.06-1.19 2.06-4.19 3.06v2h-2v2h-2l-1 3h-2v2h-2v2h-2v2h-2l-1 3h-2v2h-2v2h-2v2h-2l-1 3h-2v2h-2v2h-2v2h-2v2c-1.38 1.62-1.38 1.62-3 3h-2v2h-2v2h-2v2c-1.38 1.62-1.38 1.62-3 3h-2v2h-2v2h-2v2c-1.38 1.62-1.38 1.62-3 3h-2v2h-2v2h-2v2c-1.38 1.62-1.38 1.62-3 3h-2v2h-2v2h-2v2c-1.38 1.62-1.38 1.62-3 3h-2v2h-2v2c-2.37 2.62-2.37 2.62-5 5h-2v2h-2v2c-2.37 2.62-2.37 2.62-5 5h-2v2h-2v2c-1.61 1.59-1.61 1.59-3.75 3.38-2.32 1.96-4.5 3.88-6.62 6.06-1.62 1.56-1.62 1.56-3.62 1.56l-.812 1.81c-1.19 2.19-2.28 3.6-4.19 5.19h-2v2h-2v2h-2l-.812 1.94c-1.19 2.06-1.19 2.06-4.19 3.06v2h-2v2h-2l-1 3h-2v2h-2v2h-2v2h-2l-1 3h-2v2h-2v2h-2v2h-2v2c-1.37 1.62-1.37 1.62-3 3h-2v2h-2v2c-2.37 2.62-2.37 2.62-5 5h-2v2h-2v2c-2.37 2.62-2.37 2.62-5 5h-2v2h-2l.003 2.3c.022 18.6.039 37.3.05 55.9.004 9.01.011 18 .023 27 .01 7.87.016 15.7.018 23.6.002 4.15.004 8.3.012 12.5.027 15.5-.018 31-.592 46.5-.831 23-.744 45.9-.817 68.9-.02 5.96-.044 11.9-.068 17.9-.047 11.8-.09 23.6-.131 35.4-.04 11.4-.081 22.8-.125 34.3l-.008 2.17-.072 18.7c-.103 26.6-.197 53.3-.292 79.9h119l-.016-28.1a328560.079 328560.079 0 0 1-.04-102.6v-2.77c-.005-14.8-.012-29.7-.022-44.5-.009-15.2-.015-30.4-.017-45.6 0-9.39-.005-18.8-.013-28.2-.006-6.43-.007-12.9-.006-19.3 0-3.71 0-7.43-.006-11.1-.005-4.02-.003-8.04 0-12.1l-.01-3.59.007-3.24-.002-2.81c.124-2.21.124-2.21 1.12-4.21.207-2.5.373-4.99.5-7.5.365-7.23.365-7.23 1.5-9.5.346-1.79.652-3.58.938-5.38l.523-3.23c.361-2.27.72-4.55 1.08-6.82l.523-3.26.473-3.01c.465-2.3.465-2.3 1.46-3.3.368-2.33.702-4.66 1-7h2v-5h2l-.219-2.01c.3-4.1 1.91-7.15 3.72-10.8l1.01-2.1c.821-1.7 1.65-3.39 2.49-5.09h2l.25-1.56c1.07-3.48 2.89-6.31 4.75-9.44h2v-3h2v-2h2l.812-1.94c1.19-2.06 1.19-2.06 4.19-3.06v-2h2v-2h2v-2c1.43-1.29 1.43-1.29 3.31-2.62l1.86-1.35c1.82-1.02 1.82-1.02 4.82-1.02v-2c18-9.33 34.8-13.4 55-13.2 2.26.018 4.53.02 6.79.02 11 .038 11 .038 12.2 1.19.168 1.97.168 1.97.188 4.5l.043 2.47c-.313 4.12-1.26 8.03-2.23 12l-2.68.028c-21.5-.015-21.5-.015-42.6 4.13-2.77.84-2.77.84-6.77.84v2h-4v2l-1.61.77c-3.75 1.83-7.07 3.68-10.4 6.23h-2v2h-2v2c-2.37 2.62-2.37 2.62-5 5h-2v3h-2v3h-2l-.812 2.06a476 476 0 0 1-4.19 9.94h-2l-.344 2.04c-.932 4.2-2.4 8.21-3.84 12.3-1.46 4.23-2.23 8.28-2.82 12.7l-1 1c-4.26 16.4-5.15 33.8-5.15 50.7l-.012 3.99c-.012 3.62-.018 7.23-.022 10.9-.006 3.92-.018 7.83-.029 11.7-.018 6.77-.033 13.5-.045 20.3-.019 9.79-.043 19.6-.07 29.4-.043 15.9-.082 31.8-.118 47.7l-.006 2.88-.06 26-.038 17.4-.007 2.88c-.036 15.8-.076 31.7-.119 47.5-.026 9.77-.049 19.5-.067 29.3-.012 6.68-.028 13.4-.047 20.1-.011 3.86-.02 7.72-.025 11.6-.005 4.17-.018 8.35-.032 12.5v3.74l-.015 3.36-.007 2.92c-.129 2.16-.129 2.16-1.13 3.16-2.86.251-5.69.428-8.56.556l-2.81.128c-13.1.531-26.3.443-39.4.417-3.78-.006-7.57-.006-11.4-.008-7.13-.003-14.3-.01-21.4-.02-8.13-.012-16.3-.018-24.4-.023-16.7-.01-33.4-.027-50.1-.05l.001-2.12a429994.56 429994.56 0 0 0 .054-138.9l.001-3c.004-16 .012-32 .021-48.1.01-16.4.015-32.9.017-49.3.002-10.1.006-20.3.014-30.4.005-6.95.007-13.9.006-20.9 0-4.01 0-8.03.005-12 .005-3.67.006-7.35.002-11 0-1.96.004-3.93.008-5.89l-.006-3.52.001-3.04a26.523 26.523 0 0 0-1.12-6.62h-2v-2h-2c-1.63-1.38-1.63-1.38-3-3v-2h-2v-2c-6.55-2.33-13.6-3.45-20.4-1.21-2.8 1.34-5.04 2.61-7.21 4.84-1.41 1.36-1.41 1.36-3.41 1.36v2h-2v2h-2l-1 4h-2l-.438 1.81c-.45 1.75-.99 3.47-1.56 5.19h-2v4h-2l-.367 1.72c-.79 3.64-1.61 7.21-2.7 10.8-.962 3.59-1.38 6.99-1.69 10.7-.246 1.82-.246 1.82-1.25 2.82-.107 1.83-.142 3.66-.15 5.49l-.026 3.62-.013 4.01-.025 4.2c-.018 3.04-.033 6.07-.046 9.11-.02 4.87-.048 9.74-.076 14.6-.055 9.55-.103 19.1-.15 28.7a49373.567 49373.567 0 0 1-.247 45.73c-.166 28.8-.557 57.7-1.09 86.5-.21 11.6-.36 23.1-.493 34.7l-.033 2.85c-.062 5.49-.123 11-.183 16.5-.052 4.79-.107 9.58-.16 14.4-.105 9.21-.207 18.4-.308 27.6-8.07.023-16.1.041-24.2.052-3.75.005-7.49.012-11.2.024-3.61.01-7.22.016-10.8.019-1.38.002-2.76.005-4.14.01-1.93.008-3.86.008-5.78.009l-3.33.006c-2.47-.12-2.47-.12-3.47-1.12-.095-1.8-.12-3.6-.117-5.39l-.001-3.55.013-3.94.003-4.12c.002-3.77.01-7.53.02-11.3.01-4.02.014-8.04.019-12.1.012-9.37.034-18.7.057-28.1l.023-9.71c.046-21 .109-41.9.177-62.9.029-9.03.056-18.1.084-27.1.049-16.3.099-32.5.15-48.8l.009-2.91.118-37.6c.153-48.2.296-96.4.408-145l.012-5.32.006-2.66.046-18.6c.047-18.6.089-37.2.11-55.7.01-7.69.021-15.4.042-23.1.02-7.04.028-14.1.03-21.1.002-2.55.008-5.11.017-7.66.012-3.45.012-6.91.009-10.4.006-1.01.012-2.01.02-3.05l-.011-2.78.003-2.4c-.278-2.44-1.13-4.01-2.25-6.17v-3h-2c-.985-1.75-1.96-3.5-2.94-5.25l-1.65-2.95c-1.18-2.33-1.93-4.25-2.41-6.8h-2c-1.67-3.33-3.33-6.67-5-10l5-2v-2h4v-2c3.42-2.54 5.76-3.36 10-3v3h2v4h2c.364.678.727 1.36 1.1 2.05 4.04 7.48 8.18 14.9 12.9 21.9v3h2v169h4v-2c7.86-2.94 15.6-5.56 23.8-7.42 2.19-.366 2.19-.366 3.23-1.58 24.6-4.64 49.1-4.56 74-3l.005-1.79c.02-6.15.074-12.3.148-18.4.023-2.29.037-4.59.043-6.88.009-3.3.05-6.6.097-9.9l-.012-3.1c.147-7.17.147-7.17 3.17-11 .842-.635 1.68-1.27 2.55-1.92.953-1.11 1.89-2.24 2.81-3.38 2.83-3.36 5.97-6.16 9.3-9 3.47-2.99 6.57-6.19 9.45-9.75 2.05-2.42 3.76-4.21 6.44-5.88h2l.812-1.81c1.19-2.19 2.28-3.6 4.19-5.19h2v-2h2l.812-1.81c1.19-2.19 2.28-3.6 4.19-5.19h2v-2h2v-2h2l.812-1.94c1.19-2.06 1.19-2.06 4.19-3.06v-2h2v-2h2l.812-1.94c1.19-2.06 1.19-2.06 4.19-3.06v-2h2v-2h2l1-3h2v-2h2v-2h2v-2c1.39-1.36 1.39-1.36 3.35-2.97 6.3-5.36 12-11.3 17.8-17.3l2.61-2.64c.776-.793 1.55-1.59 2.35-2.4 1.94-1.72 1.94-1.72 3.94-1.72v-2h2l.812-1.81c1.19-2.19 2.28-3.6 4.19-5.19h2v-2h2l.812-1.81c1.19-2.19 2.28-3.6 4.19-5.19h2v-2h2v-2h2l.812-1.94c1.19-2.06 1.19-2.06 4.19-3.06v-2h2v-2h2l1-3h2v-2h2v-2h2v-2h2l1-3h2v-2h2v-2h2c-.658-3.12-.658-3.12-3.04-4.1l-2.59-.965c-.897-.336-1.79-.673-2.72-1.02-3.2-1.1-6.38-2.06-9.66-2.92v-2l-1.95-.309c-4.08-.925-7.93-2.33-11.9-3.75-.788-.282-1.58-.563-2.39-.854-1.93-.692-3.87-1.39-5.8-2.08v-2h-5v-2l-2.12-.344c-4.22-.962-7.99-2.77-11.9-4.5-2.67-1.05-5.11-1.7-7.94-2.16v-2l-3.56.312-2 .176c-2.64.555-4.89 1.58-7.34 2.68-5.15 2.05-10.6 3.2-16 4.58-5.28 1.39-10.1 3.01-15.1 5.25-1.85.487-3.7.97-5.56 1.41-10.4 2.49-10.4 2.49-20.3 6.22-3.02 1.33-5.82 2.1-9.01 2.84-2.32.593-4.54 1.36-6.8 2.16-3.22 1.11-5.87 1.71-9.31 1.38v2l-2.2.516c-6.52 1.57-12.8 3.43-19.1 5.71-2.71.774-4.89.917-7.69.77v2h-7v2c-1.07.254-2.15.508-3.25.77-1.44.347-2.87.695-4.31 1.04-.704.166-1.41.331-2.13.502-3.52.86-6.8 1.83-10.1 3.31-3.35 1.45-5.58 1.64-9.19 1.38v2c-1.73.508-3.46 1.01-5.19 1.5-1.44.418-1.44.418-2.92.844-2.76.626-5.08.706-7.89.656l-.031-3.71c-.099-11.6-.201-23.3-.308-34.9-.055-5.99-.108-12-.158-18-.049-5.8-.101-11.6-.156-17.4-.02-2.19-.039-4.38-.056-6.57-.098-12.3-.377-24.5-.932-36.8-.374-8.43-.533-16.9-.588-25.3-.017-2.47-.04-4.95-.065-7.42-.07-7.01-.132-14-.182-21-.032-4.34-.073-8.68-.12-13-.016-1.64-.028-3.28-.037-4.91-.012-2.27-.036-4.54-.063-6.81l-.031-3.9c-.253-3.02-.676-4.72-2.27-7.24h-2l-2-5h-2c-1.61-1.73-3.14-3.54-4.62-5.38l-2.48-3.02c-1.9-2.6-1.9-2.6-1.9-4.6l-3-1v-2h-2v-2h-2v-5h4v-2h5v-2c1.41-.508 2.83-1.01 4.25-1.5 1.18-.418 1.18-.418 2.39-.844 2.36-.656 2.36-.656 6.36-.656v-2h5v-2h5v-2c1.41-.508 2.83-1.01 4.25-1.5 1.18-.418 1.18-.418 2.39-.844 2.36-.656 2.36-.656 6.36-.656v-2h5v-2l8-2 .01-2.79c.039-8.71.096-17.4.174-26.1.039-4.48.071-8.95.087-13.4.015-4.33.05-8.65.097-13 .015-1.65.023-3.29.024-4.94.016-15.9.016-15.9 4.61-22.7h2v-3h2l.688-2c2.23-5.1 5.04-10.3 9.31-14h2v-2h2v-2h2v-2h2l1-3h2v-2h2v-2c1.46-1.29 1.46-1.29 3.38-2.62.626-.446 1.25-.892 1.9-1.35 1.73-1.02 1.73-1.02 3.73-1.02v-2h3v-2c1.75-.985 3.5-1.96 5.25-2.94l2.95-1.65c2.33-1.18 4.25-1.93 6.8-2.41v-2c1.73-.65 3.46-1.3 5.19-1.94.963-.36 1.93-.719 2.92-1.09 2.63-.884 5.16-1.5 7.89-1.97v-2c10.3-3 20.4-5.62 30.9-7.42 2.96-.415 2.96-.415 5.06-1.58 2.21-.07 4.42-.084 6.62-.062l3.6.027 2.77.035c-.108-8.14-.221-16.3-.34-24.4-.054-3.78-.107-7.56-.157-11.3-.049-3.66-.101-7.31-.156-11-.02-1.39-.04-2.77-.056-4.16-.096-7.59-.354-15.1-1.07-22.7-.276-3.03-.391-6.04-.412-9.08l-.043-2.98c.23-2.4.23-2.4 2.23-4.4 2.63-.125 2.63-.125 5 0v-2l2.42-.734c7.57-2.31 15.1-4.74 22.6-7.27 1.75-.584 3.5-1.17 5.25-1.75 1.24-.413 2.48-.825 3.75-1.25l.402-2.59c.177-1.1.353-2.21.535-3.35l.527-3.34c.535-2.72.535-2.72 1.54-3.72.368-2.33.702-4.66 1-7h2l-.121-3.06c.124-4.02.859-7.11 2.06-10.9 1.46-4.68 2.47-9.13 3.06-14h2c-.04-.846-.078-1.69-.117-2.56.129-3.77.908-6.83 1.99-10.4.348-1.18.696-2.35 1.05-3.56.984-3.16 2.01-6.3 3.07-9.44zm-77 199-3 .375c-4.56.601-8.68 2.11-13 3.62-2.19.732-4.37 1.46-6.56 2.19-1.03.344-2.07.688-3.13 1.04l-2.31.77v2h-4v2l-2 .25c-5.14 1.29-9.61 3.82-14 6.75v2l-1.72.328c-6.28 1.85-12.1 6.77-16.3 11.7v2h-2v2h-2c-2.4 2.64-2.4 2.64-3 6h-2v3h-2v2h-2c-5.49 7.5-5.67 14.2-5.49 23.2.01 1.35.016 2.71.021 4.06.02 3.54.068 7.07.124 10.6.052 3.62.074 7.24.1 10.9.053 7.08.138 14.2.244 21.2 3.51-.562 6.76-1.13 10.1-2.41.703-.267 1.41-.535 2.13-.811.713-.278 1.43-.556 2.16-.842l2.23-.854c1.8-.69 3.6-1.39 5.39-2.08v-2l2.81-.25c5.31-.732 10.2-2.82 15.2-4.75v-2h5v-2l2.81-.25c5.31-.732 10.2-2.82 15.2-4.75v-2l1.94.25c3.78-.308 6.49-1.64 9.88-3.28 2.06-.916 3.99-1.5 6.18-1.97v-2h5v-2l2.22.105c2.89-.11 4.65-.652 7.28-1.79 5.26-2.22 10.6-4.25 15.9-6.26 2.48-.81 2.48-.81 3.59-2.05 2.5-.125 2.5-.125 5 0l1 1c1.67.04 3.33.043 5 0v2c5.64 1.92 11.3 3.71 17 5.35 1.97.648 1.97.648 2.97 1.65 1.67.04 3.33.043 5 0v2l2.01.586c7.53 2.22 7.53 2.22 10.8 3.6 2.51.934 4.53.965 7.19.812v2h5v2c9.83 3.25 9.83 3.25 20 5v2c3.82 1.42 6.91 2.24 11 2v2c6.81 2.6 6.81 2.6 14 3v2h6v2h5v2c1.41.508 2.83 1.01 4.25 1.5l2.39.844c2.59.835 2.59.835 6.36.656.026-2.15.046-4.29.062-6.44l.035-3.62c.241-2.83.241-2.83-1.1-3.94-.186-2.04-.323-4.08-.438-6.12-.347-4.92-.998-9.18-2.56-13.9-.506-1.87-1.01-3.75-1.5-5.62a79.53 79.53 0 0 0-3.5-10.4h-2c-.124-.887-.248-1.77-.375-2.69-.569-3.02-1.39-5.52-2.62-8.31h-2l-.438-1.88c-.494-2.16-.494-2.16-1.56-4.12h-2v-3h-2l-.938-2.38c-.99-2.55-.99-2.55-2.06-4.62h-2v-2h-2v-2h-2c-.268-.598-.536-1.2-.812-1.81-1.19-2.19-2.28-3.6-4.19-5.19h-2v-2h-2v-2c-1.49-1.36-1.49-1.36-3.38-2.62-.626-.446-1.25-.892-1.9-1.35-1.68-1.19-1.68-1.19-3.73-1.02v-2h-3v-2c-1.41-.844-2.83-1.67-4.25-2.5l-2.39-1.41c-2.53-1.37-2.53-1.37-6.36-1.09v-2h-4v-2h-5v-2c-6.64-2.4-13.2-3.98-20.2-5.35-2.84-.648-2.84-.648-3.84-1.65-9.33-2.11-18.7-2.31-28.2-2.26-2.27.01-4.53 0-6.8-.013-15-.845-15-.845-28 3.27zM171 996c-3.37.316-6.75.511-10.1.719-2.77-.036-2.77-.036-3.87 1.28-1.58.304-3.16.567-4.75.812-6.61 1.14-12.9 3.1-19.2 5.19v2h-5v2l-2.69.375c-3.02.569-5.52 1.39-8.31 2.62v2h-2c-1.78 73.3-2.3 147-2.2 220 .013 10.6.019 21.2.018 31.9v4.32c-.001 13.8.006 27.6.015 41.4.002 3.92.003 7.85.003 11.8.001 6.09.007 12.2.017 18.3.003 2.23.005 4.46.004 6.69 0 3.02.005 6.05.012 9.07l-.004 2.7c-.368 3.88-.368 3.88 1.14 7.14 3.47.251 6.96.185 10.4.188l2.97.037 2.84.006 2.61.012c2.35-.042 2.35-.042 4.14-2.24.31-3.13.31-3.13.265-6.88l.013-2.17c.012-2.42.01-4.84.009-7.26l.02-5.2c.016-3.76.024-7.52.028-11.3.007-6.05.029-12.1.053-18.2.045-11.9.075-23.8.104-35.7.12-50.7.276-101 1.29-152 .057-2.96.11-5.92.162-8.87.081-4.62.177-9.23.283-13.9.037-1.67.07-3.35.097-5.02.462-27.2.462-27.2 4.67-31.4.04-2 .042-4 0-6h2c.254-.664.508-1.33.77-2.01 1.79-4.6 3.67-8.76 6.23-13v-3h2v-3h2l1-4h2v-2h2c2.67-2.33 2.67-2.33 5-5v-2h2v-2l2-.75c2.42-1.01 4.68-2.1 7-3.31 2.99-1.52 5.64-2.52 9-2.94v-2c3.15.138 6.29.287 9.44.438l2.72.12 2.59.126 2.4.111c1.86.205 1.86.205 2.86 1.21 1.67.041 3.33.043 5 0v2h4v2h4c.029-3.96.047-7.92.062-11.9l.026-3.42.01-3.26.015-3.02c.05-2.44.05-2.44-1.11-4.43-6.51-.025-13-.042-19.5-.054-2.22-.005-4.43-.012-6.65-.02-3.18-.013-6.36-.019-9.55-.023l-3.02-.016h-2.79l-2.46-.007c-2.06-.005-2.06-.005-3.99 1.12zm588 269v2l-1.94-.25c-3.71.303-6.3 1.58-9.64 3.16-3.71 1.67-7.55 2.88-11.4 4.09v2l-2.12.316c-3.31.785-5.98 2.07-9.01 3.62l-3.13 1.59c-2.84 1.47-2.84 1.47-5.74 3.47v2l-1.69.25c-3.05.989-4.96 2.6-7.31 4.75v2l-1.69.688c-2.97 1.69-5.03 3.78-7.31 6.31v2h-2c-3.85 7.66-5.49 14.2-5.5 22.8l-.018 2.36c.121 5.72 1.45 10.6 3.52 15.9h2c.144.619.29 1.24.438 1.88.494 2.16.494 2.16 1.56 4.12h2l.812 1.94c1.07 2.39 1.07 2.39 4.19 3.06v2h2v2c2.65 1.46 3.89 2 7 2v2c15.6 4.99 29.3 2.89 43.9-4.34 4.08-2.12 8.08-4.35 12.1-6.66v-2h4v-2h3v-2c.743-.268 1.48-.536 2.25-.812 3.72-1.59 3.72-1.59 6.75-4.19.381-2.81.506-5.24.454-8.05l.002-2.48c-.003-2.71-.034-5.42-.065-8.13a2503.446 2503.446 0 0 0-.116-20.44c-.04-5.05-.06-10.1-.08-15.1-.042-9.9-.11-19.8-.194-29.7-8.59 0-19.2 4.75-27 8z"/><path fill="#000002" d="M960 6c-.875 6.87-.875 6.87-2 8-.231 1.35-.412 2.7-.562 4.06L957 22h-2v7h-2l.113 3.09c-.113 3.89-.768 6.84-1.93 10.5-1.38 4.58-2.64 9.14-3.69 13.8-1.34 6-2.9 11.9-4.55 17.8-1 3.7-1 3.7-1.55 7.43-1.41 8.47-1.41 8.47-4.41 11-3.88 1.83-7.67 2.86-12 2.3v2h-6v2c-2.25.647-4.5 1.29-6.75 1.94-1.25.36-2.51.719-3.8 1.09-2.48.698-4.95 1.36-7.45 1.97.141 3.17.289 6.33.438 9.5l.119 2.69.127 2.66.111 2.41c.16 2.14.42 4.27.719 6.39.652 5.07.611 10.1.584 15.2l-.004 3.06c-.006 3.2-.018 6.4-.031 9.6l-.014 6.54c-.01 5.32-.028 10.6-.049 16 .557-.087 1.11-.175 1.69-.264 2.58-.401 5.15-.797 7.73-1.19 1.31-.206 1.31-.206 2.66-.416 32.8-5.01 67.5-2.88 99.9 3.87v2l3.06-.188c4.37.208 6.97 1.41 10.9 3.19 2.98.786 5.98 1.42 9 2v2h5v2c1.07.184 1.07.184 2.17.371 2.88.64 5.42 1.56 8.14 2.69.883.362 1.77.724 2.68 1.1.664.277 1.33.554 2.01.84v2h4v2h3v2l1.69.375c2.53.685 4.89 1.62 7.31 2.62v2h2v2h3v2l4 1v2l5 2v2h2v2h2v2l3 1v2h2v2h2v2h2c1.73 1.9 1.73 1.9 3.62 4.38l1.91 2.46c1.46 2.16 1.46 2.16 1.46 4.16h2v3h2c.838 1.46 1.67 2.91 2.5 4.38.464.812.928 1.62 1.41 2.46 1.09 2.16 1.09 2.16 1.09 4.16h2l.77 2.2c.344.967.688 1.93 1.04 2.93l1.02 2.88c1.12 3.03 1.12 3.03 2.68 5.94 2.78 5.71 4.05 11.9 5.49 18.1l.922 3.82c2.2 10.2 2.37 20.4 2.39 30.8l.011 2.09c.029 10.2-.847 20.2-2.32 30.3l-6-2v-2h-4v-2l-9-3v-2h-4v-2l-1.74-.385c-2.28-.621-4.24-1.45-6.37-2.46-.754-.358-1.51-.715-2.29-1.08l-2.36-1.13c-.793-.377-1.59-.754-2.4-1.14-1.95-.928-3.9-1.86-5.85-2.79v-2l-1.7-.371c-2.49-.681-4.7-1.62-7.05-2.69-.799-.362-1.6-.724-2.42-1.1-.603-.277-1.21-.554-1.83-.84v-2h-4v-2l-1.67-.371c-2.62-.709-5.06-1.67-7.58-2.69-.892-.362-1.78-.724-2.7-1.1l-2.05-.84v-2h-3v-2l-1.7-.371c-2.49-.681-4.7-1.62-7.05-2.69-.799-.362-1.6-.724-2.42-1.1-.603-.277-1.21-.554-1.83-.84v-2h-4v-2l-1.67-.371c-2.62-.709-5.06-1.67-7.58-2.69-.892-.362-1.78-.724-2.7-1.1l-2.05-.84v-2c-1.18-.34-1.18-.34-2.38-.688-4.75-1.72-9.15-3.99-13.6-6.31v-2h-4v-2l-1.67-.371c-2.62-.709-5.06-1.67-7.58-2.69-.892-.362-1.78-.724-2.7-1.1l-2.05-.84v-2l-3.62-.688-2.04-.387c-3.28.104-5.44 1.57-8.34 3.07-2.3.717-4.61 1.38-6.94 2-3.84 1.05-7.52 2.07-11.1 3.75-2.93 1.25-4.8 1.54-7.94 1.25v2c-2.21.65-4.42 1.29-6.62 1.94l-3.73 1.09c-3.22.858-6.36 1.49-9.65 1.97v2l-2.35.699c-7.3 2.2-14.4 4.64-21.6 7.35-2.91.898-5.07 1.16-8.09.953v2l-3.03.84c-1.3.366-2.61.732-3.91 1.1l-2 .553c-3.3.736-3.3.736-6.06 2.51-1.67.04-3.33.043-5 0v2l-2.21.664c-6.75 2.05-13.5 4.18-20.2 6.4l-2.27.743c-4.57 1.52-8.95 3.27-13.4 5.19-9.07 3.48-9.07 3.48-14 3v2l-2.21.664c-6.75 2.05-13.5 4.18-20.2 6.4l-2.27.743c-4.57 1.52-8.95 3.27-13.4 5.19-9.07 3.48-9.07 3.48-14 3v2l-2.42.734c-12.6 2.69-12.6 2.69-23.6 8.27-1.67.04-3.33.043-5 0v2l-16 4c1.5 4 1.5 4 4 5v2h3v2h2v2c2.33 1.21 4.5 2.17 7 3v2h2v2c.557.268 1.11.536 1.69.812 2.52 1.3 4.95 2.61 7.31 4.19v2h2v230c10.3-1.71 10.3-1.71 20-5 2.33-.04 4.67-.043 7 0v-2l3.06-.375c3.79-.602 7.25-1.54 10.9-2.62 2.5-.719 5-1.43 7.5-2.12 1.25-.353 2.5-.706 3.78-1.07 3.7-.8 6.95-.95 10.7-.805v-2l3.06-.375c3.79-.602 7.25-1.54 10.9-2.62 2.5-.719 5-1.43 7.5-2.12 1.25-.353 2.5-.706 3.78-1.07 3.7-.8 6.95-.95 10.7-.805v-2l3.06-.375c3.79-.602 7.25-1.54 10.9-2.62 2.5-.719 5-1.43 7.5-2.12 1.25-.353 2.5-.706 3.78-1.07 3.7-.8 6.95-.95 10.7-.805v-2l3.06-.375c3.79-.602 7.25-1.54 10.9-2.62 2.5-.719 5-1.43 7.5-2.12 1.25-.353 2.5-.706 3.78-1.07 3.7-.8 6.95-.95 10.7-.805v-2l3.06-.375c5-.793 9.7-2.26 14.6-3.7 11.1-3.15 19-4.38 29.8.098 2.51.96 4.9 1.52 7.54 1.97v2h6v2h5v2l3 .375c4.09.577 8.01 1.57 12 2.62v2h5v2l2.69.25c5.95.836 11.6 2.94 17.3 4.75 2.33.687 4.66 1.35 7 2v2l2.19-.121c3.06.132 5.02.833 7.81 2.06 3.34 1.45 6.41 2.45 10 3.06v2l2.06-.188c3.08.197 5.21 1.12 8 2.36 3.12 1.34 6.33 2.39 9.56 3.45l1.95.656c3.45 1.15 6.85 2.1 10.4 2.72v2l2.54.37c3.7.674 7.23 1.64 10.8 2.69 1.25.363 2.49.725 3.77 1.1l2.85.84v2c.701-.04 1.4-.082 2.12-.124 3.26.142 5.83.992 8.88 2.12v2l2.69.25c8.68 1.25 17.1 4.52 25.1 7.87 2.68 1.09 5.41 2.01 8.17 2.88l-2 10h-2l.125 2.25c-.129 2.84-.696 4.34-2.12 6.75-5.01-.847-9.69-2.53-14.5-4.18-3.49-1.19-6.89-2.2-10.5-2.82v-2h-5v-2l-2 .188c-3.18-.2-5.63-1.09-8.57-2.27-2.9-1.1-5.83-1.97-8.8-2.86-4.01-1.21-7.89-2.51-11.8-4.12-5.16-2.15-10.5-3.58-15.9-4.94v-2h-5v-2l-2.21.113c-2.95-.12-4.73-.73-7.41-1.93-3.59-1.52-7.1-2.72-10.9-3.69-4.5-1.16-8.65-2.73-12.9-4.52-4.42-1.69-8.99-2.83-13.6-3.98v-2c-.7.04-1.4.082-2.12.125-3.26-.142-5.83-.992-8.88-2.12v-2l-2.69-.25c-5.94-.823-11.6-2.91-17.3-4.75v-2l-2.69-.25c-7.28-1.04-14.6-3.45-21.3-6.44-5.42-2.37-9.17-2.43-15-1.31l-1 1-3.12.438c-3.05.442-5.77 1.06-8.7 1.96-4.12 1.15-8.3 2-12.5 2.92-2.6.414-2.6.414-3.7 1.68l-7 1-1 1-3.12.438c-3.05.442-5.77 1.06-8.7 1.96-4.12 1.15-8.3 2-12.5 2.92-2.6.414-2.6.414-3.7 1.68l-7 1-1 1-3.12.438c-3.05.442-5.77 1.06-8.7 1.96-4.12 1.15-8.3 2-12.5 2.92-2.6.414-2.6.414-3.7 1.68l-7 1-1 1-3.12.438c-3.05.442-5.77 1.06-8.7 1.96-4.12 1.15-8.3 2-12.5 2.92-2.6.414-2.6.414-3.7 1.68l-7 1-1 1-3.12.438c-3.05.442-5.77 1.06-8.7 1.96-4.12 1.15-8.3 2-12.5 2.92-2.6.414-2.6.414-3.7 1.68l-7 1-1 1-3.12.438c-3.05.442-5.77 1.06-8.7 1.96-4.12 1.15-8.3 2-12.5 2.92-2.6.414-2.6.414-3.7 1.68l-7 1-1 1-3.12.438c-3.05.443-5.79 1.07-8.73 1.96-3.92 1.1-7.9 1.93-11.9 2.82-3.46.824-6.86 1.79-10.3 2.78l-.013 1.78c-.103 14.3-.212 28.5-.327 42.8-.055 6.89-.109 13.8-.158 20.7-.047 6.65-.1 13.3-.156 19.9-.02 2.54-.039 5.08-.056 7.63-.024 3.55-.054 7.09-.085 10.6l-.018 3.22-.03 2.91-.019 2.54c-.139 1.9-.139 1.9-1.14 2.9h-19v-131l15-4 7-2c2.33-.074 4.67-.096 7 0v-2l3.06-.375c3.86-.53 3.86-.53 7.19-1.56 4.83-1.37 9.81-2.16 14.8-3.06v-226l-4-2-2-1v-2h-3v-2h-2v-2c-2.33-1.21-4.5-2.17-7-3v-2h-2v-2h-2v-2l-2.06-.625c-3.35-1.57-5.66-3.57-8.39-6.04-1.53-1.43-1.53-1.43-3.55-2.34v-2l-1.73-.812c-2.34-1.23-4.39-2.61-6.52-4.19l-2.14-1.56-1.61-1.44v-2h-2v-3c15.5-6.32 15.5-6.32 21-6v-2l3.03-.84c1.3-.366 2.61-.732 3.91-1.1l2-.553c3.3-.736 3.3-.736 6.06-2.51 1.67-.04 3.33-.043 5 0v-2l2.69-.75c10.6-2.94 10.6-2.94 20.8-6.75 7.48-3.2 15.4-5.74 23.5-6.5v-2h5v-2h4c-.01-.933-.02-1.87-.032-2.83-.16-16.7-.2-33.3.844-49.9l.212-3.7c.452-6.41 1.33-11.7 3.98-17.5h2v-4h2v-3h2l.938-2.38c1.06-2.63 1.06-2.63 2.06-4.62h2v-3h2c.268-.578.536-1.16.812-1.75 1.22-2.31 2.49-4.27 4.19-6.25h2v-2c5.48-5 5.48-5 8-5v-2h3v-2c1.46-1.29 1.46-1.29 3.38-2.62.626-.446 1.25-.892 1.9-1.35 1.73-1.02 1.73-1.02 3.73-1.02v-2c1.43-.841 2.87-1.67 4.31-2.5l2.43-1.41c2.26-1.09 2.26-1.09 5.26-1.09v-2h4v-2c1.73-.793 3.46-1.58 5.19-2.38.963-.441 1.93-.882 2.92-1.34.955-.425 1.91-.851 2.89-1.29.862-.384 1.72-.768 2.61-1.16 2.39-.836 2.39-.836 6.39-.836v-2l2.85-.805 3.77-1.07c1.84-.522 1.84-.522 3.73-1.05 3.25-.952 6.44-1.99 9.65-3.07l-.013-3.52c-.04-10.9-.07-21.8-.09-32.8-.01-5.61-.025-11.2-.048-16.8-.021-5.41-.033-10.8-.039-16.2-.003-2.07-.01-4.14-.021-6.21-.015-2.89-.017-5.78-.016-8.67l-.022-2.61c.021-5.92.021-5.92 2.25-8.15 2.24-.852 2.24-.852 4.88-1.62l2.62-.79c2.51-.585 2.51-.585 6.51-.585v-2h5v-2c5.98-1.73 12-3.37 18-5l.332-1.91c.16-.856.317-1.71.48-2.59l.457-2.53c.73-2.97.73-2.97 2.17-6.66 1.86-4.82 2.8-9.74 3.75-14.8l.537-2.78c.431-2.24.856-4.48 1.28-6.72h2l-.188-2.94c0-3.86 1.02-6.93 2.32-10.5 2.07-6.05 3.68-12.4 4.43-18.7l.438-2.81c5.64-2.82 15.3 1.5 21 3zm-32 189c-2.37.23-4.75.411-7.12.562l-3.88.254-2.99.184v2l-1.8-.088c-6.8-.185-12.8.884-19.3 2.59-1.43.358-1.43.358-2.9.723-2.33.582-4.65 1.17-6.98 1.78v2l-2.38-.25c-5.05.348-9.02 2.26-13.6 4.25-.942.374-1.88.748-2.86 1.13-7.72 3.08-14.9 6.81-22.1 10.9v2h-4v2c-.784.31-1.57.62-2.38.938-2.55.991-2.55.991-4.62 2.06v2h-2v2h-3v2h-2v2c-.598.268-1.2.536-1.81.812-2.19 1.19-3.6 2.28-5.19 4.19v2h-2v2h-2v3h-2v2h-2c-2.43 3.37-3 4.73-3 9h-2v4h-2l-1 52c4 1.33 6.58.003 10.4-1.38 4.17-1.48 8.24-2.9 12.6-3.62v-2h5v-2h6v-2l3.56-.312c4.2-.512 7.58-1.94 11.4-3.69 2.94-.688 2.94-.688 5-1v-2l2.69-.25c7.98-1.12 15.7-4.2 23.3-6.75v-2h6v-2l2.69-.25c5.94-.823 11.6-2.91 17.3-4.75v-2l2.69-.25c8.21-1.17 15.9-4.05 23.3-7.75 3.38-.688 3.38-.688 6-1v-2l2.69-.25c5.94-.823 11.6-2.91 17.3-4.75v-2l1.94.188c5.56-.34 10.6-2.52 15.6-4.81 3.95-1.58 7.22-2.01 11.4-2.38v2c1.58.843 3.16 1.67 4.75 2.5.882.464 1.76.928 2.67 1.41 2.73 1.35 2.73 1.35 6.58 1.09v2c2.1 1.17 4.2 2.34 6.31 3.5l1.8 1.01c2.84 1.56 4.59 2.49 7.88 2.49v2h4v2c1.58.843 3.16 1.67 4.75 2.5.882.464 1.76.928 2.67 1.41 2.73 1.35 2.73 1.35 6.58 1.09v2c2.1 1.17 4.2 2.34 6.31 3.5l1.8 1.01c2.84 1.56 4.59 2.49 7.88 2.49v2h4v2c1.58.843 3.16 1.67 4.75 2.5.882.464 1.76.928 2.67 1.41 2.73 1.35 2.73 1.35 6.58 1.09v2c1.41.844 2.83 1.67 4.25 2.5.789.464 1.58.928 2.39 1.41 2.53 1.37 2.53 1.37 6.36 1.09v2c2.65 1.46 3.89 2 7 2v2c.887.351 1.77.701 2.69 1.06 5.01 2.12 9.69 4.85 14.4 7.51 2.8 1.65 2.8 1.65 5.89 1.43 1.03-3.1 1-4.66.695-7.85l-.27-2.83c-.1-.972-.199-1.94-.301-2.95l-.277-2.97c-.056-4.55-.056-4.55-1.85-8.41a263.41 263.41 0 0 1-1.38-6.5c-1.18-5.69-2.65-11-4.62-16.5h-2v-4h-2l-.25-2c-.998-3.99-2.82-7.39-4.75-11h-2v-3h-2c-.402-1.11-.402-1.11-.812-2.25-1.14-2.64-2.28-4.61-4.19-6.75h-2v-2h-2v-2h-2l-1-3h-2v-2h-2v-2h-2v-2c-3.22-2.32-3.22-2.32-7-3v-2h-3v-2h-3v-2h-3v-2c-4.26-2.36-4.26-2.36-9-3v-2h-4v-2c-1.91-.842-3.83-1.67-5.75-2.5a921.16 921.16 0 0 1-3.23-1.41c-3.11-1.32-3.11-1.32-7.02-1.09v-2l-2.1-.516-2.96-.734-3.3-.816c-3.15-.808-6.27-1.68-9.39-2.58-6.3-1.78-11.7-2.82-18.2-2.36v-2c-.904-.06-1.81-.12-2.74-.184l-3.57-.254-3.55-.246c-3.14-.316-3.14-.316-6.14-1.32a78.552 78.552 0 0 0-4.62-.129l-2.83-.01-3.05.007-3.13-.003c-2.19 0-4.37 0-6.56.005-3.36.005-6.71 0-10.1-.006-2.12 0-4.24.002-6.37.004l-3.06-.006-2.82.01-2.49.002c-2.08 0-2.08 0-4 1.13zM1171 1161l3.87-.023c11.4.023 21.9 1.7 32.9 4.9l2.44.695c1.94.554 3.88 1.12 5.81 1.68v2h4v2c.572.122 1.14.245 1.73.37 2.37.658 4.34 1.57 6.52 2.69l2.14 1.1c.797.417.797.417 1.61.84v2c1.11.403 1.11.403 2.25.813 2.64 1.14 4.61 2.28 6.75 4.19v2h2v2h2v2l3 1v2h2v2h2c1.29 1.64 1.29 1.64 2.62 3.81.446.708.892 1.42 1.35 2.14 1.02 2.04 1.02 2.04 1.02 5.04h2c.794 1.87 1.59 3.75 2.38 5.62.441 1.04.882 2.09 1.34 3.16 5.07 12.6 5.29 21.9 5.29 36.2h-174c-.564 18-.564 18 5 37 .04 2 .042 4 0 6h2l.586 1.83.789 2.42.773 2.39c.793 2.36.793 2.36 1.95 4.47.898 1.89.898 1.89.898 4.89h2c2 3 2 3 2 6h2c3 4.38 3 4.38 3 7h2v2h2c2.62 2.38 2.62 2.38 5 5v2h2v2c.557.268 1.11.536 1.69.812 2.52 1.3 4.95 2.61 7.31 4.19v2l2.06.75c2.33.99 4.34 2.03 6.5 3.31 2.66 1.5 4.49 2.47 7.44 2.94v2c1.07.203 1.07.203 2.15.41 2.83.587 5.61 1.29 8.41 2.03 16.3 4.06 30.1 3.95 46.4.926 2.66-.486 5.32-.928 7.99-1.36v-2h5v-2h4v-2c5.75-3 5.75-3 8-3v-2h3v-2h2v-2c1.38-1.62 1.38-1.62 3-3h2v-2h2v-3h2l.824-2.24c1.11-2.61 2.35-4.64 3.99-6.95 2.82-4.11 5.02-8.33 7.11-12.8 1.08-1.97 1.08-1.97 3.08-2.97l3 1v2h3c.286 5.34-.14 9.11-2.2 14-1.19 2.92-1.98 5.92-2.8 8.96h-2l-.316 2.15c-.766 3.19-2 5.56-3.62 8.41-1.76 3.12-3.49 6.22-5.06 9.44h-2l-2 5h-2l-1 4h-2v2h-2l-1 3h-2v2h-2v2h-2v2c-2.07 1.8-4.13 3.47-6.31 5.12-.595.468-1.19.936-1.8 1.42-4.51 3.46-4.51 3.46-7.88 3.46v2c-3 2-3 2-7 2v2c-.773.254-1.55.508-2.34.77-1.04.344-2.08.688-3.16 1.04-1.1.364-2.2.727-3.34 1.1-2.48.85-4.87 1.77-7.29 2.77-3.89 1.52-7.72 1.84-11.9 2.1-2-.002-2-.002-3 1.21-2.12.1-4.25.13-6.37.133-1.3 0-2.59.002-3.93.004l-2.06-.007c-2.07-.005-4.14 0-6.21.007l-3.93-.004-3.63-.004c-2.87-.129-2.87-.129-4.87-1.13-1.52-.155-3.04-.275-4.56-.375-5.19-.482-9.57-1.84-14.4-3.62-2.1-.69-4.21-1.38-6.31-2.06-3.38-1.1-6.55-2.26-9.69-3.94v-2h-4v-2l-1.56-.25c-3.48-1.07-6.31-2.89-9.44-4.75v-2l-5-2v-2l-4-1v-2h-2v-2l-3-1v-2h-2v-2h-2c-3-3.46-3-3.46-3-6h-2v-3h-2v-2h-2c-3-5.62-3-5.62-3-9h-2v-4h-2c-.792-2.21-1.58-4.42-2.38-6.62-.441-1.23-.882-2.46-1.34-3.73-.638-1.81-.638-1.81-1.29-3.65l-1.16-3.19c-1.14-3.79-.979-6.88-.844-10.8h-2l-.184-3.9-.254-5.04-.119-2.58-.127-2.45-.111-2.27c-.023-1.79-.023-1.79-1.21-2.77-.1-2.51-.139-4.99-.125-7.5l-.012-2.13c.01-5.24.01-5.24 1.14-6.37.144-1.33.227-2.66.281-4l.113-2.44.105-2.56c.069-1.67.141-3.33.22-5l.091-2.25c.19-1.75.19-1.75 1.19-2.75l.375-3.5c.55-4.78 2.02-8.99 3.62-13.5.733-2.19 1.46-4.37 2.19-6.56.604-1.81 1.21-3.62 1.81-5.44h2l.31-2.14c.79-3.27 2.1-5.75 3.75-8.68.547-.976 1.1-1.95 1.66-2.96.421-.736.842-1.47 1.28-2.23h2l.25-1.69c.988-3.05 2.6-4.96 4.75-7.31h2v-2h2l.811-1.94c1.19-2.06 1.19-2.06 4.19-3.06v-2h2v-2h2v-2c4.38-3 4.38-3 7-3v-2c3-2 3-2 6-2v-2c20.5-10.7 40.7-16.4 64-16.2zm-23 16.2v2l-3.12-.312c-6.61-.06-12.8 2.93-18.9 5.31v2h-3v2c-.743.268-1.48.536-2.25.812-2.64 1.14-4.61 2.28-6.75 4.19v2l-4 2v2h-2c-.99 2.47-.99 2.47-2 5h-2c-2.43 3.37-3 4.73-3 9h-2v4h-2c-.51 2.02-1.01 4.04-1.5 6.06-.278 1.13-.557 2.25-.844 3.41-.87 4.08-.87 4.08-.656 10.5h117v-15l-1-1c-.455-2.65-.702-5.32-1-8h-2l-.375-3.25c-.521-3.13-1.03-5.08-2.62-7.75h-2v-3h-2v-2h-2v-2h-2l-.812-1.94c-1.07-2.39-1.07-2.39-4.19-3.06v-2c-2.65-1.46-3.89-2-7-2v-2c-9.73-4.03-9.73-4.03-20-6l-1-1c-2.53-.073-5.03-.092-7.56-.063l-2.15.014c-1.76.012-3.52.03-5.28.049zM557 1168v2h4v2h4v2c.743.124 1.49.247 2.25.375 2.55.58 4.48 1.36 6.75 2.62v2h2v2h3v2h2v2l1.94.812c2.06 1.19 2.06 1.19 3.06 4.19h2v2h2c1.29 1.61 1.29 1.61 2.62 3.75.446.696.892 1.39 1.35 2.11 1.02 2.14 1.02 2.14 1.02 6.14h2c1.19 9.81 1.36 16.9-5 25h-2v2c-10.4 4.13-21.3 4.41-32 1-1.33-.341-2.66-.679-4-1v-2h-3v-2h-2v-2h-2v-3h-2c-1.89-7.02-3.29-13.8-4-21l-1-1c-.04-1.67-.043-3.33 0-5h-2v-4h-2c-2.62-2.38-2.62-2.38-5-5v-2h-2v-2l-2.59-.621c-1.1-.269-2.21-.539-3.35-.816-1.1-.267-2.2-.534-3.34-.809-2.72-.754-2.72-.754-3.72-1.75-4.22-.255-8.46-.185-12.7-.188l-3.59-.037-3.48-.006-3.19-.012c-3.3.263-5.96 1.1-9.05 2.24-1.62.4-3.24.779-4.88 1.12l-2.37.508-1.76.367v2h-4v2h-3v2l-4 1v2h-2v2h-2v2c-2.38 2.62-2.38 2.62-5 5h-2l-.812 2.12c-1.26 3.04-2.69 5.95-4.19 8.88h-2v4h-2l-.312 1.94c-.579 2.58-1.31 4.89-2.19 7.38-1.47 4.25-2.02 8.23-2.5 12.7l-1 1c-1.04 8.29-1.23 16.7-1 25l.086 3.52c.452 10.3 2.07 20.6 6.04 30.2.87 2.29.87 2.29.87 6.29h2v5h2c.717 1.73 1.43 3.45 2.15 5.18.92 2.09.92 2.09 2.85 4.82v3h2c1.22 1.71 1.22 1.71 2.5 3.94 1.68 3.12 1.68 3.12 4.5 5.06.668 1.33 1.33 2.67 2 4l2 1v2h2v2h2v2l5 2v2l2.38.938c2.62 1.06 2.62 1.06 4.62 2.06v2h4v2c1.1.2 1.1.2 2.22.406 2.53.539 4.84 1.28 7.28 2.09 15.3 4.22 34 3.81 49.1-.781 2.46-.726 4.91-1.25 7.44-1.72v-2h4v-2l9-3v-2h2v-2h3v-2h2v-2c1.98-1.69 3.98-3.35 6-5l1-2h2l2-5h2l.25-1.56c1.07-3.48 2.89-6.31 4.75-9.44h2v-4h2c.125-.577.248-1.15.376-1.75.63-2.27 1.51-4.18 2.62-6.25l7 1c.77 8.77-2.01 15.9-5 24h-2v5h-2l-.375 1.69c-.685 2.53-1.62 4.89-2.62 7.31h-2l-.438 1.81c-.45 1.75-.991 3.47-1.56 5.19h-2c-.31.784-.62 1.57-.938 2.38-1.06 2.63-1.06 2.63-2.06 4.62h-2v2h-2c-.268.598-.536 1.2-.812 1.81-1.19 2.19-2.28 3.6-4.19 5.19h-2v2h-2v2c-1.38 1.62-1.38 1.62-3 3h-2v2l-6 2v2c-4.95 2.88-9.95 5.56-15.1 8.12l-2.06 1.05c-5.95 2.98-11.1 5.15-17.9 4.82v2c-8.61 1.73-16.9 2.28-25.6 2.19l-3.54-.002c-8.55-.045-8.55-.045-10.8-1.19-1.87-.228-3.75-.41-5.62-.562l-3.04-.254-2.34-.184v-2l-2.97-.31c-4.41-.628-8.34-2.13-12.5-3.75l-2.22-.853c-1.78-.688-3.57-1.39-5.35-2.08v-2h-4v-2c-.784-.31-1.57-.62-2.38-.938-2.62-1.06-2.62-1.06-4.62-2.06v-2h-3v-2c-.62-.31-1.24-.62-1.88-.938l-4.12-2.06v-2l-5-2v-2h-2v-2h-2c-.99-2.47-.99-2.47-2-5h-2c-3-3.46-3-3.46-3-6h-2v-3h-2c-.841-1.43-1.67-2.87-2.5-4.31l-1.41-2.43c-1.09-2.26-1.09-2.26-1.09-5.26h-2c-.793-2.04-1.58-4.08-2.38-6.12-.441-1.14-.882-2.27-1.34-3.45-2.08-5.54-3.48-10.6-4.29-16.4l-1-1c-.21-1.81-.368-3.62-.5-5.44-.214-3.93-.214-3.93-1.5-7.56-.099-2.53-.14-5.03-.133-7.56l-.003-2.26c0-1.58.001-3.16.005-4.74.006-2.42 0-4.85-.006-7.27 0-1.53.002-3.07.004-4.6l-.006-2.2c.024-5.13.024-5.13 1.14-7.36.228-1.87.41-3.75.562-5.62l.254-3.04c.06-.771.12-1.54.184-2.34h2v-7h2l.25-2.81c.732-5.31 2.82-10.2 4.75-15.2h2l.316-1.67c.829-2.82 2.11-5.05 3.62-7.58.525-.892 1.05-1.78 1.59-2.7.486-.675.972-1.35 1.47-2.05h2c.268-.743.536-1.48.812-2.25 1.14-2.64 2.28-4.61 4.19-6.75h2v-2h2v-2h2v-2c1.38-1.62 1.38-1.62 3-3h2v-2l5-2v-2c2.34-1.73 2.34-1.73 5.38-3.62 1.5-.947 1.5-.947 3.02-1.91 2.6-1.46 2.6-1.46 4.6-1.46v-2l3-1.25c2.59-1.1 4.96-2.27 7.44-3.62 30.2-15.4 67.1-14.1 98.6-4.12zM957 1096h9l.031 2.65c.098 8.23.2 16.5.308 24.7.055 4.23.11 8.46.158 12.7.048 4.08.1 8.16.156 12.2.02 1.56.04 3.12.056 4.68.024 2.18.054 4.35.086 6.53l.047 3.76c-.156 2.69-.156 2.69 1.16 3.78 1.81.123 3.62.178 5.44.205l3.52.06 3.83.051 3.9.063c3.42.055 6.85.105 10.3.153 3.49.05 6.98.106 10.5.161 6.86.108 13.7.209 20.6.307v16l-5.31.076c-5.78.084-11.6.172-17.3.263-3.5.055-7.01.109-10.5.158-4.02.057-8.05.12-12.1.186l-3.83.05-3.52.06-3.12.048c-2.28-.1-2.28-.1-3.32 1.16-.099 1.89-.126 3.79-.127 5.69l-.009 3.74.007 4.14-.006 4.34c-.004 3.94-.003 7.87 0 11.8.003 4.11 0 8.22 0 12.3-.003 6.91 0 13.8.005 20.7.005 7.99.003 16-.002 24-.005 6.85-.005 13.7-.003 20.6.002 4.1.002 8.19-.001 12.3-.003 3.85-.001 7.7.005 11.6 0 1.42 0 2.83-.002 4.25-.002 1.93.002 3.86.006 5.78l.001 3.28c-.045 2.53-.045 2.53 1.13 4.54.404 3.11.766 6.21 1.07 9.33.5 4.28 1.55 7.11 3.93 10.7v2h2v2c.743.289 1.49.577 2.25.875 2.75 1.12 2.75 1.12 4.44 2.18 3.3 1.35 6.49 1.24 10 1.2l2.15-.012c5.29-.086 10.1-.78 15.2-2.24v-2h4v-2c2.37-2.62 2.37-2.62 5-5h2c.29-.969.577-1.94.875-2.94 1.12-3.06 1.12-3.06 3.12-4.06 1.71-.07 3.42-.084 5.12-.062l2.76.027 2.12.035-3 8h-2v4h-2l-.688 2.06c-1.62 3.64-3.64 6.97-6.31 9.94h-2v2h-2v2h-2v2c-1.46 1.29-1.46 1.29-3.38 2.62-.626.446-1.25.892-1.9 1.35-1.73 1.02-1.73 1.02-3.73 1.02v2h-3v2h-4v2l-2.81.84c-1.2.362-2.4.724-3.63 1.1-1.19.36-2.39.72-3.62 1.09-2.8.682-2.8.682-3.94 1.97-15.1 1.96-26.5.943-40-6l-3-1v-2h-3v-2l-1.75-.688c-6.73-3.93-10.8-13.1-12.8-20.3-4.26-17.9-2.74-37.5-2.68-55.8.013-4.2.014-8.41.016-12.6.006-7.93.023-15.9.043-23.8.022-9.04.033-18.1.043-27.1.021-18.6.058-37.1.101-55.7h-39v-8c1.43-.674 2.87-1.34 4.31-2 .801-.37 1.6-.743 2.43-1.12 2.26-.875 2.26-.875 5.26-.875v-2h4v-2c4.38-3 4.38-3 7-3v-2c1.65-1.03 3.32-2.02 5-3 1.43-1 2.85-2.02 4.25-3.06.686-.507 1.37-1.01 2.08-1.54 1.79-1.32 1.79-1.32 2.67-3.4h2v-2c1.98-1.69 3.98-3.35 6-5l1-2h2v-2h2v-2h2l2-5h2l1-4h2v-3h2l.812-2.56c1.24-3.58 2.66-6.98 4.19-10.4h2l.75-2.5c1.21-3.38 2.67-6.41 4.35-9.57 1.11-2.21 1.11-2.21 1.9-5.93zM954 815h19v269h-19c-1.13-9-1.13-9-1.13-13l-.008-2.79.007-2.99-.005-3.24c-.004-3.57 0-7.13.002-10.7 0-2.56-.003-5.12-.005-7.68-.004-6.22-.003-12.4 0-18.7a23030.94 23030.94 0 0 0 0-21.77c-.003-13.7 0-27.4.005-41.1.005-11.8.004-23.5 0-35.3a66547.905 66547.905 0 0 1-.004-45.37v-2.17c.001-5.06 0-10.1-.002-15.2-.004-6.79-.001-13.6.004-20.4.002-2.5.001-5 0-7.5-.004-3.4 0-6.79.005-10.2l-.007-3.04.008-2.74v-2.38c.125-1.78.125-1.78 1.13-2.78zM117 1447v2h3v2h2l1 2 3 1v-7h12c.023 9.7.041 19.4.052 29.1.005 4.51.012 9.01.023 13.5.011 4.36.017 8.71.02 13.1.002 1.65.005 3.31.01 4.96.08 25 .08 25-3.11 34.3h-2v4h-2l-.811 1.94c-1.19 2.06-1.19 2.06-4.19 3.06v2h-2v2c-9.92 3.84-20.9 4.81-31 1l-3-1v-2l-1.94-.812c-2.06-1.19-2.06-1.19-3.06-4.19h-2v-4h-2v-5h12c.99 3.46.99 3.46 2 7h4v2h16v-2h4v-2h2c1.61-3.65 2.45-7.05 3-11h2v-12h-2v2c-2.37 2.62-2.37 2.62-5 5h-2v2c-8.96 3.05-16.2 2.57-25-1l-2-1v-2l-1.81-.75c-2.52-1.44-3.69-2.78-5.19-5.25v-3h-2c-3.01-9.44-3.16-18.7-3.12-28.6l-.012-3.29c.01-7.89.028-15.3 3.2-22.7l1.1-2.59.84-1.91h2l.375-1.81c.625-2.19.625-2.19 2.62-5.19h2v-2c8.48-4.79 17.9-6.06 27-2zm-14 7v2h-4v2h-2v2h-2c-.646 1.77-1.29 3.54-1.94 5.31l-1.09 2.99c-2.39 6.64-2.19 12.7-2.22 19.7l-.063 3.87c-.036 9 .376 17.6 5.38 25.3 1.74 2.04 1.74 2.04 3.94 1.81v2c4.09 2.73 7.2 2.6 12 2 5.21-1.38 8.18-3.69 10.9-8.31 1.95-3.94 2.7-7.33 3.06-11.7l1-1c.286-4.12.233-8.25.25-12.4l.063-3.46c.047-10.3-1.45-19.5-7.31-28.2-2.95-2.37-2.95-2.37-7-2v-2h-9zM468 986h59v2l-3.5.312c-4.51.546-8.29 2.02-12.5 3.69h-2l-.938 2.38c-1.06 2.62-1.06 2.62-2.06 4.62a61.235 61.235 0 0 0-.127 4.13l-.009 2.62.007 2.88-.006 3.03c-.004 3.32-.001 6.64.002 9.96l-.003 6.9c-.001 4.82 0 9.65.006 14.5.005 6.19.002 12.4-.004 18.6-.004 4.75-.002 9.5 0 14.2 0 2.28 0 4.57-.002 6.85-.003 3.19.001 6.38.007 9.57l-.007 2.88.009 2.63.001 2.29c.055 2.19.055 2.19 1.13 4.97h2v2h2v2c5.52-.118 11-.242 16.6-.372 1.88-.043 3.76-.085 5.63-.125 2.7-.058 5.39-.121 8.09-.186l2.55-.05c4.22.001 4.22.001 8.17-1.27 2-.04 4-.044 6 0v-2c.97-.455 1.94-.909 2.94-1.38 3.13-1.28 3.13-1.28 4.06-3.62h2v-2l4-4c.495-1.48.495-1.48 1-3h2l.312-1.62c.868-3 2.24-5.61 3.69-8.38 1.49.99 1.49.99 3 2-.454.99-.908 1.98-1.38 3-1.34 3.13-2.25 6.23-3.03 9.55-.794 3.25-1.69 6.47-2.6 9.7l-1 3.58c-1 3.17-1 3.17-3 7.17h-102v-2c.736-.134 1.47-.267 2.23-.403 1.46-.265 1.46-.265 2.96-.535l2.92-.527c2.64-.488 5.27-1 7.89-1.54v-3h2c.96-5.65 1.15-11.1 1.16-16.8l.015-2.92c.015-3.17.022-6.34.027-9.51l.017-6.64c.01-4.63.017-9.26.02-13.9.006-5.93.03-11.9.058-17.8.019-4.57.024-9.14.026-13.7.003-2.18.01-4.37.024-6.55.017-3.06.015-6.12.008-9.17l.028-2.71c-.042-6.33-.69-12.6-5.38-17.3-4.47-2.3-9.07-2.59-14-3v-2zM628 1026l3.01-.074c6.8-.027 11.7 1.19 17.7 4.45l2 1v2h2v2h2c2.99 9.37 3.15 18.6 3.21 28.4l.086 7.13c.041 3.72.078 7.44.104 11.2.027 3.61.073 7.22.122 10.8l.01 3.4.05 3.13.024 2.76.392 2.19c2.68 2.24 2.68 2.24 5 1.81 2.25-.913 3.34-2.08 5-3.81h2v-2h2v5h-2v3h-2v2h-2v2h-2v2h-3v2c-4.52 2.26-8.05 2.24-13 2l-3-1v-2h-2c-1.32-3.62-2-6.1-2-10h-3v2l-4 1v2c-5.29 4-5.29 4-9 4v2c-7.14 3.17-15.6 3.25-22.9.5-4.7-2.46-7.3-5.5-9.06-10.5-1.59-8.46-1.91-16.6 3-24h2v-2h2v-2h2v-2c4.38-3 4.38-3 7-3v-2h4v-2l3.25-1.28c1.4-.553 2.79-1.11 4.19-1.66l2.14-.842c3.47-1.18 3.47-1.18 6.42-3.22 1.67-.04 3.33-.043 5 0v-2l6-2c.055-2.23.093-4.46.125-6.69l.07-3.76c-.186-3.4-.831-5.49-2.2-8.55v-3c-2.33-1.21-4.5-2.17-7-3v-2h-13v2l-4 1v2h-2l-.147 3.14-.227 4.11-.094 2.07c-.212 3.64-.431 6.63-2.53 9.68-2.34 1.17-3.89 1.2-6.5 1.25l-2.41.078-2.09-.328c-2.3-3.45-2.27-4.87-2.25-8.94l-.016-3.15c.26-2.84.8-4.5 2.27-6.91h2v-2h2v-2c1.54-1.22 1.54-1.22 3.62-2.5l2.04-1.28c6.52-3.4 12.4-3.58 19.6-3.59zm7.06 39.9c-.817.278-1.63.557-2.48.844-.626.217-1.25.433-1.9.656v2l-2.14.309c-3.27.791-5.75 2.1-8.68 3.75-.976.548-1.95 1.1-2.96 1.66l-2.23 1.28v2h-2c-2.43 3.37-3 4.73-3 9h-2c-.457 6.4.512 10.6 4 16l2 2h3v2c4.66.838 8.37 1.02 13 0v-2l1.56-.25c3.52-1.08 6.3-2.8 9.44-4.75 1.53-3.07 1.12-6.27 1.1-9.63l-.004-2.28c-.006-2.4-.018-4.81-.031-7.21l-.014-4.89c-.01-4-.028-7.99-.049-12-2.47 0-4.29.701-6.62 1.5zM437 1449v2l1.94.812c2.06 1.19 2.06 1.19 3.06 4.19h2v4h2v5h2c3.66 14.9 2.28 30 0 45h-2l.156 2.2c-.179 3.22-1.02 4.87-2.66 7.61-.464.79-.928 1.58-1.41 2.39-.361.592-.722 1.18-1.09 1.79h-2v2h-2v2c-6.79 3.63-13.5 5.3-21.1 3.5-4.67-1.56-7.7-3.63-10.9-7.5v-2h-2v36h-12v-111h10c1 1 1 1 1.06 4.06l-.063 2.94h3l1-3h2v-2h2v-2c9.12-4.06 18.5-2.79 27 2zm-29 10c-1.97 2.85-1.97 2.85-3 6l-1.05 2.69c-1.1 3.82-1.29 7.4-1.32 11.4l-.027 2.31c-.015 1.61-.024 3.22-.028 4.83a451.37 451.37 0 0 1-.112 7.27c-.099 9.49.042 19.9 7.09 27.2 4.32 2.91 9.43 3.19 14.4 2.39 2.21-.956 2.21-.956 4-2v-2h2v-2h2c.652-1.39 1.3-2.79 1.94-4.19.36-.777.72-1.55 1.09-2.36 2.57-6.49 2.19-13.2 2.21-20.1.01-2.02.041-4.04.073-6.06.03-7.62-.514-14.2-3.31-21.3h-2v-3h-2v-2h-2v-2h-4v-2c-6.7-.598-10.9.5-16 5zM530 1445l2.05-.023c4.73.018 8.57.814 13 2.27v2l1.69.25c5.85 1.9 8.38 6.12 11.2 11.2 2.78 6.27 3.52 12.3 3.8 19l.116 2.66c.523 14.2.624 31.2-9.3 42.6-1.5 1.28-1.5 1.28-3.5 1.28v2c-10.5 4.84-21.9 5.57-33 2-1.35-.64-2.68-1.3-4-2v-2l-3-1c-1.39-1.49-1.39-1.49-2.69-3.31-.437-.594-.874-1.19-1.32-1.8-.988-1.89-.988-1.89-.988-5.89h-2c-3.34-10.6-3.35-21.9-3-33l.086-2.99c.519-9.71 3.19-18.7 9.91-26 6.31-5.57 12.5-7.35 20.9-7.25zm-4.94 9.25v2l-2.38.25c-2.77.478-2.77.478-3.94 2.81l-.688 1.94h-2c-6.58 15.8-7.43 34.6-2 51 .633 1.35 1.29 2.69 2 4h2v3h3v2h4v2h11v-2h4v-2l1.94-.688c2.33-1.17 2.33-1.17 2.81-3.94l.25-2.38h2c1.75-4.6 2.44-8.92 2.69-13.8.04-.733.078-1.47.118-2.22.236-5.38.17-10.7-.118-16.1l-.105-2.08c-.304-4.54-1.21-8.49-2.58-12.8h-2l-.25-2.38c-.478-2.77-.478-2.77-2.81-3.94l-1.94-.688v-2h-4v-2h-11zM992 1445l2.09-.023c4.36.016 7.92.674 12 2.27v2h3v2h2c2.98 3.55 4.9 6.86 5.31 11.5l-.312 2.5h2c.196 3.81.38 7.62.562 11.4l.17 3.3.146 3.13.143 2.9c-.022 2.22-.022 2.22-1.02 3.22-3.02.148-6.01.235-9.03.28l-2.75.056c-3.89.08-7.79.147-11.7.215-2.84.052-5.67.11-8.51.167l-2.69.042c-3.99-.315-3.99-.315-7.34 1.24-.233 1.68-.413 3.37-.562 5.06l-.254 2.79-.184 2.15h2l.078 2.2c.361 6.15.84 10.1 4.92 14.8l2 1v2c2.93.978 4.88 1.13 7.94 1.12l2.59.007c2.35-.126 4.28-.278 6.47-1.13.495-1.48.495-1.48 1-3h2c1.57-5.03 2.45-9.76 3-15h11v11h-2v5h-2l-1 5h-2v2h-2v2c-9.82 4.43-18.8 5.62-29.1 1.75l-1.91-.754-3-1v-2h-2c-2.3-2.56-3-3.48-3-7h-2v-4h-2c-2.03-7.79-2.31-15.4-2.26-23.4.01-2.05 0-4.09-.013-6.14-.006-7.35.412-14.3 2.27-21.4h2l.438-2.31c.562-2.69.562-2.69 1.56-5.69h2c.268-.598.536-1.2.812-1.81 1.19-2.19 2.28-3.6 4.19-5.19h2v-2c4.3-2.11 8.24-2.3 12.9-2.25zm-4.94 9.25v2l-5 1v2h-2c-2.97 4.78-3.46 8.92-3.79 14.5-.211 2.49-.211 2.49-1.21 5.49 2.87 1.44 5.34 1.11 8.54 1.1l3.95-.01 4.14-.025 4.16-.014c3.4-.012 6.81-.028 10.2-.049 1.47-2.94.849-5.37.562-8.62l-.309-3.6-.254-2.77h-2l-.438-2.38c-.44-2.59-.44-2.59-1.56-4.62h-2v-2c-3.06-1.78-5.22-2.23-8.75-2.12l-2.42.055-1.83.07zM1119 1447v2h2v2l3 1c3.3 4.95 3.13 11.1 3.13 16.8l.005 1.98c.005 2.14.002 4.28-.002 6.41l.003 4.47c.002 3.11 0 6.23-.005 9.34-.006 4-.002 8 .004 12 .003 3.07.002 6.15 0 9.22-.001 1.48 0 2.95.002 4.43.002 2.05-.001 4.11-.007 6.16l-.002 3.55c-.127 2.62-.127 2.62-1.13 3.62-1.66.098-3.33.13-5 .125l-2.75.008c-2.25-.133-2.25-.133-3.25-1.13-.113-2-.157-4-.174-6l-.041-3.89-.016-2.1c-.016-2.16-.04-4.32-.065-6.48-.07-6.14-.13-12.3-.182-18.4-.031-3.76-.073-7.51-.12-11.3-.016-1.43-.028-2.86-.036-4.29-.013-2.01-.038-4.01-.064-6.02l-.03-3.46c-.276-3.1-.856-5.3-2.27-8.06l-2-1v-2l-13-2v2h-5v2l-4 1v2h-2c-1.62 4.29-2.26 7.89-2.32 12.5l-.06 3.82-.036 4.08c-.019 1.4-.038 2.81-.059 4.21-.05 3.68-.09 7.36-.128 11-.04 3.76-.09 7.52-.14 11.3-.097 7.37-.18 14.7-.259 22.1h-12v-83h12v8l2.38-2c2.62-2 2.62-2 4.62-2v-2c9.04-5.36 19.2-5.71 29-2zM754 1447h12v70h2l1 4h3v2c1.73-.142 3.46-.289 5.19-.438l2.92-.246c2.68-.293 5.26-.743 7.89-1.32v-2c1.48-1.16 2.96-2.31 4.49-3.39 3.55-3.79 3.76-8.93 3.83-13.9l.06-3.7.035-3.95.059-4.08c.051-3.56.09-7.12.128-10.7.04-3.64.091-7.28.14-10.9.097-7.13.18-14.3.259-21.4h12v83h-12v-9c-.784.825-1.57 1.65-2.38 2.5-2.62 2.5-2.62 2.5-4.62 2.5v2c-7.26 3.88-14.4 5.29-22.5 3.43-4.81-1.5-7.78-2.87-10.7-7.13-3.82-7.51-3.35-15.3-3.24-23.5a1694.56 1694.56 0 0 1 .116-16.87c.041-4.16.06-8.33.08-12.5.042-8.15.11-16.3.194-24.4zM279 1447h12l.031 2.6c.098 8.08.2 16.2.308 24.2.055 4.15.11 8.31.158 12.5.048 4.01.1 8.01.156 12 .02 1.53.04 3.06.056 4.59.024 2.14.054 4.28.086 6.42l.047 3.69c.029 3.03.029 3.03 1.16 5.98h2v2h2v2h12v-2h4v-2l4-1v-2h2l1-6h2v-63h12v83h-12l-1-9c-.619.825-1.24 1.65-1.88 2.5-.701.825-1.4 1.65-2.12 2.5h-2v2c-7.03 3.76-14.4 5.55-22.3 3.36a78.4 78.4 0 0 1-7.71-3.36v-2h-2c-4.12-12.4-4.12-12.4-4.11-18.5v-1.98c0-2.16.008-4.32.016-6.48l.004-4.49c.004-3.94.014-7.88.025-11.8.01-4.02.015-8.04.02-12.1.01-7.89.027-15.8.048-23.7zM856 1447h13c.277 1.22.554 2.43.84 3.68.366 1.58.732 3.17 1.1 4.75l.553 2.43c.606 3.88.606 3.88 2.51 7.13.04 2.33.042 4.67 0 7h2c.627 2.48 1.25 4.96 1.88 7.44l.56 2.22c.943 3.77 1.84 7.53 2.63 11.3.728 3.4 1.86 6.46 3.15 9.68 1.4 4.12 2.18 8.4 3.04 12.7.246.878.492 1.76.746 2.66l2 1c.182-1.03.182-1.03.367-2.09 1.07-6.01 2.27-12 3.63-17.9h2v-7h2l-.125-2.56c.11-3.03.579-5.42 1.48-8.29 1.4-4.66 2.48-9.42 3.64-14.1h2l-.188-3c-.015-3.74.97-6.6 2.43-10 .985-2.44.985-2.44 1.75-6.99h12c0 4.47-.416 6.27-2.2 10.1-1.3 3.02-2.05 6.17-2.86 9.35-1.25 4.86-2.54 9.69-3.94 14.5h-2l.188 2c-.204 3.26-1.18 5.79-2.39 8.8-1.32 3.64-2.05 7.41-2.8 11.2h-2l.188 2c-.198 3.17-1.08 5.61-2.26 8.54-1.58 4.19-2.79 8.51-4.06 12.8-.867 2.66-.867 2.66-1.87 3.66-2.19.073-4.38.084-6.56.063l-3.63-.028-2.81-.035c-4.59-10.4-4.59-10.4-4-16h-2c-.268-1.13-.536-2.27-.812-3.44-.778-3.16-1.73-6.19-2.81-9.25-1.11-3.22-1.71-5.87-1.38-9.31h-2c-1.76-6.06-3.34-12.2-4.9-18.3-1.02-3.73-1.02-3.73-2.59-7.16-1.67-3.95-2.72-7.83-3.7-12l-.537-2.22c-.431-1.78-.854-3.56-1.28-5.35zM687 1447h11c.116 12.9.205 25.8.259 38.7.026 5.99.061 12 .118 18 .054 5.78.084 11.6.097 17.4.01 2.2.027 4.41.055 6.61.036 3.09.04 6.18.039 9.28l.054 2.75c-.05 6.15-1.41 10.7-5.62 15.3-5.15 3.12-10.1 3.32-16 3v-10c4.46-.99 4.46-.99 9-2l1-99zM1251 1418h10v112h-10c-1.57-1.57-1.13-3.11-1.13-5.29l-.009-2.8.007-3.1-.006-3.25c-.004-3.56-.001-7.12.002-10.7l-.003-7.39c-.001-5.17 0-10.3.006-15.5.005-6.64.002-13.3-.004-19.9-.004-5.09-.002-10.2 0-15.3 0-2.45 0-4.9-.002-7.35-.003-3.42.001-6.83.007-10.3l-.007-3.1.009-2.8.001-2.45c.126-1.84.126-1.84 1.13-2.84zM196 1447h11l1 11 1-2h2l.812-1.94c1.19-2.06 1.19-2.06 4.19-3.06v-2h3v-2h13v10l-3 .375c-5.13.73-10.1 1.99-15 3.62v2h-2v2h-2c-1.97 7.45-2.34 14.4-2.41 22.1l-.059 3.73c-.06 3.9-.106 7.8-.152 11.7-.037 2.66-.077 5.31-.117 7.97-.095 6.49-.18 13-.258 19.5h-11v-83zM1182 1447h12v83h-12v-83zM690 1418l8.5.098v14h-11v-8l-12-1v-3l2.37-.184 3.07-.254 3.06-.246c2.87-.362 3.12-1.3 6.01-1.41zM1182 1418h12v14h-12v-14z"/></svg>